<?xml version="1.0" encoding="UTF-8" standalone="no"?>
<svg
   width="224.11412"
   zoomAndPan="magnify"
   viewBox="0 0 168.08559 176.97726"
   height="235.96968"
   preserveAspectRatio="xMidYMid"
   version="1.0"
   id="svg249"
   sodipodi:docname="3.svg"
   xmlns:inkscape="http://www.inkscape.org/namespaces/inkscape"
   xmlns:sodipodi="http://sodipodi.sourceforge.net/DTD/sodipodi-0.dtd"
   xmlns="http://www.w3.org/2000/svg"
   xmlns:svg="http://www.w3.org/2000/svg">
  <sodipodi:namedview
     id="namedview249"
     pagecolor="#ffffff"
     bordercolor="#000000"
     borderopacity="0.25"
     inkscape:showpageshadow="2"
     inkscape:pageopacity="0.0"
     inkscape:pagecheckerboard="0"
     inkscape:deskcolor="#d1d1d1" />
  <defs
     id="defs124">
    <clipPath
       id="134222de1d">
      <path
         d="M 504,133 H 617 V 238 H 504 Z m 0,0"
         clip-rule="nonzero"
         id="path1" />
    </clipPath>
    <clipPath
       id="153c63765c">
      <path
         d="M 554.36719,40.851562 695.26953,141.66016 592.71875,285 451.81641,184.19531 Z m 0,0"
         clip-rule="nonzero"
         id="path2" />
    </clipPath>
    <clipPath
       id="f0bc1773fc">
      <path
         d="M 554.36719,40.851562 695.26953,141.66016 592.71875,285 451.81641,184.19531 Z m 0,0"
         clip-rule="nonzero"
         id="path3" />
    </clipPath>
    <clipPath
       id="ae5e2fc8c8">
      <path
         d="M 554.36719,40.851562 695.26953,141.66016 592.71875,285 451.81641,184.19531 Z m 0,0"
         clip-rule="nonzero"
         id="path4" />
    </clipPath>
    <clipPath
       id="2d6b611982">
      <path
         d="M 477,103 H 646 V 264 H 477 Z m 0,0"
         clip-rule="nonzero"
         id="path5" />
    </clipPath>
    <clipPath
       id="fedf8a3766">
      <path
         d="M 554.36719,40.851562 695.26953,141.66016 592.71875,285 451.81641,184.19531 Z m 0,0"
         clip-rule="nonzero"
         id="path6" />
    </clipPath>
    <clipPath
       id="6b569bea94">
      <path
         d="M 554.36719,40.851562 695.26953,141.66016 592.71875,285 451.81641,184.19531 Z m 0,0"
         clip-rule="nonzero"
         id="path7" />
    </clipPath>
    <clipPath
       id="c48a4ebda2">
      <path
         d="M 554.36719,40.851562 695.26953,141.66016 592.71875,285 451.81641,184.19531 Z m 0,0"
         clip-rule="nonzero"
         id="path8" />
    </clipPath>
    <clipPath
       id="6ebc08a704">
      <path
         d="M 482,108 H 642 V 259 H 482 Z m 0,0"
         clip-rule="nonzero"
         id="path9" />
    </clipPath>
    <clipPath
       id="cd565c4b78">
      <path
         d="M 554.36719,40.851562 695.26953,141.66016 592.71875,285 451.81641,184.19531 Z m 0,0"
         clip-rule="nonzero"
         id="path10" />
    </clipPath>
    <clipPath
       id="66e3a32bca">
      <path
         d="M 554.36719,40.851562 695.26953,141.66016 592.71875,285 451.81641,184.19531 Z m 0,0"
         clip-rule="nonzero"
         id="path11" />
    </clipPath>
    <clipPath
       id="b5704eb269">
      <path
         d="M 554.36719,40.851562 695.26953,141.66016 592.71875,285 451.81641,184.19531 Z m 0,0"
         clip-rule="nonzero"
         id="path12" />
    </clipPath>
    <clipPath
       id="e42adc5893">
      <path
         d="M 504,133 H 617 V 238 H 504 Z m 0,0"
         clip-rule="nonzero"
         id="path13" />
    </clipPath>
    <clipPath
       id="3b024be37d">
      <path
         d="M 554.36719,40.851562 695.26953,141.66016 592.71875,285 451.81641,184.19531 Z m 0,0"
         clip-rule="nonzero"
         id="path14" />
    </clipPath>
    <clipPath
       id="653ae98a6e">
      <path
         d="M 554.36719,40.851562 695.26953,141.66016 592.71875,285 451.81641,184.19531 Z m 0,0"
         clip-rule="nonzero"
         id="path15" />
    </clipPath>
    <clipPath
       id="005060da26">
      <path
         d="M 554.36719,40.851562 695.26953,141.66016 592.71875,285 451.81641,184.19531 Z m 0,0"
         clip-rule="nonzero"
         id="path16" />
    </clipPath>
    <clipPath
       id="96f299876b">
      <path
         d="m 535,165 h 107 v 94 H 535 Z m 0,0"
         clip-rule="nonzero"
         id="path17" />
    </clipPath>
    <clipPath
       id="0c706c1cb9">
      <path
         d="M 554.36719,40.851562 695.26953,141.66016 592.71875,285 451.81641,184.19531 Z m 0,0"
         clip-rule="nonzero"
         id="path18" />
    </clipPath>
    <clipPath
       id="eed4eda22b">
      <path
         d="M 554.36719,40.851562 695.26953,141.66016 592.71875,285 451.81641,184.19531 Z m 0,0"
         clip-rule="nonzero"
         id="path19" />
    </clipPath>
    <clipPath
       id="2a237fe31d">
      <path
         d="M 554.36719,40.851562 695.26953,141.66016 592.71875,285 451.81641,184.19531 Z m 0,0"
         clip-rule="nonzero"
         id="path20" />
    </clipPath>
    <clipPath
       id="cb9e1c0012">
      <path
         d="m 572,175 h 13 v 9 h -13 z m 0,0"
         clip-rule="nonzero"
         id="path21" />
    </clipPath>
    <clipPath
       id="4cdb49ff69">
      <path
         d="M 554.36719,40.851562 695.26953,141.66016 592.71875,285 451.81641,184.19531 Z m 0,0"
         clip-rule="nonzero"
         id="path22" />
    </clipPath>
    <clipPath
       id="6a1d894fab">
      <path
         d="M 554.36719,40.851562 695.26953,141.66016 592.71875,285 451.81641,184.19531 Z m 0,0"
         clip-rule="nonzero"
         id="path23" />
    </clipPath>
    <clipPath
       id="3fb571ce5b">
      <path
         d="M 554.36719,40.851562 695.26953,141.66016 592.71875,285 451.81641,184.19531 Z m 0,0"
         clip-rule="nonzero"
         id="path24" />
    </clipPath>
    <clipPath
       id="fe2602cc27">
      <path
         d="m 566,187 h 12 v 10 h -12 z m 0,0"
         clip-rule="nonzero"
         id="path25" />
    </clipPath>
    <clipPath
       id="0c64275afe">
      <path
         d="M 554.36719,40.851562 695.26953,141.66016 592.71875,285 451.81641,184.19531 Z m 0,0"
         clip-rule="nonzero"
         id="path26" />
    </clipPath>
    <clipPath
       id="b677536e31">
      <path
         d="M 554.36719,40.851562 695.26953,141.66016 592.71875,285 451.81641,184.19531 Z m 0,0"
         clip-rule="nonzero"
         id="path27" />
    </clipPath>
    <clipPath
       id="00115c6dcf">
      <path
         d="M 554.36719,40.851562 695.26953,141.66016 592.71875,285 451.81641,184.19531 Z m 0,0"
         clip-rule="nonzero"
         id="path28" />
    </clipPath>
    <clipPath
       id="c78ffbb091">
      <path
         d="m 558,194 h 10 v 13 h -10 z m 0,0"
         clip-rule="nonzero"
         id="path29" />
    </clipPath>
    <clipPath
       id="02c9c68677">
      <path
         d="M 554.36719,40.851562 695.26953,141.66016 592.71875,285 451.81641,184.19531 Z m 0,0"
         clip-rule="nonzero"
         id="path30" />
    </clipPath>
    <clipPath
       id="af4563ee79">
      <path
         d="M 554.36719,40.851562 695.26953,141.66016 592.71875,285 451.81641,184.19531 Z m 0,0"
         clip-rule="nonzero"
         id="path31" />
    </clipPath>
    <clipPath
       id="c40c24332a">
      <path
         d="M 554.36719,40.851562 695.26953,141.66016 592.71875,285 451.81641,184.19531 Z m 0,0"
         clip-rule="nonzero"
         id="path32" />
    </clipPath>
    <clipPath
       id="ebcd5b13ea">
      <path
         d="m 555,159 h 10 v 12 h -10 z m 0,0"
         clip-rule="nonzero"
         id="path33" />
    </clipPath>
    <clipPath
       id="5d403af99c">
      <path
         d="M 554.36719,40.851562 695.26953,141.66016 592.71875,285 451.81641,184.19531 Z m 0,0"
         clip-rule="nonzero"
         id="path34" />
    </clipPath>
    <clipPath
       id="2aa95331af">
      <path
         d="M 554.36719,40.851562 695.26953,141.66016 592.71875,285 451.81641,184.19531 Z m 0,0"
         clip-rule="nonzero"
         id="path35" />
    </clipPath>
    <clipPath
       id="18dfc28703">
      <path
         d="M 554.36719,40.851562 695.26953,141.66016 592.71875,285 451.81641,184.19531 Z m 0,0"
         clip-rule="nonzero"
         id="path36" />
    </clipPath>
    <clipPath
       id="d3c8ddf4fe">
      <path
         d="m 544,171 h 12 v 10 h -12 z m 0,0"
         clip-rule="nonzero"
         id="path37" />
    </clipPath>
    <clipPath
       id="166daa681c">
      <path
         d="M 554.36719,40.851562 695.26953,141.66016 592.71875,285 451.81641,184.19531 Z m 0,0"
         clip-rule="nonzero"
         id="path38" />
    </clipPath>
    <clipPath
       id="7d4e256e6b">
      <path
         d="M 554.36719,40.851562 695.26953,141.66016 592.71875,285 451.81641,184.19531 Z m 0,0"
         clip-rule="nonzero"
         id="path39" />
    </clipPath>
    <clipPath
       id="b73e4dd83c">
      <path
         d="M 554.36719,40.851562 695.26953,141.66016 592.71875,285 451.81641,184.19531 Z m 0,0"
         clip-rule="nonzero"
         id="path40" />
    </clipPath>
    <clipPath
       id="6d35db5fcf">
      <path
         d="m 539,183 h 13 v 9 h -13 z m 0,0"
         clip-rule="nonzero"
         id="path41" />
    </clipPath>
    <clipPath
       id="7caa035b4b">
      <path
         d="M 554.36719,40.851562 695.26953,141.66016 592.71875,285 451.81641,184.19531 Z m 0,0"
         clip-rule="nonzero"
         id="path42" />
    </clipPath>
    <clipPath
       id="7a0b44c1c4">
      <path
         d="M 554.36719,40.851562 695.26953,141.66016 592.71875,285 451.81641,184.19531 Z m 0,0"
         clip-rule="nonzero"
         id="path43" />
    </clipPath>
    <clipPath
       id="5f81ccdde2">
      <path
         d="M 554.36719,40.851562 695.26953,141.66016 592.71875,285 451.81641,184.19531 Z m 0,0"
         clip-rule="nonzero"
         id="path44" />
    </clipPath>
    <clipPath
       id="9802d638c3">
      <path
         d="M 504,133 H 617 V 238 H 504 Z m 0,0"
         clip-rule="nonzero"
         id="path45" />
    </clipPath>
    <clipPath
       id="c957fc35ea">
      <path
         d="M 554.36719,40.851562 695.26953,141.66016 592.71875,285 451.81641,184.19531 Z m 0,0"
         clip-rule="nonzero"
         id="path46" />
    </clipPath>
    <clipPath
       id="562a5f3e8d">
      <path
         d="M 554.36719,40.851562 695.26953,141.66016 592.71875,285 451.81641,184.19531 Z m 0,0"
         clip-rule="nonzero"
         id="path47" />
    </clipPath>
    <clipPath
       id="328fce875a">
      <path
         d="M 554.36719,40.851562 695.26953,141.66016 592.71875,285 451.81641,184.19531 Z m 0,0"
         clip-rule="nonzero"
         id="path48" />
    </clipPath>
    <clipPath
       id="a2e34a41bd">
      <path
         d="m 592,183 h 13 v 8 h -13 z m 0,0"
         clip-rule="nonzero"
         id="path49" />
    </clipPath>
    <clipPath
       id="548d312c0d">
      <path
         d="M 554.36719,40.851562 695.26953,141.66016 592.71875,285 451.81641,184.19531 Z m 0,0"
         clip-rule="nonzero"
         id="path50" />
    </clipPath>
    <clipPath
       id="4c58287e50">
      <path
         d="M 554.36719,40.851562 695.26953,141.66016 592.71875,285 451.81641,184.19531 Z m 0,0"
         clip-rule="nonzero"
         id="path51" />
    </clipPath>
    <clipPath
       id="219df85b17">
      <path
         d="M 554.36719,40.851562 695.26953,141.66016 592.71875,285 451.81641,184.19531 Z m 0,0"
         clip-rule="nonzero"
         id="path52" />
    </clipPath>
    <clipPath
       id="4038eb7cff">
      <path
         d="m 593,195 h 13 v 9 h -13 z m 0,0"
         clip-rule="nonzero"
         id="path53" />
    </clipPath>
    <clipPath
       id="d6a4cd3494">
      <path
         d="M 554.36719,40.851562 695.26953,141.66016 592.71875,285 451.81641,184.19531 Z m 0,0"
         clip-rule="nonzero"
         id="path54" />
    </clipPath>
    <clipPath
       id="d63cdde7b0">
      <path
         d="M 554.36719,40.851562 695.26953,141.66016 592.71875,285 451.81641,184.19531 Z m 0,0"
         clip-rule="nonzero"
         id="path55" />
    </clipPath>
    <clipPath
       id="cc5e6981ee">
      <path
         d="M 554.36719,40.851562 695.26953,141.66016 592.71875,285 451.81641,184.19531 Z m 0,0"
         clip-rule="nonzero"
         id="path56" />
    </clipPath>
    <clipPath
       id="feaa0ed0fb">
      <path
         d="m 578,213 h 11 v 10 h -11 z m 0,0"
         clip-rule="nonzero"
         id="path57" />
    </clipPath>
    <clipPath
       id="204d9f9b50">
      <path
         d="M 554.36719,40.851562 695.26953,141.66016 592.71875,285 451.81641,184.19531 Z m 0,0"
         clip-rule="nonzero"
         id="path58" />
    </clipPath>
    <clipPath
       id="b771849f82">
      <path
         d="M 554.36719,40.851562 695.26953,141.66016 592.71875,285 451.81641,184.19531 Z m 0,0"
         clip-rule="nonzero"
         id="path59" />
    </clipPath>
    <clipPath
       id="811a3eca9b">
      <path
         d="M 554.36719,40.851562 695.26953,141.66016 592.71875,285 451.81641,184.19531 Z m 0,0"
         clip-rule="nonzero"
         id="path60" />
    </clipPath>
    <clipPath
       id="0393d69edb">
      <path
         d="m 588,206 h 12 v 10 h -12 z m 0,0"
         clip-rule="nonzero"
         id="path61" />
    </clipPath>
    <clipPath
       id="36608f23d7">
      <path
         d="M 554.36719,40.851562 695.26953,141.66016 592.71875,285 451.81641,184.19531 Z m 0,0"
         clip-rule="nonzero"
         id="path62" />
    </clipPath>
    <clipPath
       id="6702dddc20">
      <path
         d="M 554.36719,40.851562 695.26953,141.66016 592.71875,285 451.81641,184.19531 Z m 0,0"
         clip-rule="nonzero"
         id="path63" />
    </clipPath>
    <clipPath
       id="d772bec7d3">
      <path
         d="M 554.36719,40.851562 695.26953,141.66016 592.71875,285 451.81641,184.19531 Z m 0,0"
         clip-rule="nonzero"
         id="path64" />
    </clipPath>
    <clipPath
       id="662d7775aa">
      <path
         d="m 566,213 h 9 v 12 h -9 z m 0,0"
         clip-rule="nonzero"
         id="path65" />
    </clipPath>
    <clipPath
       id="5b770eaa0e">
      <path
         d="M 554.36719,40.851562 695.26953,141.66016 592.71875,285 451.81641,184.19531 Z m 0,0"
         clip-rule="nonzero"
         id="path66" />
    </clipPath>
    <clipPath
       id="26a4eee75a">
      <path
         d="M 554.36719,40.851562 695.26953,141.66016 592.71875,285 451.81641,184.19531 Z m 0,0"
         clip-rule="nonzero"
         id="path67" />
    </clipPath>
    <clipPath
       id="dac1a20760">
      <path
         d="M 554.36719,40.851562 695.26953,141.66016 592.71875,285 451.81641,184.19531 Z m 0,0"
         clip-rule="nonzero"
         id="path68" />
    </clipPath>
    <clipPath
       id="45de12c4a9">
      <path
         d="m 542,144 h 11 v 12 h -11 z m 0,0"
         clip-rule="nonzero"
         id="path69" />
    </clipPath>
    <clipPath
       id="6f227af642">
      <path
         d="M 554.36719,40.851562 695.26953,141.66016 592.71875,285 451.81641,184.19531 Z m 0,0"
         clip-rule="nonzero"
         id="path70" />
    </clipPath>
    <clipPath
       id="c22e65996c">
      <path
         d="M 554.36719,40.851562 695.26953,141.66016 592.71875,285 451.81641,184.19531 Z m 0,0"
         clip-rule="nonzero"
         id="path71" />
    </clipPath>
    <clipPath
       id="826d5f9628">
      <path
         d="M 554.36719,40.851562 695.26953,141.66016 592.71875,285 451.81641,184.19531 Z m 0,0"
         clip-rule="nonzero"
         id="path72" />
    </clipPath>
    <clipPath
       id="d07a1c86cf">
      <path
         d="m 530,147 h 10 v 12 h -10 z m 0,0"
         clip-rule="nonzero"
         id="path73" />
    </clipPath>
    <clipPath
       id="3d071637b1">
      <path
         d="M 554.36719,40.851562 695.26953,141.66016 592.71875,285 451.81641,184.19531 Z m 0,0"
         clip-rule="nonzero"
         id="path74" />
    </clipPath>
    <clipPath
       id="35c6ceb42c">
      <path
         d="M 554.36719,40.851562 695.26953,141.66016 592.71875,285 451.81641,184.19531 Z m 0,0"
         clip-rule="nonzero"
         id="path75" />
    </clipPath>
    <clipPath
       id="f98c73de44">
      <path
         d="M 554.36719,40.851562 695.26953,141.66016 592.71875,285 451.81641,184.19531 Z m 0,0"
         clip-rule="nonzero"
         id="path76" />
    </clipPath>
    <clipPath
       id="8c83b59ad7">
      <path
         d="m 516,169 h 13 v 10 h -13 z m 0,0"
         clip-rule="nonzero"
         id="path77" />
    </clipPath>
    <clipPath
       id="9d410bca21">
      <path
         d="M 554.36719,40.851562 695.26953,141.66016 592.71875,285 451.81641,184.19531 Z m 0,0"
         clip-rule="nonzero"
         id="path78" />
    </clipPath>
    <clipPath
       id="f071e85308">
      <path
         d="M 554.36719,40.851562 695.26953,141.66016 592.71875,285 451.81641,184.19531 Z m 0,0"
         clip-rule="nonzero"
         id="path79" />
    </clipPath>
    <clipPath
       id="be853f5d7b">
      <path
         d="M 554.36719,40.851562 695.26953,141.66016 592.71875,285 451.81641,184.19531 Z m 0,0"
         clip-rule="nonzero"
         id="path80" />
    </clipPath>
    <clipPath
       id="9cc3a90ce6">
      <path
         d="m 519,156 h 12 v 11 h -12 z m 0,0"
         clip-rule="nonzero"
         id="path81" />
    </clipPath>
    <clipPath
       id="0f440bc63a">
      <path
         d="M 554.36719,40.851562 695.26953,141.66016 592.71875,285 451.81641,184.19531 Z m 0,0"
         clip-rule="nonzero"
         id="path82" />
    </clipPath>
    <clipPath
       id="4267e565ce">
      <path
         d="M 554.36719,40.851562 695.26953,141.66016 592.71875,285 451.81641,184.19531 Z m 0,0"
         clip-rule="nonzero"
         id="path83" />
    </clipPath>
    <clipPath
       id="2b8b4c55ca">
      <path
         d="M 554.36719,40.851562 695.26953,141.66016 592.71875,285 451.81641,184.19531 Z m 0,0"
         clip-rule="nonzero"
         id="path84" />
    </clipPath>
    <clipPath
       id="ed87d4a5f1">
      <path
         d="m 522,185 h 13 v 9 h -13 z m 0,0"
         clip-rule="nonzero"
         id="path85" />
    </clipPath>
    <clipPath
       id="25941229a2">
      <path
         d="M 554.36719,40.851562 695.26953,141.66016 592.71875,285 451.81641,184.19531 Z m 0,0"
         clip-rule="nonzero"
         id="path86" />
    </clipPath>
    <clipPath
       id="75896a5d08">
      <path
         d="M 554.36719,40.851562 695.26953,141.66016 592.71875,285 451.81641,184.19531 Z m 0,0"
         clip-rule="nonzero"
         id="path87" />
    </clipPath>
    <clipPath
       id="f56eb8f741">
      <path
         d="M 554.36719,40.851562 695.26953,141.66016 592.71875,285 451.81641,184.19531 Z m 0,0"
         clip-rule="nonzero"
         id="path88" />
    </clipPath>
    <clipPath
       id="0da6ddfb2d">
      <path
         d="m 575,86 h 45 v 69 h -45 z m 0,0"
         clip-rule="nonzero"
         id="path89" />
    </clipPath>
    <clipPath
       id="8caf027579">
      <path
         d="M 554.36719,40.851562 695.26953,141.66016 592.71875,285 451.81641,184.19531 Z m 0,0"
         clip-rule="nonzero"
         id="path90" />
    </clipPath>
    <clipPath
       id="e63aaec270">
      <path
         d="M 554.36719,40.851562 695.26953,141.66016 592.71875,285 451.81641,184.19531 Z m 0,0"
         clip-rule="nonzero"
         id="path91" />
    </clipPath>
    <clipPath
       id="4995cafdc0">
      <path
         d="M 554.36719,40.851562 695.26953,141.66016 592.71875,285 451.81641,184.19531 Z m 0,0"
         clip-rule="nonzero"
         id="path92" />
    </clipPath>
    <clipPath
       id="0c32152a57">
      <path
         d="m 603,86 h 16 v 8 h -16 z m 0,0"
         clip-rule="nonzero"
         id="path93" />
    </clipPath>
    <clipPath
       id="e4f98e69cc">
      <path
         d="M 554.36719,40.851562 695.26953,141.66016 592.71875,285 451.81641,184.19531 Z m 0,0"
         clip-rule="nonzero"
         id="path94" />
    </clipPath>
    <clipPath
       id="4454274aac">
      <path
         d="M 554.36719,40.851562 695.26953,141.66016 592.71875,285 451.81641,184.19531 Z m 0,0"
         clip-rule="nonzero"
         id="path95" />
    </clipPath>
    <clipPath
       id="d5b7fdbc15">
      <path
         d="M 554.36719,40.851562 695.26953,141.66016 592.71875,285 451.81641,184.19531 Z m 0,0"
         clip-rule="nonzero"
         id="path96" />
    </clipPath>
    <clipPath
       id="8facbcefcb">
      <path
         d="m 605,88 h 11 v 5 h -11 z m 0,0"
         clip-rule="nonzero"
         id="path97" />
    </clipPath>
    <clipPath
       id="e93d377489">
      <path
         d="M 554.36719,40.851562 695.26953,141.66016 592.71875,285 451.81641,184.19531 Z m 0,0"
         clip-rule="nonzero"
         id="path98" />
    </clipPath>
    <clipPath
       id="08b70834fe">
      <path
         d="M 554.36719,40.851562 695.26953,141.66016 592.71875,285 451.81641,184.19531 Z m 0,0"
         clip-rule="nonzero"
         id="path99" />
    </clipPath>
    <clipPath
       id="f4b4457875">
      <path
         d="M 554.36719,40.851562 695.26953,141.66016 592.71875,285 451.81641,184.19531 Z m 0,0"
         clip-rule="nonzero"
         id="path100" />
    </clipPath>
    <clipPath
       id="83ba9537dd">
      <path
         d="m 605,89 h 15 v 62 h -15 z m 0,0"
         clip-rule="nonzero"
         id="path101" />
    </clipPath>
    <clipPath
       id="16f0bd4634">
      <path
         d="M 554.36719,40.851562 695.26953,141.66016 592.71875,285 451.81641,184.19531 Z m 0,0"
         clip-rule="nonzero"
         id="path102" />
    </clipPath>
    <clipPath
       id="528dc05018">
      <path
         d="M 554.36719,40.851562 695.26953,141.66016 592.71875,285 451.81641,184.19531 Z m 0,0"
         clip-rule="nonzero"
         id="path103" />
    </clipPath>
    <clipPath
       id="91145b6f0f">
      <path
         d="M 554.36719,40.851562 695.26953,141.66016 592.71875,285 451.81641,184.19531 Z m 0,0"
         clip-rule="nonzero"
         id="path104" />
    </clipPath>
    <clipPath
       id="5ebbd4013d">
      <path
         d="m 586,92 h 24 v 34 h -24 z m 0,0"
         clip-rule="nonzero"
         id="path105" />
    </clipPath>
    <clipPath
       id="2c2e8bbeb8">
      <path
         d="M 554.36719,40.851562 695.26953,141.66016 592.71875,285 451.81641,184.19531 Z m 0,0"
         clip-rule="nonzero"
         id="path106" />
    </clipPath>
    <clipPath
       id="e2a493006a">
      <path
         d="M 554.36719,40.851562 695.26953,141.66016 592.71875,285 451.81641,184.19531 Z m 0,0"
         clip-rule="nonzero"
         id="path107" />
    </clipPath>
    <clipPath
       id="e7e4378250">
      <path
         d="M 554.36719,40.851562 695.26953,141.66016 592.71875,285 451.81641,184.19531 Z m 0,0"
         clip-rule="nonzero"
         id="path108" />
    </clipPath>
    <clipPath
       id="474c348e17">
      <path
         d="m 575,123 h 43 v 32 h -43 z m 0,0"
         clip-rule="nonzero"
         id="path109" />
    </clipPath>
    <clipPath
       id="7c497a40fb">
      <path
         d="M 554.36719,40.851562 695.26953,141.66016 592.71875,285 451.81641,184.19531 Z m 0,0"
         clip-rule="nonzero"
         id="path110" />
    </clipPath>
    <clipPath
       id="d9d662f393">
      <path
         d="M 554.36719,40.851562 695.26953,141.66016 592.71875,285 451.81641,184.19531 Z m 0,0"
         clip-rule="nonzero"
         id="path111" />
    </clipPath>
    <clipPath
       id="02a992b054">
      <path
         d="M 554.36719,40.851562 695.26953,141.66016 592.71875,285 451.81641,184.19531 Z m 0,0"
         clip-rule="nonzero"
         id="path112" />
    </clipPath>
    <clipPath
       id="81aabd7340">
      <path
         d="m 482,108 h 87 v 89 h -87 z m 0,0"
         clip-rule="nonzero"
         id="path113" />
    </clipPath>
    <clipPath
       id="ef0f43a9fe">
      <path
         d="M 554.36719,40.851562 695.26953,141.66016 592.71875,285 451.81641,184.19531 Z m 0,0"
         clip-rule="nonzero"
         id="path114" />
    </clipPath>
    <clipPath
       id="4d56665309">
      <path
         d="M 554.36719,40.851562 695.26953,141.66016 592.71875,285 451.81641,184.19531 Z m 0,0"
         clip-rule="nonzero"
         id="path115" />
    </clipPath>
    <clipPath
       id="606e65d50c">
      <path
         d="M 554.36719,40.851562 695.26953,141.66016 592.71875,285 451.81641,184.19531 Z m 0,0"
         clip-rule="nonzero"
         id="path116" />
    </clipPath>
    <clipPath
       id="052ddc35c0">
      <path
         d="m 557,109 h 11 v 10 h -11 z m 0,0"
         clip-rule="nonzero"
         id="path117" />
    </clipPath>
    <clipPath
       id="d88fb1b29f">
      <path
         d="M 554.36719,40.851562 695.26953,141.66016 592.71875,285 451.81641,184.19531 Z m 0,0"
         clip-rule="nonzero"
         id="path118" />
    </clipPath>
    <clipPath
       id="a80320f41f">
      <path
         d="M 554.36719,40.851562 695.26953,141.66016 592.71875,285 451.81641,184.19531 Z m 0,0"
         clip-rule="nonzero"
         id="path119" />
    </clipPath>
    <clipPath
       id="53d56ec43d">
      <path
         d="M 554.36719,40.851562 695.26953,141.66016 592.71875,285 451.81641,184.19531 Z m 0,0"
         clip-rule="nonzero"
         id="path120" />
    </clipPath>
    <clipPath
       id="1282e52909">
      <path
         d="m 621,154 h 13 v 11 h -13 z m 0,0"
         clip-rule="nonzero"
         id="path121" />
    </clipPath>
    <clipPath
       id="dd286d41c7">
      <path
         d="M 554.36719,40.851562 695.26953,141.66016 592.71875,285 451.81641,184.19531 Z m 0,0"
         clip-rule="nonzero"
         id="path122" />
    </clipPath>
    <clipPath
       id="d7033e77e0">
      <path
         d="M 554.36719,40.851562 695.26953,141.66016 592.71875,285 451.81641,184.19531 Z m 0,0"
         clip-rule="nonzero"
         id="path123" />
    </clipPath>
    <clipPath
       id="48974d3bcb">
      <path
         d="M 554.36719,40.851562 695.26953,141.66016 592.71875,285 451.81641,184.19531 Z m 0,0"
         clip-rule="nonzero"
         id="path124" />
    </clipPath>
  </defs>
  <g
     clip-path="url(#134222de1d)"
     id="g129"
     transform="translate(-477.44256,-86.030698)">
    <g
       clip-path="url(#153c63765c)"
       id="g128">
      <g
         clip-path="url(#f0bc1773fc)"
         id="g127">
        <g
           clip-path="url(#ae5e2fc8c8)"
           id="g126">
          <path
             fill="#f99500"
             d="m 528.33203,136.22656 c -8.01562,3.50781 -17.8125,17.08985 -21.22266,25.51563 -4.01953,9.93359 -4.1914,24.10547 1.91797,31.65234 2.80078,3.17969 11.23047,9.57813 17,10.10156 9.36719,0.85157 12.98047,-3.88672 19.69532,0.91797 7.04296,5.03906 5.70312,12.99219 8.16406,19.01563 2.19531,5.36328 11.13672,11.20312 15.05078,12.82812 9.11328,3.34375 22.47266,-1.39453 30.57422,-8.40625 6.875,-5.94922 16.5664,-19.60156 17.29687,-28.32422 1.30469,-15.48828 -3.98437,-23.57031 -16.96875,-29.25781 -7.2539,-3.17187 -14.08984,-7.23047 -20.51562,-11.82812 -6.42578,-4.59766 -12.6211,-9.62891 -17.82422,-15.60157 -8.9375,-10.25781 -23.86719,-10.55468 -33.16797,-6.61328 z m 0,0"
             fill-opacity="1"
             fill-rule="nonzero"
             id="path125" />
          <path
             fill="#f99500"
             d="m 528.33203,136.22656 c -8.01562,3.50781 -17.8125,17.08985 -21.22266,25.51563 -4.01953,9.93359 -4.1914,24.10547 1.91797,31.65234 2.80078,3.17969 11.23047,9.57813 17,10.10156 9.36719,0.85157 12.98047,-3.88672 19.69532,0.91797 7.04296,5.03906 5.70312,12.99219 8.16406,19.01563 2.19531,5.36328 11.13672,11.20312 15.05078,12.82812 9.11328,3.34375 22.47266,-1.39453 30.57422,-8.40625 6.875,-5.94922 16.5664,-19.60156 17.29687,-28.32422 1.30469,-15.48828 -3.98437,-23.57031 -16.96875,-29.25781 -7.2539,-3.17187 -14.08984,-7.23047 -20.51562,-11.82812 -6.42578,-4.59766 -12.6211,-9.62891 -17.82422,-15.60157 -8.9375,-10.25781 -23.86719,-10.55468 -33.16797,-6.61328 z m 0,0"
             fill-opacity="1"
             fill-rule="nonzero"
             id="path126" />
        </g>
      </g>
    </g>
  </g>
  <g
     clip-path="url(#2d6b611982)"
     id="g133"
     transform="translate(-477.44256,-86.030698)">
    <g
       clip-path="url(#fedf8a3766)"
       id="g132">
      <g
         clip-path="url(#6b569bea94)"
         id="g131">
        <g
           clip-path="url(#c48a4ebda2)"
           id="g130">
          <path
             fill="#ed7600"
             d="m 597.26562,136.6875 c -8.92187,-6.37891 -12.65625,-15.37109 -21.66015,-22.05078 -5.02344,-3.59375 -11.33203,-5.24219 -18.42578,-4.80859 -0.66407,-0.60938 -1.36328,-1.17579 -2.08985,-1.69922 -15.96484,-11.417972 -43.875,0.25 -62.34765,26.0664 -18.46875,25.81641 -20.50391,56.00391 -4.53907,67.42578 0.73047,0.52344 1.49219,1 2.28125,1.42969 1.88282,6.85156 5.57032,12.16797 10.5,15.88281 8.4336,6.36328 16.6836,6.03516 24.71875,11.97266 8.03907,5.93359 12.77735,14.73437 21.66407,21.21484 4.98828,3.63672 11.33203,5.23828 18.42578,4.8086 0.66406,0.60937 1.35937,1.17578 2.08984,1.69531 15.96094,11.42187 43.875,-0.25 62.34375,-26.06641 18.47266,-25.8164 20.50391,-56.0039 4.54297,-67.42187 -0.73047,-0.52344 -1.49219,-1 -2.28125,-1.42969 -1.88281,-6.85547 -4.69922,-12.58203 -10.5,-15.88672 -9.51953,-5.42578 -15.80469,-4.75 -24.72266,-11.13281 z m 0,0"
             fill-opacity="1"
             fill-rule="nonzero"
             id="path129" />
        </g>
      </g>
    </g>
  </g>
  <g
     clip-path="url(#6ebc08a704)"
     id="g137"
     transform="translate(-477.44256,-86.030698)">
    <g
       clip-path="url(#cd565c4b78)"
       id="g136">
      <g
         clip-path="url(#66e3a32bca)"
         id="g135">
        <g
           clip-path="url(#b5704eb269)"
           id="g134">
          <path
             fill="#ffae00"
             d="m 562.28906,121.08203 c -1.6875,-2.34375 -6.54297,-7.8164 -12.57812,-10.63672 -4.63282,-2.16406 -10.1211,-2.34765 -15.125,-1.3164 -10.15625,2.20312 -19.14844,7.95703 -26.67969,14.97656 -9.28516,8.69922 -16.64844,19.36328 -21.30078,31.22265 -2.87891,7.42579 -4.66406,15.31641 -4.35938,23.32813 0.28907,5.94141 1.875,12.15234 5.96875,16.64844 1.39063,1.63281 3.16016,2.71484 4.9375,3.92968 1.79688,1.20704 2.07032,3.46094 2.82813,5.3125 1.36719,3.83985 3.95312,7.29297 6.98047,9.86719 2.27343,1.97266 5.11328,3.51172 7.97656,4.625 6.41016,2.57031 13.35547,4.37891 18.73437,8.9375 7.46094,5.95703 12.52735,14.29688 20.14454,20.06641 3.90234,2.86328 8.75781,4.29297 13.58593,4.17969 2.01953,-0.0508 4.23438,0.0156 5.83203,1.42968 1.54688,1.23438 3.14454,2.45703 5.04688,3.09375 6.41797,2.54297 13.65625,1.5586 19.96875,-0.80078 9.23828,-3.41015 17.28516,-9.47656 24.05078,-16.47656 8.31641,-8.67969 14.9375,-19.07422 18.96484,-30.48438 2.9336,-8.53125 5.05079,-17.04687 3.17969,-25.99609 -0.95312,-4.68359 -3.45312,-9.18359 -7.42578,-13.80859 -2.77344,-3.23438 -7.77734,-7.47266 -16.67969,-9.69532 -25.42968,-6.36328 -42.38281,-22.19921 -54.05078,-38.40234 z m 0,0"
             fill-opacity="1"
             fill-rule="nonzero"
             id="path133" />
        </g>
      </g>
    </g>
  </g>
  <g
     clip-path="url(#e42adc5893)"
     id="g141"
     transform="translate(-477.44256,-86.030698)">
    <g
       clip-path="url(#3b024be37d)"
       id="g140">
      <g
         clip-path="url(#653ae98a6e)"
         id="g139">
        <g
           clip-path="url(#005060da26)"
           id="g138">
          <path
             fill="#ed7600"
             d="m 528.33203,136.22656 c -8.01562,3.50781 -17.8125,17.08985 -21.22266,25.51563 -4.01953,9.93359 -4.1914,24.10547 1.91797,31.65234 2.80078,3.17969 11.23047,9.57813 17,10.10156 9.36719,0.85157 12.98047,-3.88672 19.69532,0.91797 7.04296,5.03906 5.70312,12.99219 8.16406,19.01563 2.19531,5.36328 11.13672,11.20312 15.05078,12.82812 9.11328,3.34375 22.47266,-1.39453 30.57422,-8.40625 6.875,-5.94922 16.5664,-19.60156 17.29687,-28.32422 1.30469,-15.48828 -3.98437,-23.57031 -16.96875,-29.25781 -7.2539,-3.17187 -14.08984,-7.23047 -20.51562,-11.82812 -6.42578,-4.59766 -12.6211,-9.62891 -17.82422,-15.60157 -8.9375,-10.25781 -23.86719,-10.55468 -33.16797,-6.61328 z m 0,0"
             fill-opacity="1"
             fill-rule="nonzero"
             id="path137" />
        </g>
      </g>
    </g>
  </g>
  <g
     clip-path="url(#96f299876b)"
     id="g145"
     transform="translate(-477.44256,-86.030698)">
    <g
       clip-path="url(#0c706c1cb9)"
       id="g144">
      <g
         clip-path="url(#eed4eda22b)"
         id="g143">
        <g
           clip-path="url(#2a237fe31d)"
           id="g142">
          <path
             fill="#fa9a00"
             d="m 629.49609,165.94141 c 8.42578,21.9375 4.65625,43.34375 -7.40234,60.19921 -11.96875,16.73047 -28.64453,27.94141 -51.19141,23.72657 -15.53906,-2.91016 -29.26562,-11.92578 -35.45703,-16.47657 0.0547,0.0547 0.11719,0.12891 0.17188,0.1875 1.2539,1.33204 2.47265,2.70313 3.6875,4.07422 0.26562,0.30078 0.55078,0.61328 0.80468,0.90235 0.0547,0.0586 0.11329,0.125 0.16797,0.18359 0.23438,0.26563 0.47657,0.53125 0.71094,0.79297 0.004,0.004 0.004,0.004 0.008,0.008 2.73047,3.04688 5.53516,6.01563 8.81641,8.5 3.90625,2.86719 8.76172,4.30078 13.58984,4.1836 2.01953,-0.0508 4.23438,0.0156 5.83203,1.42968 1.54688,1.23438 3.14454,2.45313 5.04688,3.09375 6.41797,2.54297 13.65625,1.5586 19.96875,-0.80078 9.23828,-3.41015 17.28516,-9.47656 24.05078,-16.47656 0.51953,-0.54297 1.03516,-1.08984 1.53906,-1.64844 1.01563,-1.10937 2,-2.24609 2.95313,-3.41015 0.48047,-0.58204 0.94922,-1.16797 1.41406,-1.76172 0.92578,-1.1875 1.82031,-2.39844 2.6875,-3.62891 1.6875,-2.41406 3.25781,-4.91016 4.69141,-7.48437 0.0312,-0.0625 0.0664,-0.1211 0.10156,-0.17969 0.043,-0.0742 0.082,-0.15235 0.125,-0.22656 0.68359,-1.2461 1.33984,-2.50782 1.96094,-3.78907 0.33203,-0.67968 0.64843,-1.36328 0.96093,-2.05078 0.6211,-1.375 1.20313,-2.76562 1.75,-4.17969 0.26954,-0.70312 0.53125,-1.41406 0.78516,-2.125 0.36328,-1.0664 0.71875,-2.13671 1.05469,-3.20312 0.83594,-2.66406 1.55469,-5.33594 2.05469,-8.02344 0.004,0 0.004,0 0.004,0 0.10156,-0.53906 0.19141,-1.07422 0.27344,-1.61719 0.16406,-1.07812 0.29297,-2.16015 0.37891,-3.24609 0.043,-0.53906 0.0742,-1.08594 0.0898,-1.62891 0.0312,-0.82031 0.0352,-1.63671 0.008,-2.46093 -0.0156,-0.55078 -0.0469,-1.10157 -0.0898,-1.64844 0,-0.004 0,-0.004 0,-0.004 -0.0234,-0.27734 -0.0508,-0.55078 -0.0781,-0.82812 -0.0586,-0.55078 -0.1289,-1.10547 -0.21484,-1.66406 -0.043,-0.27735 -0.0898,-0.55469 -0.14063,-0.83204 -0.0508,-0.28125 -0.10546,-0.55859 -0.16406,-0.83984 -0.41797,-2.04687 -1.1289,-4.0625 -2.13281,-6.06641 -0.14453,-0.28906 -0.29297,-0.57421 -0.44922,-0.85937 -0.30859,-0.57031 -0.64453,-1.14063 -1,-1.71484 -0.53516,-0.85938 -1.125,-1.71485 -1.76562,-2.57813 -0.42579,-0.57422 -0.87891,-1.14844 -1.34766,-1.72266 -0.23828,-0.28906 -0.48047,-0.57812 -0.73047,-0.86718 -0.16016,-0.1875 -0.33203,-0.38282 -0.51172,-0.57813 -0.17187,-0.1875 -0.35156,-0.3789 -0.53906,-0.57422 -0.38281,-0.39453 -0.79688,-0.79687 -1.24219,-1.20312 -0.125,-0.082 -1.15625,-0.82813 -1.23047,-0.88281 z m 0,0"
             fill-opacity="1"
             fill-rule="nonzero"
             id="path141" />
        </g>
      </g>
    </g>
  </g>
  <g
     clip-path="url(#cb9e1c0012)"
     id="g149"
     transform="translate(-477.44256,-86.030698)">
    <g
       clip-path="url(#4cdb49ff69)"
       id="g148">
      <g
         clip-path="url(#6a1d894fab)"
         id="g147">
        <g
           clip-path="url(#3fb571ce5b)"
           id="g146">
          <path
             fill="#ffcd66"
             d="m 581.85937,175.83984 c 2.01563,0.55469 3.20313,2.64063 2.64844,4.65625 -0.55469,2.01953 -2.64062,3.20313 -4.66015,2.64844 -2.01954,-0.55469 -7.58985,-3.84766 -7.03516,-5.86719 0.55469,-2.01562 7.02734,-1.99218 9.04687,-1.4375 z m 0,0"
             fill-opacity="1"
             fill-rule="nonzero"
             id="path145" />
        </g>
      </g>
    </g>
  </g>
  <g
     clip-path="url(#fe2602cc27)"
     id="g153"
     transform="translate(-477.44256,-86.030698)">
    <g
       clip-path="url(#0c64275afe)"
       id="g152">
      <g
         clip-path="url(#b677536e31)"
         id="g151">
        <g
           clip-path="url(#00115c6dcf)"
           id="g150">
          <path
             fill="#ffcd66"
             d="m 575.8125,189.58594 c 1.74609,1.15234 2.22656,3.5 1.07422,5.25 -1.15235,1.74218 -3.50391,2.22265 -5.25,1.07031 -1.7461,-1.15234 -6.02344,-6.01172 -4.8711,-7.75781 1.15625,-1.7461 7.30079,0.28125 9.04688,1.4375 z m 0,0"
             fill-opacity="1"
             fill-rule="nonzero"
             id="path149" />
        </g>
      </g>
    </g>
  </g>
  <g
     clip-path="url(#c78ffbb091)"
     id="g157"
     transform="translate(-477.44256,-86.030698)">
    <g
       clip-path="url(#02c9c68677)"
       id="g156">
      <g
         clip-path="url(#af4563ee79)"
         id="g155">
        <g
           clip-path="url(#c40c24332a)"
           id="g154">
          <path
             fill="#ffcd66"
             d="m 566.73437,200.39844 c 1.04688,1.8164 0.42579,4.13281 -1.38671,5.17968 -1.8125,1.04297 -4.12891,0.42188 -5.17579,-1.39062 -1.04687,-1.8125 -2.69921,-8.07031 -0.88671,-9.11328 1.8125,-1.04688 6.40625,3.51562 7.44921,5.32422 z m 0,0"
             fill-opacity="1"
             fill-rule="nonzero"
             id="path153" />
        </g>
      </g>
    </g>
  </g>
  <g
     clip-path="url(#ebcd5b13ea)"
     id="g161"
     transform="translate(-477.44256,-86.030698)">
    <g
       clip-path="url(#5d403af99c)"
       id="g160">
      <g
         clip-path="url(#2aa95331af)"
         id="g159">
        <g
           clip-path="url(#18dfc28703)"
           id="g158">
          <path
             fill="#ffcd66"
             d="m 562.03906,161.65625 c -1.17969,-1.73047 -3.53515,-2.17969 -5.26562,-1 -1.73047,1.17578 -2.17969,3.53125 -1.00391,5.26172 1.17969,1.73047 6.09375,5.9414 7.82422,4.76562 1.73047,-1.17578 -0.37891,-7.29297 -1.55469,-9.02734 z m 0,0"
             fill-opacity="1"
             fill-rule="nonzero"
             id="path157" />
        </g>
      </g>
    </g>
  </g>
  <g
     clip-path="url(#d3c8ddf4fe)"
     id="g165"
     transform="translate(-477.44256,-86.030698)">
    <g
       clip-path="url(#166daa681c)"
       id="g164">
      <g
         clip-path="url(#7d4e256e6b)"
         id="g163">
        <g
           clip-path="url(#b73e4dd83c)"
           id="g162">
          <path
             fill="#ffcd66"
             d="m 550.98047,171.81641 c -1.65625,-1.27735 -4.03516,-0.97657 -5.31641,0.67968 -1.27734,1.65625 -0.97656,4.03516 0.67969,5.31641 1.65625,1.28125 7.63672,3.75781 8.91406,2.10156 1.28125,-1.65234 -2.62109,-6.8164 -4.27734,-8.09765 z m 0,0"
             fill-opacity="1"
             fill-rule="nonzero"
             id="path161" />
        </g>
      </g>
    </g>
  </g>
  <g
     clip-path="url(#6d35db5fcf)"
     id="g169"
     transform="translate(-477.44256,-86.030698)">
    <g
       clip-path="url(#7caa035b4b)"
       id="g168">
      <g
         clip-path="url(#7a0b44c1c4)"
         id="g167">
        <g
           clip-path="url(#5f81ccdde2)"
           id="g166">
          <path
             fill="#ffcd66"
             d="m 543.57422,183.86719 c -2.06641,-0.33203 -4.01172,1.07031 -4.34375,3.14062 -0.33203,2.0625 1.07031,4.00781 3.13672,4.34375 2.0664,0.33203 8.5039,-0.34765 8.83593,-2.41406 0.33204,-2.06641 -5.5625,-4.73438 -7.6289,-5.07031 z m 0,0"
             fill-opacity="1"
             fill-rule="nonzero"
             id="path165" />
        </g>
      </g>
    </g>
  </g>
  <g
     clip-path="url(#9802d638c3)"
     id="g173"
     transform="translate(-477.44256,-86.030698)">
    <g
       clip-path="url(#c957fc35ea)"
       id="g172">
      <g
         clip-path="url(#562a5f3e8d)"
         id="g171">
        <g
           clip-path="url(#328fce875a)"
           id="g170">
          <path
             fill="#f99500"
             d="m 607.26953,174.39844 c -2.11328,-1.52344 -4.58594,-2.88282 -7.42578,-4.125 -0.58984,-0.25782 -1.17578,-0.52344 -1.75781,-0.79297 l -18.1211,8.5039 c -0.66406,0.3125 -0.41406,1.3086 0.31641,1.27344 l 30.76953,-1.53515 c -1.10547,-1.19532 -2.35937,-2.29688 -3.78125,-3.32422 z m -50.35156,-35.65625 c -0.76953,-0.53125 -1.5625,-1.01172 -2.3711,-1.44922 l 6.04297,27.22656 c 0.16407,0.74609 1.23438,0.73438 1.37891,-0.0156 l 3.39844,-17.5625 c -1.33985,-1.32032 -2.63282,-2.6836 -3.86719,-4.10157 -1.39453,-1.60156 -2.9375,-2.96093 -4.58203,-4.09765 z m -3.57422,-2.0586 c -3.89844,-1.85937 -8.14453,-2.71093 -12.25781,-2.78906 l 14.30859,29.84766 c 0.27734,0.57812 1.14844,0.32812 1.07422,-0.3086 z m 58.41016,41.83985 -29.32032,4.32812 c -0.60156,0.0859 -0.61328,0.95703 -0.008,1.0586 l 34.17969,5.78906 c -0.6875,-4.46875 -2.28516,-8.11719 -4.85156,-11.17578 z m -15.875,-10.09375 c -3.26954,-1.60547 -6.44922,-3.38672 -9.54688,-5.3086 l -10.11328,10.1875 c -0.60156,0.60547 0.0195,1.60938 0.82812,1.33985 z m -28.69141,-19.7461 -1.15625,17.67578 c -0.0586,0.875 1.09375,1.24219 1.55469,0.49219 l 7.23047,-11.7539 c -2.63282,-2.02735 -5.19532,-4.15235 -7.62891,-6.41407 z m 16.96875,13.05469 c -1.63672,-1.0625 -3.24609,-2.16406 -4.83203,-3.29687 -0.82031,-0.58594 -1.63281,-1.17969 -2.44141,-1.78125 l -5.47265,12.64843 c -0.36719,0.83985 0.62109,1.61719 1.35156,1.0625 z m -43.99609,-27.85156 c -3.73829,0.0312 -7.33594,0.6914 -10.4336,1.80078 l 20.94141,28.29687 c 0.32422,0.4336 1,0.0625 0.80859,-0.4414 z m 76.55859,56.60937 -33.08203,-2.95312 c -0.51953,-0.0469 -0.6836,0.68359 -0.19141,0.86328 l 33.23828,12.16406 c 0.0508,-0.35547 0.0977,-0.70312 0.12891,-1.04297 0.27734,-3.33984 0.25,-6.33203 -0.0937,-9.03125 z m -87.80469,-54.5039 c -0.19531,0.0781 -0.39062,0.15234 -0.58203,0.23437 -2.19141,0.96094 -4.51562,2.67578 -6.80859,4.83203 l 25.07031,24.15235 c 0.34375,0.33203 0.875,-0.10547 0.61719,-0.50782 z m 87.61328,65.42968 -32.90625,-9.58203 c -0.44922,-0.13281 -0.71093,0.48828 -0.30468,0.71875 l 30.13281,17.01953 c 1.46094,-2.84765 2.55859,-5.64843 3.07812,-8.15625 z m -95.68359,-59.70703 c -1.86719,1.82813 -3.69922,3.9336 -5.40625,6.14453 l 27.91016,19.51172 c 0.36328,0.25391 0.78906,-0.23047 0.48437,-0.55859 z M 613,210.42969 582.4375,195.5625 c -0.39844,-0.19141 -0.73828,0.34766 -0.39453,0.62109 l 26.67578,21.13282 c 1.57031,-2.22266 3.03516,-4.5625 4.28125,-6.88672 z m -98.16797,-61.77735 c -1.67187,2.22657 -3.20703,4.53125 -4.51953,6.75782 l 30.76172,14.96093 c 0.39844,0.19532 0.73828,-0.34765 0.39062,-0.62109 z m 93.30859,69.47266 -27.97656,-19.55859 c -0.36328,-0.25782 -0.78906,0.22656 -0.48828,0.55859 l 23.25391,25.38672 c 1.73437,-1.875 3.51953,-4.05469 5.21093,-6.38672 z m -67.94921,-44.75 -30.35547,-17.14453 c -1.11719,1.96094 -2.04688,3.83984 -2.72657,5.51172 -0.33203,0.82031 -0.63281,1.67187 -0.91015,2.54297 l 33.6914,9.8125 c 0.44532,0.1289 0.70704,-0.49219 0.30079,-0.72266 z m 36.10546,27.85547 18.98047,29.77734 c 1.51953,-0.98047 2.94532,-2.03906 4.23828,-3.15625 0.89063,-0.76953 1.82813,-1.67187 2.78516,-2.67187 l -25.38281,-24.45313 c -0.34375,-0.33594 -0.87891,0.10156 -0.6211,0.50391 z m -36.23046,-23.70313 -34.10157,-12.48047 c -0.95312,3.21094 -1.53906,6.69922 -1.68359,10.16797 l 35.58984,3.17578 c 0.51953,0.0469 0.6836,-0.68359 0.19532,-0.86328 z m 31.96484,24.86328 12.77734,33.48438 c 3.42969,-1.04688 6.80078,-2.59375 9.83203,-4.46875 l -21.80078,-29.45313 c -0.32031,-0.4375 -1,-0.0664 -0.80859,0.4375 z m -30.94922,-20.36718 -36.82031,-6.23828 c -0.125,4.40625 0.45312,8.7539 1.87109,12.45703 l 34.94141,-5.15625 c 0.60547,-0.0898 0.61328,-0.96094 0.008,-1.0625 z m 25.96094,20.47656 4.01562,34.37109 c 4.03907,0.90235 8.69141,0.47657 13.27344,-0.85547 l -16.21875,-33.82421 c -0.27734,-0.57422 -1.14453,-0.32422 -1.07031,0.30859 z m -23.8125,-15.82031 -36.99219,1.84375 c 0.71875,1.80859 1.64453,3.45703 2.78906,4.87109 1.56641,1.77734 4.88672,4.55859 8.52344,6.75781 l 25.99609,-12.20312 c 0.66016,-0.3125 0.41407,-1.30469 -0.3164,-1.26953 z m 18.3125,14.7539 -5.01953,25.9336 c 3.61718,4.02343 9.45312,7.66406 12.41406,8.89062 0.59766,0.21875 1.21094,0.39844 1.83594,0.55078 l -7.85157,-35.39453 c -0.16796,-0.74609 -1.23437,-0.73047 -1.3789,0.0195 z m -15.08203,-10.14843 -28.16797,9.30078 c 2.64844,1.52343 5.40625,2.69922 7.73437,2.91015 5.08985,0.46485 8.47657,-0.71484 11.58985,-1.125 l 9.67578,-9.74218 c 0.60156,-0.60547 -0.0195,-1.60938 -0.83203,-1.34375 z m 9.46093,7.79296 -6.10937,9.9336 c 2.50781,4.57422 2.27734,10.01562 4.07422,14.41797 0.40625,0.99218 1.04297,2 1.83594,2.99218 l 1.7539,-26.84375 c 0.0586,-0.875 -1.09375,-1.24218 -1.55469,-0.5 z m -5.17578,-3.51562 -9.10937,6.90625 c 1.27344,0.29297 2.60547,0.88672 4.08594,1.94531 0.83984,0.60156 1.55859,1.2461 2.17968,1.92188 l 4.19922,-9.71094 c 0.36328,-0.83984 -0.625,-1.61719 -1.35547,-1.0625 z m 0,0"
             fill-opacity="1"
             fill-rule="nonzero"
             id="path169" />
        </g>
      </g>
    </g>
  </g>
  <g
     clip-path="url(#a2e34a41bd)"
     id="g177"
     transform="translate(-477.44256,-86.030698)">
    <g
       clip-path="url(#548d312c0d)"
       id="g176">
      <g
         clip-path="url(#4c58287e50)"
         id="g175">
        <g
           clip-path="url(#219df85b17)"
           id="g174">
          <path
             fill="#ffcd66"
             d="m 601.75391,183.54687 c 2.01562,0.5586 3.20312,2.64063 2.64843,4.66016 -0.55468,2.01953 -2.64062,3.20313 -4.65625,2.64844 -2.01953,-0.55469 -7.59375,-3.84766 -7.03906,-5.86719 0.55469,-2.01562 7.02734,-1.99609 9.04688,-1.44141 z m 0,0"
             fill-opacity="1"
             fill-rule="nonzero"
             id="path173" />
        </g>
      </g>
    </g>
  </g>
  <g
     clip-path="url(#4038eb7cff)"
     id="g181"
     transform="translate(-477.44256,-86.030698)">
    <g
       clip-path="url(#d6a4cd3494)"
       id="g180">
      <g
         clip-path="url(#d63cdde7b0)"
         id="g179">
        <g
           clip-path="url(#cc5e6981ee)"
           id="g178">
          <path
             fill="#ffcd66"
             d="m 602.95312,196.16016 c 2.03907,0.47656 3.3086,2.51171 2.83594,4.55078 -0.47656,2.03906 -2.51172,3.30859 -4.55078,2.83203 -2.03906,-0.47266 -7.73828,-3.53906 -7.26562,-5.57813 0.47656,-2.03906 6.9414,-2.27734 8.98046,-1.80468 z m 0,0"
             fill-opacity="1"
             fill-rule="nonzero"
             id="path177" />
        </g>
      </g>
    </g>
  </g>
  <g
     clip-path="url(#feaa0ed0fb)"
     id="g185"
     transform="translate(-477.44256,-86.030698)">
    <g
       clip-path="url(#204d9f9b50)"
       id="g184">
      <g
         clip-path="url(#b771849f82)"
         id="g183">
        <g
           clip-path="url(#811a3eca9b)"
           id="g182">
          <path
             fill="#ffcd66"
             d="m 587.48047,216.39062 c 1.53125,1.42969 1.60937,3.82813 0.17969,5.35547 -1.42579,1.53125 -3.82422,1.60938 -5.35547,0.17969 -1.52735,-1.42969 -4.92969,-6.93359 -3.50391,-8.46484 1.42969,-1.52735 7.15234,1.5 8.67969,2.92968 z m 0,0"
             fill-opacity="1"
             fill-rule="nonzero"
             id="path181" />
        </g>
      </g>
    </g>
  </g>
  <g
     clip-path="url(#0393d69edb)"
     id="g189"
     transform="translate(-477.44256,-86.030698)">
    <g
       clip-path="url(#36608f23d7)"
       id="g188">
      <g
         clip-path="url(#6702dddc20)"
         id="g187">
        <g
           clip-path="url(#d772bec7d3)"
           id="g186">
          <path
             fill="#ffcd66"
             d="m 597.33203,208.55859 c 1.75,1.15235 2.23047,3.50391 1.07422,5.25 -1.15234,1.7461 -3.50391,2.22657 -5.25,1.07032 -1.74609,-1.15235 -6.02344,-6.01172 -4.86719,-7.75782 1.15235,-1.74609 7.29688,0.28516 9.04297,1.4375 z m 0,0"
             fill-opacity="1"
             fill-rule="nonzero"
             id="path185" />
        </g>
      </g>
    </g>
  </g>
  <g
     clip-path="url(#662d7775aa)"
     id="g193"
     transform="translate(-477.44256,-86.030698)">
    <g
       clip-path="url(#5b770eaa0e)"
       id="g192">
      <g
         clip-path="url(#26a4eee75a)"
         id="g191">
        <g
           clip-path="url(#dac1a20760)"
           id="g190">
          <path
             fill="#ffcd66"
             d="m 574.51172,219.85547 c 0.6875,1.97656 -0.35938,4.13281 -2.33594,4.82031 -1.97656,0.68359 -4.13672,-0.35937 -4.82422,-2.33594 -0.6875,-1.98047 -1.13281,-8.43359 0.84766,-9.12109 1.97656,-0.68359 5.625,4.66016 6.3125,6.63672 z m 0,0"
             fill-opacity="1"
             fill-rule="nonzero"
             id="path189" />
        </g>
      </g>
    </g>
  </g>
  <g
     clip-path="url(#45de12c4a9)"
     id="g197"
     transform="translate(-477.44256,-86.030698)">
    <g
       clip-path="url(#6f227af642)"
       id="g196">
      <g
         clip-path="url(#c22e65996c)"
         id="g195">
        <g
           clip-path="url(#826d5f9628)"
           id="g194">
          <path
             fill="#ffcd66"
             d="m 549.82031,146.39453 c -1.17578,-1.73047 -3.53515,-2.18359 -5.26562,-1.00391 -1.73047,1.17579 -2.17969,3.53125 -1,5.26172 1.17578,1.73438 6.08984,5.94141 7.82031,4.76563 1.73047,-1.17578 -0.37891,-7.29297 -1.55469,-9.02344 z m 0,0"
             fill-opacity="1"
             fill-rule="nonzero"
             id="path193" />
        </g>
      </g>
    </g>
  </g>
  <g
     clip-path="url(#d07a1c86cf)"
     id="g201"
     transform="translate(-477.44256,-86.030698)">
    <g
       clip-path="url(#3d071637b1)"
       id="g200">
      <g
         clip-path="url(#35c6ceb42c)"
         id="g199">
        <g
           clip-path="url(#f98c73de44)"
           id="g198">
          <path
             fill="#ffcd66"
             d="m 537.39844,149.26172 c -1.10547,-1.77344 -3.44532,-2.32031 -5.21875,-1.21094 -1.77735,1.10547 -2.32032,3.44141 -1.21485,5.21875 1.10938,1.77734 5.85157,6.17969 7.62891,5.07422 1.77344,-1.10547 -0.0898,-7.30469 -1.19531,-9.08203 z m 0,0"
             fill-opacity="1"
             fill-rule="nonzero"
             id="path197" />
        </g>
      </g>
    </g>
  </g>
  <g
     clip-path="url(#8c83b59ad7)"
     id="g205"
     transform="translate(-477.44256,-86.030698)">
    <g
       clip-path="url(#9d410bca21)"
       id="g204">
      <g
         clip-path="url(#f071e85308)"
         id="g203">
        <g
           clip-path="url(#be853f5d7b)"
           id="g202">
          <path
             fill="#ffcd66"
             d="m 522.53125,169.92187 c -1.84766,-0.98437 -4.14063,-0.28515 -5.125,1.5586 -0.98828,1.84765 -0.28906,4.14453 1.55859,5.1289 1.84766,0.98438 8.15625,2.42969 9.14063,0.58204 0.98437,-1.84766 -3.72656,-6.28125 -5.57422,-7.26954 z m 0,0"
             fill-opacity="1"
             fill-rule="nonzero"
             id="path201" />
        </g>
      </g>
    </g>
  </g>
  <g
     clip-path="url(#9cc3a90ce6)"
     id="g209"
     transform="translate(-477.44256,-86.030698)">
    <g
       clip-path="url(#0f440bc63a)"
       id="g208">
      <g
         clip-path="url(#4267e565ce)"
         id="g207">
        <g
           clip-path="url(#2b8b4c55ca)"
           id="g206">
          <path
             fill="#ffcd66"
             d="m 526.07422,157.57812 c -1.65625,-1.28125 -4.03516,-0.97656 -5.31641,0.67579 -1.27734,1.65625 -0.97265,4.03515 0.6836,5.3164 1.65234,1.28125 7.63281,3.76172 8.91406,2.10547 1.28125,-1.65625 -2.625,-6.81641 -4.28125,-8.09766 z m 0,0"
             fill-opacity="1"
             fill-rule="nonzero"
             id="path205" />
        </g>
      </g>
    </g>
  </g>
  <g
     clip-path="url(#ed87d4a5f1)"
     id="g213"
     transform="translate(-477.44256,-86.030698)">
    <g
       clip-path="url(#25941229a2)"
       id="g212">
      <g
         clip-path="url(#75896a5d08)"
         id="g211">
        <g
           clip-path="url(#f56eb8f741)"
           id="g210">
          <path
             fill="#ffcd66"
             d="m 526.60156,185.57422 c -2.09375,-0.0117 -3.80078,1.67578 -3.80859,3.76953 -0.0117,2.09375 1.67578,3.79687 3.76953,3.8125 2.09375,0.008 8.34375,-1.65234 8.35547,-3.74609 0.0117,-2.09375 -6.22656,-3.82422 -8.31641,-3.83594 z m 0,0"
             fill-opacity="1"
             fill-rule="nonzero"
             id="path209" />
        </g>
      </g>
    </g>
  </g>
  <g
     clip-path="url(#0da6ddfb2d)"
     id="g217"
     transform="translate(-477.44256,-86.030698)">
    <g
       clip-path="url(#8caf027579)"
       id="g216">
      <g
         clip-path="url(#e63aaec270)"
         id="g215">
        <g
           clip-path="url(#4995cafdc0)"
           id="g214">
          <path
             fill="#708928"
             d="m 579.82812,123.64063 c 8.16016,3.64843 18.26563,3.59765 23.35938,-8.57032 4.28906,-10.24609 1.53516,-18.769529 -0.43359,-22.871091 -0.72266,-1.511719 -0.17579,-2.96875 1.44921,-3.371094 l 10.88282,-2.707031 c 1.625,-0.40625 3.23047,0.59375 3.45703,2.257812 0.35156,2.609375 1.0625,8.871094 0.26172,14.757814 -1.15625,8.46484 -5.81641,16.66016 -8.71875,25.74609 -3.05078,9.78906 0.33593,16.3711 6.34765,21.88672 1.72266,1.33203 0.76563,3.64453 -0.88281,3.37109 -11.11328,-1.85546 -34.13281,-7.99218 -39.87109,-27.33984 -0.71094,-2.45703 0.9414,-4.60937 4.14843,-3.16015 z m 0,0"
             fill-opacity="1"
             fill-rule="nonzero"
             id="path213" />
        </g>
      </g>
    </g>
  </g>
  <g
     clip-path="url(#0c32152a57)"
     id="g221"
     transform="translate(-477.44256,-86.030698)">
    <g
       clip-path="url(#e4f98e69cc)"
       id="g220">
      <g
         clip-path="url(#4454274aac)"
         id="g219">
        <g
           clip-path="url(#d5b7fdbc15)"
           id="g218">
          <path
             fill="#607424"
             d="m 617.69531,87.90625 c -1.16015,-1.808594 -3.63281,-0.921875 -7.10547,0.08594 -4.3789,1.273437 -7.07031,0.886718 -7.375,2.980468 -0.30859,2.125 4.88672,3.523438 8.78516,2.484375 3.73047,-0.996093 7.13281,-3.316406 5.69531,-5.550781 z m 0,0"
             fill-opacity="1"
             fill-rule="nonzero"
             id="path217" />
        </g>
      </g>
    </g>
  </g>
  <g
     clip-path="url(#8facbcefcb)"
     id="g225"
     transform="translate(-477.44256,-86.030698)">
    <g
       clip-path="url(#e93d377489)"
       id="g224">
      <g
         clip-path="url(#08b70834fe)"
         id="g223">
        <g
           clip-path="url(#f4b4457875)"
           id="g222">
          <path
             fill="#516121"
             d="m 615.1875,88.199219 c -1.8125,-0.40625 -3.50781,0.644531 -5.25,0.960937 -1.4375,0.367188 -3.01172,0.484375 -4.32813,1.148438 -0.53515,0.566406 0.004,1.351562 0.66407,1.476562 2.8125,1.292969 6.26953,0.617188 8.69922,-1.183594 0.66015,-0.460937 1.35156,-1.472656 0.60156,-2.171874 -0.12891,-0.07813 -0.22266,-0.230469 -0.38672,-0.230469 z m 0,0"
             fill-opacity="1"
             fill-rule="nonzero"
             id="path221" />
        </g>
      </g>
    </g>
  </g>
  <g
     clip-path="url(#83ba9537dd)"
     id="g229"
     transform="translate(-477.44256,-86.030698)">
    <g
       clip-path="url(#16f0bd4634)"
       id="g228">
      <g
         clip-path="url(#528dc05018)"
         id="g227">
        <g
           clip-path="url(#91145b6f0f)"
           id="g226">
          <path
             fill="#637a24"
             d="m 618.6875,89.503906 c 0,0.0078 -0.14063,3.175782 -4.3125,4.375 -3.84375,1.113282 1.98828,6.160154 -1.82422,18.132814 -3.19141,10.03125 -15.91406,25.86328 3.59375,38.50781 0.0195,0.0117 0.0391,0.0234 0.0586,0.0312 -5.86718,-5.46484 -9.1289,-12.00781 -6.11718,-21.66797 2.90234,-9.08593 7.5625,-17.28125 8.71875,-25.74609 0.70312,-5.160158 0.24218,-10.60547 -0.11719,-13.632814 z m 0,0"
             fill-opacity="1"
             fill-rule="nonzero"
             id="path225" />
        </g>
      </g>
    </g>
  </g>
  <g
     clip-path="url(#5ebbd4013d)"
     id="g233"
     transform="translate(-477.44256,-86.030698)">
    <g
       clip-path="url(#2c2e8bbeb8)"
       id="g232">
      <g
         clip-path="url(#e2a493006a)"
         id="g231">
        <g
           clip-path="url(#e7e4378250)"
           id="g230">
          <path
             fill="#87a42d"
             d="m 608.19141,94.910156 c -0.6875,-0.238281 -1.38282,-0.214844 -2.73829,-0.6875 -1.96875,-0.679687 -2.41796,-1.417968 -2.41796,-1.417968 l -0.004,0.0039 c 1.93359,4.292968 4.25,12.488282 0.15625,22.261712 -3.71484,8.875 -10.09375,11.30078 -16.44141,10.55078 23.36328,3.17969 22.60938,-27.472648 22.37891,-29.27343 -0.0664,-0.507812 -0.29688,-1.214844 -0.93359,-1.4375 z m 0,0"
             fill-opacity="1"
             fill-rule="nonzero"
             id="path229" />
        </g>
      </g>
    </g>
  </g>
  <g
     clip-path="url(#474c348e17)"
     id="g237"
     transform="translate(-477.44256,-86.030698)">
    <g
       clip-path="url(#7c497a40fb)"
       id="g236">
      <g
         clip-path="url(#d9d662f393)"
         id="g235">
        <g
           clip-path="url(#02a992b054)"
           id="g234">
          <path
             fill="#637a24"
             d="m 586.74219,125.61719 c -0.92188,-0.082 -1.82032,-0.26953 -2.70703,-0.50781 -0.14063,-0.0352 -0.27735,-0.0664 -0.41797,-0.10547 -0.90625,-0.25 -1.80078,-0.55078 -2.67969,-0.90235 -0.78125,-0.28515 -1.55469,-0.57812 -2.33203,-0.85547 -0.008,-0.004 -0.0156,-0.004 -0.0234,-0.008 -0.39453,-0.0703 -0.75781,-0.0859 -1.08203,-0.0391 -0.92578,0.19531 -1.67969,0.96875 -1.92578,1.89062 -0.082,0.41797 -0.0703,0.88282 0.0234,1.36329 0.13671,0.51171 0.28906,1.01562 0.45703,1.51562 0.0547,0.16406 0.10937,0.32422 0.16797,0.48437 0.0195,0.0547 0.0391,0.10547 0.0586,0.16016 0.50781,1.37891 1.10547,2.68359 1.78516,3.92578 0.0273,0.0547 0.0547,0.10938 0.0859,0.16406 2.02344,3.61719 4.81641,6.79297 8.03907,9.44922 0.0976,0.0781 0.1914,0.15625 0.28906,0.23438 0.043,0.0352 0.0859,0.0703 0.1289,0.10547 1.58204,1.2539 3.25782,2.38281 4.98047,3.40234 0.35547,0.20703 0.71485,0.41406 1.07422,0.61328 2.87891,1.59766 5.89063,2.9336 8.98438,4.05078 1.53906,0.55078 3.05078,1.03516 4.51953,1.45703 3.1914,0.91407 6.4414,1.61719 9.70703,2.14063 0.50781,-0.0586 0.86719,-0.27344 1.10156,-0.57813 0.41797,-0.54296 0.41797,-1.36718 0.10938,-2.05468 -0.14844,-0.26953 -0.35938,-0.52735 -0.65235,-0.75782 -0.11328,-0.10546 -0.22265,-0.21093 -0.33203,-0.3164 -0.0117,-0.004 -0.0195,-0.0117 -0.0273,-0.0156 -0.008,-0.0117 -0.0195,-0.0234 -0.0273,-0.0352 -0.26953,-0.25391 -0.53906,-0.50782 -0.79687,-0.76563 -1.19141,-0.77344 -2.84375,-0.64453 -4.23828,-0.875 -6.4336,-0.80859 -12.56641,-3.36719 -18.02344,-6.8164 -4.11328,-2.75391 -7.69922,-6.35938 -10.38281,-10.52344 -1.01953,-1.57031 -1.33203,-4.14063 0.42578,-5.08984 0.94531,-0.59375 2.59375,-0.73047 3.71094,-0.71094 z m 0,0"
             fill-opacity="1"
             fill-rule="nonzero"
             id="path233" />
        </g>
      </g>
    </g>
  </g>
  <g
     clip-path="url(#81aabd7340)"
     id="g241"
     transform="translate(-477.44256,-86.030698)">
    <g
       clip-path="url(#ef0f43a9fe)"
       id="g240">
      <g
         clip-path="url(#4d56665309)"
         id="g239">
        <g
           clip-path="url(#606e65d50c)"
           id="g238">
          <path
             fill="#ffc414"
             d="m 553.98437,112.96875 c -1.32812,-0.94531 -2.76562,-1.81641 -4.27343,-2.52344 -4.63282,-2.16406 -10.1211,-2.34765 -15.125,-1.3164 -10.15625,2.20312 -19.14844,7.95703 -26.67969,14.97656 -9.28516,8.69922 -16.64844,19.36328 -21.30078,31.22265 -2.87891,7.42579 -4.66406,15.31641 -4.35938,23.32813 0.28907,5.94141 1.875,12.15234 5.96875,16.64844 0.30078,0.35156 0.6211,0.67578 0.94922,0.98047 -14.32422,-44.28516 30.28516,-77.41797 48.78906,-79.08203 17.4336,-1.56641 30.19141,11.39453 30.19141,11.39453 -2.08984,-2.47266 -4.03516,-4.99219 -5.85547,-7.51563 -1.26562,-1.75781 -4.3125,-5.27344 -8.30469,-8.11328 z m 0,0"
             fill-opacity="1"
             fill-rule="nonzero"
             id="path237" />
        </g>
      </g>
    </g>
  </g>
  <g
     clip-path="url(#052ddc35c0)"
     id="g245"
     transform="translate(-477.44256,-86.030698)">
    <g
       clip-path="url(#d88fb1b29f)"
       id="g244">
      <g
         clip-path="url(#a80320f41f)"
         id="g243">
        <g
           clip-path="url(#53d56ec43d)"
           id="g242">
          <path
             fill="#ed7600"
             d="m 567.39062,110.78516 c -3.15234,-0.85157 -6.57812,-1.17969 -10.21093,-0.95703 0,0 6.05468,4.22265 8.625,7.94921 -1.38672,-2.45703 -4.98047,-7.20312 1.58593,-6.99218 z m -1.58593,6.99218 c 0.625,1.10157 0.99609,1.53907 0.25,0.35938 -0.0742,-0.11719 -0.16797,-0.23828 -0.25,-0.35938 z m 0,0"
             fill-opacity="1"
             fill-rule="nonzero"
             id="path241" />
        </g>
      </g>
    </g>
  </g>
  <g
     clip-path="url(#1282e52909)"
     id="g249"
     transform="translate(-477.44256,-86.030698)">
    <g
       clip-path="url(#dd286d41c7)"
       id="g248">
      <g
         clip-path="url(#d7033e77e0)"
         id="g247">
        <g
           clip-path="url(#48974d3bcb)"
           id="g246">
          <path
             fill="#cf6100"
             d="m 628.95312,154.85547 c 2.28516,6.10156 -3.34765,4.24219 -6.11718,3.72265 4.35547,1.23047 10.30859,5.59766 10.30859,5.59766 -0.0117,-0.0391 -0.0234,-0.0781 -0.0352,-0.11719 -0.20312,-0.12109 -0.41406,-0.23828 -0.62109,-0.35156 -0.89453,-3.25391 -2.00391,-6.24609 -3.53516,-8.85156 z m -6.11718,3.72265 c -0.14063,-0.0391 -0.28516,-0.0859 -0.42188,-0.12109 -1.35937,-0.32422 -0.82422,-0.11328 0.42188,0.12109 z m 0,0"
             fill-opacity="1"
             fill-rule="nonzero"
             id="path245" />
        </g>
      </g>
    </g>
  </g>
</svg>
