<?xml version="1.0" encoding="UTF-8" standalone="no"?>
<svg
   width="262.62006"
   zoomAndPan="magnify"
   viewBox="0 0 196.96504 196.4583"
   height="261.9444"
   preserveAspectRatio="xMidYMid"
   version="1.0"
   id="svg22"
   sodipodi:docname="25.svg"
   xmlns:inkscape="http://www.inkscape.org/namespaces/inkscape"
   xmlns:sodipodi="http://sodipodi.sourceforge.net/DTD/sodipodi-0.dtd"
   xmlns="http://www.w3.org/2000/svg"
   xmlns:svg="http://www.w3.org/2000/svg">
  <sodipodi:namedview
     id="namedview22"
     pagecolor="#ffffff"
     bordercolor="#000000"
     borderopacity="0.25"
     inkscape:showpageshadow="2"
     inkscape:pageopacity="0.0"
     inkscape:pagecheckerboard="0"
     inkscape:deskcolor="#d1d1d1" />
  <defs
     id="defs3">
    <clipPath
       id="5b56ddb72b">
      <path
         d="M 763,638 H 909 V 779.46094 H 763 Z m 0,0"
         clip-rule="nonzero"
         id="path1" />
    </clipPath>
    <clipPath
       id="e8e1f76eb0">
      <path
         d="m 780,710 h 129 v 69.46094 H 780 Z m 0,0"
         clip-rule="nonzero"
         id="path2" />
    </clipPath>
    <clipPath
       id="8b0df827c9">
      <path
         d="M 774,582.96094 H 960.19531 V 765 H 774 Z m 0,0"
         clip-rule="nonzero"
         id="path3" />
    </clipPath>
  </defs>
  <path
     fill="#575800"
     d="m 146.77165,174.87485 c -2.63672,0.85156 -5.6875,0.29687 -7.84375,-1.44922 -2.15625,-1.7461 -3.34375,-4.61328 -3.05859,-7.3711 -6.01172,1.39454 -12.75391,-1.5039 -15.89063,-6.8164 -3.22656,1.67969 -7.44141,1.23437 -10.25,-1.08985 -2.80859,-2.3125 -4.04297,-6.36718 -3.01562,-9.85546 -7.253909,2.11328 -15.785159,-2.67188 -17.746099,-9.98047 -2.91797,1.95312 -6.88281,2.34375 -10.24609,1.33203 -3.36719,-1.01563 -6.21875,-3.59766 -7.57031,-6.84766 -5.40235,2.60547 -11.49219,-1.05859 -13.44141,-6.41406 -1.60938,-4.44922 -0.62109,-9.53906 1.72266,-13.65234 -2.53907,1.08203 -5.64454,1.13671 -7.69922,-0.69532 -2.0586,-1.83203 -2.9336,-4.89843 -2.16016,-7.53515 -6.45703,-0.33985 -11.89062,-6.882824 -11.04297,-13.304694 -4.75,1.06641 -10.01953,-0.58984 -13.30859,-4.1875 -3.28906,-3.59766 -4.47656,-8.98438 -3.00781,-13.64063 -5.64063,-3.03125 -7.77344,-10.67578 -5.66016,-16.73046 2.10937,-6.05079 7.63281,-10.45704 13.66797,-12.59375 6.03125,-2.13672 12.57812,-2.3125 18.98437,-2.09375 11.15235,0.38281 22.34766,1.92187 32.82422,5.75781 10.48047,3.83984 20.238279,10.08594 27.187499,18.82031 3.21094,4.03516 5.80469,8.55078 9.36719,12.28125 4.63672,4.83984 10.66016,8.06641 16.03125,12.09375 10.36719,7.76172 18.35156,18.667974 22.62109,30.914064 3.47657,9.95313 4.28125,21.71094 -1.60937,30.45313 3.27734,4.14453 3.91797,10.20703 1.58984,14.95312 -2.33203,4.74219 -5.16406,7.73047 -10.44531,7.65235 z m 0,0"
     fill-opacity="1"
     fill-rule="nonzero"
     id="path4" />
  <g
     clip-path="url(#5b56ddb72b)"
     id="g5"
     transform="translate(-763.0721,-582.99234)">
    <path
       fill="#a4b101"
       d="m 908.65625,741.60937 c -17.88672,-6.39062 -55.55859,0.64454 -66.74609,3.83985 -11.17188,3.19531 -36.08204,20.78515 -44.38282,31.97265 -8.29687,11.1875 -37.68359,-27.49218 -34.16406,-33.89453 3.50391,-6.38672 18.51563,-24.9375 24.59375,-42.19922 6.06641,-17.26171 2.875,-61.0664 2.875,-61.0664 l 14.04688,-2.23438 -1.91407,24.9375 9.25782,-19.17968 4.93359,8.59375 c 0,0 -8.13672,20.8164 -10.68359,31.04296 -2.5625,10.23047 -1.60157,17.26172 1.59765,18.53907 3.19141,1.27734 23.08985,-31.79688 23.08985,-31.79688 l 20.33593,-11.6914 13.40625,15.375 c 0,0 -22.99218,21.8125 -32.25,34.875 0,0 23.95313,-21.15625 32.56641,-26.58594 8.62891,-5.42969 22.67578,11.83203 22.67578,11.83203 L 860.75391,711.875 c 0,0 13.19921,-0.67969 26.5664,-1.30078 13.36328,-0.6211 21.33594,31.02344 21.33594,31.02344 z m 0,0"
       fill-opacity="1"
       fill-rule="nonzero"
       id="path5" />
  </g>
  <path
     fill="#8da320"
     d="m 109.00993,115.48032 c 0,0 -3.16016,0.52343 -4.73828,-2.94532 0,0 -10.414059,1.64844 -14.453129,-4.02343 4.84766,-3.95704 9.44141,-7.53516 12.328129,-9.355474 8.62891,-5.42969 22.67578,11.832034 22.67578,11.832034 l -27.140619,17.90234 h -5.33594 z m 0,0"
     fill-opacity="1"
     fill-rule="nonzero"
     id="path6" />
  <path
     fill="#8da320"
     d="m 41.806811,55.034996 -1.91407,24.9375 -3.13672,-15.90625 c 0,0 -3.59375,3.07422 -8.48437,2.67969 -0.15234,-3.60937 -0.30469,-6.41016 -0.41406,-8.00391 2.5039,-1.1875 5.1289,-2.10546 6.25,-2.48437 z m 0,0"
     fill-opacity="1"
     fill-rule="nonzero"
     id="path7" />
  <g
     clip-path="url(#e8e1f76eb0)"
     id="g8"
     transform="translate(-763.0721,-582.99234)">
    <path
       fill="#8da320"
       d="m 793.04297,772.08984 c 6.62109,-1.8125 11.79297,-6.80468 17.08594,-11.17968 22.46093,-18.5586 51.51953,-28.38282 80.58984,-26.58594 -2.67188,-2.44141 -4.01172,-6.2461 -3.46484,-9.82422 0.26171,-1.69922 0.92578,-3.36719 0.84765,-5.08203 -0.0859,-1.9961 -1.15234,-3.80469 -1.7539,-5.71094 -0.30469,-0.96094 -0.44532,-2.05078 -0.3125,-3.05469 0.42187,-0.0234 0.84765,-0.043 1.27343,-0.0547 13.35157,-0.6211 21.33594,31.02343 21.33594,31.02343 -17.88281,-6.39062 -55.55859,0.64453 -66.74219,3.83985 -11.17578,3.19531 -36.08593,20.78125 -44.38281,31.96875 -3.34375,4.51562 -10.12109,0.91797 -16.78516,-5.40625 4.07422,0.96875 8.19922,1.1875 12.28516,0.0742 z m 0,0"
       fill-opacity="1"
       fill-rule="nonzero"
       id="path8" />
  </g>
  <path
     fill="#8da320"
     d="m 66.271651,90.171716 c 1.13281,-1.84375 1.81641,-2.98828 1.81641,-2.98828 l 20.33593,-11.69141 13.406249,15.375 c 0,0 -22.992179,21.808604 -32.249999,34.875004 l 14.1836,-26.402344 c 0,0 -12.77735,2.398444 -17.50391,-9.16797 z m 0,0"
     fill-opacity="1"
     fill-rule="nonzero"
     id="path9" />
  <path
     fill="#8da320"
     d="m 42.103681,107.71469 c 0.30469,-8.636724 1.56641,-26.769534 6.82813,-36.550784 0,0 -1.8086,-0.88281 -3.41016,-2.85938 l 3.62891,-7.52343 4.93359,8.59375 c 0,0 -8.13672,20.8164 -10.68359,31.046874 -0.66797,2.66016 -1.08985,5.10156 -1.29688,7.28125 z m 0,0"
     fill-opacity="1"
     fill-rule="nonzero"
     id="path10" />
  <g
     clip-path="url(#8b0df827c9)"
     id="g11"
     transform="translate(-763.0721,-582.99234)">
    <path
       fill="#617b01"
       d="m 803.35547,593.19922 c -4.51953,-1.73438 -10.19531,0.74219 -12.00391,5.23437 -2.69922,-0.53515 -6.6875,1.92969 -7.24219,4.625 -2.40625,1.15235 -4.3125,3.33594 -5.14062,5.875 -0.82813,2.54297 -1.25,6.46875 0,8.83203 -3.00391,2.78125 -4.64063,7.00391 -4.30078,11.08204 0.34765,4.08593 2.375,7.43359 5.80469,9.67187 0.26171,4.29688 3.49609,8.25391 7.64453,9.36719 4.15234,1.12109 9.21484,-0.52344 11.60156,-4.11328 0.34766,1.84375 1.76172,3.45703 3.53906,4.04687 1.78516,0.58985 3.80078,0.15235 5.1836,-1.11328 0.82812,3.88281 4.90234,6.81641 8.70312,5.66016 -0.21875,2.41015 0.65234,4.88672 2.33984,6.61718 1.69141,1.73438 4.64063,2.69532 7.04688,2.53125 -0.95703,1.59375 -1.05469,3.66407 -0.25,5.33204 0.80859,1.66796 3.01953,3.07421 4.85937,3.3164 -0.37109,3.92578 2.32032,7.92578 6.08594,9.0625 3.76953,1.14453 7.75781,-1.01562 9.62891,-4.48437 1.71094,2.59765 6.27344,4.05859 8.89844,2.41015 -2.26563,3.90625 -1.79688,9.22657 1.12109,12.67188 2.92187,3.44531 8.0625,4.40625 12.27734,2.79297 0.17188,1.49218 1.20703,2.86718 2.60157,3.44531 1.39453,0.57812 3.32421,0.48828 4.51171,-0.42578 -0.67578,2.13672 -0.0781,4.63281 1.5,6.23828 1.58204,1.60156 4.16016,2.3125 6.3086,1.65625 -1.23047,2.67187 0.41406,6.25 3.23437,7.05469 -0.41406,2.20312 0.6211,4.53515 2.58203,5.61718 -1.58984,3.69532 -1.24218,8.16797 0.89063,11.57813 2.13672,3.41406 5.66406,5.23437 9.68359,5.41016 -1.10156,5.45312 1.42578,11.44921 6.07813,14.46875 -2.42969,2.95703 -1.8086,8.34375 0.76172,11.17968 2.57031,2.83594 7.27734,3.40235 10.44531,1.26563 0.76172,2.34375 2.91797,4.1875 5.34766,4.5664 2.4414,0.39454 5.04296,-0.6875 6.5039,-2.67968 1.40235,2.07031 4.76953,3.19531 7.14453,2.39843 2.36328,-0.79687 4.14844,-2.94531 4.8125,-5.35546 0.67578,-2.41016 0.33594,-5.02735 -0.59765,-7.34766 3.88672,-0.12109 7.66797,-2.14063 9.9414,-5.30078 2.27735,-3.16406 2.98438,-7.38281 1.875,-11.11328 4.12891,-2.73438 7.10157,-7.44532 7.25391,-12.41016 0.14062,-4.94922 -2.24609,-9.91016 -6.20703,-12.875 0.28125,-3.53516 -1.1875,-7.39453 -4.1836,-9.28125 2.71094,-2.35547 4.54297,-5.125 4.92188,-8.69141 0.39453,-3.57812 -0.62109,-7.28515 -2.76563,-10.16406 1.875,-3.69531 0,-7.94922 -3.85546,-9.47265 1.23046,-2.51954 1.42578,-5.00782 -0.23047,-7.27344 -1.65235,-2.26953 -4.60547,-3.51172 -7.38282,-3.09766 0.63282,-3.63281 -0.34765,-7.29687 -3.6289,-8.97656 2.09375,-2.83594 3.09375,-5.98438 2.05859,-9.35547 -1.03125,-3.36719 -3.71094,-6.19141 -7.03515,-7.37109 0.79687,-3.52344 -0.71875,-8.125 -2.8086,-11.06641 -2.08984,-2.94531 -5.45703,-4.94141 -9.03906,-5.35547 -2.03906,-5.07031 -7.91016,-7.92969 -13.07031,-6.16015 -0.82813,-2.34375 -3.53907,-4.67969 -6.01172,-4.89844 1.42578,-3.30469 0.98047,-7.40235 -1.5586,-9.9336 -2.53906,-2.53906 -6.66406,-3.32421 -9.96484,-1.89843 -1.44922,-4.94922 -6.92969,-8.4375 -11.82031,-6.79297 -1.39063,-3.09766 -4.46485,-6.22656 -7.77344,-6.95703 -3.3125,-0.73047 -6.94922,0.16406 -9.53125,2.3789 -1.46094,-2.07422 -4.36719,-2.39062 -6.88281,-2.13672 -2.51563,0.25 -4.83594,1.94141 -5.85938,4.25 -2.47265,-1.19921 -5.10937,-2.60546 -7.59375,-1.44921 -2.48047,1.15625 -4.43359,3.44531 -5.1289,6.10546 -2.94141,-1.29687 -6.60938,-0.41406 -9.38672,1.19141 -1.24219,-2.35547 -3.4336,-4.50391 -6.07813,-4.69922 -2.64843,-0.19922 -5.35937,1.04297 -6.94922,3.1836 -2.70312,-2.55469 -6.6875,-1.80079 -8.93359,1.15625 z m 0,0"
       fill-opacity="1"
       fill-rule="nonzero"
       id="path11" />
  </g>
  <path
     fill="#c3ca37"
     d="m 121.05681,145.9686 c 0.28125,-3.85938 1.34765,-7.66797 3.11328,-11.10157 -1.58985,-1.33984 -2.85157,-3.39062 -2.875,-5.47265 -13.35157,1.01172 -26.695319,2.02734 -40.046879,3.04297 8.54688,-4.25391 16.53125,-10.73047 23.054689,-17.71094 -4.429689,1.82031 -9.124999,0.39453 -13.242189,-2.07031 -8.4414,4.73047 -16.54687,9.97656 -24.22265,15.85547 0.95703,-10.39454 3.97265,-20.26172 9.59375,-29.050794 -3.7461,-0.0547 -7.65625,-1.99609 -9.85547,-5.02734 -6.33985,8.648444 -13.2461,17.031254 -20.17188,25.210944 -1.40625,1.65625 -3.35547,3.46875 -5.42187,2.82422 -2.03907,-0.64453 -2.625,-3.19532 -2.85547,-5.32032 -1.8086,-16.85937 -2.38672,-33.835934 -1.71094,-50.773434 -1.26172,1.66797 -3.08203,2.54297 -5.16016,2.73828 0.0859,0 0.58594,4.23047 0.62891,4.625 1.94922,17.15234 -0.5,34.687504 -6.54297,50.824224 -3.03125,8.08984 -6.97265,15.84375 -11.72265,23.0625 -2.76563,4.19922 -6.5117199,7.78515 -8.5273499,12.46484 -2.08984,4.88672 0.043,9.92188 2.82031,14.02344 2.8554699,4.19922 5.9492199,9.60547 11.7656299,9.28906 4.02734,-0.21484 7.69922,-2.63672 10.95703,-4.81641 4.38672,-2.95703 8.80078,-5.85937 12.99219,-9.11718 5.8164,-4.51563 11.25,-9.5625 17.52344,-13.40235 8.78125,-5.36718 18.91796,-8.19922 29.11328,-9.53125 10.195309,-1.33984 20.499999,-0.63281 30.792969,-0.54297 z m 0,0"
     fill-opacity="1"
     fill-rule="nonzero"
     id="path12" />
  <path
     fill="#738d01"
     d="m 15.896651,25.952966 c 0.82812,-2.53906 2.73437,-4.71094 5.14062,-5.8789 0.54688,-2.69141 4.54297,-5.15625 7.24219,-4.6211 1.8086,-4.49219 7.48438,-6.9687504 12.00391,-5.23437 2.24219,-2.9570304 6.24219,-3.6992204 8.92969,-1.1562504 1.14453,-1.55078 2.88671,-2.61719 4.76171,-3.01953 3.63672,1.23046 6.79688,3.95703 8.57032,7.5781204 2.23437,-2.39062 6.55859,-2.87891 9.55468,-1.55859 1.21875,-2.2382804 2.72266,-4.4492204 4.96485,-5.6484404 2.24219,-1.20313 6.12109,-0.625 7.71094,1.35937 0.14062,-2.58203 2.21093,-4.9375 4.75,-5.41796 2.53515,-0.48047 4.85546,1.70312 5.92187,4.05859 1.75391,-1.36328 3.53125,-2.73828 5.566409,-3.60156 2.04687,-0.85938 4.42187,-1.14453 6.46875,-0.27344 2.03906,0.86328 3.66015,2.58594 3.32422,4.77734 2.13281,1.67969 3.57031,4.2226604 3.92187,6.9140704 0.34766,2.69531 -0.39453,5.51953 -2.01562,7.6875 2.0039,-0.34766 4.47656,0.76562 5.3789,2.59765 0.89453,1.82813 0.44922,4.23047 -1.05469,5.60156 2.07813,0.25391 4.45313,1.02735 5.14063,3.01172 0.68359,1.98438 0.15234,4.32813 -1.32813,5.82422 2.49219,2.27735 3.09375,6.35547 1.35938,9.25781 -1.73047,2.89844 -5.59766,4.30469 -8.77734,3.1836 -0.35938,1.47265 -1.02344,2.99609 -2.46094,3.47656 -1.4375,0.49219 -2.32031,-0.043 -3.4961,-1.00391 1.8086,3.16407 0.90235,7.41797 -1.54687,10.10938 -2.45313,2.69531 -6.132809,4.00391 -9.769529,4.28516 -3.62891,0.28515 -7.26563,-0.34766 -10.84766,-0.98047 -3.24609,3.43359 -8.13672,5.24609 -12.83203,4.74218 -4.69531,-0.5 -9.43359,-3.58593 -11.88281,-7.63281 -2.17969,1.17969 -4.94531,1.19141 -7.1211,0.0234 -2.17968,-1.17969 -3.70312,-3.48828 -3.92187,-5.95313 -2.04688,1.21875 -4.76172,1.24219 -6.82031,0.0312 -2.0586,-1.19921 -3.38672,-3.5664 -3.33203,-5.95312 -1.96875,0.37109 -4.02735,0.75 -5.98047,0.25 -1.94922,-0.5 -3.89844,-1.375 -3.91797,-3.37891 -3.82422,1.99219 -8.07031,3.32422 -12.375,3.1836 -1.08985,-0.0352 -2.1875,-0.17578 -3.25391,-0.41407 -1.28515,-1.80078 -2.07031,-3.91406 -2.26562,-6.29296 -0.35157,-4.08985 1.28515,-8.29688 4.30078,-11.07813 -1.25391,-2.36719 -0.82813,-6.29297 0,-8.83203 z m 0,0"
     fill-opacity="1"
     fill-rule="nonzero"
     id="path13" />
  <path
     fill="#738d01"
     d="m 143.81852,33.835776 c 2.21094,-0.96875 4.87891,-0.83984 6.99219,0.32813 2.11328,1.16797 3.63672,3.35937 4.00781,5.74609 3.39844,-0.1289 6.8086,1.67969 8.59375,4.57032 1.79688,2.89062 1.90625,6.75 0.28516,9.75 3.70313,0.76171 6.60938,3.91406 7.28516,7.63281 0.67578,3.72656 -1.10938,7.77344 -4.3125,9.80078 3.05859,1.73437 4.8789,5.42187 4.42187,8.91016 -0.46875,3.48828 -3.1914,6.5625 -6.58984,7.4375 1.74219,2.1914 1.44922,5.78906 0.14062,8.26562 -1.30468,2.47266 -4.13672,4.066414 -6.9375,3.871094 0.76172,3.20704 -0.62109,6.81641 -3.32031,8.69922 -2.70312,1.88672 -6.57031,1.92188 -9.30469,0.0899 0.73047,2.41015 -1.14062,5.70312 -3.38672,6.82422 -2.2539,1.125 -5.25781,0.40625 -6.75,-1.625 -2.24609,3.29296 -6.52734,5.03906 -10.42578,4.26562 -3.89843,-0.77344 -7.1875,-4.03516 -7.99218,-7.9375 -1.79688,0.66406 -3.95313,-0.12109 -5.39063,-1.38672 -1.4375,-1.26562 -2.125,-3.32422 -1.71094,-5.1914 -2.30078,1.66796 -5.53515,1.92187 -8.05078,0.62109 -3.527339,-1.80859 -5.171869,-6.289064 -4.421869,-10.195314 0.7539,-3.90235 3.519529,-7.1836 6.796869,-9.41016 3.28906,-2.22266 7.08985,-3.53125 10.8711,-4.77734 -1.4375,-2.23438 -2.72266,-4.6875 -1.99219,-7.25 0.61719,-2.13672 2.36328,-3.80469 4.34375,-4.82032 1.97265,-1.01171 4.18359,-1.48046 6.35937,-1.92968 -1.58984,-1.96094 -1.55468,-4.28516 -0.68359,-6.66407 0.87109,-2.375 3.04687,-4.21875 5.51953,-4.67578 -2.08984,-2.35547 -2.47266,-6.07422 -0.91406,-8.8125 1.55859,-2.73437 4.94531,-4.29687 8.03906,-3.70703 -0.51172,-2.26562 0.19531,-4.77734 1.80859,-6.44531 1.60938,-1.66797 4.47657,-2.44141 6.75,-2.00391 z m 0,0"
     fill-opacity="1"
     fill-rule="nonzero"
     id="path14" />
  <path
     fill="#738d01"
     d="m 125.90056,34.882656 c 0.73046,-1.10156 0.86328,-2.57422 0.33984,-3.79297 -0.51172,-1.22266 -1.66797,-2.13672 -2.96484,-2.39062 1.48437,-2.92969 0.99218,-7.0625 -1.10938,-9.59375 1.42578,-1.00391 3.25781,-1.47266 4.96484,-1.10157 1.69922,0.3711 3.22657,1.66797 3.6836,3.35938 0.45703,1.67969 -0.28516,3.67187 -1.82031,4.49219 2.59375,0.87109 4.09765,4.01171 3.41015,6.67187 -0.6875,2.65234 -3.80078,2.85938 -6.5039,2.35547 z m 0,0"
     fill-opacity="1"
     fill-rule="nonzero"
     id="path15" />
  <path
     fill="#738d01"
     d="m 175.51384,92.417816 c 1.21875,1.79687 1.44922,4.21875 0.58593,6.21484 -0.85937,1.996094 -2.78515,3.476564 -4.93359,3.816414 0.77344,2.02734 0.31641,4.46875 -1.13281,6.08593 -1.44531,1.61328 -3.82031,2.32032 -5.91406,1.77735 0.53515,5.91015 -4.36719,11.58984 -10.26954,12.08203 -0.54296,3.16015 -2.67968,6.00781 -5.54296,7.43359 -2.875,1.42969 -6.42579,1.38672 -9.26954,-0.0859 0.89454,3.25 0.35938,6.85938 -1.44921,9.69532 1.97265,-0.1211 3.96484,1.07812 4.78125,2.8789 0.82812,1.79688 0.42578,4.08985 -0.94532,5.50782 2.83203,2.28906 7.35938,2.77734 10.73828,1.39453 1.1211,-0.45703 2.19922,-1.13282 3.41797,-1.23438 1.92969,-0.15234 3.61719,1.16797 5.45703,1.77735 2.23438,0.73046 4.80469,0.35156 6.73047,-1 1.91797,-1.36329 3.14844,-3.65625 3.20313,-6.01172 3.38672,0.10937 6.76562,-1.875 8.32031,-4.89453 1.55859,-3.01954 1.23047,-6.91407 -0.80469,-9.62891 -0.75,-1.00391 -1.78515,-2.19141 -1.27343,-3.33594 0.37109,-0.82812 1.35937,-1.13281 2.12109,-1.64844 2.17969,-1.46093 2.05078,-5.26562 -0.22656,-6.57421 2.80078,-1.63672 5.51172,-3.89454 6.38281,-7.01172 0.87109,-3.12891 -0.94922,-7.10938 -4.17188,-7.46875 1.06641,-1.98438 1.1211,-4.492194 0.1211,-6.523444 -0.99219,-2.02734 -3.67188,-2.86719 -5.90625,-3.23828 z m 0,0"
     fill-opacity="1"
     fill-rule="nonzero"
     id="path16" />
  <path
     fill="#8da320"
     d="m 57.798991,14.730316 c 0.66407,2.92578 -1.53906,6.16406 -4.48828,6.63281 2.85156,1.05859 4.67188,4.35937 4.02735,7.33594 -0.64063,2.98046 -3.64844,5.24609 -6.6875,5.03906 0.49218,2.70312 -1.1211,5.63672 -3.65625,6.66406 -2.53907,1.02344 -5.74219,0.043 -7.26563,-2.23437 -1.86328,3.36718 -6.65625,4.5664 -10.04297,2.74609 -3.38672,-1.82031 -5.0625,-6.18359 -4.07422,-9.90234 0.99219,-3.71875 4.37891,-6.58594 8.16016,-7.30469 -0.20703,-2.50781 0.94531,-5.08203 2.96094,-6.58594 2.01562,-1.50391 4.8164,-1.875 7.14453,-0.96094 -0.33594,-1.82031 0.35937,-3.80468 1.76562,-5.01562 3.23438,-2.8125004 11.16407,-0.79688 12.15625,3.57812 z m 0,0"
     fill-opacity="1"
     fill-rule="nonzero"
     id="path17" />
  <path
     fill="#8da320"
     d="m 110.94743,15.265466 c -0.12109,3.16406 -2.79687,6.03125 -5.94531,6.3711 2.79687,3.76953 1.91406,9.75781 -1.85156,12.55078 -3.769539,2.80078 -9.749999,1.90625 -12.535159,-1.86719 -2.77734,2.39844 -7.42969,1.85547 -9.87891,-0.87109 -2.4414,-2.72657 -2.61718,-7.10938 -0.71875,-10.25 1.88282,-3.14063 5.54297,-5.00391 9.20313,-5.13672 0.96875,-0.0312 2.01172,0.0234 2.83203,-0.5 1.15234,-0.74219 1.39062,-2.28125 1.88281,-3.56641 0.85938,-2.2148404 2.85156,-3.9492204 5.15235,-4.4921904 4.703119,-1.125 12.066399,2.28907 11.859369,7.7500004 z m 0,0"
     fill-opacity="1"
     fill-rule="nonzero"
     id="path18" />
  <path
     fill="#8da320"
     d="m 149.1779,55.253746 c -2.83203,0.96094 -6.24219,-0.14062 -7.97266,-2.58593 -3.6289,-5.11329 2.08985,-12.5625 7.99219,-10.90235 6.40625,1.8086 5.89453,11.46875 -0.0195,13.47656 z m 0,0"
     fill-opacity="1"
     fill-rule="nonzero"
     id="path19" />
  <path
     fill="#8da320"
     d="m 67.263841,40.675626 c -0.67578,2.41015 -3.36719,4.08594 -5.81641,3.58594 -2.45312,-0.51172 -4.26953,-3.17188 -3.79297,-5.625 1.24219,-6.34766 11.56641,-4.91797 9.60938,2.04687 z m 0,0"
     fill-opacity="1"
     fill-rule="nonzero"
     id="path20" />
  <path
     fill="#8da320"
     d="m 162.04118,137.1561 c -1.6875,-0.008 -3.42187,-0.65235 -4.5,-1.94141 -3.88672,-4.66406 2.97266,-12.19141 8.14844,-10.10547 6.45703,2.60547 2.42969,12.09375 -3.64844,12.04688 z m 0,0"
     fill-opacity="1"
     fill-rule="nonzero"
     id="path21" />
  <path
     fill="#8da320"
     d="m 125.45524,75.034996 c -0.42578,2.17969 -2.5039,3.79297 -4.70312,4.08985 -1.72266,0.22656 -3.64844,-0.35157 -4.58594,-1.8125 -0.94922,-1.49219 -0.60156,-3.59766 0.58594,-4.90625 2.6914,-2.96485 9.73828,-2.80078 8.6914,2.6289 z m 0,0"
     fill-opacity="1"
     fill-rule="nonzero"
     id="path22" />
</svg>
