<svg xmlns="http://www.w3.org/2000/svg" xmlns:xlink="http://www.w3.org/1999/xlink" width="1920" zoomAndPan="magnify" viewBox="0 0 1440 809.999993" height="1080" preserveAspectRatio="xMidYMid meet" version="1.0"><defs><clipPath id="5883f39145"><path d="M 936 419 L 953 419 L 953 510 L 936 510 Z M 936 419 " clip-rule="nonzero"/></clipPath><clipPath id="e379aa056a"><path d="M 825.390625 8.277344 L 1132.355469 451.632812 L 614.386719 810.253906 L 307.421875 366.898438 Z M 825.390625 8.277344 " clip-rule="nonzero"/></clipPath><clipPath id="1bf8d5b7fa"><path d="M 825.390625 8.277344 L 1132.355469 451.632812 L 614.386719 810.253906 L 307.421875 366.898438 Z M 825.390625 8.277344 " clip-rule="nonzero"/></clipPath><clipPath id="1eae4a50c8"><path d="M 825.390625 8.277344 L 1132.355469 451.632812 L 614.386719 810.253906 L 307.421875 366.898438 Z M 825.390625 8.277344 " clip-rule="nonzero"/></clipPath><clipPath id="9219f5325e"><path d="M 902 446 L 934 446 L 934 485 L 902 485 Z M 902 446 " clip-rule="nonzero"/></clipPath><clipPath id="6e406347e6"><path d="M 825.390625 8.277344 L 1132.355469 451.632812 L 614.386719 810.253906 L 307.421875 366.898438 Z M 825.390625 8.277344 " clip-rule="nonzero"/></clipPath><clipPath id="35b73c4361"><path d="M 825.390625 8.277344 L 1132.355469 451.632812 L 614.386719 810.253906 L 307.421875 366.898438 Z M 825.390625 8.277344 " clip-rule="nonzero"/></clipPath><clipPath id="4a2376f351"><path d="M 825.390625 8.277344 L 1132.355469 451.632812 L 614.386719 810.253906 L 307.421875 366.898438 Z M 825.390625 8.277344 " clip-rule="nonzero"/></clipPath><clipPath id="1e7cc9b94e"><path d="M 319 371 L 899 371 L 899 486 L 319 486 Z M 319 371 " clip-rule="nonzero"/></clipPath><clipPath id="19398cbf56"><path d="M 825.390625 8.277344 L 1132.355469 451.632812 L 614.386719 810.253906 L 307.421875 366.898438 Z M 825.390625 8.277344 " clip-rule="nonzero"/></clipPath><clipPath id="4d6096eb2a"><path d="M 825.390625 8.277344 L 1132.355469 451.632812 L 614.386719 810.253906 L 307.421875 366.898438 Z M 825.390625 8.277344 " clip-rule="nonzero"/></clipPath><clipPath id="753eac6795"><path d="M 825.390625 8.277344 L 1132.355469 451.632812 L 614.386719 810.253906 L 307.421875 366.898438 Z M 825.390625 8.277344 " clip-rule="nonzero"/></clipPath><clipPath id="d79b15f362"><path d="M 311 362 L 1120 362 L 1120 516 L 311 516 Z M 311 362 " clip-rule="nonzero"/></clipPath><clipPath id="dae57ee6a8"><path d="M 825.390625 8.277344 L 1132.355469 451.632812 L 614.386719 810.253906 L 307.421875 366.898438 Z M 825.390625 8.277344 " clip-rule="nonzero"/></clipPath><clipPath id="0f3183ecfd"><path d="M 825.390625 8.277344 L 1132.355469 451.632812 L 614.386719 810.253906 L 307.421875 366.898438 Z M 825.390625 8.277344 " clip-rule="nonzero"/></clipPath><clipPath id="788ad2039d"><path d="M 825.390625 8.277344 L 1132.355469 451.632812 L 614.386719 810.253906 L 307.421875 366.898438 Z M 825.390625 8.277344 " clip-rule="nonzero"/></clipPath><clipPath id="45c0194df0"><path d="M 961 451 L 987 451 L 987 476 L 961 476 Z M 961 451 " clip-rule="nonzero"/></clipPath><clipPath id="a4732d5eb0"><path d="M 825.390625 8.277344 L 1132.355469 451.632812 L 614.386719 810.253906 L 307.421875 366.898438 Z M 825.390625 8.277344 " clip-rule="nonzero"/></clipPath><clipPath id="1ad71a7376"><path d="M 825.390625 8.277344 L 1132.355469 451.632812 L 614.386719 810.253906 L 307.421875 366.898438 Z M 825.390625 8.277344 " clip-rule="nonzero"/></clipPath><clipPath id="8f074949f5"><path d="M 825.390625 8.277344 L 1132.355469 451.632812 L 614.386719 810.253906 L 307.421875 366.898438 Z M 825.390625 8.277344 " clip-rule="nonzero"/></clipPath><clipPath id="5a0f5125f8"><path d="M 991 448 L 1016 448 L 1016 473 L 991 473 Z M 991 448 " clip-rule="nonzero"/></clipPath><clipPath id="330c46db1f"><path d="M 825.390625 8.277344 L 1132.355469 451.632812 L 614.386719 810.253906 L 307.421875 366.898438 Z M 825.390625 8.277344 " clip-rule="nonzero"/></clipPath><clipPath id="a864a2a130"><path d="M 825.390625 8.277344 L 1132.355469 451.632812 L 614.386719 810.253906 L 307.421875 366.898438 Z M 825.390625 8.277344 " clip-rule="nonzero"/></clipPath><clipPath id="7c67ab08c0"><path d="M 825.390625 8.277344 L 1132.355469 451.632812 L 614.386719 810.253906 L 307.421875 366.898438 Z M 825.390625 8.277344 " clip-rule="nonzero"/></clipPath><clipPath id="0463902682"><path d="M 1021 444 L 1046 444 L 1046 469 L 1021 469 Z M 1021 444 " clip-rule="nonzero"/></clipPath><clipPath id="5e5b3ac246"><path d="M 825.390625 8.277344 L 1132.355469 451.632812 L 614.386719 810.253906 L 307.421875 366.898438 Z M 825.390625 8.277344 " clip-rule="nonzero"/></clipPath><clipPath id="e37583bcb9"><path d="M 825.390625 8.277344 L 1132.355469 451.632812 L 614.386719 810.253906 L 307.421875 366.898438 Z M 825.390625 8.277344 " clip-rule="nonzero"/></clipPath><clipPath id="f0adea9904"><path d="M 825.390625 8.277344 L 1132.355469 451.632812 L 614.386719 810.253906 L 307.421875 366.898438 Z M 825.390625 8.277344 " clip-rule="nonzero"/></clipPath><clipPath id="7df08e5fb7"><path d="M 1050 439 L 1075 439 L 1075 464 L 1050 464 Z M 1050 439 " clip-rule="nonzero"/></clipPath><clipPath id="d0aa4effe8"><path d="M 825.390625 8.277344 L 1132.355469 451.632812 L 614.386719 810.253906 L 307.421875 366.898438 Z M 825.390625 8.277344 " clip-rule="nonzero"/></clipPath><clipPath id="d22df26e7e"><path d="M 825.390625 8.277344 L 1132.355469 451.632812 L 614.386719 810.253906 L 307.421875 366.898438 Z M 825.390625 8.277344 " clip-rule="nonzero"/></clipPath><clipPath id="6242f6b3ef"><path d="M 825.390625 8.277344 L 1132.355469 451.632812 L 614.386719 810.253906 L 307.421875 366.898438 Z M 825.390625 8.277344 " clip-rule="nonzero"/></clipPath><clipPath id="af96676c86"><path d="M 1079 432 L 1103 432 L 1103 457 L 1079 457 Z M 1079 432 " clip-rule="nonzero"/></clipPath><clipPath id="4a3e91bd90"><path d="M 825.390625 8.277344 L 1132.355469 451.632812 L 614.386719 810.253906 L 307.421875 366.898438 Z M 825.390625 8.277344 " clip-rule="nonzero"/></clipPath><clipPath id="106d4cea8c"><path d="M 825.390625 8.277344 L 1132.355469 451.632812 L 614.386719 810.253906 L 307.421875 366.898438 Z M 825.390625 8.277344 " clip-rule="nonzero"/></clipPath><clipPath id="b79427e0d8"><path d="M 825.390625 8.277344 L 1132.355469 451.632812 L 614.386719 810.253906 L 307.421875 366.898438 Z M 825.390625 8.277344 " clip-rule="nonzero"/></clipPath></defs><g clip-path="url(#5883f39145)"><g clip-path="url(#e379aa056a)"><g clip-path="url(#1bf8d5b7fa)"><g clip-path="url(#1eae4a50c8)"><path fill="#ffda66" d="M 947.042969 509.199219 C 946.632812 509.21875 946.226562 509.203125 945.820312 509.144531 C 945.414062 509.085938 945.015625 508.988281 944.628906 508.851562 C 944.242188 508.714844 943.871094 508.542969 943.519531 508.335938 C 943.164062 508.125 942.835938 507.882812 942.53125 507.609375 C 942.226562 507.335938 941.949219 507.035156 941.703125 506.707031 C 941.457031 506.378906 941.246094 506.027344 941.066406 505.65625 C 940.890625 505.289062 940.75 504.902344 940.648438 504.507812 C 940.546875 504.109375 940.484375 503.707031 940.464844 503.296875 L 937.667969 450.769531 L 937.300781 442.695312 C 937.285156 442.488281 937.25 442.28125 937.199219 442.078125 L 936.347656 426.414062 C 936.324219 426.003906 936.34375 425.597656 936.402344 425.191406 C 936.460938 424.785156 936.558594 424.390625 936.695312 424.003906 C 936.832031 423.617188 937.003906 423.246094 937.214844 422.894531 C 937.421875 422.542969 937.664062 422.210938 937.9375 421.90625 C 938.214844 421.601562 938.515625 421.328125 938.84375 421.082031 C 939.171875 420.835938 939.519531 420.625 939.890625 420.449219 C 940.261719 420.269531 940.644531 420.132812 941.039062 420.03125 C 941.4375 419.929688 941.839844 419.867188 942.25 419.847656 C 942.660156 419.824219 943.066406 419.84375 943.472656 419.898438 C 943.878906 419.957031 944.273438 420.054688 944.660156 420.191406 C 945.046875 420.328125 945.417969 420.5 945.769531 420.710938 C 946.121094 420.917969 946.453125 421.160156 946.757812 421.433594 C 947.0625 421.707031 947.335938 422.007812 947.582031 422.335938 C 947.828125 422.664062 948.039062 423.011719 948.21875 423.382812 C 948.394531 423.753906 948.535156 424.136719 948.636719 424.535156 C 948.738281 424.929688 948.796875 425.332031 948.820312 425.742188 L 952.941406 502.605469 C 952.964844 503.015625 952.945312 503.421875 952.886719 503.828125 C 952.828125 504.234375 952.730469 504.632812 952.59375 505.019531 C 952.457031 505.40625 952.285156 505.777344 952.074219 506.128906 C 951.867188 506.480469 951.625 506.8125 951.351562 507.117188 C 951.078125 507.421875 950.773438 507.699219 950.445312 507.945312 C 950.117188 508.191406 949.769531 508.402344 949.398438 508.582031 C 949.027344 508.757812 948.644531 508.898438 948.246094 509 C 947.847656 509.101562 947.445312 509.164062 947.035156 509.1875 Z M 947.042969 509.199219 " fill-opacity="1" fill-rule="nonzero"/></g></g></g></g><g clip-path="url(#9219f5325e)"><g clip-path="url(#6e406347e6)"><g clip-path="url(#35b73c4361)"><g clip-path="url(#4a2376f351)"><path fill="#ffda66" d="M 933.25 484.265625 C 928.609375 484.425781 918.722656 484.734375 904.839844 484.988281 L 902.496094 448.457031 C 912.320312 447.746094 922.03125 446.945312 931.449219 446.0625 L 931.710938 450.957031 Z M 933.25 484.265625 " fill-opacity="1" fill-rule="nonzero"/></g></g></g></g><g clip-path="url(#1e7cc9b94e)"><g clip-path="url(#19398cbf56)"><g clip-path="url(#4d6096eb2a)"><g clip-path="url(#753eac6795)"><path fill="#e5e5e5" d="M 898.886719 485.082031 C 829.386719 486.25 697.898438 485.816406 575.480469 470.867188 C 504.847656 462.234375 447.542969 449.90625 405.152344 434.222656 C 358.839844 417.101562 330.0625 395.894531 319.449219 371.089844 C 337.285156 378.375 392.152344 399.367188 474.847656 418.066406 C 568.039062 439.113281 716.644531 461.476562 896.519531 448.910156 L 898.496094 480.058594 Z M 898.886719 485.082031 " fill-opacity="1" fill-rule="nonzero"/></g></g></g></g><g clip-path="url(#d79b15f362)"><g clip-path="url(#dae57ee6a8)"><g clip-path="url(#0f3183ecfd)"><g clip-path="url(#788ad2039d)"><path fill="#000000" d="M 1118.289062 458.40625 C 1119.230469 456.5625 1119.765625 454.609375 1119.890625 452.542969 C 1120.015625 450.476562 1119.722656 448.472656 1119.007812 446.527344 L 1110.332031 422.878906 C 1110.085938 422.210938 1109.78125 421.574219 1109.414062 420.964844 C 1109.050781 420.359375 1108.628906 419.789062 1108.15625 419.261719 C 1107.683594 418.730469 1107.164062 418.253906 1106.601562 417.824219 C 1106.035156 417.390625 1105.4375 417.019531 1104.800781 416.703125 C 1104.164062 416.386719 1103.507812 416.132812 1102.824219 415.941406 C 1102.140625 415.75 1101.445312 415.625 1100.738281 415.5625 C 1100.03125 415.503906 1099.324219 415.511719 1098.617188 415.585938 C 1097.910156 415.660156 1097.21875 415.800781 1096.539062 416.007812 C 1042.550781 432.453125 970.703125 437.199219 955.441406 438.046875 L 954.761719 425.421875 C 954.714844 424.625 954.59375 423.835938 954.394531 423.058594 C 954.195312 422.285156 953.921875 421.535156 953.578125 420.8125 C 953.230469 420.09375 952.816406 419.410156 952.335938 418.769531 C 951.855469 418.128906 951.316406 417.542969 950.71875 417.007812 C 950.121094 416.476562 949.480469 416.003906 948.789062 415.597656 C 948.101562 415.1875 947.378906 414.851562 946.621094 414.585938 C 945.867188 414.320312 945.09375 414.132812 944.300781 414.019531 C 943.507812 413.90625 942.710938 413.871094 941.910156 413.917969 C 941.109375 413.960938 940.324219 414.082031 939.546875 414.28125 C 938.769531 414.480469 938.023438 414.753906 937.300781 415.097656 C 936.578125 415.445312 935.894531 415.859375 935.253906 416.339844 C 934.613281 416.820312 934.027344 417.359375 933.492188 417.957031 C 932.957031 418.550781 932.484375 419.195312 932.078125 419.882812 C 931.667969 420.574219 931.332031 421.296875 931.066406 422.050781 C 930.800781 422.804688 930.609375 423.582031 930.496094 424.375 C 930.382812 425.164062 930.347656 425.960938 930.390625 426.761719 L 931.152344 440.105469 C 920.992188 441.089844 910.617188 441.917969 900.058594 442.667969 C 899.742188 442.585938 899.421875 442.554688 899.09375 442.578125 C 898.804688 442.605469 898.53125 442.675781 898.265625 442.789062 C 718.230469 455.625 569.511719 433.304688 476.402344 412.277344 C 375.3125 389.476562 316.144531 363.265625 315.597656 363.046875 C 315.066406 362.808594 314.511719 362.730469 313.933594 362.816406 C 313.355469 362.902344 312.847656 363.136719 312.410156 363.523438 C 311.972656 363.910156 311.671875 364.382812 311.511719 364.941406 C 311.355469 365.503906 311.359375 366.0625 311.53125 366.621094 C 313.636719 373.617188 316.78125 380.113281 320.953125 386.105469 C 350.933594 429.40625 436.058594 459.863281 574.695312 476.808594 C 699.246094 492.019531 833.113281 492.234375 901.90625 491.007812 L 902.042969 491.023438 C 917.882812 490.75 928.988281 490.429688 933.753906 490.238281 L 934.472656 503.648438 C 934.589844 505.941406 935.300781 508.03125 936.609375 509.917969 C 936.984375 510.460938 937.398438 510.972656 937.855469 511.449219 C 938.3125 511.925781 938.804688 512.363281 939.332031 512.757812 C 939.859375 513.15625 940.414062 513.507812 941 513.8125 C 941.585938 514.121094 942.191406 514.378906 942.816406 514.585938 C 943.441406 514.792969 944.082031 514.949219 944.734375 515.050781 C 945.386719 515.15625 946.042969 515.207031 946.703125 515.203125 C 947.363281 515.199219 948.015625 515.144531 948.667969 515.035156 C 949.320312 514.925781 949.957031 514.765625 950.582031 514.550781 C 951.207031 514.339844 951.8125 514.078125 952.394531 513.765625 C 952.976562 513.453125 953.527344 513.097656 954.054688 512.699219 C 954.578125 512.296875 955.066406 511.855469 955.519531 511.375 C 955.972656 510.894531 956.382812 510.378906 956.75 509.832031 C 957.121094 509.285156 957.441406 508.710938 957.71875 508.113281 C 957.996094 507.511719 958.222656 506.894531 958.398438 506.257812 C 958.570312 505.621094 958.695312 504.976562 958.765625 504.320312 C 958.835938 503.664062 958.851562 503.007812 958.816406 502.347656 L 958.109375 489.109375 C 1013.835938 485.460938 1071.445312 476.640625 1109.074219 465.980469 C 1111.074219 465.414062 1112.871094 464.476562 1114.476562 463.15625 C 1116.078125 461.839844 1117.351562 460.257812 1118.289062 458.40625 Z M 1089.210938 433.164062 L 1101.074219 438.789062 C 1101.816406 439.140625 1102.328125 439.703125 1102.601562 440.476562 C 1102.882812 441.25 1102.847656 442.007812 1102.5 442.75 L 1096.886719 454.585938 C 1096.71875 454.941406 1096.488281 455.25 1096.195312 455.515625 C 1095.90625 455.777344 1095.574219 455.976562 1095.203125 456.109375 C 1094.832031 456.242188 1094.453125 456.300781 1094.058594 456.28125 C 1093.664062 456.261719 1093.289062 456.167969 1092.933594 456.003906 L 1081.035156 450.402344 C 1080.5625 450.167969 1080.175781 449.835938 1079.871094 449.402344 C 1079.722656 449.1875 1079.601562 448.960938 1079.507812 448.71875 C 1079.238281 447.941406 1079.277344 447.179688 1079.625 446.433594 L 1085.222656 434.609375 C 1085.390625 434.246094 1085.617188 433.929688 1085.910156 433.65625 C 1086.207031 433.386719 1086.539062 433.183594 1086.914062 433.050781 C 1087.289062 432.914062 1087.675781 432.855469 1088.074219 432.875 C 1088.472656 432.894531 1088.851562 432.992188 1089.210938 433.164062 Z M 1072.644531 445.773438 C 1072.992188 445.957031 1073.292969 446.199219 1073.546875 446.5 C 1073.796875 446.800781 1073.984375 447.140625 1074.101562 447.515625 C 1074.21875 447.890625 1074.261719 448.277344 1074.226562 448.667969 C 1074.191406 449.0625 1074.082031 449.433594 1073.898438 449.78125 L 1067.828125 461.390625 C 1067.644531 461.742188 1067.402344 462.042969 1067.101562 462.292969 C 1066.796875 462.546875 1066.457031 462.734375 1066.082031 462.851562 C 1065.707031 462.96875 1065.324219 463.011719 1064.929688 462.976562 C 1064.539062 462.941406 1064.167969 462.832031 1063.820312 462.648438 L 1052.207031 456.582031 C 1051.777344 456.351562 1051.421875 456.039062 1051.140625 455.640625 C 1050.828125 455.183594 1050.65625 454.679688 1050.621094 454.128906 C 1050.589844 453.574219 1050.703125 453.054688 1050.964844 452.566406 L 1057.023438 440.960938 C 1057.207031 440.613281 1057.449219 440.3125 1057.753906 440.058594 C 1058.054688 439.808594 1058.394531 439.621094 1058.769531 439.503906 C 1059.144531 439.386719 1059.527344 439.34375 1059.921875 439.378906 C 1060.3125 439.414062 1060.683594 439.523438 1061.03125 439.703125 Z M 1022.894531 461.195312 C 1022.582031 460.984375 1022.316406 460.722656 1022.101562 460.410156 C 1021.753906 459.910156 1021.578125 459.355469 1021.570312 458.746094 C 1021.5625 458.140625 1021.730469 457.582031 1022.066406 457.074219 L 1029.3125 446.167969 C 1029.53125 445.839844 1029.800781 445.566406 1030.128906 445.34375 C 1030.453125 445.125 1030.8125 444.972656 1031.195312 444.894531 C 1031.582031 444.816406 1031.96875 444.8125 1032.355469 444.886719 C 1032.742188 444.960938 1033.097656 445.105469 1033.429688 445.324219 L 1044.332031 452.566406 C 1044.664062 452.785156 1044.9375 453.054688 1045.15625 453.382812 C 1045.378906 453.707031 1045.527344 454.0625 1045.605469 454.449219 C 1045.683594 454.835938 1045.6875 455.222656 1045.613281 455.609375 C 1045.539062 455.996094 1045.394531 456.351562 1045.175781 456.679688 L 1037.9375 467.601562 C 1037.71875 467.929688 1037.445312 468.203125 1037.117188 468.421875 C 1036.792969 468.644531 1036.433594 468.792969 1036.046875 468.871094 C 1035.660156 468.949219 1035.273438 468.949219 1034.886719 468.871094 C 1034.5 468.796875 1034.140625 468.648438 1033.8125 468.429688 Z M 1006.285156 472.570312 C 1005.488281 472.730469 1004.75 472.582031 1004.070312 472.136719 L 993.152344 464.902344 C 992.824219 464.683594 992.550781 464.410156 992.328125 464.082031 C 992.109375 463.753906 991.960938 463.398438 991.882812 463.011719 C 991.804688 462.625 991.804688 462.238281 991.878906 461.851562 C 991.957031 461.464844 992.105469 461.105469 992.320312 460.777344 L 999.5625 449.859375 C 1000.007812 449.171875 1000.628906 448.738281 1001.429688 448.566406 C 1002.234375 448.414062 1002.980469 448.558594 1003.667969 449.003906 L 1014.613281 456.253906 C 1014.941406 456.472656 1015.21875 456.746094 1015.4375 457.074219 C 1015.65625 457.398438 1015.804688 457.757812 1015.882812 458.144531 C 1015.960938 458.53125 1015.960938 458.917969 1015.886719 459.304688 C 1015.808594 459.691406 1015.664062 460.046875 1015.445312 460.375 L 1008.195312 471.285156 C 1007.738281 471.980469 1007.101562 472.410156 1006.285156 472.570312 Z M 972.863281 451.019531 C 973.679688 450.941406 974.40625 451.164062 975.039062 451.683594 L 985.148438 460.019531 C 985.453125 460.269531 985.695312 460.570312 985.882812 460.917969 C 986.066406 461.265625 986.179688 461.636719 986.214844 462.027344 C 986.253906 462.421875 986.214844 462.804688 986.097656 463.183594 C 985.984375 463.558594 985.800781 463.898438 985.550781 464.203125 L 977.199219 474.300781 C 976.679688 474.933594 976.007812 475.289062 975.191406 475.367188 C 974.359375 475.476562 973.613281 475.269531 972.957031 474.746094 L 962.867188 466.414062 C 962.652344 466.238281 962.464844 466.035156 962.304688 465.808594 C 962.121094 465.542969 961.984375 465.253906 961.894531 464.945312 C 961.808594 464.632812 961.769531 464.316406 961.785156 463.996094 C 961.800781 463.671875 961.863281 463.359375 961.980469 463.058594 C 962.097656 462.753906 962.257812 462.480469 962.464844 462.230469 L 970.792969 452.128906 C 971.324219 451.464844 972.015625 451.09375 972.863281 451.019531 Z M 575.480469 470.867188 C 504.847656 462.234375 447.542969 449.90625 405.152344 434.222656 C 358.839844 417.101562 330.0625 395.894531 319.449219 371.089844 C 337.285156 378.375 392.152344 399.367188 474.847656 418.066406 C 568.039062 439.113281 716.644531 461.476562 896.519531 448.910156 L 898.496094 480.058594 L 898.824219 485.070312 C 829.386719 486.25 697.898438 485.816406 575.480469 470.867188 Z M 904.839844 484.988281 L 902.496094 448.457031 C 912.320312 447.746094 922.03125 446.945312 931.449219 446.0625 L 931.710938 450.957031 L 933.226562 484.226562 C 928.609375 484.425781 918.695312 484.75 904.839844 484.988281 Z M 952.949219 502.617188 C 952.980469 503.03125 952.972656 503.445312 952.921875 503.859375 C 952.871094 504.273438 952.78125 504.679688 952.648438 505.074219 C 952.515625 505.46875 952.347656 505.847656 952.140625 506.210938 C 951.933594 506.570312 951.691406 506.910156 951.417969 507.222656 C 951.144531 507.535156 950.839844 507.820312 950.507812 508.074219 C 950.175781 508.324219 949.824219 508.542969 949.449219 508.726562 C 949.074219 508.90625 948.683594 509.050781 948.28125 509.15625 C 947.878906 509.261719 947.46875 509.324219 947.050781 509.347656 C 946.636719 509.371094 946.222656 509.351562 945.808594 509.289062 C 945.394531 509.230469 944.992188 509.128906 944.601562 508.988281 C 944.210938 508.847656 943.835938 508.671875 943.476562 508.453125 C 943.121094 508.238281 942.789062 507.992188 942.484375 507.707031 C 942.175781 507.425781 941.898438 507.117188 941.65625 506.78125 C 941.410156 506.441406 941.199219 506.085938 941.027344 505.707031 C 940.855469 505.328125 940.71875 504.933594 940.625 504.527344 C 940.53125 504.121094 940.476562 503.710938 940.464844 503.296875 L 937.667969 450.769531 L 937.300781 442.695312 C 937.285156 442.488281 937.25 442.28125 937.199219 442.078125 L 936.347656 426.414062 C 936.324219 426.003906 936.34375 425.597656 936.402344 425.191406 C 936.460938 424.785156 936.558594 424.390625 936.695312 424.003906 C 936.832031 423.617188 937.003906 423.246094 937.214844 422.894531 C 937.421875 422.542969 937.664062 422.210938 937.9375 421.90625 C 938.214844 421.601562 938.515625 421.328125 938.84375 421.082031 C 939.171875 420.835938 939.519531 420.625 939.890625 420.449219 C 940.261719 420.269531 940.644531 420.132812 941.039062 420.03125 C 941.4375 419.929688 941.839844 419.867188 942.25 419.847656 C 942.660156 419.824219 943.066406 419.84375 943.472656 419.898438 C 943.878906 419.957031 944.273438 420.054688 944.660156 420.191406 C 945.046875 420.328125 945.417969 420.5 945.769531 420.710938 C 946.121094 420.917969 946.453125 421.160156 946.757812 421.433594 C 947.0625 421.707031 947.335938 422.007812 947.582031 422.335938 C 947.828125 422.664062 948.039062 423.011719 948.21875 423.382812 C 948.394531 423.753906 948.535156 424.136719 948.636719 424.535156 C 948.738281 424.929688 948.796875 425.332031 948.820312 425.742188 Z M 952.949219 502.617188 " fill-opacity="1" fill-rule="nonzero"/></g></g></g></g><g clip-path="url(#45c0194df0)"><g clip-path="url(#a4732d5eb0)"><g clip-path="url(#1ad71a7376)"><g clip-path="url(#8f074949f5)"><path fill="#ffffff" d="M 975.191406 475.367188 C 974.359375 475.476562 973.613281 475.269531 972.957031 474.746094 L 962.867188 466.414062 C 962.652344 466.238281 962.464844 466.035156 962.304688 465.808594 C 962.121094 465.542969 961.984375 465.253906 961.894531 464.945312 C 961.808594 464.632812 961.769531 464.316406 961.785156 463.996094 C 961.800781 463.671875 961.863281 463.359375 961.980469 463.058594 C 962.097656 462.753906 962.257812 462.480469 962.464844 462.230469 L 970.792969 452.128906 C 971.316406 451.496094 971.984375 451.140625 972.800781 451.0625 C 973.617188 450.984375 974.34375 451.203125 974.976562 451.726562 L 985.085938 460.0625 C 985.390625 460.3125 985.636719 460.613281 985.820312 460.960938 C 986.003906 461.308594 986.117188 461.679688 986.15625 462.070312 C 986.191406 462.460938 986.152344 462.847656 986.039062 463.222656 C 985.921875 463.601562 985.738281 463.941406 985.488281 464.246094 L 977.140625 474.34375 C 976.625 474.945312 975.976562 475.285156 975.191406 475.367188 Z M 975.191406 475.367188 " fill-opacity="1" fill-rule="nonzero"/></g></g></g></g><g clip-path="url(#5a0f5125f8)"><g clip-path="url(#330c46db1f)"><g clip-path="url(#a864a2a130)"><g clip-path="url(#7c67ab08c0)"><path fill="#ffffff" d="M 1006.285156 472.570312 C 1005.488281 472.730469 1004.75 472.582031 1004.070312 472.136719 L 993.152344 464.902344 C 992.824219 464.683594 992.550781 464.410156 992.328125 464.082031 C 992.109375 463.753906 991.960938 463.398438 991.882812 463.011719 C 991.804688 462.625 991.804688 462.238281 991.878906 461.851562 C 991.957031 461.464844 992.105469 461.105469 992.320312 460.777344 L 999.5625 449.859375 C 1000.007812 449.171875 1000.628906 448.738281 1001.429688 448.566406 C 1002.234375 448.414062 1002.980469 448.558594 1003.667969 449.003906 L 1014.613281 456.253906 C 1014.941406 456.472656 1015.21875 456.746094 1015.4375 457.074219 C 1015.65625 457.398438 1015.804688 457.757812 1015.882812 458.144531 C 1015.960938 458.53125 1015.960938 458.917969 1015.886719 459.304688 C 1015.808594 459.691406 1015.664062 460.046875 1015.445312 460.375 L 1008.195312 471.285156 C 1007.738281 471.980469 1007.101562 472.410156 1006.285156 472.570312 Z M 1006.285156 472.570312 " fill-opacity="1" fill-rule="nonzero"/></g></g></g></g><g clip-path="url(#0463902682)"><g clip-path="url(#5e5b3ac246)"><g clip-path="url(#e37583bcb9)"><g clip-path="url(#f0adea9904)"><path fill="#ffffff" d="M 1033.863281 468.398438 L 1022.945312 461.164062 C 1022.632812 460.949219 1022.367188 460.6875 1022.148438 460.378906 C 1021.800781 459.878906 1021.625 459.324219 1021.617188 458.714844 C 1021.613281 458.105469 1021.777344 457.546875 1022.113281 457.039062 L 1029.3125 446.167969 C 1029.53125 445.839844 1029.800781 445.566406 1030.128906 445.34375 C 1030.453125 445.125 1030.8125 444.972656 1031.195312 444.894531 C 1031.582031 444.816406 1031.96875 444.8125 1032.355469 444.886719 C 1032.742188 444.960938 1033.097656 445.105469 1033.429688 445.324219 L 1044.332031 452.566406 C 1044.664062 452.785156 1044.9375 453.054688 1045.15625 453.382812 C 1045.378906 453.707031 1045.527344 454.0625 1045.605469 454.449219 C 1045.683594 454.835938 1045.6875 455.222656 1045.613281 455.609375 C 1045.539062 455.996094 1045.394531 456.351562 1045.175781 456.679688 L 1037.9375 467.601562 C 1037.714844 467.917969 1037.445312 468.183594 1037.121094 468.398438 C 1036.796875 468.609375 1036.441406 468.753906 1036.0625 468.828125 C 1035.679688 468.902344 1035.300781 468.902344 1034.921875 468.828125 C 1034.539062 468.753906 1034.1875 468.609375 1033.863281 468.398438 Z M 1033.863281 468.398438 " fill-opacity="1" fill-rule="nonzero"/></g></g></g></g><g clip-path="url(#7df08e5fb7)"><g clip-path="url(#d0aa4effe8)"><g clip-path="url(#d22df26e7e)"><g clip-path="url(#6242f6b3ef)"><path fill="#ffffff" d="M 1063.792969 462.667969 L 1052.183594 456.597656 C 1051.753906 456.367188 1051.398438 456.054688 1051.117188 455.65625 C 1050.804688 455.199219 1050.628906 454.695312 1050.597656 454.144531 C 1050.566406 453.589844 1050.679688 453.070312 1050.941406 452.582031 L 1057 440.980469 C 1057.183594 440.628906 1057.425781 440.328125 1057.726562 440.078125 C 1058.03125 439.824219 1058.367188 439.640625 1058.746094 439.519531 C 1059.121094 439.402344 1059.503906 439.363281 1059.898438 439.394531 C 1060.289062 439.429688 1060.660156 439.539062 1061.007812 439.722656 L 1072.621094 445.789062 C 1072.96875 445.972656 1073.269531 446.214844 1073.523438 446.515625 C 1073.773438 446.820312 1073.960938 447.15625 1074.078125 447.535156 C 1074.195312 447.910156 1074.238281 448.292969 1074.203125 448.6875 C 1074.167969 449.078125 1074.058594 449.449219 1073.875 449.796875 L 1067.800781 461.410156 C 1067.621094 461.757812 1067.378906 462.058594 1067.074219 462.3125 C 1066.773438 462.5625 1066.433594 462.75 1066.058594 462.867188 C 1065.683594 462.984375 1065.296875 463.027344 1064.90625 462.992188 C 1064.515625 462.957031 1064.144531 462.847656 1063.792969 462.667969 Z M 1063.792969 462.667969 " fill-opacity="1" fill-rule="nonzero"/></g></g></g></g><g clip-path="url(#af96676c86)"><g clip-path="url(#4a3e91bd90)"><g clip-path="url(#106d4cea8c)"><g clip-path="url(#b79427e0d8)"><path fill="#ffffff" d="M 1092.910156 455.964844 L 1081.035156 450.402344 C 1080.5625 450.167969 1080.175781 449.835938 1079.871094 449.402344 C 1079.722656 449.1875 1079.601562 448.960938 1079.507812 448.71875 C 1079.238281 447.941406 1079.277344 447.179688 1079.625 446.433594 L 1085.222656 434.609375 C 1085.390625 434.25 1085.621094 433.941406 1085.914062 433.675781 C 1086.203125 433.414062 1086.535156 433.214844 1086.90625 433.082031 C 1087.277344 432.949219 1087.65625 432.890625 1088.050781 432.910156 C 1088.445312 432.929688 1088.820312 433.023438 1089.175781 433.191406 L 1101.074219 438.789062 C 1101.816406 439.140625 1102.328125 439.703125 1102.601562 440.476562 C 1102.882812 441.25 1102.847656 442.007812 1102.5 442.75 L 1096.886719 454.585938 C 1096.714844 454.941406 1096.480469 455.25 1096.1875 455.511719 C 1095.890625 455.773438 1095.558594 455.972656 1095.183594 456.101562 C 1094.8125 456.230469 1094.425781 456.285156 1094.03125 456.261719 C 1093.640625 456.238281 1093.265625 456.136719 1092.910156 455.964844 Z M 1092.910156 455.964844 " fill-opacity="1" fill-rule="nonzero"/></g></g></g></g></svg>