<?xml version="1.0" encoding="UTF-8" standalone="no"?>
<svg
   width="213.18176"
   zoomAndPan="magnify"
   viewBox="0 0 159.88632 161.70968"
   height="215.61292"
   preserveAspectRatio="xMidYMid"
   version="1.0"
   id="svg249"
   sodipodi:docname="2.svg"
   xmlns:inkscape="http://www.inkscape.org/namespaces/inkscape"
   xmlns:sodipodi="http://sodipodi.sourceforge.net/DTD/sodipodi-0.dtd"
   xmlns="http://www.w3.org/2000/svg"
   xmlns:svg="http://www.w3.org/2000/svg">
  <sodipodi:namedview
     id="namedview249"
     pagecolor="#ffffff"
     bordercolor="#000000"
     borderopacity="0.25"
     inkscape:showpageshadow="2"
     inkscape:pageopacity="0.0"
     inkscape:pagecheckerboard="0"
     inkscape:deskcolor="#d1d1d1" />
  <defs
     id="defs124">
    <clipPath
       id="4db03993ae">
      <path
         d="m 287,125 h 111 v 92 H 287 Z m 0,0"
         clip-rule="nonzero"
         id="path1" />
    </clipPath>
    <clipPath
       id="56a7f672d6">
      <path
         d="M 222.91797,107.41016 372.20312,40.734375 439.79687,192.07422 290.50781,258.75 Z m 0,0"
         clip-rule="nonzero"
         id="path2" />
    </clipPath>
    <clipPath
       id="a4f521f903">
      <path
         d="M 222.91797,107.41016 372.20312,40.734375 439.79687,192.07422 290.50781,258.75 Z m 0,0"
         clip-rule="nonzero"
         id="path3" />
    </clipPath>
    <clipPath
       id="8e722c15c4">
      <path
         d="M 222.91797,107.41016 372.20312,40.734375 439.79687,192.07422 290.50781,258.75 Z m 0,0"
         clip-rule="nonzero"
         id="path4" />
    </clipPath>
    <clipPath
       id="42322b3a42">
      <path
         d="M 262,99 H 423 V 240 H 262 Z m 0,0"
         clip-rule="nonzero"
         id="path5" />
    </clipPath>
    <clipPath
       id="3a88aba7e9">
      <path
         d="M 222.91797,107.41016 372.20312,40.734375 439.79687,192.07422 290.50781,258.75 Z m 0,0"
         clip-rule="nonzero"
         id="path6" />
    </clipPath>
    <clipPath
       id="f315039240">
      <path
         d="M 222.91797,107.41016 372.20312,40.734375 439.79687,192.07422 290.50781,258.75 Z m 0,0"
         clip-rule="nonzero"
         id="path7" />
    </clipPath>
    <clipPath
       id="1b253fb0f0">
      <path
         d="M 222.91797,107.41016 372.20312,40.734375 439.79687,192.07422 290.50781,258.75 Z m 0,0"
         clip-rule="nonzero"
         id="path8" />
    </clipPath>
    <clipPath
       id="2f1eadaada">
      <path
         d="M 266,103 H 418 V 235 H 266 Z m 0,0"
         clip-rule="nonzero"
         id="path9" />
    </clipPath>
    <clipPath
       id="154b1573dc">
      <path
         d="M 222.91797,107.41016 372.20312,40.734375 439.79687,192.07422 290.50781,258.75 Z m 0,0"
         clip-rule="nonzero"
         id="path10" />
    </clipPath>
    <clipPath
       id="c5dfabd5e2">
      <path
         d="M 222.91797,107.41016 372.20312,40.734375 439.79687,192.07422 290.50781,258.75 Z m 0,0"
         clip-rule="nonzero"
         id="path11" />
    </clipPath>
    <clipPath
       id="d524552185">
      <path
         d="M 222.91797,107.41016 372.20312,40.734375 439.79687,192.07422 290.50781,258.75 Z m 0,0"
         clip-rule="nonzero"
         id="path12" />
    </clipPath>
    <clipPath
       id="b19d0ebdf4">
      <path
         d="m 287,125 h 111 v 92 H 287 Z m 0,0"
         clip-rule="nonzero"
         id="path13" />
    </clipPath>
    <clipPath
       id="dab2f33944">
      <path
         d="M 222.91797,107.41016 372.20312,40.734375 439.79687,192.07422 290.50781,258.75 Z m 0,0"
         clip-rule="nonzero"
         id="path14" />
    </clipPath>
    <clipPath
       id="d281d31f4e">
      <path
         d="M 222.91797,107.41016 372.20312,40.734375 439.79687,192.07422 290.50781,258.75 Z m 0,0"
         clip-rule="nonzero"
         id="path15" />
    </clipPath>
    <clipPath
       id="2e6687ebfa">
      <path
         d="M 222.91797,107.41016 372.20312,40.734375 439.79687,192.07422 290.50781,258.75 Z m 0,0"
         clip-rule="nonzero"
         id="path16" />
    </clipPath>
    <clipPath
       id="f4c9d8a28f">
      <path
         d="m 360,103 h 58 v 112 h -58 z m 0,0"
         clip-rule="nonzero"
         id="path17" />
    </clipPath>
    <clipPath
       id="7648a619f3">
      <path
         d="M 222.91797,107.41016 372.20312,40.734375 439.79687,192.07422 290.50781,258.75 Z m 0,0"
         clip-rule="nonzero"
         id="path18" />
    </clipPath>
    <clipPath
       id="ab2fa9903b">
      <path
         d="M 222.91797,107.41016 372.20312,40.734375 439.79687,192.07422 290.50781,258.75 Z m 0,0"
         clip-rule="nonzero"
         id="path19" />
    </clipPath>
    <clipPath
       id="9bfad44761">
      <path
         d="M 222.91797,107.41016 372.20312,40.734375 439.79687,192.07422 290.50781,258.75 Z m 0,0"
         clip-rule="nonzero"
         id="path20" />
    </clipPath>
    <clipPath
       id="d2f0cf67cd">
      <path
         d="m 342,148 h 10 v 10 h -10 z m 0,0"
         clip-rule="nonzero"
         id="path21" />
    </clipPath>
    <clipPath
       id="c067fb49c0">
      <path
         d="M 222.91797,107.41016 372.20312,40.734375 439.79687,192.07422 290.50781,258.75 Z m 0,0"
         clip-rule="nonzero"
         id="path22" />
    </clipPath>
    <clipPath
       id="94cdf1c605">
      <path
         d="M 222.91797,107.41016 372.20312,40.734375 439.79687,192.07422 290.50781,258.75 Z m 0,0"
         clip-rule="nonzero"
         id="path23" />
    </clipPath>
    <clipPath
       id="8e62442026">
      <path
         d="M 222.91797,107.41016 372.20312,40.734375 439.79687,192.07422 290.50781,258.75 Z m 0,0"
         clip-rule="nonzero"
         id="path24" />
    </clipPath>
    <clipPath
       id="0c133f40ad">
      <path
         d="m 348,160 h 12 v 9 h -12 z m 0,0"
         clip-rule="nonzero"
         id="path25" />
    </clipPath>
    <clipPath
       id="53533553be">
      <path
         d="M 222.91797,107.41016 372.20312,40.734375 439.79687,192.07422 290.50781,258.75 Z m 0,0"
         clip-rule="nonzero"
         id="path26" />
    </clipPath>
    <clipPath
       id="9ffc9b430e">
      <path
         d="M 222.91797,107.41016 372.20312,40.734375 439.79687,192.07422 290.50781,258.75 Z m 0,0"
         clip-rule="nonzero"
         id="path27" />
    </clipPath>
    <clipPath
       id="9d3e338568">
      <path
         d="M 222.91797,107.41016 372.20312,40.734375 439.79687,192.07422 290.50781,258.75 Z m 0,0"
         clip-rule="nonzero"
         id="path28" />
    </clipPath>
    <clipPath
       id="e2798f6cbb">
      <path
         d="m 350,173 h 13 v 8 h -13 z m 0,0"
         clip-rule="nonzero"
         id="path29" />
    </clipPath>
    <clipPath
       id="15a44f506c">
      <path
         d="M 222.91797,107.41016 372.20312,40.734375 439.79687,192.07422 290.50781,258.75 Z m 0,0"
         clip-rule="nonzero"
         id="path30" />
    </clipPath>
    <clipPath
       id="0d1009168e">
      <path
         d="M 222.91797,107.41016 372.20312,40.734375 439.79687,192.07422 290.50781,258.75 Z m 0,0"
         clip-rule="nonzero"
         id="path31" />
    </clipPath>
    <clipPath
       id="f1d36311b5">
      <path
         d="M 222.91797,107.41016 372.20312,40.734375 439.79687,192.07422 290.50781,258.75 Z m 0,0"
         clip-rule="nonzero"
         id="path32" />
    </clipPath>
    <clipPath
       id="312cf802ea">
      <path
         d="m 321,158 h 12 v 8 h -12 z m 0,0"
         clip-rule="nonzero"
         id="path33" />
    </clipPath>
    <clipPath
       id="82adb5f1ee">
      <path
         d="M 222.91797,107.41016 372.20312,40.734375 439.79687,192.07422 290.50781,258.75 Z m 0,0"
         clip-rule="nonzero"
         id="path34" />
    </clipPath>
    <clipPath
       id="b7cf2be785">
      <path
         d="M 222.91797,107.41016 372.20312,40.734375 439.79687,192.07422 290.50781,258.75 Z m 0,0"
         clip-rule="nonzero"
         id="path35" />
    </clipPath>
    <clipPath
       id="8b68ba0ddd">
      <path
         d="M 222.91797,107.41016 372.20312,40.734375 439.79687,192.07422 290.50781,258.75 Z m 0,0"
         clip-rule="nonzero"
         id="path36" />
    </clipPath>
    <clipPath
       id="7a5b09812d">
      <path
         d="m 325,171 h 12 v 9 h -12 z m 0,0"
         clip-rule="nonzero"
         id="path37" />
    </clipPath>
    <clipPath
       id="fbc29ee2c0">
      <path
         d="M 222.91797,107.41016 372.20312,40.734375 439.79687,192.07422 290.50781,258.75 Z m 0,0"
         clip-rule="nonzero"
         id="path38" />
    </clipPath>
    <clipPath
       id="d80fe901c9">
      <path
         d="M 222.91797,107.41016 372.20312,40.734375 439.79687,192.07422 290.50781,258.75 Z m 0,0"
         clip-rule="nonzero"
         id="path39" />
    </clipPath>
    <clipPath
       id="271a08d636">
      <path
         d="M 222.91797,107.41016 372.20312,40.734375 439.79687,192.07422 290.50781,258.75 Z m 0,0"
         clip-rule="nonzero"
         id="path40" />
    </clipPath>
    <clipPath
       id="75c5d40eb9">
      <path
         d="m 333,179 h 10 v 11 h -10 z m 0,0"
         clip-rule="nonzero"
         id="path41" />
    </clipPath>
    <clipPath
       id="8ae3f98f5f">
      <path
         d="M 222.91797,107.41016 372.20312,40.734375 439.79687,192.07422 290.50781,258.75 Z m 0,0"
         clip-rule="nonzero"
         id="path42" />
    </clipPath>
    <clipPath
       id="979adf41be">
      <path
         d="M 222.91797,107.41016 372.20312,40.734375 439.79687,192.07422 290.50781,258.75 Z m 0,0"
         clip-rule="nonzero"
         id="path43" />
    </clipPath>
    <clipPath
       id="5a6fb3b83e">
      <path
         d="M 222.91797,107.41016 372.20312,40.734375 439.79687,192.07422 290.50781,258.75 Z m 0,0"
         clip-rule="nonzero"
         id="path44" />
    </clipPath>
    <clipPath
       id="326ffb5ca7">
      <path
         d="m 287,125 h 111 v 92 H 287 Z m 0,0"
         clip-rule="nonzero"
         id="path45" />
    </clipPath>
    <clipPath
       id="a356fca2f7">
      <path
         d="M 222.91797,107.41016 372.20312,40.734375 439.79687,192.07422 290.50781,258.75 Z m 0,0"
         clip-rule="nonzero"
         id="path46" />
    </clipPath>
    <clipPath
       id="9ea274c792">
      <path
         d="M 222.91797,107.41016 372.20312,40.734375 439.79687,192.07422 290.50781,258.75 Z m 0,0"
         clip-rule="nonzero"
         id="path47" />
    </clipPath>
    <clipPath
       id="05827e2a51">
      <path
         d="M 222.91797,107.41016 372.20312,40.734375 439.79687,192.07422 290.50781,258.75 Z m 0,0"
         clip-rule="nonzero"
         id="path48" />
    </clipPath>
    <clipPath
       id="0151bc046c">
      <path
         d="m 358,135 h 10 v 11 h -10 z m 0,0"
         clip-rule="nonzero"
         id="path49" />
    </clipPath>
    <clipPath
       id="4c872344f9">
      <path
         d="M 222.91797,107.41016 372.20312,40.734375 439.79687,192.07422 290.50781,258.75 Z m 0,0"
         clip-rule="nonzero"
         id="path50" />
    </clipPath>
    <clipPath
       id="b5690534af">
      <path
         d="M 222.91797,107.41016 372.20312,40.734375 439.79687,192.07422 290.50781,258.75 Z m 0,0"
         clip-rule="nonzero"
         id="path51" />
    </clipPath>
    <clipPath
       id="1b0b1b219f">
      <path
         d="M 222.91797,107.41016 372.20312,40.734375 439.79687,192.07422 290.50781,258.75 Z m 0,0"
         clip-rule="nonzero"
         id="path52" />
    </clipPath>
    <clipPath
       id="dc9687b67a">
      <path
         d="m 369,140 h 10 v 11 h -10 z m 0,0"
         clip-rule="nonzero"
         id="path53" />
    </clipPath>
    <clipPath
       id="a12c3a4423">
      <path
         d="M 222.91797,107.41016 372.20312,40.734375 439.79687,192.07422 290.50781,258.75 Z m 0,0"
         clip-rule="nonzero"
         id="path54" />
    </clipPath>
    <clipPath
       id="d1b077deea">
      <path
         d="M 222.91797,107.41016 372.20312,40.734375 439.79687,192.07422 290.50781,258.75 Z m 0,0"
         clip-rule="nonzero"
         id="path55" />
    </clipPath>
    <clipPath
       id="79b2e0608e">
      <path
         d="M 222.91797,107.41016 372.20312,40.734375 439.79687,192.07422 290.50781,258.75 Z m 0,0"
         clip-rule="nonzero"
         id="path56" />
    </clipPath>
    <clipPath
       id="6db877e2e4">
      <path
         d="m 374,163 h 13 v 8 h -13 z m 0,0"
         clip-rule="nonzero"
         id="path57" />
    </clipPath>
    <clipPath
       id="5206d7b72e">
      <path
         d="M 222.91797,107.41016 372.20312,40.734375 439.79687,192.07422 290.50781,258.75 Z m 0,0"
         clip-rule="nonzero"
         id="path58" />
    </clipPath>
    <clipPath
       id="6f27b19a8e">
      <path
         d="M 222.91797,107.41016 372.20312,40.734375 439.79687,192.07422 290.50781,258.75 Z m 0,0"
         clip-rule="nonzero"
         id="path59" />
    </clipPath>
    <clipPath
       id="087e56b788">
      <path
         d="M 222.91797,107.41016 372.20312,40.734375 439.79687,192.07422 290.50781,258.75 Z m 0,0"
         clip-rule="nonzero"
         id="path60" />
    </clipPath>
    <clipPath
       id="1dda217b9f">
      <path
         d="m 374,151 h 11 v 9 h -11 z m 0,0"
         clip-rule="nonzero"
         id="path61" />
    </clipPath>
    <clipPath
       id="2fb46c47e2">
      <path
         d="M 222.91797,107.41016 372.20312,40.734375 439.79687,192.07422 290.50781,258.75 Z m 0,0"
         clip-rule="nonzero"
         id="path62" />
    </clipPath>
    <clipPath
       id="d45b805929">
      <path
         d="M 222.91797,107.41016 372.20312,40.734375 439.79687,192.07422 290.50781,258.75 Z m 0,0"
         clip-rule="nonzero"
         id="path63" />
    </clipPath>
    <clipPath
       id="3c84a4a8dd">
      <path
         d="M 222.91797,107.41016 372.20312,40.734375 439.79687,192.07422 290.50781,258.75 Z m 0,0"
         clip-rule="nonzero"
         id="path64" />
    </clipPath>
    <clipPath
       id="48fd9a5de2">
      <path
         d="m 369,175 h 12 v 9 h -12 z m 0,0"
         clip-rule="nonzero"
         id="path65" />
    </clipPath>
    <clipPath
       id="5e5f1ea777">
      <path
         d="M 222.91797,107.41016 372.20312,40.734375 439.79687,192.07422 290.50781,258.75 Z m 0,0"
         clip-rule="nonzero"
         id="path66" />
    </clipPath>
    <clipPath
       id="d10661230d">
      <path
         d="M 222.91797,107.41016 372.20312,40.734375 439.79687,192.07422 290.50781,258.75 Z m 0,0"
         clip-rule="nonzero"
         id="path67" />
    </clipPath>
    <clipPath
       id="9dc93041b0">
      <path
         d="M 222.91797,107.41016 372.20312,40.734375 439.79687,192.07422 290.50781,258.75 Z m 0,0"
         clip-rule="nonzero"
         id="path68" />
    </clipPath>
    <clipPath
       id="8c986c6d6f">
      <path
         d="m 303,161 h 12 v 8 h -12 z m 0,0"
         clip-rule="nonzero"
         id="path69" />
    </clipPath>
    <clipPath
       id="3fefa5a703">
      <path
         d="M 222.91797,107.41016 372.20312,40.734375 439.79687,192.07422 290.50781,258.75 Z m 0,0"
         clip-rule="nonzero"
         id="path70" />
    </clipPath>
    <clipPath
       id="86b42f6d58">
      <path
         d="M 222.91797,107.41016 372.20312,40.734375 439.79687,192.07422 290.50781,258.75 Z m 0,0"
         clip-rule="nonzero"
         id="path71" />
    </clipPath>
    <clipPath
       id="242ead260c">
      <path
         d="M 222.91797,107.41016 372.20312,40.734375 439.79687,192.07422 290.50781,258.75 Z m 0,0"
         clip-rule="nonzero"
         id="path72" />
    </clipPath>
    <clipPath
       id="55e0067321">
      <path
         d="m 299,172 h 12 v 8 h -12 z m 0,0"
         clip-rule="nonzero"
         id="path73" />
    </clipPath>
    <clipPath
       id="cabce56a8f">
      <path
         d="M 222.91797,107.41016 372.20312,40.734375 439.79687,192.07422 290.50781,258.75 Z m 0,0"
         clip-rule="nonzero"
         id="path74" />
    </clipPath>
    <clipPath
       id="ffe67ae119">
      <path
         d="M 222.91797,107.41016 372.20312,40.734375 439.79687,192.07422 290.50781,258.75 Z m 0,0"
         clip-rule="nonzero"
         id="path75" />
    </clipPath>
    <clipPath
       id="91e5b9888f">
      <path
         d="M 222.91797,107.41016 372.20312,40.734375 439.79687,192.07422 290.50781,258.75 Z m 0,0"
         clip-rule="nonzero"
         id="path76" />
    </clipPath>
    <clipPath
       id="8ffe1b4ebe">
      <path
         d="m 310,192 h 12 v 10 h -12 z m 0,0"
         clip-rule="nonzero"
         id="path77" />
    </clipPath>
    <clipPath
       id="8fcbe5742d">
      <path
         d="M 222.91797,107.41016 372.20312,40.734375 439.79687,192.07422 290.50781,258.75 Z m 0,0"
         clip-rule="nonzero"
         id="path78" />
    </clipPath>
    <clipPath
       id="2fcd0b8fb5">
      <path
         d="M 222.91797,107.41016 372.20312,40.734375 439.79687,192.07422 290.50781,258.75 Z m 0,0"
         clip-rule="nonzero"
         id="path79" />
    </clipPath>
    <clipPath
       id="9ce699a2a5">
      <path
         d="M 222.91797,107.41016 372.20312,40.734375 439.79687,192.07422 290.50781,258.75 Z m 0,0"
         clip-rule="nonzero"
         id="path80" />
    </clipPath>
    <clipPath
       id="213ac501ff">
      <path
         d="m 302,184 h 12 v 9 h -12 z m 0,0"
         clip-rule="nonzero"
         id="path81" />
    </clipPath>
    <clipPath
       id="46177f8c97">
      <path
         d="M 222.91797,107.41016 372.20312,40.734375 439.79687,192.07422 290.50781,258.75 Z m 0,0"
         clip-rule="nonzero"
         id="path82" />
    </clipPath>
    <clipPath
       id="fa8009baca">
      <path
         d="M 222.91797,107.41016 372.20312,40.734375 439.79687,192.07422 290.50781,258.75 Z m 0,0"
         clip-rule="nonzero"
         id="path83" />
    </clipPath>
    <clipPath
       id="1d2ca09ad1">
      <path
         d="M 222.91797,107.41016 372.20312,40.734375 439.79687,192.07422 290.50781,258.75 Z m 0,0"
         clip-rule="nonzero"
         id="path84" />
    </clipPath>
    <clipPath
       id="f3fbc0a0de">
      <path
         d="m 326,193 h 10 v 12 h -10 z m 0,0"
         clip-rule="nonzero"
         id="path85" />
    </clipPath>
    <clipPath
       id="4b669e25c5">
      <path
         d="M 222.91797,107.41016 372.20312,40.734375 439.79687,192.07422 290.50781,258.75 Z m 0,0"
         clip-rule="nonzero"
         id="path86" />
    </clipPath>
    <clipPath
       id="fc85c4fc9c">
      <path
         d="M 222.91797,107.41016 372.20312,40.734375 439.79687,192.07422 290.50781,258.75 Z m 0,0"
         clip-rule="nonzero"
         id="path87" />
    </clipPath>
    <clipPath
       id="a720927650">
      <path
         d="M 222.91797,107.41016 372.20312,40.734375 439.79687,192.07422 290.50781,258.75 Z m 0,0"
         clip-rule="nonzero"
         id="path88" />
    </clipPath>
    <clipPath
       id="37e8e9ad9a">
      <path
         d="m 285,77 h 60 v 55 h -60 z m 0,0"
         clip-rule="nonzero"
         id="path89" />
    </clipPath>
    <clipPath
       id="f9c651782c">
      <path
         d="M 222.91797,107.41016 372.20312,40.734375 439.79687,192.07422 290.50781,258.75 Z m 0,0"
         clip-rule="nonzero"
         id="path90" />
    </clipPath>
    <clipPath
       id="2195f88a5a">
      <path
         d="M 222.91797,107.41016 372.20312,40.734375 439.79687,192.07422 290.50781,258.75 Z m 0,0"
         clip-rule="nonzero"
         id="path91" />
    </clipPath>
    <clipPath
       id="99e240f5d8">
      <path
         d="M 222.91797,107.41016 372.20312,40.734375 439.79687,192.07422 290.50781,258.75 Z m 0,0"
         clip-rule="nonzero"
         id="path92" />
    </clipPath>
    <clipPath
       id="e5fe7bd463">
      <path
         d="m 286,78 h 8 v 14 h -8 z m 0,0"
         clip-rule="nonzero"
         id="path93" />
    </clipPath>
    <clipPath
       id="7effa1f3e6">
      <path
         d="M 222.91797,107.41016 372.20312,40.734375 439.79687,192.07422 290.50781,258.75 Z m 0,0"
         clip-rule="nonzero"
         id="path94" />
    </clipPath>
    <clipPath
       id="28c5033714">
      <path
         d="M 222.91797,107.41016 372.20312,40.734375 439.79687,192.07422 290.50781,258.75 Z m 0,0"
         clip-rule="nonzero"
         id="path95" />
    </clipPath>
    <clipPath
       id="04bea89662">
      <path
         d="M 222.91797,107.41016 372.20312,40.734375 439.79687,192.07422 290.50781,258.75 Z m 0,0"
         clip-rule="nonzero"
         id="path96" />
    </clipPath>
    <clipPath
       id="91533f6649">
      <path
         d="m 287,80 h 6 v 10 h -6 z m 0,0"
         clip-rule="nonzero"
         id="path97" />
    </clipPath>
    <clipPath
       id="143b5177b0">
      <path
         d="M 222.91797,107.41016 372.20312,40.734375 439.79687,192.07422 290.50781,258.75 Z m 0,0"
         clip-rule="nonzero"
         id="path98" />
    </clipPath>
    <clipPath
       id="590f387023">
      <path
         d="M 222.91797,107.41016 372.20312,40.734375 439.79687,192.07422 290.50781,258.75 Z m 0,0"
         clip-rule="nonzero"
         id="path99" />
    </clipPath>
    <clipPath
       id="9ff7416d9a">
      <path
         d="M 222.91797,107.41016 372.20312,40.734375 439.79687,192.07422 290.50781,258.75 Z m 0,0"
         clip-rule="nonzero"
         id="path100" />
    </clipPath>
    <clipPath
       id="58f018344b">
      <path
         d="m 293,78 h 49 v 35 h -49 z m 0,0"
         clip-rule="nonzero"
         id="path101" />
    </clipPath>
    <clipPath
       id="717e8b7efb">
      <path
         d="M 222.91797,107.41016 372.20312,40.734375 439.79687,192.07422 290.50781,258.75 Z m 0,0"
         clip-rule="nonzero"
         id="path102" />
    </clipPath>
    <clipPath
       id="92b654d0fb">
      <path
         d="M 222.91797,107.41016 372.20312,40.734375 439.79687,192.07422 290.50781,258.75 Z m 0,0"
         clip-rule="nonzero"
         id="path103" />
    </clipPath>
    <clipPath
       id="3e28d6b92d">
      <path
         d="M 222.91797,107.41016 372.20312,40.734375 439.79687,192.07422 290.50781,258.75 Z m 0,0"
         clip-rule="nonzero"
         id="path104" />
    </clipPath>
    <clipPath
       id="5e1eae25f7">
      <path
         d="m 288,89 h 24 v 33 h -24 z m 0,0"
         clip-rule="nonzero"
         id="path105" />
    </clipPath>
    <clipPath
       id="f2b5e0f7c5">
      <path
         d="M 222.91797,107.41016 372.20312,40.734375 439.79687,192.07422 290.50781,258.75 Z m 0,0"
         clip-rule="nonzero"
         id="path106" />
    </clipPath>
    <clipPath
       id="074090a352">
      <path
         d="M 222.91797,107.41016 372.20312,40.734375 439.79687,192.07422 290.50781,258.75 Z m 0,0"
         clip-rule="nonzero"
         id="path107" />
    </clipPath>
    <clipPath
       id="5e69319e35">
      <path
         d="M 222.91797,107.41016 372.20312,40.734375 439.79687,192.07422 290.50781,258.75 Z m 0,0"
         clip-rule="nonzero"
         id="path108" />
    </clipPath>
    <clipPath
       id="be859292a7">
      <path
         d="m 300,108 h 45 v 24 h -45 z m 0,0"
         clip-rule="nonzero"
         id="path109" />
    </clipPath>
    <clipPath
       id="6acf594c33">
      <path
         d="M 222.91797,107.41016 372.20312,40.734375 439.79687,192.07422 290.50781,258.75 Z m 0,0"
         clip-rule="nonzero"
         id="path110" />
    </clipPath>
    <clipPath
       id="e8d0fff244">
      <path
         d="M 222.91797,107.41016 372.20312,40.734375 439.79687,192.07422 290.50781,258.75 Z m 0,0"
         clip-rule="nonzero"
         id="path111" />
    </clipPath>
    <clipPath
       id="7aec9f10d1">
      <path
         d="M 222.91797,107.41016 372.20312,40.734375 439.79687,192.07422 290.50781,258.75 Z m 0,0"
         clip-rule="nonzero"
         id="path112" />
    </clipPath>
    <clipPath
       id="cc51c5ac05">
      <path
         d="m 266,137 h 53 v 98 h -53 z m 0,0"
         clip-rule="nonzero"
         id="path113" />
    </clipPath>
    <clipPath
       id="dc1170961c">
      <path
         d="M 222.91797,107.41016 372.20312,40.734375 439.79687,192.07422 290.50781,258.75 Z m 0,0"
         clip-rule="nonzero"
         id="path114" />
    </clipPath>
    <clipPath
       id="d5780a7ec0">
      <path
         d="M 222.91797,107.41016 372.20312,40.734375 439.79687,192.07422 290.50781,258.75 Z m 0,0"
         clip-rule="nonzero"
         id="path115" />
    </clipPath>
    <clipPath
       id="c573a04edf">
      <path
         d="M 222.91797,107.41016 372.20312,40.734375 439.79687,192.07422 290.50781,258.75 Z m 0,0"
         clip-rule="nonzero"
         id="path116" />
    </clipPath>
    <clipPath
       id="f23d9d2bb1">
      <path
         d="m 280,130 h 13 v 8 h -13 z m 0,0"
         clip-rule="nonzero"
         id="path117" />
    </clipPath>
    <clipPath
       id="fdfb98b3a5">
      <path
         d="M 222.91797,107.41016 372.20312,40.734375 439.79687,192.07422 290.50781,258.75 Z m 0,0"
         clip-rule="nonzero"
         id="path118" />
    </clipPath>
    <clipPath
       id="edfd6efab6">
      <path
         d="M 222.91797,107.41016 372.20312,40.734375 439.79687,192.07422 290.50781,258.75 Z m 0,0"
         clip-rule="nonzero"
         id="path119" />
    </clipPath>
    <clipPath
       id="03b58dbc32">
      <path
         d="M 222.91797,107.41016 372.20312,40.734375 439.79687,192.07422 290.50781,258.75 Z m 0,0"
         clip-rule="nonzero"
         id="path120" />
    </clipPath>
    <clipPath
       id="4025e283ff">
      <path
         d="m 350,100 h 11 v 9 h -11 z m 0,0"
         clip-rule="nonzero"
         id="path121" />
    </clipPath>
    <clipPath
       id="d4052a77dc">
      <path
         d="M 222.91797,107.41016 372.20312,40.734375 439.79687,192.07422 290.50781,258.75 Z m 0,0"
         clip-rule="nonzero"
         id="path122" />
    </clipPath>
    <clipPath
       id="8d8048ca7a">
      <path
         d="M 222.91797,107.41016 372.20312,40.734375 439.79687,192.07422 290.50781,258.75 Z m 0,0"
         clip-rule="nonzero"
         id="path123" />
    </clipPath>
    <clipPath
       id="89fe533470">
      <path
         d="M 222.91797,107.41016 372.20312,40.734375 439.79687,192.07422 290.50781,258.75 Z m 0,0"
         clip-rule="nonzero"
         id="path124" />
    </clipPath>
  </defs>
  <g
     clip-path="url(#4db03993ae)"
     id="g129"
     transform="translate(-262.28646,-77.609129)">
    <g
       clip-path="url(#56a7f672d6)"
       id="g128">
      <g
         clip-path="url(#a4f521f903)"
         id="g127">
        <g
           clip-path="url(#8e722c15c4)"
           id="g126">
          <path
             fill="#f99500"
             d="m 288.04687,173.8125 c -0.97656,8.17969 5.39063,22.58203 10.61329,29.35156 6.15625,7.98047 17.60156,14.83985 26.66015,13.45703 3.92188,-0.76562 13.15235,-4.58593 16.33203,-9.02343 5.17188,-7.20704 3.04297,-12.39063 10.15625,-15.56641 7.46485,-3.33594 13.29297,1.52734 19.36328,2.38281 5.41407,0.76563 14.4336,-3.73047 17.6211,-6.14453 7.07422,-5.82031 9.60547,-18.92187 7.76953,-28.83203 -1.55469,-8.41016 -8.03125,-22.76172 -14.77344,-27.49219 -11.97265,-8.40625 -21.07422,-7.9414 -31.89844,-0.0898 -6.04687,4.38672 -12.61328,8.01953 -19.42187,11.05859 -6.80859,3.04297 -13.85547,5.69141 -21.19922,7.08594 -12.60937,2.39453 -19.98437,14.38672 -21.22266,23.8125 z m 0,0"
             fill-opacity="1"
             fill-rule="nonzero"
             id="path125" />
          <path
             fill="#f99500"
             d="m 288.04687,173.8125 c -0.97656,8.17969 5.39063,22.58203 10.61329,29.35156 6.15625,7.98047 17.60156,14.83985 26.66015,13.45703 3.92188,-0.76562 13.15235,-4.58593 16.33203,-9.02343 5.17188,-7.20704 3.04297,-12.39063 10.15625,-15.56641 7.46485,-3.33594 13.29297,1.52734 19.36328,2.38281 5.41407,0.76563 14.4336,-3.73047 17.6211,-6.14453 7.07422,-5.82031 9.60547,-18.92187 7.76953,-28.83203 -1.55469,-8.41016 -8.03125,-22.76172 -14.77344,-27.49219 -11.97265,-8.40625 -21.07422,-7.9414 -31.89844,-0.0898 -6.04687,4.38672 -12.61328,8.01953 -19.42187,11.05859 -6.80859,3.04297 -13.85547,5.69141 -21.19922,7.08594 -12.60937,2.39453 -19.98437,14.38672 -21.22266,23.8125 z m 0,0"
             fill-opacity="1"
             fill-rule="nonzero"
             id="path126" />
        </g>
      </g>
    </g>
  </g>
  <g
     clip-path="url(#42322b3a42)"
     id="g133"
     transform="translate(-262.28646,-77.609129)">
    <g
       clip-path="url(#3a88aba7e9)"
       id="g132">
      <g
         clip-path="url(#f315039240)"
         id="g131">
        <g
           clip-path="url(#1b253fb0f0)"
           id="g130">
          <path
             fill="#ed7600"
             d="m 321.34766,118.01953 c -9.44922,4.21875 -18.54688,2.99219 -28.28125,7.13672 -5.32032,2.37891 -9.67188,6.72266 -12.71094,12.69141 -0.8125,0.25 -1.60547,0.55078 -2.37891,0.89453 -16.91015,7.55468 -20.7539,35.77343 -8.57812,63.02734 12.17187,27.25781 35.75,43.23047 52.66406,35.67578 0.77344,-0.34375 1.52344,-0.73828 2.25391,-1.17578 6.46875,1.72266 12.55468,1.24609 17.93359,-0.99609 9.19922,-3.83594 12.875,-10.69532 21.54297,-14.41016 8.66406,-3.71484 18.08594,-3.39062 27.60156,-7.53906 5.33984,-2.32813 9.67188,-6.72266 12.70703,-12.69141 0.81641,-0.25 1.60938,-0.54687 2.38281,-0.89062 16.91016,-7.55469 20.75,-35.77344 8.57813,-63.03125 -12.17188,-27.25391 -35.75,-43.226565 -52.66406,-35.67578 -0.77344,0.34765 -1.52344,0.73828 -2.25391,1.17578 -6.47266,-1.71875 -12.47656,-2.14844 -17.93359,0.99609 -8.96094,5.16406 -11.41016,10.58985 -20.86328,14.8125 z m 0,0"
             fill-opacity="1"
             fill-rule="nonzero"
             id="path129" />
        </g>
      </g>
    </g>
  </g>
  <g
     clip-path="url(#2f1eadaada)"
     id="g137"
     transform="translate(-262.28646,-77.609129)">
    <g
       clip-path="url(#154b1573dc)"
       id="g136">
      <g
         clip-path="url(#c5dfabd5e2)"
         id="g135">
        <g
           clip-path="url(#d524552185)"
           id="g134">
          <path
             fill="#ffae00"
             d="m 291.94922,139.03516 c -2.71094,0.25781 -9.48047,1.60937 -14.65625,5.17578 -3.97266,2.73828 -6.74219,7.10937 -8.29688,11.66406 -3.05859,9.30078 -2.67578,19.33594 -0.5664,28.78516 2.64062,11.67187 7.80078,22.71484 15.22265,32.12109 4.66407,5.86328 10.22657,11.05859 16.88672,14.60937 4.97266,2.58594 10.78125,4.2461 16.39453,3.04688 1.98828,-0.35156 3.71485,-1.28125 5.55469,-2.14844 1.83594,-0.88672 3.80078,-0.0391 5.67188,0.22656 3.77343,0.70704 7.8164,0.2461 11.35546,-0.99218 2.69141,-0.91407 5.29688,-2.48828 7.57032,-4.28907 5.15234,-3.99218 9.9414,-8.77734 16.21875,-10.98437 8.40625,-3.23828 17.60937,-3.39453 25.9414,-6.84766 4.19141,-1.8164 7.67578,-5.08203 9.89063,-9.05859 0.92187,-1.66406 2.03125,-3.43359 3.94531,-4.05859 1.74609,-0.67579 3.5,-1.39454 4.92969,-2.63672 5.13281,-4.00782 7.78906,-10.35547 8.88672,-16.60547 1.63672,-9.125 0.55078,-18.54297 -1.91407,-27.36328 -3.08593,-10.875 -8.3789,-21.1875 -15.73437,-29.8711 -5.53516,-6.42968 -11.44922,-12.1914 -19.62109,-14.91406 -4.26563,-1.44922 -9.11719,-1.55078 -14.77735,-0.51953 -3.95703,0.72266 -9.79297,2.77734 -15.85156,8.95313 -17.32031,17.64843 -38.30078,23.91015 -57.05078,25.70703 z m 0,0"
             fill-opacity="1"
             fill-rule="nonzero"
             id="path133" />
        </g>
      </g>
    </g>
  </g>
  <g
     clip-path="url(#b19d0ebdf4)"
     id="g141"
     transform="translate(-262.28646,-77.609129)">
    <g
       clip-path="url(#dab2f33944)"
       id="g140">
      <g
         clip-path="url(#d281d31f4e)"
         id="g139">
        <g
           clip-path="url(#2e6687ebfa)"
           id="g138">
          <path
             fill="#ed7600"
             d="m 288.04687,173.8125 c -0.97656,8.17969 5.39063,22.58203 10.61329,29.35156 6.15625,7.98047 17.60156,14.83985 26.66015,13.45703 3.92188,-0.76562 13.15235,-4.58593 16.33203,-9.02343 5.17188,-7.20704 3.04297,-12.39063 10.15625,-15.56641 7.46485,-3.33594 13.29297,1.52734 19.36328,2.38281 5.41407,0.76563 14.4336,-3.73047 17.6211,-6.14453 7.07422,-5.82031 9.60547,-18.92187 7.76953,-28.83203 -1.55469,-8.41016 -8.03125,-22.76172 -14.77344,-27.49219 -11.97265,-8.40625 -21.07422,-7.9414 -31.89844,-0.0898 -6.04687,4.38672 -12.61328,8.01953 -19.42187,11.05859 -6.80859,3.04297 -13.85547,5.69141 -21.19922,7.08594 -12.60937,2.39453 -19.98437,14.38672 -21.22266,23.8125 z m 0,0"
             fill-opacity="1"
             fill-rule="nonzero"
             id="path137" />
        </g>
      </g>
    </g>
  </g>
  <g
     clip-path="url(#f4c9d8a28f)"
     id="g145"
     transform="translate(-262.28646,-77.609129)">
    <g
       clip-path="url(#7648a619f3)"
       id="g144">
      <g
         clip-path="url(#ab2fa9903b)"
         id="g143">
        <g
           clip-path="url(#9bfad44761)"
           id="g142">
          <path
             fill="#fa9a00"
             d="m 360.53125,105.70313 c 21.86719,3.5625 37.47656,16.77734 45.42578,34.57421 7.89063,17.66407 9.04297,36.53125 -5.15625,52.85157 -9.78906,11.25 -23.67578,18.125 -30.33594,21 0.0703,-0.0195 0.16016,-0.0352 0.23438,-0.0508 1.68359,-0.38671 3.3789,-0.72656 5.07812,-1.0625 0.3711,-0.0781 0.76172,-0.15625 1.11719,-0.23046 0.0742,-0.0156 0.15625,-0.0312 0.22656,-0.0469 0.33203,-0.0625 0.66016,-0.13281 0.98828,-0.20312 0.004,0 0.004,0 0.008,0 3.78125,-0.77344 7.53515,-1.64454 11.125,-3.13282 4.19531,-1.8164 7.67968,-5.08203 9.89453,-9.05859 0.92187,-1.66406 2.03125,-3.43359 3.94531,-4.05859 1.74609,-0.67579 3.5,-1.39454 4.92969,-2.63672 5.13281,-4.00782 7.78906,-10.35547 8.88672,-16.60547 1.63672,-9.125 0.55078,-18.54297 -1.91407,-27.35938 -0.1914,-0.67968 -0.39453,-1.35937 -0.60156,-2.03515 -0.42187,-1.35157 -0.875,-2.6875 -1.36328,-4.01563 0,-0.004 0,-0.004 0,-0.004 -0.24609,-0.66407 -0.5,-1.32422 -0.76172,-1.98047 -0.52344,-1.31641 -1.07812,-2.6211 -1.66797,-3.90625 -1.15234,-2.51563 -2.4375,-4.97657 -3.84375,-7.36328 -0.0351,-0.0547 -0.0664,-0.11329 -0.0976,-0.16797 -0.043,-0.0703 -0.0859,-0.14063 -0.125,-0.20703 -0.6875,-1.14844 -1.40235,-2.28125 -2.14453,-3.39453 -0.39454,-0.58985 -0.79688,-1.17188 -1.20704,-1.75 -0.82421,-1.16016 -1.67578,-2.29297 -2.5664,-3.40625 -0.44141,-0.55469 -0.89453,-1.10157 -1.35156,-1.64454 -0.69532,-0.80468 -1.39454,-1.59765 -2.10157,-2.3789 -1.76953,-1.94141 -3.59765,-3.79297 -5.54297,-5.47656 0,-0.004 0,-0.004 0,-0.004 -0.39062,-0.33594 -0.78125,-0.66406 -1.17968,-0.98828 -0.004,0 0,0 0,0 -0.80078,-0.64453 -1.61719,-1.26563 -2.46094,-1.84766 -0.42188,-0.28906 -0.85156,-0.57422 -1.28516,-0.84765 -0.64843,-0.41016 -1.3164,-0.80469 -1.99609,-1.17188 -0.45313,-0.24609 -0.91797,-0.48437 -1.38672,-0.70703 0,-0.004 0,-0.004 0,-0.004 -0.23437,-0.11328 -0.47266,-0.22265 -0.71094,-0.32812 -0.47656,-0.21875 -0.96093,-0.42188 -1.45312,-0.61719 -0.25,-0.0937 -0.4961,-0.1875 -0.7461,-0.28125 -0.2539,-0.0898 -0.50781,-0.17578 -0.76171,-0.26172 -1.86719,-0.63281 -3.84375,-1.01172 -5.95313,-1.14453 -0.30078,-0.0195 -0.60547,-0.0352 -0.91406,-0.0469 -0.61328,-0.0156 -1.23438,-0.0156 -1.8711,0.004 -0.95312,0.0273 -1.93359,0.0977 -2.9375,0.21094 -0.67187,0.0742 -1.35546,0.16797 -2.05078,0.27734 -0.34765,0.0547 -0.69531,0.11719 -1.05078,0.17969 -0.23047,0.043 -0.46875,0.0898 -0.71484,0.14063 -0.23438,0.0508 -0.47656,0.10546 -0.72266,0.16796 -0.5039,0.125 -1.02734,0.26954 -1.57422,0.44141 -0.125,0.0586 -1.22265,0.54297 -1.30468,0.57813 z m 0,0"
             fill-opacity="1"
             fill-rule="nonzero"
             id="path141" />
        </g>
      </g>
    </g>
  </g>
  <g
     clip-path="url(#d2f0cf67cd)"
     id="g149"
     transform="translate(-262.28646,-77.609129)">
    <g
       clip-path="url(#c067fb49c0)"
       id="g148">
      <g
         clip-path="url(#94cdf1c605)"
         id="g147">
        <g
           clip-path="url(#8e62442026)"
           id="g146">
          <path
             fill="#ffcd66"
             d="m 345.82812,149.10937 c 1.41407,-1.375 3.67969,-1.35156 5.05469,0.0586 1.375,1.40625 1.34375,3.66406 -0.0703,5.04297 -1.41797,1.375 -6.75781,4.33984 -8.13281,2.92968 -1.375,-1.40625 1.73437,-6.65234 3.14843,-8.03125 z m 0,0"
             fill-opacity="1"
             fill-rule="nonzero"
             id="path145" />
        </g>
      </g>
    </g>
  </g>
  <g
     clip-path="url(#0c133f40ad)"
     id="g153"
     transform="translate(-262.28646,-77.609129)">
    <g
       clip-path="url(#53533553be)"
       id="g152">
      <g
         clip-path="url(#9ffc9b430e)"
         id="g151">
        <g
           clip-path="url(#9d3e338568)"
           id="g150">
          <path
             fill="#ffcd66"
             d="m 354.12109,160.54297 c 1.77344,-0.8711 3.91407,-0.14844 4.78125,1.61719 0.8711,1.76562 0.13672,3.90234 -1.63281,4.77734 -1.77344,0.87109 -7.76953,2.04297 -8.63672,0.27344 -0.87109,-1.76172 3.71485,-5.79688 5.48828,-6.66797 z m 0,0"
             fill-opacity="1"
             fill-rule="nonzero"
             id="path149" />
        </g>
      </g>
    </g>
  </g>
  <g
     clip-path="url(#e2798f6cbb)"
     id="g157"
     transform="translate(-262.28646,-77.609129)">
    <g
       clip-path="url(#15a44f506c)"
       id="g156">
      <g
         clip-path="url(#0d1009168e)"
         id="g155">
        <g
           clip-path="url(#f1d36311b5)"
           id="g154">
          <path
             fill="#ffcd66"
             d="m 358.58203,173.05078 c 1.97266,0.008 3.5625,1.61328 3.54688,3.58203 -0.0156,1.96875 -1.62891,3.5586 -3.60157,3.54688 -1.97656,-0.008 -7.85156,-1.63282 -7.83593,-3.60157 0.0156,-1.96875 5.91796,-3.53906 7.89062,-3.52734 z m 0,0"
             fill-opacity="1"
             fill-rule="nonzero"
             id="path153" />
        </g>
      </g>
    </g>
  </g>
  <g
     clip-path="url(#312cf802ea)"
     id="g161"
     transform="translate(-262.28646,-77.609129)">
    <g
       clip-path="url(#82adb5f1ee)"
       id="g160">
      <g
         clip-path="url(#b7cf2be785)"
         id="g159">
        <g
           clip-path="url(#8b68ba0ddd)"
           id="g158">
          <path
             fill="#ffcd66"
             d="m 324.82812,158.48828 c -1.96875,0.13672 -3.46093,1.83594 -3.32812,3.80078 0.12891,1.96485 1.83203,3.44922 3.80078,3.3125 1.97266,-0.13672 7.74219,-2.13281 7.61328,-4.09765 -0.13281,-1.96485 -6.11328,-3.15235 -8.08594,-3.01563 z m 0,0"
             fill-opacity="1"
             fill-rule="nonzero"
             id="path157" />
        </g>
      </g>
    </g>
  </g>
  <g
     clip-path="url(#7a5b09812d)"
     id="g165"
     transform="translate(-262.28646,-77.609129)">
    <g
       clip-path="url(#fbc29ee2c0)"
       id="g164">
      <g
         clip-path="url(#d80fe901c9)"
         id="g163">
        <g
           clip-path="url(#271a08d636)"
           id="g162">
          <path
             fill="#ffcd66"
             d="m 327.80859,172.29297 c -1.83203,0.73828 -2.72265,2.8164 -1.98437,4.64062 0.73437,1.82813 2.8164,2.70703 4.64844,1.97266 1.83203,-0.74219 6.70312,-4.42188 5.96875,-6.24609 -0.73438,-1.82813 -6.79688,-1.10547 -8.63282,-0.36719 z m 0,0"
             fill-opacity="1"
             fill-rule="nonzero"
             id="path161" />
        </g>
      </g>
    </g>
  </g>
  <g
     clip-path="url(#75c5d40eb9)"
     id="g169"
     transform="translate(-262.28646,-77.609129)">
    <g
       clip-path="url(#8ae3f98f5f)"
       id="g168">
      <g
         clip-path="url(#979adf41be)"
         id="g167">
        <g
           clip-path="url(#5a6fb3b83e)"
           id="g166">
          <path
             fill="#ffcd66"
             d="m 334.07422,184.02734 c -1.25781,1.52344 -1.04688,3.76953 0.47656,5.01953 1.51953,1.25 3.77344,1.03125 5.03125,-0.48828 1.25781,-1.52343 3.77734,-7.07422 2.25781,-8.32422 -1.51953,-1.25 -6.50781,2.27344 -7.76562,3.79297 z m 0,0"
             fill-opacity="1"
             fill-rule="nonzero"
             id="path165" />
        </g>
      </g>
    </g>
  </g>
  <g
     clip-path="url(#326ffb5ca7)"
     id="g173"
     transform="translate(-262.28646,-77.609129)">
    <g
       clip-path="url(#a356fca2f7)"
       id="g172">
      <g
         clip-path="url(#9ea274c792)"
         id="g171">
        <g
           clip-path="url(#05827e2a51)"
           id="g170">
          <path
             fill="#f99500"
             d="m 356.79687,127.77734 c -2.25,0.9961 -4.53515,2.35938 -6.90625,4.07813 -0.48828,0.35547 -0.98437,0.70312 -1.48046,1.05078 l -1.73829,18.76172 c -0.0664,0.68359 0.86329,0.95703 1.1836,0.34375 l 13.44922,-25.73047 c -1.5,0.32813 -2.9961,0.82813 -4.50782,1.49609 z m -53.05078,24 c -0.80078,0.3711 -1.5664,0.78907 -2.30859,1.23828 l 25.02734,8.00782 c 0.6875,0.21875 1.1836,-0.65625 0.64453,-1.12891 l -12.66015,-11.09375 c -1.71094,0.46484 -3.4375,0.86719 -5.17969,1.19922 -1.96875,0.37109 -3.8125,0.98047 -5.52344,1.77734 z m -3.3789,1.92969 c -3.375,2.28516 -6.09375,5.33203 -8.125,8.63672 l 31.10937,2.53125 c 0.60156,0.0469 0.8125,-0.77734 0.26172,-1.01953 z m 61.92578,-27.61719 -10.48438,25.87891 c -0.21875,0.53125 0.48438,0.94922 0.85547,0.50781 l 21.03516,-25.02734 c -3.96485,-1.5625 -7.69531,-1.99219 -11.40625,-1.35938 z m -15.78906,8.10938 c -2.86719,1.89844 -5.83985,3.63672 -8.87891,5.23828 l 3.44922,13.05469 c 0.20703,0.77343 1.32031,0.74609 1.48828,-0.0391 z m -29.76563,13.94922 13.82031,9.32422 c 0.6875,0.46093 1.53516,-0.30079 1.14453,-1.02735 l -6.10546,-11.45312 c -2.90625,1.17968 -5.85547,2.25 -8.85938,3.15625 z m 18.71875,-7.59375 c -1.64453,0.82422 -3.30859,1.60937 -4.98828,2.35937 -0.86719,0.38672 -1.73828,0.76953 -2.61328,1.14063 l 7.67187,10.44922 c 0.50782,0.69531 1.61328,0.25781 1.51172,-0.59766 z m -43.66016,22.53906 c -1.76171,3.05078 -2.94531,6.28906 -3.51953,9.32812 l 33.01172,-3.58984 c 0.50781,-0.0547 0.53125,-0.78516 0.0274,-0.86719 z m 82.60547,-35.35937 -18.20312,25.48046 c -0.28516,0.40235 0.23047,0.88282 0.60937,0.56641 l 25.76953,-21.23828 c -0.26171,-0.21094 -0.52343,-0.41406 -0.78515,-0.59766 -2.58203,-1.8125 -5.03125,-3.21094 -7.39063,-4.21093 z m -86.26953,45.49609 c -0.0273,0.19531 -0.0586,0.39062 -0.0859,0.58203 -0.26562,2.23828 0.0195,4.94141 0.67579,7.82422 l 31.61718,-8.91406 c 0.4336,-0.1211 0.33594,-0.76172 -0.11328,-0.74219 z m 95.0625,-40.15625 -23.51172,22.19531 c -0.32031,0.30078 0.0586,0.80859 0.44141,0.58594 l 28.23047,-16.41016 c -1.61719,-2.53906 -3.36719,-4.76172 -5.16016,-6.37109 z m -94.26172,49.42969 c 0.59375,2.38281 1.42969,4.87109 2.41407,7.30468 l 29.19921,-13.42187 c 0.38282,-0.17578 0.19141,-0.75 -0.22265,-0.66016 z m 99.90625,-42.28907 -26.69531,17.78125 c -0.34375,0.23047 -0.0664,0.76563 0.32031,0.61328 l 29.92578,-11.65234 c -1.05859,-2.32812 -2.25781,-4.62891 -3.55078,-6.74219 z m -97.13672,50.46485 c 1.01172,2.41406 2.15235,4.7539 3.33594,6.875 l 26.86328,-17.89453 c 0.34766,-0.23438 0.0703,-0.76563 -0.32031,-0.61329 z m 101.07032,-42.86719 -29.26953,13.45703 c -0.38282,0.17188 -0.19141,0.75 0.21875,0.66016 l 31.75781,-6.85547 c -0.69531,-2.29688 -1.61719,-4.78125 -2.70703,-7.26172 z m -68.84766,33.98828 -28.44531,16.53125 c 1.0625,1.83984 2.14453,3.48438 3.17969,4.83203 0.50781,0.65625 1.05468,1.3086 1.63281,1.94531 l 24.07422,-22.72265 c 0.3164,-0.30078 -0.0625,-0.8086 -0.44141,-0.58594 z m 39.89844,-16.125 33.28125,-1.29687 c -0.0703,-1.69922 -0.25,-3.36329 -0.54297,-4.94141 -0.19922,-1.08984 -0.48438,-2.27734 -0.83984,-3.53125 l -32.01563,9.02344 c -0.43359,0.125 -0.33203,0.76172 0.11719,0.74609 z m -36.58203,18.19531 -26.44141,21.79297 c 2.15625,2.29688 4.71484,4.42578 7.46484,6.19141 l 19.58594,-27.41797 c 0.28516,-0.39844 -0.23047,-0.87891 -0.60937,-0.56641 z m 35.48828,-14.17968 33.33594,5.5039 c 0.78515,-3.28515 1.13671,-6.76172 1.0625,-10.10937 l -34.3711,3.73828 c -0.50781,0.0547 -0.52734,0.78515 -0.0273,0.86719 z m -31.34766,15.48437 -22.66015,26.96484 c 3.51953,2.19141 7.33593,3.78516 11.02343,4.38672 l 12.4961,-30.83984 c 0.21484,-0.53125 -0.48828,-0.95313 -0.85938,-0.51172 z m 29.05469,-11.37891 29.86719,13.04297 c 2.66797,-2.85547 4.54297,-6.83593 5.64843,-11.1914 l -35.25781,-2.86719 c -0.60156,-0.0508 -0.8125,0.77734 -0.25781,1.01562 z m -24.24219,11.84766 -16.16797,30.93359 c 1.8125,0.26954 3.59375,0.30079 5.29297,0.043 2.19141,-0.42968 6.03906,-1.80859 9.56641,-3.71875 l 2.49219,-26.91406 c 0.0625,-0.6875 -0.86719,-0.95703 -1.1836,-0.34375 z m 20.7461,-7.88281 18.69531,16.3789 c 5,-1.03125 10.74609,-4.04687 13.15625,-5.87109 0.46484,-0.37891 0.90625,-0.78906 1.32812,-1.23047 l -32.53906,-10.40625 c -0.68359,-0.21875 -1.18359,0.65235 -0.64062,1.12891 z m -15.45704,7.4414 -5.89062,27.30079 c 2.50391,-1.42969 4.77734,-3.11329 6.0625,-4.90235 2.80469,-3.91797 3.46484,-7.23047 4.61719,-9.95703 l -3.30078,-12.48047 c -0.20704,-0.77734 -1.31641,-0.74609 -1.48829,0.0391 z m 10.85938,-3.99218 5.15625,9.67578 c 4.91797,0.13281 9.23437,2.90234 13.67578,3.53125 1,0.14062 2.12109,0.0977 3.30859,-0.0742 l -20.99609,-14.16016 c -0.68359,-0.46093 -1.53125,0.30078 -1.14453,1.02735 z m -5.33203,2.53906 1.26172,10.67578 c 0.84765,-0.89453 1.96484,-1.69531 3.53906,-2.39453 0.88672,-0.39844 1.75391,-0.67578 2.59766,-0.86328 l -5.88672,-8.01563 c -0.51172,-0.69531 -1.61328,-0.26172 -1.51172,0.59766 z m 0,0"
             fill-opacity="1"
             fill-rule="nonzero"
             id="path169" />
        </g>
      </g>
    </g>
  </g>
  <g
     clip-path="url(#0151bc046c)"
     id="g177"
     transform="translate(-262.28646,-77.609129)">
    <g
       clip-path="url(#4c872344f9)"
       id="g176">
      <g
         clip-path="url(#b5690534af)"
         id="g175">
        <g
           clip-path="url(#1b0b1b219f)"
           id="g174">
          <path
             fill="#ffcd66"
             d="m 361.60156,136.60156 c 1.41797,-1.3789 3.67969,-1.35156 5.05469,0.0547 1.375,1.41016 1.34375,3.66797 -0.0703,5.04297 -1.41797,1.3789 -6.75391,4.34375 -8.13282,2.93359 -1.375,-1.40625 1.73438,-6.65625 3.14844,-8.03125 z m 0,0"
             fill-opacity="1"
             fill-rule="nonzero"
             id="path173" />
        </g>
      </g>
    </g>
  </g>
  <g
     clip-path="url(#dc9687b67a)"
     id="g181"
     transform="translate(-262.28646,-77.609129)">
    <g
       clip-path="url(#a12c3a4423)"
       id="g180">
      <g
         clip-path="url(#d1b077deea)"
         id="g179">
        <g
           clip-path="url(#79b2e0608e)"
           id="g178">
          <path
             fill="#ffcd66"
             d="m 372.43359,141.60937 c 1.35938,-1.42968 3.6211,-1.49609 5.05469,-0.14453 1.43359,1.35157 1.48828,3.60547 0.12891,5.03907 -1.35938,1.43359 -6.57422,4.60937 -8.00782,3.25781 -1.42968,-1.35156 1.46485,-6.71875 2.82422,-8.15235 z m 0,0"
             fill-opacity="1"
             fill-rule="nonzero"
             id="path177" />
        </g>
      </g>
    </g>
  </g>
  <g
     clip-path="url(#6db877e2e4)"
     id="g185"
     transform="translate(-262.28646,-77.609129)">
    <g
       clip-path="url(#5206d7b72e)"
       id="g184">
      <g
         clip-path="url(#6f27b19a8e)"
         id="g183">
        <g
           clip-path="url(#087e56b788)"
           id="g182">
          <path
             fill="#ffcd66"
             d="m 381.49609,163.77734 c 1.89453,-0.5625 3.88282,0.50782 4.44141,2.39453 0.55859,1.88672 -0.51953,3.875 -2.41406,4.4375 -1.89453,0.56641 -7.99219,0.71875 -8.55469,-1.16796 -0.55859,-1.88672 4.63281,-5.09766 6.52734,-5.66407 z m 0,0"
             fill-opacity="1"
             fill-rule="nonzero"
             id="path181" />
        </g>
      </g>
    </g>
  </g>
  <g
     clip-path="url(#1dda217b9f)"
     id="g189"
     transform="translate(-262.28646,-77.609129)">
    <g
       clip-path="url(#2fb46c47e2)"
       id="g188">
      <g
         clip-path="url(#d45b805929)"
         id="g187">
        <g
           clip-path="url(#3c84a4a8dd)"
           id="g186">
          <path
             fill="#ffcd66"
             d="m 379.83203,152.05469 c 1.77344,-0.8711 3.91016,-0.14453 4.78125,1.61718 0.87109,1.76563 0.13672,3.90625 -1.63672,4.77735 -1.76953,0.87109 -7.76562,2.04297 -8.63281,0.27734 -0.87109,-1.76562 3.71484,-5.79687 5.48828,-6.67187 z m 0,0"
             fill-opacity="1"
             fill-rule="nonzero"
             id="path185" />
        </g>
      </g>
    </g>
  </g>
  <g
     clip-path="url(#48fd9a5de2)"
     id="g193"
     transform="translate(-262.28646,-77.609129)">
    <g
       clip-path="url(#5e5f1ea777)"
       id="g192">
      <g
         clip-path="url(#d10661230d)"
         id="g191">
        <g
           clip-path="url(#9dc93041b0)"
           id="g190">
          <path
             fill="#ffcd66"
             d="m 378.11719,175.96094 c 1.9375,0.3789 3.1914,2.2539 2.80468,4.18359 -0.38671,1.93359 -2.26953,3.19141 -4.20312,2.8125 -1.9375,-0.38281 -7.39844,-3.07812 -7.01172,-5.01172 0.38281,-1.93359 6.47266,-2.36328 8.41016,-1.98437 z m 0,0"
             fill-opacity="1"
             fill-rule="nonzero"
             id="path189" />
        </g>
      </g>
    </g>
  </g>
  <g
     clip-path="url(#8c986c6d6f)"
     id="g197"
     transform="translate(-262.28646,-77.609129)">
    <g
       clip-path="url(#3fefa5a703)"
       id="g196">
      <g
         clip-path="url(#86b42f6d58)"
         id="g195">
        <g
           clip-path="url(#242ead260c)"
           id="g194">
          <path
             fill="#ffcd66"
             d="m 306.57812,161.17578 c -1.96875,0.13672 -3.46093,1.83984 -3.33203,3.80078 0.13282,1.96485 1.83594,3.44922 3.80469,3.3125 1.96875,-0.13672 7.74219,-2.13281 7.60938,-4.09765 -0.12891,-1.96485 -6.11329,-3.15235 -8.08204,-3.01563 z m 0,0"
             fill-opacity="1"
             fill-rule="nonzero"
             id="path193" />
        </g>
      </g>
    </g>
  </g>
  <g
     clip-path="url(#55e0067321)"
     id="g201"
     transform="translate(-262.28646,-77.609129)">
    <g
       clip-path="url(#cabce56a8f)"
       id="g200">
      <g
         clip-path="url(#ffe67ae119)"
         id="g199">
        <g
           clip-path="url(#91e5b9888f)"
           id="g198">
          <path
             fill="#ffcd66"
             d="m 302.98047,172.62891 c -1.97266,0.0586 -3.53125,1.69921 -3.48047,3.66796 0.0508,1.96875 1.69141,3.51563 3.66406,3.46094 1.97266,-0.0586 7.82031,-1.82031 7.76953,-3.78906 -0.0508,-1.96875 -5.98047,-3.39453 -7.95312,-3.33984 z m 0,0"
             fill-opacity="1"
             fill-rule="nonzero"
             id="path197" />
        </g>
      </g>
    </g>
  </g>
  <g
     clip-path="url(#8ffe1b4ebe)"
     id="g205"
     transform="translate(-262.28646,-77.609129)">
    <g
       clip-path="url(#8fcbe5742d)"
       id="g204">
      <g
         clip-path="url(#2fcd0b8fb5)"
         id="g203">
        <g
           clip-path="url(#9ce699a2a5)"
           id="g202">
          <path
             fill="#ffcd66"
             d="m 312.67969,194.51172 c -1.6836,1.03515 -2.21094,3.23047 -1.17969,4.90625 1.03125,1.67578 3.23047,2.19922 4.91406,1.16406 1.6836,-1.03125 5.8711,-5.47266 4.83985,-7.15234 -1.03125,-1.67578 -6.89063,0.0508 -8.57422,1.08203 z m 0,0"
             fill-opacity="1"
             fill-rule="nonzero"
             id="path201" />
        </g>
      </g>
    </g>
  </g>
  <g
     clip-path="url(#213ac501ff)"
     id="g209"
     transform="translate(-262.28646,-77.609129)">
    <g
       clip-path="url(#46177f8c97)"
       id="g208">
      <g
         clip-path="url(#fa8009baca)"
         id="g207">
        <g
           clip-path="url(#1d2ca09ad1)"
           id="g206">
          <path
             fill="#ffcd66"
             d="m 304.33203,185.77734 c -1.83203,0.73828 -2.72266,2.81641 -1.98828,4.64063 0.73437,1.82422 2.81641,2.70703 4.64844,1.96875 1.83203,-0.73828 6.70312,-4.42188 5.96875,-6.2461 -0.73438,-1.82421 -6.79688,-1.10156 -8.62891,-0.36328 z m 0,0"
             fill-opacity="1"
             fill-rule="nonzero"
             id="path205" />
        </g>
      </g>
    </g>
  </g>
  <g
     clip-path="url(#f3fbc0a0de)"
     id="g213"
     transform="translate(-262.28646,-77.609129)">
    <g
       clip-path="url(#4b669e25c5)"
       id="g212">
      <g
         clip-path="url(#fc85c4fc9c)"
         id="g211">
        <g
           clip-path="url(#a720927650)"
           id="g210">
          <path
             fill="#ffcd66"
             d="m 327.35547,198.63281 c -1.01172,1.69531 -0.45313,3.87891 1.24219,4.88281 1.69921,1 3.89062,0.4375 4.90234,-1.25781 1.00781,-1.69531 2.64453,-7.5625 0.94531,-8.5664 -1.69531,-1 -6.08203,3.24609 -7.08984,4.9414 z m 0,0"
             fill-opacity="1"
             fill-rule="nonzero"
             id="path209" />
        </g>
      </g>
    </g>
  </g>
  <g
     clip-path="url(#37e8e9ad9a)"
     id="g217"
     transform="translate(-262.28646,-77.609129)">
    <g
       clip-path="url(#f9c651782c)"
       id="g216">
      <g
         clip-path="url(#2195f88a5a)"
         id="g215">
        <g
           clip-path="url(#99e240f5d8)"
           id="g214">
          <path
             fill="#708928"
             d="m 302.40625,125.99609 c 6.86719,-4.90234 11.65234,-13.13281 4.19141,-23.04687 -6.28516,-8.347658 -14.53125,-10.152345 -18.8086,-10.496095 -1.57422,-0.128906 -2.49609,-1.265625 -2.05078,-2.78125 l 2.99609,-10.125 c 0.44922,-1.515625 2.02735,-2.34375 3.48829,-1.738281 2.29296,0.953125 7.72265,3.34375 12.125,6.789062 6.33593,4.953125 10.77343,12.628906 16.77734,19.300784 6.50391,7.11719 13.47656,7.49219 20.82812,5.22265 1.91016,-0.76953 3.33204,1.10547 2.32422,2.31641 -6.8164,8.14844 -22.80468,23.94531 -41.28125,19.42969 -2.33593,-0.58985 -3.30078,-2.95313 -0.58984,-4.8711 z m 0,0"
             fill-opacity="1"
             fill-rule="nonzero"
             id="path213" />
        </g>
      </g>
    </g>
  </g>
  <g
     clip-path="url(#e5fe7bd463)"
     id="g221"
     transform="translate(-262.28646,-77.609129)">
    <g
       clip-path="url(#7effa1f3e6)"
       id="g220">
      <g
         clip-path="url(#28c5033714)"
         id="g219">
        <g
           clip-path="url(#04bea89662)"
           id="g218">
          <path
             fill="#607424"
             d="m 291.43359,78.269531 c -2.02734,0.08984 -2.48437,2.515625 -3.32422,5.816407 -1.05468,4.164062 -2.65625,6.167968 -1.09765,7.410156 1.57812,1.257812 5.19922,-2.300782 6.21484,-5.960938 0.97266,-3.503906 0.71094,-7.371094 -1.79297,-7.265625 z m 0,0"
             fill-opacity="1"
             fill-rule="nonzero"
             id="path217" />
        </g>
      </g>
    </g>
  </g>
  <g
     clip-path="url(#91533f6649)"
     id="g225"
     transform="translate(-262.28646,-77.609129)">
    <g
       clip-path="url(#143b5177b0)"
       id="g224">
      <g
         clip-path="url(#590f387023)"
         id="g223">
        <g
           clip-path="url(#9ff7416d9a)"
           id="g222">
          <path
             fill="#516121"
             d="m 290.47266,80.449219 c -1.19532,1.28125 -1.14844,3.15625 -1.72266,4.722656 -0.39063,1.339844 -1.04688,2.679687 -1.13672,4.0625 0.20703,0.703125 1.10156,0.636719 1.51953,0.160156 2.39844,-1.671875 3.4961,-4.800781 3.19531,-7.632812 -0.0625,-0.753907 -0.55078,-1.792969 -1.48046,-1.519531 -0.125,0.07031 -0.29297,0.07422 -0.375,0.207031 z m 0,0"
             fill-opacity="1"
             fill-rule="nonzero"
             id="path221" />
        </g>
      </g>
    </g>
  </g>
  <g
     clip-path="url(#58f018344b)"
     id="g229"
     transform="translate(-262.28646,-77.609129)">
    <g
       clip-path="url(#717e8b7efb)"
       id="g228">
      <g
         clip-path="url(#92b654d0fb)"
         id="g227">
        <g
           clip-path="url(#3e28d6b92d)"
           id="g226">
          <path
             fill="#637a24"
             d="m 293.20703,78.226562 c 0.004,0.0039 2.51563,1.621094 1.5,5.578126 -0.93359,3.648437 5.96094,1.308593 13.875,10.082031 6.63281,7.355471 13.42969,25.203121 33.03516,15.347661 0.0195,-0.008 0.0351,-0.0156 0.0508,-0.0273 -7.2461,2.17188 -14.125,1.71875 -20.54297,-5.30859 -6.00391,-6.671878 -10.44141,-14.347659 -16.77734,-19.300784 -3.85547,-3.019531 -8.50391,-5.230468 -11.14063,-6.371094 z m 0,0"
             fill-opacity="1"
             fill-rule="nonzero"
             id="path225" />
        </g>
      </g>
    </g>
  </g>
  <g
     clip-path="url(#5e1eae25f7)"
     id="g233"
     transform="translate(-262.28646,-77.609129)">
    <g
       clip-path="url(#f2b5e0f7c5)"
       id="g232">
      <g
         clip-path="url(#074090a352)"
         id="g231">
        <g
           clip-path="url(#5e69319e35)"
           id="g230">
          <path
             fill="#87a42d"
             d="m 292.58984,89.320312 c -0.52343,0.445313 -0.83593,1.019532 -1.86328,1.898438 -1.49609,1.273438 -2.3125,1.292969 -2.3125,1.292969 h 0.004 c 4.41406,0.46875 12.18359,2.476562 18.17969,10.437501 5.4414,7.23047 4.36718,13.56641 0.72265,18.36719 13.75,-17.48047 -11.53906,-31.41016 -13.11719,-32.074222 -0.4414,-0.1875 -1.1289,-0.335938 -1.61328,0.07812 z m 0,0"
             fill-opacity="1"
             fill-rule="nonzero"
             id="path229" />
        </g>
      </g>
    </g>
  </g>
  <g
     clip-path="url(#be859292a7)"
     id="g237"
     transform="translate(-262.28646,-77.609129)">
    <g
       clip-path="url(#6acf594c33)"
       id="g236">
      <g
         clip-path="url(#e8d0fff244)"
         id="g235">
        <g
           clip-path="url(#7aec9f10d1)"
           id="g234">
          <path
             fill="#637a24"
             d="m 307.32031,121.31641 c -0.51172,0.71093 -1.08984,1.35156 -1.70703,1.96093 -0.0937,0.0937 -0.1875,0.19141 -0.28906,0.28516 -0.63281,0.62109 -1.3086,1.20313 -2.01172,1.75391 -0.60156,0.49609 -1.21484,0.98828 -1.80859,1.48437 -0.008,0.008 -0.0117,0.0117 -0.0195,0.0195 -0.24609,0.28516 -0.42968,0.57422 -0.54687,0.85938 -0.28125,0.84375 -0.0156,1.82422 0.61719,2.46093 0.30078,0.26563 0.68359,0.47657 1.12109,0.625 0,0 0,0.004 0,0.004 0.48047,0.12891 0.96484,0.24609 1.44922,0.34766 0.16016,0.0312 0.31641,0.0625 0.47656,0.0898 0.0508,0.0117 0.10547,0.0234 0.15625,0.0312 1.36328,0.24219 2.71094,0.375 4.04297,0.41016 0.0586,0.004 0.12109,0.008 0.17969,0.008 3.90625,0.0703 7.82422,-0.69141 11.52344,-2.05078 0.10937,-0.0391 0.21875,-0.082 0.32812,-0.1211 0.0469,-0.0195 0.0977,-0.0391 0.14453,-0.0547 1.78125,-0.69141 3.4961,-1.51563 5.14844,-2.4336 0.33984,-0.1914 0.67969,-0.38281 1.01172,-0.58203 2.67578,-1.58203 5.20312,-3.39453 7.58594,-5.3789 1.18359,-0.98828 2.30078,-1.98828 3.34375,-2.98047 2.26953,-2.16016 4.39453,-4.46485 6.3789,-6.875 0.19531,-0.4375 0.19141,-0.83203 0.0547,-1.16406 -0.24219,-0.60157 -0.91016,-0.99219 -1.62109,-1.07032 -0.28907,-0.004 -0.59766,0.043 -0.92579,0.17578 -0.14062,0.043 -0.27734,0.0781 -0.41796,0.11719 -0.008,0.008 -0.0156,0.0117 -0.0234,0.0156 -0.0156,0 -0.0274,0.004 -0.0391,0.004 -0.33594,0.0977 -0.67188,0.19922 -1.00391,0.28516 -1.19922,0.60156 -1.88281,2.00391 -2.73828,3.02734 -3.73047,4.84375 -8.74219,8.61328 -14.14844,11.41407 -4.21094,2.03515 -8.85156,3.24218 -13.52344,3.44531 -1.76172,0.082 -4,-0.88281 -3.93359,-2.76172 -0.0312,-1.04688 0.64453,-2.45313 1.19531,-3.35156 z m 0,0"
             fill-opacity="1"
             fill-rule="nonzero"
             id="path233" />
        </g>
      </g>
    </g>
  </g>
  <g
     clip-path="url(#cc51c5ac05)"
     id="g241"
     transform="translate(-262.28646,-77.609129)">
    <g
       clip-path="url(#dc1170961c)"
       id="g240">
      <g
         clip-path="url(#d5780a7ec0)"
         id="g239">
        <g
           clip-path="url(#c573a04edf)"
           id="g238">
          <path
             fill="#ffc414"
             d="m 281.38281,141.93359 c -1.40234,0.63282 -2.79687,1.38672 -4.08984,2.27735 -3.97266,2.73437 -6.74219,7.10937 -8.29688,11.66406 -3.05859,9.30078 -2.67578,19.33594 -0.5664,28.78906 2.64062,11.66797 7.80078,22.71094 15.22265,32.11719 4.66407,5.86328 10.22657,11.05859 16.88672,14.60937 4.97266,2.58594 10.78125,4.2461 16.39453,3.04688 0.42969,-0.0742 0.84375,-0.18359 1.25,-0.30469 -42.85937,-9.36719 -48.49609,-61.33594 -41.01172,-77.16015 7.05079,-14.91407 23.6875,-19.12891 23.6875,-19.12891 -3.00781,0.52344 -5.98828,0.91016 -8.91015,1.19141 -2.03125,0.1914 -6.34766,1.0039 -10.56641,2.89843 z m 0,0"
             fill-opacity="1"
             fill-rule="nonzero"
             id="path237" />
        </g>
      </g>
    </g>
  </g>
  <g
     clip-path="url(#f23d9d2bb1)"
     id="g245"
     transform="translate(-262.28646,-77.609129)">
    <g
       clip-path="url(#fdfb98b3a5)"
       id="g244">
      <g
         clip-path="url(#edfd6efab6)"
         id="g243">
        <g
           clip-path="url(#03b58dbc32)"
           id="g242">
          <path
             fill="#ed7600"
             d="m 286.01172,130.00391 c -2.19531,2.16015 -4.10156,4.78906 -5.65625,7.84375 0,0 6.32812,-2.91797 10.58594,-3.23829 -2.66016,-0.0391 -8.23829,0.62891 -4.92969,-4.60546 z m 4.92969,4.60546 c 1.19531,0.0156 1.73046,-0.0781 0.41406,-0.0312 -0.13281,0.004 -0.27735,0.0195 -0.41406,0.0312 z m 0,0"
             fill-opacity="1"
             fill-rule="nonzero"
             id="path241" />
        </g>
      </g>
    </g>
  </g>
  <g
     clip-path="url(#4025e283ff)"
     id="g249"
     transform="translate(-262.28646,-77.609129)">
    <g
       clip-path="url(#d4052a77dc)"
       id="g248">
      <g
         clip-path="url(#8d8048ca7a)"
         id="g247">
        <g
           clip-path="url(#89fe533470)"
           id="g246">
          <path
             fill="#cf6100"
             d="m 351.26172,100.88281 c 6.05078,1.03907 1.84765,4.73438 0.10156,6.73828 3.08203,-2.95703 9.48047,-5.71875 9.48047,-5.71875 -0.0391,-0.0117 -0.0781,-0.0195 -0.11719,-0.0273 -0.19531,0.10938 -0.38672,0.22266 -0.58203,0.33594 -3.07031,-0.81641 -6.03125,-1.33203 -8.88281,-1.32813 z m 0.10156,6.73828 c -0.0977,0.0977 -0.20703,0.19141 -0.29687,0.28907 -0.91407,0.94922 -0.48829,0.61328 0.29687,-0.28907 z m 0,0"
             fill-opacity="1"
             fill-rule="nonzero"
             id="path245" />
        </g>
      </g>
    </g>
  </g>
</svg>
