<?xml version="1.0" encoding="UTF-8" standalone="no"?>
<svg
   width="256.84891"
   zoomAndPan="magnify"
   viewBox="0 0 192.63668 210"
   height="280"
   preserveAspectRatio="xMidYMid"
   version="1.0"
   id="svg11"
   sodipodi:docname="16.svg"
   xmlns:inkscape="http://www.inkscape.org/namespaces/inkscape"
   xmlns:sodipodi="http://sodipodi.sourceforge.net/DTD/sodipodi-0.dtd"
   xmlns="http://www.w3.org/2000/svg"
   xmlns:svg="http://www.w3.org/2000/svg">
  <sodipodi:namedview
     id="namedview11"
     pagecolor="#ffffff"
     bordercolor="#000000"
     borderopacity="0.25"
     inkscape:showpageshadow="2"
     inkscape:pageopacity="0.0"
     inkscape:pagecheckerboard="0"
     inkscape:deskcolor="#d1d1d1" />
  <defs
     id="defs3">
    <clipPath
       id="7032661825">
      <path
         d="M 47.410156,324 H 226 V 505.11328 H 47.410156 Z m 0,0"
         clip-rule="nonzero"
         id="path1" />
    </clipPath>
    <clipPath
       id="f41deffe9e">
      <path
         d="m 150,295.11328 h 89 V 369 h -89 z m 0,0"
         clip-rule="nonzero"
         id="path2" />
    </clipPath>
    <clipPath
       id="b69a10028a">
      <path
         d="m 147,295.11328 h 93.16016 V 372 H 147 Z m 0,0"
         clip-rule="nonzero"
         id="path3" />
    </clipPath>
  </defs>
  <path
     fill="#712b90"
     d="m 118.04684,44.285159 c -10.96484,21.375 -23.835942,34.04687 -33.785162,41.73437 -30.01562,23.199221 -56.617182,19.003911 -73.757808,45.445311 -2.7031236,4.17579 -9.79687361,15.44532 -9.0624996,30.29688 0.875,17.74219 12.5976566,33.97656 25.1328126,41.22266 C 59.312468,221.89844 117.5234,190.25391 147.457,151.09766 172.56637,118.25 176.36715,81.960939 176.84762,63.570309 c -4.64844,-10.95703 -9.29687,-21.91406 -13.94922,-32.87109 -14.94922,4.52734 -29.89843,9.05859 -44.85156,13.58594 z m 0,0"
     fill-opacity="1"
     fill-rule="nonzero"
     id="path4" />
  <g
     clip-path="url(#7032661825)"
     id="g5"
     transform="translate(-47.472692,-295.11328)">
    <path
       fill="#242627"
       d="m 96.976562,505.11328 c -8.914062,0 -16.898437,-1.92969 -23.625,-5.81641 -6.582031,-3.80468 -12.769531,-9.88671 -17.410156,-17.125 -5.078125,-7.91796 -7.988281,-16.64062 -8.414062,-25.22656 -0.769532,-15.60547 6.800781,-27.28125 9.285156,-31.12109 10,-15.42578 22.984375,-20.61328 38.015625,-26.61719 10.914065,-4.35937 23.285155,-9.30078 36.058595,-19.17187 13.44531,-10.39063 24.68359,-24.27735 33.39844,-41.26954 l 0.26953,-0.52343 46.60547,-14.11719 14.55468,34.29297 -0.008,0.30078 c -0.61328,23.39062 -6.25781,57.69922 -29.67578,88.33594 -7.41016,9.6914 -16.79688,19.20703 -27.14453,27.52343 -10.34766,8.3125 -21.67578,15.44141 -32.76172,20.60938 -14.14844,6.60156 -27.44922,9.92578 -39.148438,9.92578 z M 166.48437,340.55469 c -8.86718,17.12109 -20.26953,31.14062 -33.90234,41.67578 -13.07812,10.10937 -25.64062,15.125 -36.726561,19.55469 -14.59375,5.82812 -27.195313,10.86328 -36.714844,25.54687 -2.367187,3.65234 -9.570313,14.76563 -8.84375,29.47656 0.910156,18.36328 13.308594,33.65235 24.441406,40.08594 14.738281,8.51563 36.124999,7.01563 60.214839,-4.21875 22.10157,-10.30859 44.10938,-27.99219 58.875,-47.30859 22.86719,-29.91407 28.45704,-63.44922 29.09766,-86.42188 L 209.58203,327.5 Z m 0,0"
       fill-opacity="1"
       fill-rule="nonzero"
       id="path5" />
  </g>
  <path
     fill="#242627"
     d="m 175.22262,66.898439 c -0.71094,21.21484 -5.6914,53.992191 -28.0664,83.570311 -28.92188,38.23438 -86.343752,70.36719 -120.074224,51.24219 -9.808594,-5.5625 -15.46875,-14.24219 -18.6210936,-20.33594 4.0078116,2.24219 10.5039056,5.35156 19.0078116,7.14063 0,0 10.386719,2.18359 22.035156,0.93359 16.507818,-1.77734 71.23438,-20.82813 98.69141,-76.22266 14.16797,-28.585931 15.84765,-56.308591 14.82422,-75.078121 4.0664,9.58203 8.13281,19.16406 12.20312,28.75 z m 0,0"
     fill-opacity="0.15"
     fill-rule="nonzero"
     id="path6" />
  <g
     clip-path="url(#f41deffe9e)"
     id="g7"
     transform="translate(-47.472692,-295.11328)">
    <path
       fill="#94c33d"
       d="m 199.63672,313.52734 c 2.87109,-5.77343 5.74219,-11.54687 8.61328,-17.32422 1.58984,-0.2539 4.30469,-0.48046 7.5,0.33594 3.87109,0.98828 6.47266,3.00391 7.73437,4.12891 -2.85156,6.23437 -5.69921,12.46875 -8.54687,18.70312 1.65625,1.19141 4.125,3.22266 6.26562,6.33985 6.85547,9.98828 2.32813,19.40234 8.05079,30.66406 1.43359,2.82031 4.0039,6.73047 8.92968,10.60156 -5.9375,1.39063 -12.07422,-0.45703 -15.89062,-4.83984 -4.41016,-5.0586 -3.77344,-11.26172 -3.64844,-12.3086 -1.04687,1.73829 -2.45312,4.55079 -3.11719,8.26954 -0.85156,4.76953 -0.0703,8.68359 0.52344,10.8164 -2.24219,-1.83203 -6.125,-5.5039 -8.82422,-11.40625 -3.34375,-7.32031 -2.99219,-13.96484 -2.65234,-16.91406 -2.03125,2.76562 -6.0586,7.45312 -12.6875,10.86328 -9.61719,4.94922 -18.69531,4.10938 -22.1211,3.61719 2.17188,-1.67969 5.23829,-4.42969 7.94532,-8.52735 3.05078,-4.60937 4.34765,-11.1289 4.34765,-11.1289 0,0 -5.69922,9.17187 -14.97656,11.51562 -8.34375,2.10938 -15.04687,-1.07422 -16.74609,-1.9414 3.98047,-0.98047 9.53906,-2.94532 14.63672,-7.30469 6.83203,-5.84766 7.29296,-11.25391 12.85937,-16.46094 3.75,-3.50781 10.17188,-7.2539 21.80469,-7.69922 z m 0,0"
       fill-opacity="1"
       fill-rule="nonzero"
       id="path7" />
  </g>
  <g
     clip-path="url(#b69a10028a)"
     id="g8"
     transform="translate(-47.472692,-295.11328)">
    <path
       fill="#242627"
       d="m 217.59766,371.27344 -2.08594,-1.69922 c -3.86719,-3.15625 -7,-7.20703 -9.0586,-11.71485 -2.48437,-5.43359 -3.04296,-10.59765 -2.92578,-14.57031 -3.15234,3.6836 -7,6.74219 -11.25,8.92969 -9.20312,4.73047 -18.1289,4.34766 -22.63281,3.69922 l -1.99609,-0.28906 1.59765,-1.23047 c 3.0586,-2.36328 5.66797,-5.16407 7.75391,-8.32032 1.37891,-2.08593 2.39453,-4.60156 3.08203,-6.68359 -2.60547,2.95313 -7,6.90234 -12.78906,8.36719 -8.10938,2.04687 -14.83203,-0.72266 -17.34375,-2.01172 l -2.03516,-1.04297 2.21875,-0.54297 c 5.55078,-1.36719 10.35547,-3.76562 14.28516,-7.125 3.57422,-3.05859 5.375,-6.02734 7.11328,-8.89453 1.50391,-2.48828 3.0625,-5.05859 5.71875,-7.54297 5.14062,-4.80469 12.48828,-7.46484 21.84766,-7.90625 l 8.58203,-17.26172 0.43359,-0.0703 c 2.63672,-0.42578 5.27734,-0.30859 7.84766,0.34766 2.98047,0.76172 5.77734,2.25781 8.08984,4.32031 l 0.46875,0.42187 L 216,319.09766 c 2.33203,1.75781 4.31641,3.82031 5.90625,6.13281 3.75391,5.46875 4.19922,10.64844 4.67187,16.13281 0.40235,4.65625 0.81641,9.46875 3.4375,14.625 1.95313,3.85156 4.88282,7.32031 8.69532,10.31641 l 1.39843,1.09765 -1.73046,0.40625 c -6.28907,1.46875 -12.69922,-0.48828 -16.73047,-5.10937 -2.69922,-3.10156 -3.61719,-6.60938 -3.8711,-9.26953 -0.64062,1.55078 -1.11328,3.16015 -1.41015,4.82031 -0.61328,3.43359 -0.4375,7.04297 0.50781,10.43359 z m 2.36328,-25.27735 -0.46875,3.9336 c -0.19141,1.58984 -0.5,7.12109 3.44531,11.64843 3.23437,3.71485 8.20312,5.50391 13.28125,4.88282 -3.31641,-2.8711 -5.91016,-6.12891 -7.72656,-9.69922 -2.76953,-5.45313 -3.19922,-10.4336 -3.61328,-15.25 C 224.42578,336.25781 224,331.29297 220.5,326.19531 c -1.60156,-2.33594 -3.64063,-4.39844 -6.0625,-6.1289 l -0.57031,-0.41016 8.57422,-18.75781 c -1.50391,-1.25 -3.81641,-2.74219 -6.90235,-3.53125 -2.20312,-0.5625 -4.46484,-0.69141 -6.72265,-0.38282 l -8.64454,17.375 -0.5039,0.0195 c -9.17578,0.35156 -16.32813,2.86718 -21.25,7.46875 -2.48438,2.32421 -3.91406,4.68359 -5.42969,7.17968 -1.80859,2.98438 -3.67969,6.07032 -7.46094,9.3086 -3.57422,3.05859 -7.82812,5.35156 -12.66797,6.84375 3.07813,1.18359 8.16016,2.40625 14.01563,0.92578 8.82031,-2.22656 14.40234,-11.05078 14.45703,-11.14063 l 2.47656,-3.96875 -0.91406,4.58594 c -0.0547,0.27344 -1.36719,6.74219 -4.46875,11.4375 -1.82422,2.75391 -4.02344,5.25 -6.55859,7.4375 4.64843,0.40234 12.04297,0.14453 19.6289,-3.75781 4.83594,-2.48438 9.11719,-6.15625 12.39063,-10.60938 l 1.90234,-2.58593 -0.36719,3.1875 c -0.45312,3.9414 -0.37109,9.99609 2.58204,16.46093 1.59375,3.48828 3.86718,6.6875 6.64843,9.375 -0.47656,-2.84375 -0.46875,-5.76562 0.0352,-8.57812 0.54297,-3.02735 1.62891,-5.91016 3.22656,-8.5586 z m 0,0"
       fill-opacity="1"
       fill-rule="nonzero"
       id="path8" />
  </g>
  <path
     fill="#ffffff"
     d="m 28.769496,129.0625 c -12.648438,9.00391 -15.164063,27.37109 -13.015626,28.40625 1.660157,0.80078 4.367188,-13.84375 16.992188,-19.71484 2.808594,-1.30469 8.222656,-3.16016 12.101562,-8.53907 0.933594,-1.29296 2.613282,-3.61718 1.863282,-4.8125 -1.414063,-2.25 -11.253906,-0.0976 -17.941406,4.66016 z m 0,0"
     fill-opacity="0.15"
     fill-rule="nonzero"
     id="path9" />
  <path
     fill="#ffffff"
     d="m 65.331998,109.03516 c -6.65625,2.32812 -10.48438,8.95312 -9.86328,9.61718 0.51953,0.5586 3.93359,-3.33593 12.03515,-6.82031 4.38672,-1.89062 7.15235,-2.37109 7.06641,-2.95312 -0.11328,-0.75 -4.86328,-1.3711 -9.23828,0.15625 z m 0,0"
     fill-opacity="0.15"
     fill-rule="nonzero"
     id="path10" />
  <path
     fill="#242627"
     d="m 124.19918,59.398439 c 2.48829,-0.72266 5.9961,-1.9336 9.92579,-3.96875 4.98046,-2.58594 19.26953,-9.85938 25.60546,-25.92578 4.63672,-11.75782 2.8125,-22.60547 1.56641,-27.70313 1.36328,-0.19531 3.1875,-0.29687 5.28516,0.0469 4.16015,0.67968 7.05078,2.71875 8.45703,3.8789 -2.84375,6.25391 -5.6875,12.50782 -8.53516,18.75782 0.45313,0.32031 1.14453,0.82421 1.94141,1.5 0,0 3.5664,3.02734 6.05078,7.21875 4.21094,7.10937 1.23437,15.54687 5.82031,26.70312 0.85156,2.07422 2.10938,4.59375 4.34375,7.10156 2.16797,2.42969 4.44922,3.94922 6.05078,4.85547 -6.35547,1.08594 -12.69922,-1.44531 -16.23437,-6.48828 -4.34375,-6.19922 -2.32422,-13.17969 -2.05469,-14.04687 -1.89453,2.5664 -5.05078,7.67578 -5.44922,14.60546 -0.125,2.12891 0.0352,4.05079 0.3086,5.69141 -2.31641,-2.27734 -7.94141,-8.44141 -9.36329,-18.00781 -0.67968,-4.57031 -0.18359,-8.47266 0.41407,-11.17578 -1.72266,2.78515 -6.48828,9.65234 -15.64453,13.85547 -7.97657,3.65625 -15.19141,3.41796 -18.48829,3.10156 z m 0,0"
     fill-opacity="0.15"
     fill-rule="nonzero"
     id="path11" />
</svg>
