<?xml version="1.0" encoding="UTF-8" standalone="no"?>
<svg
   width="248.02797"
   zoomAndPan="magnify"
   viewBox="0 0 186.02098 193.99008"
   height="258.65344"
   preserveAspectRatio="xMidYMid"
   version="1.0"
   id="svg15"
   sodipodi:docname="26.svg"
   xmlns:inkscape="http://www.inkscape.org/namespaces/inkscape"
   xmlns:sodipodi="http://sodipodi.sourceforge.net/DTD/sodipodi-0.dtd"
   xmlns="http://www.w3.org/2000/svg"
   xmlns:svg="http://www.w3.org/2000/svg">
  <sodipodi:namedview
     id="namedview15"
     pagecolor="#ffffff"
     bordercolor="#000000"
     borderopacity="0.25"
     inkscape:showpageshadow="2"
     inkscape:pageopacity="0.0"
     inkscape:pagecheckerboard="0"
     inkscape:deskcolor="#d1d1d1" />
  <defs
     id="defs1">
    <clipPath
       id="41ea2aa064">
      <path
         d="m 986.53906,569.77344 h 196.50004 v 196.5 H 986.53906 Z m 0,0"
         clip-rule="nonzero"
         id="path1" />
    </clipPath>
    <clipPath
       id="c4ac1ca08a">
      <rect
         x="0"
         width="198"
         y="0"
         height="198"
         id="rect1" />
    </clipPath>
  </defs>
  <g
     clip-path="url(#41ea2aa064)"
     id="g15"
     transform="translate(-993.72014,-570.23891)">
    <g
       transform="translate(986,569)"
       id="g14">
      <g
         clip-path="url(#c4ac1ca08a)"
         id="g13">
        <path
           fill="#055a30"
           d="m 16.148438,118.81641 c -2.710938,7.33593 4.699218,18.66406 13.152343,18.66406 1.816407,0 3.550781,-0.34375 5.144531,-0.96875 0.714844,8.38281 8.503907,12.23047 14.703126,12.23047 6.199218,0 10.710937,-4.88282 13.671874,-8.51953 0.414063,2.0039 -0.394531,3.87109 -0.300781,6.13671 0.0625,1.44922 0.273438,2.28125 0.785157,2.1211 1.199218,-0.37891 3.980468,-2.82422 6.667968,-2.49219 3.011719,0.37109 4.316406,-4.69141 6.160156,-5.40625 -1.378906,1.54688 -3.1875,3.91797 -2.417968,6.09766 -0.179688,1.23047 -1.972656,7.88281 -1.300782,8.03906 0.136719,0.0312 7.136719,-3.57422 7.652344,-1.62109 0.08203,0.30859 0.01953,0.8164 0.371094,0.9375 1.949219,0.66406 6.707031,-3.89454 7.957031,-5.13672 8.957031,-8.90235 14.445309,2.42578 20.902349,11.1914 8.44531,11.46094 13.80078,30.32032 30.08984,34.79297 6.11328,1.67578 23.71484,-2.85937 35.67969,-10.85547 11.47265,-7.58593 20.99218,-18.92187 18.17578,-29.01172 -2.55078,-9.13281 -21.02344,-30.82031 -26.92578,-43.92187 -3.47657,-7.72266 -3.4961,-12.320312 -2.53125,-15.546875 0.96093,-3.222656 4.98828,-3.402344 8.74609,-5.308594 4.90625,-2.488281 18.27344,-8.128906 17.05859,-14.777343 -0.38672,-2.117188 -1.46093,-5.015626 -4.82812,-5.753907 -13.01172,-2.851562 -31.08203,3.8125 -36.72656,15.589844 -1.42188,-9.753906 -3.66797,-9.742187 7.10156,-9.980469 2.48047,-0.05469 6.27344,-3.261718 8.4414,-5.0625 5.4375,0.671875 10.28907,-2.679687 12.66797,-7.777344 5.57813,-1.234374 6.92969,-10.195312 4.38282,-14.773437 1.20312,-3.265625 -0.14454,-7.394531 -3.38672,-8.875 1.16406,-4.15625 -1.78907,-9.449219 -6.1875,-9.980469 -0.44922,-2.25 -1.82813,-4.382812 -3.79688,-5.578125 -0.53906,-3.441406 -3.74609,-5.96875 -7.2539,-5.394531 -0.66797,0.109375 -1.80079,-3.976562 -6.09766,-4.25 -2.13281,-2.863281 -5.83984,-4.058594 -9.20703,-2.730469 -1.38281,-3.457031 -5.25781,-5.449219 -8.71094,-3.640625 -2.34766,-3.039062 -6.51172,-3.582031 -9.44531,-1.457031 -0.5,0.035156 -0.98047,0.089844 -1.42188,0.164063 -0.23046,0.035156 -0.46093,0.058593 -0.6875,0.070312 -2.32031,-2.851562 -6.37109,-3.679688 -9.86718,-2.640625 -2.1836,-0.863281 -4.67188,-1.863281 -7.08203,-2.058594 -0.47266,-0.035156 -0.9375,-0.011719 -1.40235,0.066407 -3.20703,-0.625 -6.617186,0.59375 -8.730468,3.527343 -0.121093,0.019531 -0.242187,0.03125 -0.363281,0.039063 C 96.285156,5.011719 95.578125,4.914062 94.875,4.730469 92.640625,2.585938 89.585938,1.609375 86.679688,2.378906 c -1.234376,0.210938 -2.398438,0.667969 -3.503907,1.15625 -1.875,-0.46875 -3.9375,0.1875 -5.171875,1.734375 -3.492187,-1.378906 -7.15625,-0.21875 -9.453125,2.550781 -0.820312,-0.00781 -1.652343,0.050782 -2.488281,0.183594 -6.210938,0.996094 -8.257812,3.5 -9.410156,6.050782 -0.9375,1.292968 -1.582032,2.761718 -1.800782,4.308593 -0.222656,0.371094 -0.476562,0.71875 -0.785156,1.035157 -3.34375,-0.640626 -6.671875,0.714843 -8.683594,3.128906 -9.398437,4.242187 -10.335937,14.089844 -10.667968,14.140625 -9.832032,1.578125 -16.621094,13.078125 -14.960938,23.46875 0.703125,4.398437 -8.765625,5.9375 -9.671875,16.617187 -0.542969,6.433594 5.546875,9.058594 4.09375,15.210938 -3.84375,5.316406 -13.351562,19.242186 1.972657,26.851566 z m 0,0"
           fill-opacity="1"
           fill-rule="evenodd"
           id="path2" />
        <path
           fill="#187805"
           d="m 104.46094,120.79297 c -1.01172,-0.69531 -2.75391,-1.68359 -4.83594,-2.85547 -2.519531,-1.41797 -5.542969,-3.10547 -8.453125,-4.61719 -2.910156,-1.51562 -5.707031,-2.86328 -7.746094,-3.72265 -2.035156,-0.85938 -3.3125,-1.23047 -4.644531,-1.65235 -1.335938,-0.42187 -2.726562,-0.89062 -3.929688,-1.13672 -1.207031,-0.24609 -2.226562,-0.26953 -2.785156,0.0937 -0.05859,0.0391 -0.113281,0.0859 -0.160156,0.13282 -1.257812,-2.21875 -3.117188,-4.37891 -5.703125,-6.33985 9.941406,-0.375 33.648437,16.03516 38.257815,20.09766 z M 72.648438,108.51172 c 0.742187,0.12109 1.882812,0.125 3.375,0.39844 1.988281,0.36328 4.609374,1.20703 6.886718,2.01172 2.28125,0.80078 4.21875,1.5625 6.699219,2.71875 2.484375,1.16015 5.507813,2.71484 8.183594,4.23437 0.601562,0.33984 1.183593,0.67969 1.746093,1.00781 -1.433593,-0.57812 -2.957031,-1.17968 -4.402343,-1.7539 -3.921875,-1.5625 -7.257813,-2.9336 -10.449219,-3.56641 -3.191406,-0.63281 -6.242188,-0.52344 -8.335938,-0.12891 -0.980468,0.1875 -1.75,0.4336 -2.375,0.80469 -0.05859,-1.87109 -0.476562,-3.80859 -1.328124,-5.72656 z m 0.195312,11.82422 c 1.410156,-0.15235 3.890625,-1.48047 6.519531,-2.13672 3.070313,-0.76953 6.339844,-0.61719 9.019531,-0.36719 2.675782,0.25 4.761719,0.60547 6.871094,1.1875 0.847656,0.23047 1.703125,0.50391 2.519532,0.78516 -25.558594,-4.31641 -37.898438,18.23828 -31.085938,22.75 7.808594,5.16797 10.363281,-8.60938 14.855469,-10.73047 2.808593,-1.32813 11.628906,-2.82813 19.605471,-1.77344 -13.515628,-0.75391 -33.566409,14.97266 -22.535159,18.59766 15.171875,4.99218 8.0625,-30.27735 44.101559,12.46093 7.08594,8.40235 15.75782,24.39063 23.76563,29.20704 11.57422,6.95703 50.83594,-16.41016 45.46875,-35.45313 -2.51953,-8.93359 -20.58985,-30.20703 -26.38281,-43.03125 -3.41797,-7.5625 -3.45704,-12.054686 -2.53125,-15.203124 0.92578,-3.148437 4.84375,-3.304687 8.49218,-5.152344 4.76172,-2.410156 17.75,-7.867187 16.53907,-14.371093 -0.38672,-2.070313 -1.44141,-4.90625 -4.71875,-5.640625 -12.67969,-2.839844 -30.38282,2.40625 -35.25391,15.511718 -2.60547,-10.113281 -4.69922,-13.871093 6.70312,-12.195312 2.39844,0.351562 5.72657,-3.164062 7.83204,-4.914062 5.29296,0.679687 9.76562,-2.527344 12.05859,-7.5 5.42578,-1.183594 7.04297,-7.941407 4.54297,-12.425782 1.16015,-3.1875 -0.16797,-7.226562 -3.33203,-8.683594 1.11718,-4.058593 -1.77735,-9.242187 -6.0625,-9.777343 -0.44141,-2.203125 -1.79297,-4.292969 -3.71875,-5.46875 -0.53516,-3.363281 -3.66797,-5.851563 -7.07813,-5.304688 -0.65234,0.105469 -1.76953,-3.890625 -5.94922,-4.175781 C 151,13.722656 147.38672,12.542969 144.11719,13.824219 142.75391,10.4375 138.97656,8.476562 135.625,10.230469 132.9375,6.746094 127.84375,6.585938 125.09766,10.042969 122.46875,5.414062 115.92188,4.796875 111.85547,7.796875 107.71484,2.4375 99.929688,3.210938 97.089844,9.398438 94.363281,5.207031 89.023438,3.507812 84.871094,6.601562 82.890625,5.769531 80.53125,6.363281 79.1875,8.050781 75.25,6.476562 71.101562,8.222656 69.054688,11.890625 63.273438,10.773438 56.578125,15.9375 56.640625,21.921875 c -6.191406,-1.742187 -12.625,3.804687 -10.582031,10.359375 -5.996094,-0.945312 -9.9375,5.695312 -8.503906,11 -3.71875,0.523438 -5.527344,4.660156 -4.148438,7.972656 -4.632812,0.640625 -5.074219,6.371094 -2.886719,9.671875 -5.316406,0.04687 -7.226562,7.996094 -3.785156,11.484375 -4.117187,1.925782 -5.265625,7.238282 -2.34375,10.660156 -5.667969,4.351563 -3.183594,14.992188 3.957031,15.785157 -3.34375,4.816411 -0.433594,12.792971 5.671875,12.941411 -2.980469,7.9375 4.160157,16.81249 12.625,14.1289 2.476563,3.87109 7.882813,4.41016 11.015625,1.09375 6.546875,2.75391 12.710938,-0.86719 15.183594,-6.68359 z m 0,0"
           fill-opacity="1"
           fill-rule="evenodd"
           id="path3" />
        <path
           fill="#5daa1e"
           d="m 157.95703,47.386719 c -4.41016,0.707031 -12.70312,5.335937 -11.83984,10.746093 0.86328,5.40625 11.23047,9.441407 14.96484,8.839844 3.73828,-0.597656 3.89844,-1.292968 5.30469,-2.65625 0.74219,0.21875 1.53906,0.277344 2.35156,0.148438 2.30859,-0.371094 4.04297,-2.175782 4.48438,-4.398438 2.22656,-1 3.59375,-3.449218 3.17968,-6.039062 -0.10937,-0.6875 -0.33593,-1.328125 -0.65625,-1.902344 1.10547,-1.339844 1.64844,-3.261719 1.32813,-5.269531 -0.36719,-2.289063 -1.76563,-4.117188 -3.54297,-4.9375 0.44141,-1.601563 0.27734,-3.511719 -0.58594,-5.304688 -1.14062,-2.375 -3.21484,-3.910156 -5.28906,-4.171875 -0.13281,-0.660156 -0.35156,-1.328125 -0.66797,-1.976562 -0.69922,-1.457032 -1.75,-2.597656 -2.93359,-3.320313 l -0.0117,-0.08594 c -0.53125,-3.3125 -3.59766,-5.578125 -6.84766,-5.054688 -0.0977,0.01563 -0.1875,0.03125 -0.28125,0.05078 -1.01172,-2.339844 -3.13281,-3.9375 -5.48437,-4.097657 -1.66016,-2.230469 -4.37891,-3.484375 -7.19922,-3.03125 -0.52344,0.08203 -1.02344,0.222657 -1.5,0.410157 -1.10156,-2.75 -3.77344,-4.488282 -6.55078,-4.042969 -0.59766,0.09766 -1.16016,0.289062 -1.67578,0.558593 -1.45313,-1.882812 -3.78516,-2.929687 -6.20313,-2.542968 -1.63281,0.261718 -3.02344,1.132812 -4,2.359375 C 122.70703,8.863281 119.21875,7.21875 115.50781,7.816406 113.98047,8.0625 112.60547,8.65625 111.47266,9.492188 109.54688,7.003906 106.53906,5.613281 103.42969,6.109375 100.60547,6.5625 98.34375,8.472656 97.164062,11.042969 95.238281,8.085938 92.015625,6.367188 88.699219,6.898438 87.445312,7.097656 86.304688,7.601562 85.320312,8.332031 84.542969,8.007812 83.65625,7.886719 82.753906,8.03125 81.542969,8.226562 80.515625,8.859375 79.816406,9.738281 78.539062,9.230469 77.148438,9.046875 75.742188,9.273438 c -2.480469,0.398437 -4.515626,1.984374 -5.746094,4.1875 -2.417969,-0.46875 -5.28125,0.175781 -7.734375,1.964843 -2.78125,2.027344 -4.324219,5.015625 -4.296875,7.753907 -1.109375,-0.3125 -2.300782,-0.394532 -3.511719,-0.199219 -4.523437,0.722656 -7.59375,5.03125 -6.863281,9.617187 0.06641,0.414063 0.164062,0.816406 0.285156,1.207032 -0.746094,-0.117188 -1.519531,-0.121094 -2.300781,0.0039 -4.179688,0.671875 -6.996094,4.78125 -6.292969,9.183594 0.04687,0.300781 0.113281,0.597656 0.191406,0.886718 -0.03516,0.0039 -0.07422,0.01172 -0.109375,0.01563 -2.859375,0.460938 -4.78125,3.304688 -4.292969,6.359375 0.07422,0.472656 0.207032,0.925782 0.382813,1.347656 -0.03516,0.0039 -0.06641,0.01172 -0.101563,0.01563 -2.878906,0.460937 -4.753906,3.707031 -4.1875,7.25 0.183594,1.136718 0.59375,2.164062 1.160157,3.023437 -0.238281,0 -0.480469,0.01953 -0.726563,0.05859 -2.90625,0.46875 -4.847656,3.46875 -4.332031,6.703125 0.222656,1.375 0.847656,2.570312 1.71875,3.453125 -2.632813,1.230469 -4.246094,4.082031 -3.769531,7.078125 0.199218,1.246094 0.734375,2.355468 1.5,3.25 -2.222656,1.707031 -3.449219,4.832031 -2.921875,8.144531 0.621093,3.898437 3.476562,6.789063 6.753906,7.152344 -1.109375,1.601562 -1.628906,3.734372 -1.273437,5.953122 0.601562,3.76954 3.515624,6.50782 6.769531,6.58985 -0.621094,1.65625 -0.835938,3.51172 -0.53125,5.40234 0.898437,5.625 6,9.48047 11.394531,8.61328 0.472656,-0.0742 0.929688,-0.18359 1.371094,-0.32422 1.433594,2.23829 4.074218,3.53907 6.832031,3.09766 1.527344,-0.24609 2.851563,-0.98828 3.847656,-2.03906 1.414063,0.59375 2.9375,0.8125 4.472657,0.5664 5.335937,-0.85546 8.789062,-7.01171 7.714843,-13.75 -1.074219,-6.73828 -6.273437,-11.5039 -11.613281,-10.64843 -3.144531,0.5039 -5.636719,2.85156 -6.933594,6.07031 -2.1875,-2.51953 -5.503906,-3.88281 -8.941406,-3.33203 -0.359375,0.0586 -0.710938,0.13281 -1.054688,0.23047 0.125,-0.83594 0.121094,-1.71875 -0.01953,-2.61328 -0.558593,-3.492193 -3.097656,-6.097662 -6.054687,-6.531256 1.316406,-1.761719 1.941406,-4.191406 1.535156,-6.726563 -0.300781,-1.902343 -1.136719,-3.5625 -2.292969,-4.808593 1.957031,-1.429688 3.0625,-3.871094 2.65625,-6.414063 -0.292969,-1.839844 -1.320312,-3.378906 -2.730469,-4.371094 1.59375,-1.234374 2.476563,-3.425781 2.105469,-5.734374 C 37.65625,66.050781 37.332031,65.214844 36.875,64.5 c 0.171875,-0.0078 0.347656,-0.02344 0.527344,-0.05469 2.875,-0.460937 4.75,-3.707031 4.1875,-7.25 -0.128906,-0.796874 -0.371094,-1.542968 -0.699219,-2.214843 0.07813,-0.0078 0.160156,-0.01953 0.238281,-0.03125 2.511719,-0.402344 4.300782,-2.648438 4.367188,-5.257813 0.84375,0.171875 1.730468,0.199219 2.621094,0.05469 4.179687,-0.667969 7,-4.78125 6.296874,-9.183594 -0.05859,-0.351562 -0.136718,-0.695312 -0.230468,-1.03125 0.9375,0.191406 1.921875,0.21875 2.921875,0.05859 4.523437,-0.726563 7.59375,-5.03125 6.863281,-9.617188 -0.03125,-0.195312 -0.07031,-0.386718 -0.113281,-0.578125 2.261719,0.238281 4.824219,-0.441406 7.050781,-2.066406 0.40625,-0.296875 0.789062,-0.613281 1.140625,-0.949219 1.855469,1.714844 4.289063,2.59375 6.777344,2.191406 2.578125,-0.414062 4.671875,-2.109374 5.886719,-4.441406 1.914062,1.921875 4.496093,2.925782 7.136718,2.5 2.921875,-0.46875 5.230469,-2.574218 6.359375,-5.398437 1.914059,2.628906 5.011719,4.117187 8.210939,3.601562 2.14062,-0.34375 3.95703,-1.523437 5.22656,-3.191406 1.73438,1.105469 3.96094,1.601563 6.26953,1.230469 2.41407,-0.386719 4.44922,-1.648438 5.7461,-3.355469 1.33593,2.472656 4.02734,3.957031 6.83203,3.507813 0.82812,-0.132813 1.59375,-0.425782 2.27734,-0.839844 1.30859,1.632812 3.28906,2.550781 5.33984,2.289062 0.89454,4.085938 4.66407,6.835938 8.63282,6.199219 0.30468,-0.05078 0.59765,-0.117187 0.88672,-0.199219 1.3164,1.042969 2.98437,1.546875 4.6875,1.273438 0.33593,-0.05078 0.66015,-0.136719 0.97265,-0.242188 0.80078,1.148438 1.97266,1.984375 3.3086,2.359375 0.1289,0.460938 0.30468,0.925781 0.52343,1.378907 1.14063,2.375 3.21485,3.914062 5.28907,4.171874 0.13281,0.660157 0.35156,1.328126 0.66796,1.976563 0.8125,1.691406 2.09766,2.957031 3.51954,3.640625 -0.40625,1.074219 -0.54688,2.300781 -0.34375,3.5625 0.10937,0.683594 0.30859,1.328125 0.58593,1.914062 -2.17187,-2.390624 -4.47656,-3.828124 -8.88281,-3.121093 z m 0,0"
           fill-opacity="1"
           fill-rule="evenodd"
           id="path4" />
        <path
           fill="#99d34b"
           d="m 160.69531,63.144531 c 1.82422,-0.289062 3.39453,-1.171875 4.51953,-2.394531 3.37891,0.261719 7.32813,-2.277344 6.73438,-6.007812 -0.0781,-0.484376 -0.23438,-0.9375 -0.45703,-1.355469 3.26562,-3.253907 2.49609,-8.511719 -1.57032,-10.675781 1.17188,-4.09375 -2.55859,-7.003907 -6.35156,-7.257813 0.38281,-5.582031 -4.33984,-10.425781 -10.01953,-9.625 -0.94922,-5.632813 -7.36719,-8.015625 -12.25391,-5.8125 -1.57031,-2.980469 -4.94921,-4.796875 -8.16406,-3.359375 -2.16797,-3.078125 -6.60547,-3.484375 -9.39062,-1.054688 -2.28125,-5.046874 -8.70703,-6.582031 -12.91016,-3.039062 -3.17187,-4.289062 -9.96484,-3.679688 -12.437499,0.992188 -3.785156,-4.070313 -10.675781,-3.511719 -13.921875,0.925781 -1.644531,-1.339844 -3.871094,-2 -6.183594,-1.628907 -3.382812,0.542969 -5.914062,3.128907 -6.429687,6.222657 -1.585937,-1.019531 -3.492187,-1.476563 -5.445313,-1.164063 -4.195312,0.671875 -7.082031,4.675782 -6.71875,9.117188 -0.976562,-0.28125 -2.003906,-0.359375 -3.039062,-0.191406 -4.269531,0.683593 -7.121094,5.246093 -6.566406,10.335937 -3.296875,0.613281 -5.617188,3.726563 -5.710938,7.375 -3.386718,1.074219 -5.5625,4.585937 -4.96875,8.308594 0.01172,0.07031 0.02734,0.144531 0.03906,0.214843 -2.898438,0.675782 -4.78125,3.777344 -4.25,7.121094 0.09375,0.574219 0.25,1.117188 0.464843,1.628906 -2.515624,1.402344 -4,4.53125 -3.46875,7.863282 0.144532,0.894531 0.421876,1.734375 0.804688,2.488281 -1.9375,1.394531 -3.035156,3.84375 -2.625,6.410156 0.289062,1.792969 1.257812,3.304688 2.59375,4.292969 -1.902344,1.519531 -2.960938,3.871094 -2.570312,6.300781 0.292968,1.84375 1.367187,3.386719 2.863281,4.390625 -0.550781,1.195313 -0.765625,2.601563 -0.535157,4.046875 0.3125,1.949219 1.363282,3.570309 2.78125,4.562499 0.105469,2.39063 1.664063,4.32422 3.816407,5.26563 -1.636719,4.39453 1.148437,9.67578 5.996093,10.14062 1.554688,4.84766 7.765626,6.0625 11.808594,3.57031 1.828125,0.51954 3.847656,0.24219 5.472656,-0.75 4.902344,-0.6875 7.640626,-5.61718 6.894532,-10.29296 -0.734375,-4.59375 -9.273438,-9.37891 -5.429688,-11.089849 1.308594,-0.582031 4.324219,-0.75 8.292969,0.01953 9.328125,1.808599 38.769538,22.117189 34.867188,24.695319 -0.68359,0.45312 -24.101563,-9.16797 -36.410157,4.92578 -1.777344,2.03515 -6.488281,10.52734 -2.515625,12.35156 5.929688,2.71875 8.855469,-9.12891 13.179688,-11.17578 4.554687,-2.15235 13.34375,-2.16797 18.316406,-1.36328 3.261718,0.52734 6.750008,1.47656 9.312508,2.54296 2.55859,1.06641 4.02343,3.33204 1.69531,2.42188 -6.02735,-2.35938 -14.417974,-4.51563 -27.445318,4.66406 -2.472656,1.74219 -4.25,3.73438 -5.0625,5.01563 -0.808594,1.27734 -0.652344,1.84375 0.488281,2.21875 14.617188,4.80859 11.855469,-29.63281 46.566407,11.53515 6.82422,8.09375 15.17969,23.4961 22.89453,28.13282 11.14453,6.70312 45.87891,-13.79688 40.70703,-32.13672 -1.28125,-4.55469 -5.15625,-9.11719 -10.36328,-16.51953 -5.21093,-7.40625 -11.75781,-17.64453 -15.04687,-24.92969 -3.29297,-7.28516 -3.32813,-11.613283 -2.4375,-14.644533 0.89062,-3.03125 2.71094,-4.765626 6.22265,-6.546876 4.58985,-2.320312 17.48829,-6.308593 17.88672,-12.257812 0.13672,-2.023438 -1.5,-3.664062 -4.66015,-4.371094 -6.17969,-1.386718 -17.33203,0.121094 -22.38672,4.148438 -2.99219,2.386718 -5.53516,6.140625 -7.09375,9.117187 -1.55469,2.972657 -2.1211,5.164063 -3.00781,4.945313 -3.66797,-0.90625 -7.04688,-26.304688 -5.76563,-29.917969 3.39844,-9.5625 14.17578,1.933594 18.39453,1.253906 z m 0,0"
           fill-opacity="1"
           fill-rule="evenodd"
           id="path5" />
        <path
           fill="#fdfde1"
           d="m 159.05078,43.46875 c 0.73438,1.3125 4.46484,1.699219 6.15234,3.757812 1.6875,2.058594 1.33204,5.792969 -0.0469,8.230469 -1.37891,2.4375 -3.78125,3.578125 -6.18359,2.996094 -2.40235,-0.585937 -4.80079,-2.890625 -7.29688,-3.769531 -2.5,-0.882813 -5.09766,-0.332032 -7.25391,1.636718 -2.15625,1.972657 -3.875,5.367188 -4.70703,9.273438 -0.83593,3.910156 -0.78125,8.332031 -0.0391,13.398438 0.74219,5.070312 2.17969,10.78125 4.78516,17.269531 2.60937,6.492191 6.39062,13.765621 12.19922,22.679691 5.8125,8.91406 13.65234,19.47265 18.8789,26.77734 5.22656,7.30078 7.83594,11.34766 8.1211,15.17187 0.28515,3.82813 -1.75782,7.44141 -3.59375,9.90235 -1.83204,2.46094 -3.45704,3.76953 -5.69532,4.91797 -2.24218,1.14843 -5.09765,2.1289 -7.76562,2.23047 -2.66797,0.0977 -5.15235,-0.6836 -9.41406,-5.64454 -4.26172,-4.96484 -10.3086,-14.10546 -16.23829,-22.53906 -5.92968,-8.4375 -11.75,-16.16797 -17.42578,-22.60937 -5.67968,-6.44531 -11.21484,-11.59375 -17.41406,-16.37891 -6.199218,-4.78125 -13.062499,-9.19531 -19.156249,-11.695311 -6.097656,-2.5 -11.429687,-3.089844 -15.882812,-3.097657 -4.457031,-0.0078 -8.03125,0.566407 -8.71875,2.628907 C 61.671875,100.66797 63.875,104.22266 64.5625,107 c 2.730469,10.99609 -16.734375,13.98828 -18.851562,1.97266 -0.304688,-1.72266 0.375,-3.80078 0.117187,-5.00782 -0.261719,-1.20312 -1.363281,-1.55078 -2.253906,-1.80468 -0.890625,-0.25 -1.570313,-0.40235 -1.289063,-1.10547 0.28125,-0.69922 2.074219,-2.402346 1.042969,-3.105471 -10.375,-7.078125 -0.230469,-13.117188 -1.171875,-14.910157 -0.847656,-1.621093 -4.035156,-4.160156 -4.152344,-6.210937 -0.113281,-2.050781 2.847656,-3.609375 3.742188,-5.804687 1.609375,-3.953126 -3.957032,-12.007813 0.796875,-15.503907 2.167969,-1.597656 6.464843,-1.761719 8.347656,-2.882812 1.882813,-1.125 1.355469,-3.207031 0.816406,-5.253907 -2.214843,-8.394531 4.179688,-4.300781 6.519531,-7.957031 1.117188,-1.734375 -0.179687,-5.140625 0.9375,-8.136719 5.734376,-15.402343 19.566407,-3.191406 19.855469,-3.15625 0.949219,0.109376 1.746094,-2.085937 2.703125,-4.191406 0.957032,-2.109375 2.074219,-4.125 4.6875,-5.398437 8.867188,-4.320313 13.390625,1.855469 16.703124,1.785156 1.13672,-0.02734 6.08594,-7.03125 10.96485,-2.5 1.67187,1.554687 1.6914,4.539063 3.4414,4.519531 3.53516,-0.03516 10.76172,-8.332031 17.33984,-0.386718 1.70313,2.058593 1.64454,4.363281 3.0586,4.8125 1.41406,0.445312 4.30078,-0.96875 5.85547,-0.464844 1.55078,0.507812 1.77734,2.933594 3.01562,3.421875 0.42578,0.167969 13.73828,-6.140625 14.32422,7.679687 0.10938,2.570313 -2.79297,4.75 -2.0625,6.058594 z m 0,0"
           fill-opacity="1"
           fill-rule="evenodd"
           id="path6" />
        <path
           fill="#187805"
           d="m 128.02734,45.625 c 1.16797,1.175781 2.42578,3.105469 2.83985,5.484375 0.41015,2.378906 -0.0195,5.207031 -1.28907,9.070313 -1.26562,3.863281 -3.36328,8.761718 -4.34374,12.054687 -0.98047,3.292969 -0.84375,4.976563 -1.01172,5.957031 -0.17188,0.976563 -0.65235,1.253906 -1.61719,-0.07031 -0.96484,-1.324219 -2.41406,-4.242188 -3.30469,-7.050782 -0.89062,-2.8125 -1.22265,-5.515624 -1.3789,-7.921874 -0.15235,-2.402344 -0.12891,-4.507813 -0.0273,-6.542969 0.0977,-2.035157 0.27735,-4 0.67969,-5.671875 0.40625,-1.675782 1.03516,-3.054688 2.09375,-4.226563 1.05859,-1.171875 2.53906,-2.132812 3.82422,-2.402343 1.28125,-0.273438 2.36328,0.144531 3.53515,1.320312 z m -26.3164,46.320312 c 0.0703,-1.09375 -2.082034,-5.34375 -5.964846,-9.578124 C 91.859375,78.128906 86.242188,73.910156 80.765625,71.082031 75.289062,68.25 69.949219,66.808594 66.574219,67.8125 c -3.378907,1 -4.792969,4.445312 -4.273438,7.28125 0.519531,2.839844 2.96875,5.070312 7.675781,6.648438 4.703126,1.574218 11.660157,2.492187 16.550782,3.578124 4.886718,1.089844 7.707031,2.34375 10.261718,4 2.558594,1.660157 4.851568,3.71875 4.921878,2.625 z m 0,0"
           fill-opacity="1"
           fill-rule="evenodd"
           id="path7" />
        <path
           fill="#055a30"
           d="m 128.34766,45.964844 c 1.07031,1.191406 2.14453,2.980468 2.51953,5.144531 0.41015,2.378906 -0.0195,5.207031 -1.28907,9.070313 -1.26562,3.863281 -3.36328,8.761718 -4.34374,12.054687 -0.98047,3.292969 -0.84375,4.976563 -1.01172,5.957031 -0.17188,0.976563 -0.65235,1.253906 -1.61719,-0.07031 -0.96484,-1.320313 -2.41406,-4.242188 -3.30469,-7.050782 -0.89062,-2.8125 -1.22265,-5.515624 -1.3789,-7.921874 -0.15235,-2.402344 -0.12891,-4.507813 -0.0273,-6.542969 0.0977,-2.035157 0.27735,-4 0.67969,-5.671875 0.40625,-1.675782 1.03516,-3.054688 2.09375,-4.226563 1.05859,-1.171875 2.53906,-2.132812 3.82422,-2.402343 0.60156,-0.128907 1.16406,-0.101563 1.70703,0.08203 -0.31641,-0.07031 -0.64453,-0.07813 -0.99219,-0.02344 -1.09765,0.160157 -2.39453,0.910157 -3.34375,1.863281 -0.94922,0.953126 -1.54687,2.113282 -1.96875,3.535157 -0.41797,1.425781 -0.66406,3.113281 -0.84375,4.867187 -0.17969,1.753906 -0.30078,3.570313 -0.28515,5.660156 0.0156,2.085938 0.17187,4.441407 0.78906,6.921876 0.62109,2.476562 1.70703,5.082031 2.45703,6.277343 0.75391,1.195313 1.17187,0.988281 1.36328,0.148438 0.1875,-0.835938 0.15234,-2.300781 1.13672,-5.089844 0.98437,-2.792969 2.98828,-6.910156 4.23828,-10.179687 1.25391,-3.269532 1.75391,-5.6875 1.51562,-7.769532 -0.21484,-1.917968 -1.05859,-3.542968 -1.91796,-4.632812 z m -26.63672,45.980468 c 0.0352,-0.515624 -0.42578,-1.734374 -1.32813,-3.320312 -0.21484,0.777344 -2.28906,-1.066406 -4.593748,-2.558594 -2.390624,-1.554687 -5.03125,-2.726562 -9.609374,-3.746094 -4.578126,-1.015624 -11.089844,-1.875 -15.496094,-3.351562 -4.40625,-1.476562 -6.703125,-3.566406 -7.1875,-6.222656 -0.179688,-0.996094 -0.109375,-2.074219 0.21875,-3.078125 -1.28125,1.515625 -1.75,3.597656 -1.414063,5.425781 0.519531,2.839844 2.96875,5.070312 7.675781,6.648438 4.703126,1.574218 11.660157,2.492187 16.550782,3.578124 4.886718,1.089844 7.707031,2.34375 10.261718,4 2.558594,1.660157 4.851568,3.71875 4.921878,2.625 z m 0,0"
           fill-opacity="1"
           fill-rule="evenodd"
           id="path8" />
        <path
           fill="#fff381"
           d="m 64.101562,104.22656 c 0.832032,2.42969 1.089844,6.05078 0.03125,8.2461 -1.058593,2.19922 -3.4375,2.96875 -5.46875,2.73047 -2.027343,-0.23829 -3.707031,-1.48829 -4.269531,-4.4961 -0.5625,-3.0039 -0.01172,-7.76953 1.59375,-11.230468 C 57.59375,96.015625 60.25,93.855469 63.636719,92.625 c 3.386719,-1.230469 7.5,-1.527344 12.253906,-0.800781 4.75,0.726562 10.140625,2.480469 16.933594,5.960937 6.796875,3.484374 14.996091,8.695314 22.808591,15.671874 7.8086,6.97266 15.23047,15.70703 21.66797,24.86328 6.4375,9.15625 11.89453,18.73047 12.52734,20.39063 0.63282,1.65625 -3.5625,-4.60157 -10.13281,-13.26563 -6.57031,-8.66015 -15.51172,-19.72656 -24.58984,-28.16797 -9.07422,-8.44531 -18.281251,-14.26953 -26.214845,-17.539059 -7.9375,-3.269531 -14.601563,-3.984375 -19.125,-3.625 -4.527344,0.359375 -6.917969,1.792969 -7.410156,3.125 -0.492188,1.332029 0.910156,2.562499 1.746093,4.988279 z M 97.089844,22.390625 c 1.117187,1.152344 2.160156,2.757813 2.484375,5.296875 0.324219,2.542969 -0.07031,6.019531 0.05469,9.167969 0.125,3.148437 0.773431,5.964843 1.808591,9.261719 1.03125,3.296874 2.45313,7.074218 2.47266,8.941406 0.0195,1.867187 -1.35938,1.828125 -2.62891,1.769531 -1.27344,-0.05859 -2.429685,-0.136719 -3.320309,0.234375 -0.890626,0.375 -1.511719,1.195312 -1.859376,2.105469 -0.34375,0.910156 -0.414062,1.902343 -0.957031,2.5 -0.542969,0.597656 -1.5625,0.792969 -3.195312,-0.636719 -1.636719,-1.425781 -3.894531,-4.480469 -6.144531,-7.203125 -2.253907,-2.722656 -4.5,-5.121094 -6.761719,-6.972656 C 76.78125,45 74.511719,43.691406 72.195312,42.617188 69.878906,41.546875 67.519531,40.710938 65.765625,40.5 c -1.753906,-0.210938 -2.898437,0.203125 -3.335937,-1.105469 -0.4375,-1.308593 -0.167969,-4.339843 0.597656,-6.414062 0.765625,-2.078125 2.027344,-3.199219 4.113281,-3.878907 2.082031,-0.679687 4.992187,-0.914062 7.316406,-0.0078 C 76.777344,30 78.511719,32.054688 80.5,34.542969 c 1.984375,2.484375 4.21875,5.410156 4.820312,5.28125 0.601563,-0.128907 -0.429687,-3.3125 -1.109374,-5.8125 -0.675782,-2.5 -1,-4.320313 -0.910157,-6.007813 0.08984,-1.691406 0.597657,-3.25 2.378907,-4.585937 1.785156,-1.335938 4.847656,-2.449219 6.976562,-2.660157 2.125,-0.210937 3.320312,0.484376 4.433594,1.632813 z M 56.382812,88.679688 c -1.3125,-0.214844 -3.925781,-0.1875 -6.117187,0.03125 -2.191406,0.222656 -3.960937,0.636718 -5.046875,1.613281 -1.089844,0.980469 -1.496094,2.523437 -1.347656,3.664062 0.148437,1.140625 0.855468,1.882813 1.742187,2.199219 0.886719,0.316406 1.949219,0.210938 3.257813,-0.410156 1.308594,-0.617188 2.863281,-1.753906 4.378906,-2.835938 1.511719,-1.078125 2.984375,-2.101562 3.71875,-2.84375 0.734375,-0.742187 0.726562,-1.199218 -0.585938,-1.417968 z M 47.425781,73.097656 c 2.191407,-0.957031 5.714844,-0.01172 8.222657,1.441406 2.507812,1.449219 3.996093,3.410157 5.207031,4.921876 1.207031,1.515624 2.128906,2.582031 2.113281,3.402343 -0.01563,0.824219 -0.972656,1.40625 -3.191406,1.746094 -2.222656,0.339844 -5.710938,0.4375 -7.976563,0.195313 -2.265625,-0.242188 -3.308593,-0.832032 -4.480469,-1.726563 -1.175781,-0.894531 -2.480468,-2.097656 -2.707031,-4.128906 -0.226562,-2.03125 0.625,-4.890625 2.8125,-5.851563 z M 152.96875,31.734375 c 1.25391,0.167969 2.40234,0.789063 3.00781,1.675781 0.60938,0.886719 0.67969,2.039063 -0.0156,3.367188 -0.69922,1.328125 -2.16016,2.824218 -3.73438,3.996094 -1.57422,1.171874 -3.2539,2.015624 -4.5625,2.757812 -1.30469,0.742188 -2.23437,1.386719 -2.84375,1.15625 -0.60937,-0.230469 -0.89844,-1.332031 -0.76953,-2.871094 0.13281,-1.539062 0.68359,-3.515625 1.57813,-5.203125 0.89062,-1.6875 2.125,-3.082031 3.42578,-3.921875 1.29687,-0.839844 2.66015,-1.125 3.91406,-0.957031 z M 138.625,31.5 c 1.33984,0.507812 2.55469,2.378906 2.19141,5.851562 -0.35938,3.472657 -2.30079,8.542969 -3.88282,11.160157 -1.57812,2.617187 -2.79687,2.78125 -3.46484,1.671875 -0.66797,-1.105469 -0.78516,-3.484375 -1.21094,-5.222656 -0.42187,-1.734376 -1.15625,-2.832032 -0.85937,-4.769532 0.29687,-1.933594 1.625,-4.707031 3.01953,-6.523437 1.39453,-1.816407 2.86328,-2.675781 4.20703,-2.167969 z m -8.86328,-5.980469 c 1.41015,1.464844 1.78906,3.832031 0.74219,6.691407 -1.05079,2.863281 -3.52735,6.214843 -5.16016,7.574218 -1.63281,1.363282 -2.42187,0.734375 -2.72266,-0.644531 -0.30468,-1.378906 -0.12109,-3.511719 -0.48046,-4.652344 -0.36329,-1.136719 -1.26954,-1.289062 -1.84375,-2.199219 -0.57032,-0.90625 -0.80469,-2.578124 -0.22266,-4.261718 0.58594,-1.6875 1.98437,-3.386719 3.90625,-3.957032 1.92187,-0.574218 4.36719,-0.01562 5.78125,1.449219 z m -18.07813,1.523438 c 1.83594,0.3125 3.72266,1.257812 4.58985,3.121093 0.87109,1.863282 0.72656,4.640626 0.0195,7.792969 -0.71094,3.148438 -1.98047,6.667969 -3.21094,9.625 -1.23047,2.953125 -2.42187,5.34375 -3.03906,6.707031 -0.61719,1.363282 -0.66406,1.699219 -1.33984,0.425782 -0.67969,-1.269532 -1.98829,-4.144532 -3.0586,-6.746094 -1.07031,-2.601562 -1.90234,-4.929688 -2.21094,-7.390625 -0.3125,-2.460937 -0.10546,-5.054687 0.45704,-7.28125 0.5625,-2.222656 1.47656,-4.074219 2.82812,-5.164063 1.34766,-1.085937 3.13281,-1.402343 4.96484,-1.089843 z M 51.113281,58.558594 c 1.84375,0.04687 4.074219,0.902344 5.707031,2.300781 1.628907,1.394531 2.660157,3.332031 3.390626,4.9375 0.730468,1.605469 1.164062,2.882813 0.40625,3.675781 -0.757813,0.792969 -2.703126,1.105469 -5.039063,1.039063 -2.335937,-0.07031 -5.058594,-0.519531 -6.777344,-1.523438 -1.714843,-1.003906 -2.421875,-2.566406 -2.660156,-4.152343 -0.234375,-1.585938 0,-3.199219 0.839844,-4.382813 0.84375,-1.1875 2.292969,-1.945313 4.132812,-1.894531 z M 62.144531,45.003906 C 64.257812,44.089844 67.5,44.6875 70.605469,46.304688 c 3.105469,1.617187 6.082031,4.257812 8.792969,7.1875 2.710937,2.929687 5.15625,6.148437 6.625,8.574218 1.464843,2.421875 1.957031,4.050782 1.410156,4.941406 -0.546875,0.890626 -2.125,1.046876 -5.867188,0.07031 C 77.828125,66.105469 71.925781,64 68.460938,62.617188 65,61.238281 63.980469,60.578125 62.859375,59.824219 61.738281,59.066406 60.523438,58.210938 59.707031,56.6875 c -0.816406,-1.527344 -1.234375,-3.726562 -0.949219,-6.035156 0.285157,-2.3125 1.273438,-4.734375 3.386719,-5.648438 z m 99.632809,3.339844 c 2,1.582031 2.92188,3.867188 2.85547,5.789062 -0.0664,1.921876 -1.125,3.484376 -2.66797,4.304688 -1.54297,0.820312 -3.57422,0.898438 -5.75,-0.02734 -2.17187,-0.925781 -4.48828,-2.851562 -6.55078,-3.617187 -2.05859,-0.765625 -3.86328,-0.371094 -5.52734,0.867187 -1.66016,1.238282 -3.17969,3.320313 -4.35156,6.371094 -1.17188,3.050781 -1.9961,7.070312 -2.2461,10.445312 -0.24609,3.375 0.0859,6.105469 1.10156,10.167969 1.01563,4.066407 2.71485,9.464844 6.32813,16.84375 3.61719,7.374995 9.14453,16.730465 13.90625,24.421875 4.76562,7.6914 8.76562,13.71875 7.74609,12.97656 -1.01953,-0.74219 -7.0625,-8.25391 -12.9414,-17.53906 -5.88282,-9.28516 -11.60157,-20.34375 -15.05078,-28.3125 -3.44532,-7.96875 -4.61719,-12.847656 -4.44922,-18.492187 0.16406,-5.648438 1.66797,-12.058594 3.62109,-16.3125 1.95313,-4.253907 4.35938,-6.34375 7.07031,-7.855469 2.71094,-1.511719 5.73438,-2.445312 8.78125,-2.46875 3.05078,-0.02734 6.125,0.855469 8.125,2.4375 z m 0,0"
           fill-opacity="1"
           fill-rule="evenodd"
           id="path9" />
        <path
           fill="#5daa1e"
           d="m 111.57031,35.050781 c 1.25,0.214844 2.53907,0.859375 3.13282,2.132813 0.59375,1.269531 0.49609,3.167968 0.0117,5.320312 -0.48437,2.152344 -1.35156,4.554688 -2.1914,6.570313 -0.83985,2.019531 -1.65235,3.652343 -2.07422,4.582031 -0.42188,0.929688 -0.45313,1.160156 -0.91406,0.292969 -0.46485,-0.867188 -1.35938,-2.832031 -2.08985,-4.609375 -0.73047,-1.773438 -1.29687,-3.363282 -1.51172,-5.046875 -0.21093,-1.679688 -0.0703,-3.449219 0.31641,-4.96875 0.38281,-1.519531 1.00781,-2.785157 1.92969,-3.527344 0.91797,-0.742187 2.13672,-0.957031 3.39062,-0.746094 z M 71.40625,52.71875 c 1.347656,-0.582031 3.414062,-0.203125 5.390625,0.828125 1.980469,1.03125 3.878906,2.714844 5.605469,4.582031 1.726562,1.867188 3.285156,3.917969 4.21875,5.460938 0.933594,1.542968 1.246094,2.582031 0.898437,3.152344 -0.347656,0.566406 -1.351562,0.664062 -3.738281,0.04297 -2.382812,-0.621094 -6.140625,-1.960937 -8.347656,-2.84375 -2.207032,-0.878906 -2.859375,-1.296875 -3.570313,-1.777344 -0.714843,-0.484374 -1.488281,-1.027343 -2.011719,-2 -0.519531,-0.972656 -0.785156,-2.375 -0.601562,-3.847656 0.183594,-1.472656 0.8125,-3.015625 2.15625,-3.597656 z m 0,0"
           fill-opacity="1"
           fill-rule="evenodd"
           id="path10" />
        <path
           fill="#e2da6b"
           d="M 93.09375,61.832031 C 92.75,61.660156 92.371094,61.402344 91.949219,61.03125 90.3125,59.605469 88.054688,56.550781 85.804688,53.828125 c -2.253907,-2.722656 -4.5,-5.121094 -6.761719,-6.972656 C 76.78125,45 74.511719,43.691406 72.195312,42.617188 c -1.183593,-0.546876 -2.378906,-1.03125 -3.5,-1.40625 17.558594,3.910156 19.03125,13.566406 24.398438,20.621093 z m 62.57031,-28.8125 c 0.11719,0.125 0.22266,0.253907 0.3125,0.390625 0.60938,0.886719 0.67969,2.039063 -0.0156,3.367188 -0.69922,1.328125 -2.16016,2.824218 -3.73438,3.996094 -1.57422,1.171874 -3.2539,2.015624 -4.5625,2.757812 -1.30469,0.742188 -2.23437,1.386719 -2.84375,1.15625 -0.51562,-0.195312 -0.80078,-1.011719 -0.80078,-2.183594 0.13281,0.359375 0.32422,0.597656 0.57031,0.691406 0.58594,0.222657 1.48047,-0.394531 2.73828,-1.109374 1.25782,-0.714844 2.875,-1.527344 4.38672,-2.65625 1.51563,-1.125 2.92188,-2.570313 3.59375,-3.84375 0.50391,-0.960938 0.59375,-1.832032 0.35547,-2.566407 z m -17.75,13.65625 c -0.33203,0.6875 -0.66406,1.3125 -0.98047,1.835938 -1.57812,2.617187 -2.79687,2.78125 -3.46484,1.671875 -0.66797,-1.105469 -0.78516,-3.484375 -1.21094,-5.222656 -0.42187,-1.734376 -1.15625,-2.832032 -0.85937,-4.769532 0.29687,-1.933594 1.625,-4.707031 3.01953,-6.523437 0.78906,-1.027344 1.60156,-1.746094 2.39844,-2.085938 -0.51563,0.367188 -1.03125,0.894531 -1.53907,1.554688 -1.3164,1.710937 -2.5664,4.324219 -2.84765,6.148437 -0.27735,1.824219 0.41015,2.859375 0.8125,4.496094 0.39843,1.640625 0.51172,3.878906 1.14062,4.925781 0.62891,1.042969 1.77735,0.890625 3.26563,-1.578125 0.0859,-0.144531 0.17578,-0.292968 0.26562,-0.453125 z m -8.48047,-12.179687 c -1.21093,2.183594 -2.88281,4.28125 -4.08984,5.289062 -1.63281,1.363282 -2.42187,0.734375 -2.72266,-0.644531 -0.30468,-1.378906 -0.12109,-3.511719 -0.48046,-4.652344 -0.36329,-1.136719 -1.26954,-1.289062 -1.84375,-2.199219 -0.57032,-0.90625 -0.80469,-2.578124 -0.22266,-4.261718 0.53906,-1.554688 1.76562,-3.117188 3.45703,-3.804688 -1.08984,0.761719 -1.88672,1.914063 -2.28125,3.058594 -0.55078,1.59375 -0.33203,3.171875 0.20703,4.03125 0.54297,0.859375 1.39844,1 1.74219,2.078125 0.33984,1.078125 0.16797,3.089844 0.45312,4.390625 0.28516,1.304688 1.03125,1.898438 2.57032,0.613281 0.9375,-0.78125 2.16796,-2.253906 3.21093,-3.898437 z M 56.382812,88.679688 c -0.351562,-0.05469 -0.800781,-0.09766 -1.308593,-0.121094 0.152343,0.01563 0.296875,0.03516 0.425781,0.05859 1.242188,0.203124 1.25,0.636718 0.554688,1.335937 -0.691407,0.703125 -2.085938,1.671875 -3.519532,2.691406 -1.429687,1.023438 -2.898437,2.097657 -4.136718,2.683594 -1.238282,0.585937 -2.246094,0.6875 -3.082032,0.386719 -0.496094,-0.179688 -0.933594,-0.496094 -1.234375,-0.945313 0.304688,0.703125 0.867188,1.179688 1.53125,1.417969 0.886719,0.316406 1.949219,0.210938 3.257813,-0.410156 1.308594,-0.617188 2.863281,-1.753906 4.378906,-2.835938 1.511719,-1.078125 2.984375,-2.101562 3.71875,-2.84375 0.734375,-0.742187 0.726562,-1.199218 -0.585938,-1.417968 z m 1.328126,-12.671876 c 1.339843,1.15625 2.308593,2.410157 3.144531,3.453126 1.207031,1.515624 2.128906,2.582031 2.113281,3.402343 -0.01563,0.824219 -0.972656,1.40625 -3.191406,1.746094 -2.222656,0.339844 -5.710938,0.4375 -7.976563,0.195313 -2.265625,-0.242188 -3.308593,-0.832032 -4.480469,-1.726563 -1.175781,-0.894531 -2.480468,-2.097656 -2.707031,-4.128906 -0.03125,-0.269531 -0.03906,-0.550781 -0.03125,-0.84375 l 0.0078,0.08203 c 0.214844,1.929688 1.453125,3.074219 2.570312,3.921875 1.117188,0.851563 2.109375,1.410156 4.261719,1.640625 2.152344,0.234375 5.46875,0.136719 7.578125,-0.183594 2.113281,-0.324218 3.019531,-0.875 3.035156,-1.660156 0.01563,-0.78125 -0.863281,-1.792969 -2.011718,-3.230469 l -0.02734,-0.03906 -0.02734,-0.03125 -0.0039,-0.0078 -0.09375,-0.117187 -0.01172,-0.01172 -0.01953,-0.02734 -0.03125,-0.03906 -0.0039,-0.0039 -0.05469,-0.07031 -0.0039,-0.0039 -0.03125,-0.03906 -0.01953,-0.02734 -0.01172,-0.01172 -0.0625,-0.07813 -0.03516,-0.04297 -0.0039,-0.0078 -0.02734,-0.03125 -0.03125,-0.04297 -0.03516,-0.03906 -0.02344,-0.03125 -0.0078,-0.0078 -0.03125,-0.04297 -0.01953,-0.02344 -0.01563,-0.01563 -0.03516,-0.04297 -0.0078,-0.01172 -0.02344,-0.02734 -0.03516,-0.04297 -0.0039,-0.0039 -0.02734,-0.03906 -0.03125,-0.03516 -0.0039,-0.0039 -0.03516,-0.04297 -0.02344,-0.02734 -0.01172,-0.01563 -0.03516,-0.03906 -0.01563,-0.01953 -0.01953,-0.02344 -0.03516,-0.04297 -0.0078,-0.0078 -0.02734,-0.03516 -0.03516,-0.04297 -0.03516,-0.03906 -0.02734,-0.03516 -0.0078,-0.0078 -0.03906,-0.04297 -0.01953,-0.02344 -0.01563,-0.01953 -0.03516,-0.04297 -0.01563,-0.01563 L 58.757812,77.125 58.71875,77.078125 58.648438,77 v -0.0039 l -0.03906,-0.04297 -0.02734,-0.02734 -0.01172,-0.01563 -0.03906,-0.04297 -0.01563,-0.01953 -0.02344,-0.02344 -0.03906,-0.04297 -0.0078,-0.0078 -0.03125,-0.03516 -0.03906,-0.04297 -0.07031,-0.07812 -0.0078,-0.0078 -0.03906,-0.04297 -0.02344,-0.02344 -0.05859,-0.0625 -0.04297,-0.04297 c -0.0625,-0.06641 -0.128906,-0.136719 -0.195312,-0.203125 l -0.183594,-0.183594 -0.04687,-0.04297 z M 61.011719,68.3125 c 0.01953,0.457031 -0.09375,0.847656 -0.394531,1.160156 -0.757813,0.792969 -2.703126,1.105469 -5.039063,1.039063 -2.335937,-0.07031 -5.058594,-0.519531 -6.777344,-1.523438 -1.714843,-1.003906 -2.421875,-2.566406 -2.660156,-4.152343 -0.234375,-1.585938 0,-3.199219 0.839844,-4.382813 0.34375,-0.484375 0.785156,-0.894531 1.3125,-1.207031 -0.117188,0.125 -0.226563,0.261718 -0.328125,0.398437 -0.804688,1.136719 -1.027344,2.683594 -0.800782,4.203125 0.226563,1.519532 0.902344,3.015625 2.546876,3.980469 1.644531,0.960937 4.253906,1.390625 6.492187,1.457031 2.21875,0.06641 4.070313,-0.226562 4.808594,-0.972656 z M 109.91406,54.578125 c -0.5,1.113281 -0.58593,1.3125 -1.21093,0.136719 -0.67969,-1.269532 -1.98829,-4.144532 -3.0586,-6.746094 -1.07031,-2.601562 -1.90234,-4.929688 -2.21094,-7.390625 -0.3125,-2.460937 -0.10546,-5.054687 0.45704,-7.28125 0.5625,-2.222656 1.47656,-4.074219 2.82812,-5.164063 0.76953,-0.621093 1.68359,-0.988281 2.66797,-1.132812 -0.55469,0.195312 -1.07031,0.480469 -1.53516,0.855469 -1.34765,1.085937 -2.26562,2.9375 -2.82422,5.164062 -0.5625,2.222657 -0.77343,4.816407 -0.46093,7.277344 0.3125,2.460937 1.14062,4.789063 2.21093,7.390625 1.07032,2.601562 2.38282,5.476562 3.0586,6.75 z M 62.144531,45.003906 c 0.214844,-0.09375 0.4375,-0.167968 0.671875,-0.230468 -1.515625,1.128906 -2.261718,3.171874 -2.507812,5.136718 -0.285156,2.308594 0.132812,4.507813 0.949218,6.035156 0.816407,1.527344 2.035157,2.382813 3.152344,3.136719 1.121094,0.757813 2.140625,1.414063 5.605469,2.792969 3.460937,1.382812 9.363281,3.488281 13.105469,4.464844 2,0.519531 3.386718,0.71875 4.320312,0.652344 l -0.0078,0.01562 c -0.546875,0.890626 -2.125,1.046876 -5.867188,0.07031 C 77.828125,66.105469 71.925781,64 68.460938,62.617188 65,61.238281 63.980469,60.578125 62.859375,59.824219 61.738281,59.066406 60.523438,58.210938 59.707031,56.6875 c -0.816406,-1.527344 -1.234375,-3.726562 -0.949219,-6.035156 0.285157,-2.3125 1.273438,-4.734375 3.386719,-5.648438 z m 2.8125,-4.566406 c -1.296875,-0.05859 -2.160156,0.05078 -2.527343,-1.042969 -0.4375,-1.308593 -0.167969,-4.339843 0.597656,-6.414062 0.765625,-2.078125 2.027344,-3.199219 4.113281,-3.878907 2.082031,-0.679687 4.992187,-0.914062 7.316406,-0.0078 0.214844,0.08203 0.421875,0.175781 0.628907,0.28125 -1.867188,-0.320312 -3.867188,-0.113281 -5.425782,0.347656 -2.101562,0.621094 -3.394531,1.707032 -4.21875,3.761719 -0.820312,2.054687 -1.171875,5.074219 -0.769531,6.394531 0.07031,0.234375 0.167969,0.417969 0.285156,0.558594 z M 85.46875,38.945312 c -0.148438,-1.144531 -0.789062,-3.203124 -1.257812,-4.933593 -0.675782,-2.5 -1,-4.320313 -0.910157,-6.007813 0.08984,-1.691406 0.597657,-3.25 2.378907,-4.585937 1.785156,-1.335938 4.847656,-2.449219 6.976562,-2.660157 1.957031,-0.195312 3.121094,0.378907 4.164062,1.367188 -0.425781,-0.06641 -0.894531,-0.08203 -1.425781,-0.04297 -2.132812,0.148438 -5.222656,1.179688 -7.042969,2.46875 -1.820312,1.285157 -2.367187,2.828125 -2.503906,4.515625 -0.136718,1.683594 0.136719,3.511719 0.746094,6.03125 0.609375,2.519532 1.550781,5.726563 0.949219,5.839844 C 87.210938,41 86.425781,40.144531 85.46875,38.945312 Z m 0,0"
           fill-opacity="1"
           fill-rule="evenodd"
           id="path11" />
        <path
           fill="#e6ffa1"
           d="m 149.53516,115.03516 c 3.80078,5.76953 9.94921,15.07812 15.64843,23.03906 5.69922,7.96094 10.94532,14.57812 13.61328,18.64062 2.66407,4.0625 2.7461,5.57032 2.46485,5.9336 -0.28125,0.35937 -0.9336,-0.42969 -4.1836,-4.3711 -3.24609,-3.94531 -9.09375,-11.03906 -14.71093,-19.14843 -5.61719,-8.10547 -11,-17.21875 -14.22266,-23.10938 -3.21875,-5.89062 -4.27344,-8.55859 -4.07031,-8.77344 0.19922,-0.21875 1.65625,2.01563 5.46094,7.78907 z m 22.78906,-38.750004 c 1.98437,-0.277344 2.55469,0.339844 2.5664,1.21875 0.008,0.878906 -0.54296,2.015625 -2.99218,3.421875 -2.44532,1.402344 -6.78907,3.070313 -9.39453,3.988281 -2.60547,0.914063 -3.46875,1.082032 -2.64844,0.566407 0.82422,-0.511719 3.33203,-1.699219 5.47656,-2.714844 2.14063,-1.011719 3.92188,-1.851563 4.58594,-2.507813 0.66797,-0.660156 0.22656,-1.140624 -0.97266,-1.171874 -1.19531,-0.03125 -3.14453,0.386718 -4.76953,0.871093 -1.625,0.484375 -2.92578,1.035157 -3.82422,1.324219 -0.89453,0.289062 -1.39062,0.3125 -0.79297,-0.125 0.59766,-0.4375 2.28907,-1.335938 4.83594,-2.375 2.54297,-1.039062 5.94531,-2.214844 7.92969,-2.496094 z m -53.55078,59.878904 c 3.29687,4.76563 8.28515,11.73438 13.375,18.39844 5.08984,6.66016 10.28125,13.01172 13.51953,17.30859 3.24219,4.30078 4.53125,6.54688 -0.17969,0.76953 -4.71484,-5.77734 -15.42969,-19.57421 -22.13281,-28.17187 -6.70313,-8.59375 -9.39063,-11.98438 -12.46484,-14.12109 -3.07032,-2.14063 -6.52735,-3.03125 -9.92188,-3.66016 -3.394531,-0.63281 -6.726562,-1.00391 -8.554688,-1.49219 -1.828124,-0.48828 -2.144531,-1.09375 1.417969,-0.92968 3.5625,0.16406 11.003909,1.09765 15.527349,2.83984 4.52343,1.74219 6.12109,4.29687 9.41406,9.05859 z M 85.976562,102.39063 c -2.359374,-2.14063 3.570313,0.21484 10.570313,5 7.000005,4.78906 15.066405,12 22.761715,21.16406 7.69922,9.16406 15.02735,20.27734 20.625,28.28125 5.60157,8.0039 9.47266,12.89843 12.44141,16.38672 2.96484,3.48828 5.02734,5.57421 8.20312,6.27343 3.17579,0.69922 7.46875,0.008 8,0.23828 0.53516,0.23047 -2.6875,1.37891 -5.07031,2.02344 -2.38672,0.64453 -3.9375,0.78906 -6.04687,-0.44922 -2.10938,-1.23828 -4.77735,-3.85547 -8.64453,-8.69531 -3.86329,-4.84375 -8.91797,-11.91016 -15.64844,-21.41406 -6.73047,-9.5 -15.13281,-21.44141 -24.66016,-30.73047 -9.523435,-9.29297 -20.171872,-15.93359 -22.531248,-18.07812 z M 181.25,77.460938 c 0.25,1.242187 0.10547,3.300781 -1.53516,4.867187 -1.64453,1.570313 -4.78515,2.652344 -7.99218,3.726563 -3.20704,1.074218 -6.48047,2.136718 -8.85547,3.625 -2.375,1.492187 -3.85157,3.410156 -4.65235,6.019531 -0.80078,2.609375 -0.92968,5.914061 1.06641,11.371091 2,5.45703 6.12109,13.06641 10.60937,20.26172 4.49219,7.19922 9.34375,13.98438 12.26172,18.47656 2.91797,4.4961 3.90235,6.70313 4.25,9.21875 0.35157,2.51953 0.0664,5.34766 -0.1875,6.04297 -0.2539,0.69922 -0.48437,-0.73437 -0.85937,-2.75 -0.3711,-2.01562 -0.89063,-4.60937 -2.24219,-7.33203 -1.35156,-2.72656 -3.53906,-5.57812 -6.59375,-9.94531 -3.05469,-4.3711 -6.98047,-10.25391 -10.08594,-15.10938 -3.10547,-4.85937 -5.39453,-8.69531 -7.14843,-12.30078 -1.75782,-3.60547 -2.97657,-6.98047 -3.76172,-9.92578 -0.78516,-2.94531 -1.13282,-5.464842 -0.9336,-7.648436 0.20313,-2.1875 0.95313,-4.039063 2.78907,-5.675782 1.83593,-1.632812 4.7539,-3.046874 8.22656,-4.332031 3.47656,-1.285156 7.50781,-2.445312 10.0039,-3.671875 2.4961,-1.226562 3.45313,-2.523437 3.88282,-3.703125 0.42578,-1.175781 0.32031,-2.238281 0.59375,-2.558593 0.26953,-0.316407 0.91015,0.105468 1.16406,1.34375 z m -12.58203,88.855472 c -1.58594,0.32421 -3.39453,0 -5.33594,-0.9375 -1.9375,-0.94141 -4.00781,-2.4961 -6.01172,-4.79688 -2.0039,-2.30078 -3.94531,-5.34766 -6.20703,-8.78516 -2.26562,-3.4375 -4.85156,-7.26171 -6.43359,-9.59375 -1.58594,-2.33593 -2.16797,-3.17578 -1.13282,-1.03906 1.03516,2.14063 3.6875,7.26172 6.14454,11.41016 2.45703,4.14844 4.71875,7.32422 7.10937,9.85547 2.39453,2.52734 4.91797,4.40625 6.79297,5.50781 1.875,1.10156 3.10156,1.42578 4.49219,1.42578 1.39062,0 2.9414,-0.32422 4.04297,-1.00391 1.09765,-0.67968 1.74609,-1.71875 1.80859,-2.49609 0.0664,-0.77734 -0.45313,-1.29687 -1.39063,-1.07031 -0.9375,0.22656 -2.29296,1.19922 -3.8789,1.52344 z M 92.917969,93.847656 c 6.25,2.726563 14.437501,7.242184 21.425781,12.871094 6.98828,5.625 12.77734,12.36328 17.00781,17.51563 4.22656,5.15234 6.89063,8.71484 4.92969,6.92968 -1.96094,-1.78515 -8.55078,-8.92187 -13.88281,-14.10547 -5.33203,-5.18359 -9.41016,-8.41796 -14.63672,-12.10546 -5.22656,-3.6875 -11.601564,-7.832036 -18.820314,-10.714849 -7.21875,-2.886719 -15.28125,-4.515625 -17.238281,-5.136719 -1.960937,-0.621093 2.1875,-0.234374 6.417969,0.425782 4.230468,0.660156 8.546875,1.59375 14.796875,4.320312 z m 77.906251,47.335934 c 1.9375,2.34375 4.67578,6.05469 6.94922,9.56641 2.27343,3.51172 4.08203,6.82812 4.07422,7.22266 -0.008,0.39062 -1.82813,-2.13672 -3.88282,-4.84375 -2.05468,-2.70704 -4.34765,-5.59375 -6.27734,-8.33204 -1.92969,-2.73828 -3.49609,-5.32421 -3.71484,-6.1289 -0.21875,-0.80469 0.91406,0.17187 2.85156,2.51562 z m -17.85547,23.2461 c 1.00391,1.54687 4.16406,5.24218 6.80469,7.52343 2.64453,2.27735 4.77343,3.14454 6.74218,3.51172 1.97266,0.36719 3.78516,0.23438 5.47657,-0.48437 1.69531,-0.71875 3.26562,-2.01953 3.36328,-2.71875 0.10156,-0.69922 -1.27735,-0.79297 -2.64063,-0.46875 -1.36328,0.32422 -2.71093,1.0625 -4.29297,1.16015 -1.58203,0.0977 -3.39843,-0.45312 -5.80078,-2.03515 -2.40234,-1.58594 -5.38672,-4.20703 -7.44922,-5.81641 -2.0664,-1.61328 -3.21093,-2.21875 -2.20312,-0.67187 z m 0,0"
           fill-opacity="1"
           fill-rule="evenodd"
           id="path12" />
        <path
           fill="#278513"
           d="m 16.152344,103.96094 c -1.207032,0.75 -1.578125,2.33594 -0.832032,3.54687 0.75,1.21094 2.332032,1.58203 3.539063,0.83594 0.144531,-0.0898 0.273437,-0.19141 0.394531,-0.30078 0.03906,0.37109 0.164063,0.73828 0.375,1.08203 0.734375,1.18359 2.25,1.57422 3.386719,0.86719 1.140625,-0.70703 1.46875,-2.24219 0.734375,-3.42969 -0.730469,-1.1875 -2.25,-1.57422 -3.386719,-0.86719 -0.105469,0.0625 -0.207031,0.13672 -0.296875,0.21485 -0.03516,-0.38282 -0.160156,-0.76563 -0.375,-1.11719 -0.746094,-1.20703 -2.332031,-1.58203 -3.539062,-0.83203 z m 1.453125,-33.187502 c -0.925781,0 -1.730469,0.511718 -2.140625,1.261718 C 15.210938,71.492188 14.648438,71.113281 14,71.113281 c -0.894531,0 -1.617188,0.710938 -1.617188,1.582031 0,0.8125 0.621094,1.480469 1.425782,1.574219 -0.898438,0.277344 -1.550782,1.101563 -1.550782,2.074219 0,1.199219 0.996094,2.175781 2.226563,2.175781 1.226563,0 2.21875,-0.976562 2.21875,-2.175781 0,-0.425781 -0.121094,-0.820312 -0.335937,-1.152344 0.363281,0.210938 0.785156,0.332032 1.238281,0.332032 1.339843,0 2.425781,-1.0625 2.425781,-2.375 0,-0.882813 -0.492188,-1.65625 -1.226562,-2.0625 0.945312,-0.02734 1.707031,-0.785157 1.707031,-1.714844 0,-0.949219 -0.785157,-1.71875 -1.753907,-1.71875 -0.96875,0 -1.753906,0.769531 -1.753906,1.71875 0,0.582031 0.300782,1.097656 0.753906,1.410156 -0.05078,-0.0039 -0.09766,-0.0078 -0.152343,-0.0078 z m 19.839843,57.523432 c -0.890624,0 -1.617187,0.70704 -1.617187,1.58204 0,0.875 0.726563,1.58203 1.617187,1.58203 0.894532,0 1.617188,-0.70703 1.617188,-1.58203 0,-0.875 -0.722656,-1.58204 -1.617188,-1.58204 z m -13.121093,-0.85156 c -1.351563,0 -2.449219,1.07422 -2.449219,2.39844 0,1.32422 1.097656,2.39844 2.449219,2.39844 1.355469,0 2.453125,-1.07422 2.453125,-2.39844 0,-1.32422 -1.097656,-2.39844 -2.453125,-2.39844 z M 39.53125,28.613281 c -0.761719,0 -1.375,0.601563 -1.375,1.347657 0,0.742187 0.613281,1.34375 1.375,1.34375 0.757812,0 1.375,-0.601563 1.375,-1.34375 0,-0.746094 -0.617188,-1.347657 -1.375,-1.347657 z m 3.175781,-1.128906 c -0.894531,0 -1.617187,0.707031 -1.617187,1.582031 0,0.875 0.722656,1.582032 1.617187,1.582032 0.890625,0 1.617188,-0.707032 1.617188,-1.582032 0,-0.875 -0.726563,-1.582031 -1.617188,-1.582031 z m 1.238281,114.933595 c -0.894531,0 -1.617187,0.71094 -1.617187,1.58594 0,0.87109 0.722656,1.58203 1.617187,1.58203 0.890626,0 1.617188,-0.71094 1.617188,-1.58203 0,-0.875 -0.726562,-1.58594 -1.617188,-1.58594 z m 13.644532,-6.80469 c -0.894532,0 -1.617188,0.70703 -1.617188,1.58203 0,0.875 0.722656,1.58203 1.617188,1.58203 0.890625,0 1.617187,-0.70703 1.617187,-1.58203 0,-0.875 -0.726562,-1.58203 -1.617187,-1.58203 z m -7.769532,0.0273 c -1.464843,0 -2.652343,1.16016 -2.652343,2.59375 0,1.26954 0.925781,2.32422 2.152343,2.55079 -0.5,0.51953 -0.808593,1.22265 -0.808593,1.99609 0,1.60937 1.332031,2.91016 2.972656,2.91016 1.644531,0 2.972656,-1.30079 2.972656,-2.91016 0,-1.48438 -1.132812,-2.70703 -2.597656,-2.88672 0.382813,-0.44922 0.609375,-1.02734 0.609375,-1.66016 0,-1.43359 -1.183594,-2.59375 -2.648438,-2.59375 z m -36.90625,-26.79687 c -1.226562,0 -2.222656,0.97266 -2.222656,2.17578 0,1.19922 0.996094,2.17578 2.222656,2.17578 1.226563,0 2.222657,-0.97656 2.222657,-2.17578 0,-1.20312 -0.996094,-2.17578 -2.222657,-2.17578 z m 9.789063,-54.132812 c -0.894531,0 -1.617187,0.710937 -1.617187,1.585937 0,0.871094 0.722656,1.582031 1.617187,1.582031 0.890625,0 1.617187,-0.710937 1.617187,-1.582031 0,-0.875 -0.726562,-1.585937 -1.617187,-1.585937 z m 2.757813,-5.09375 c -0.25,0.277343 -0.398438,0.640624 -0.398438,1.039062 0,0.875 0.722656,1.582031 1.617188,1.582031 0.890624,0 1.617187,-0.707031 1.617187,-1.582031 0,-0.753906 -0.535156,-1.382812 -1.253906,-1.542969 0.429687,-0.375 0.703125,-0.921875 0.703125,-1.53125 0,-0.441406 -0.140625,-0.851562 -0.382813,-1.183593 0.121094,0.02734 0.25,0.04297 0.382813,0.04297 0.96875,0 1.753906,-0.769531 1.753906,-1.71875 0,-0.945312 -0.785156,-1.714844 -1.753906,-1.714844 -0.96875,0 -1.753906,0.769532 -1.753906,1.714844 0,0.328125 0.09375,0.636719 0.257812,0.898438 -0.1875,-0.05469 -0.386719,-0.08594 -0.59375,-0.08594 -1.152344,0 -2.085938,0.917969 -2.085938,2.046875 0,1.0625 0.828126,1.9375 1.890626,2.035157 z M 15.25,73.699219 c 0.0625,0.273437 0.175781,0.523437 0.328125,0.75 -0.292969,-0.164063 -0.628906,-0.261719 -0.984375,-0.28125 0.257812,-0.09766 0.480469,-0.261719 0.65625,-0.46875 z m 1.304688,7.871093 c -0.894532,0 -1.617188,0.710938 -1.617188,1.585938 0,0.871094 0.722656,1.582031 1.617188,1.582031 0.894531,0 1.617187,-0.710937 1.617187,-1.582031 0,-0.285156 -0.07813,-0.546875 -0.207031,-0.777344 0.355468,0.238282 0.789062,0.378906 1.253906,0.378906 1.226562,0 2.222656,-0.972656 2.222656,-2.175781 0,-1.199219 -0.996094,-2.175781 -2.222656,-2.175781 -1.226562,0 -2.222656,0.976562 -2.222656,2.175781 0,0.445313 0.136718,0.859375 0.371094,1.203125 -0.238282,-0.136718 -0.515626,-0.214844 -0.8125,-0.214844 z m 14.386718,47.292968 c -0.582031,0.36328 -0.773437,1.10547 -0.425781,1.66797 0.34375,0.55859 1.09375,0.71875 1.675781,0.35937 0.582032,-0.36328 0.769532,-1.10546 0.425782,-1.66796 -0.347657,-0.5586 -1.097657,-0.71875 -1.675782,-0.35938 z m 9.503906,5.52344 c -0.78125,0.48437 -1.082031,1.41797 -0.671874,2.08203 0.40625,0.65625 1.351562,0.80469 2.128906,0.34375 0.78125,0.9375 2.089844,1.21875 3.078125,0.60547 1.09375,-0.67969 1.386719,-2.19141 0.652343,-3.37891 -0.734374,-1.1875 -2.214843,-1.59765 -3.308593,-0.92187 -0.386719,0.24218 -0.671875,0.58593 -0.847657,0.98437 -0.339843,-0.0117 -0.703124,0.0781 -1.03125,0.28516 z m -14.035156,-9.48438 0.01172,0.0195 c 0.480469,0.77343 1.570313,0.96875 2.433594,0.42968 0.867187,-0.53515 1.179687,-1.60156 0.699219,-2.375 -0.386719,-0.6289 -1.175782,-0.875 -1.917969,-0.66406 -0.05859,-0.24219 -0.15625,-0.48047 -0.296875,-0.70703 -0.675782,-1.09375 -2.074219,-1.45703 -3.121094,-0.80469 -1.046875,0.64844 -1.347656,2.06641 -0.671875,3.16016 0.625,1.00781 1.855469,1.39453 2.863281,0.9414 z m -5.414062,-13.65625 c -1.113282,0.69532 -1.503906,2.08985 -0.871094,3.11719 0.636719,1.02735 2.054688,1.29688 3.171875,0.60547 1.113281,-0.69531 1.503906,-2.08984 0.871094,-3.11719 -0.636719,-1.02734 -2.054688,-1.29687 -3.171875,-0.60547 z m 0,0"
           fill-opacity="1"
           fill-rule="evenodd"
           id="path13" />
      </g>
    </g>
  </g>
</svg>
