<?xml version="1.0" encoding="UTF-8" standalone="no"?>
<svg
   width="248.03056"
   zoomAndPan="magnify"
   viewBox="0 0 186.02292 193.99008"
   height="258.65344"
   preserveAspectRatio="xMidYMid"
   version="1.0"
   id="svg12"
   sodipodi:docname="27.svg"
   xmlns:inkscape="http://www.inkscape.org/namespaces/inkscape"
   xmlns:sodipodi="http://sodipodi.sourceforge.net/DTD/sodipodi-0.dtd"
   xmlns="http://www.w3.org/2000/svg"
   xmlns:svg="http://www.w3.org/2000/svg">
  <defs
     id="defs12" />
  <sodipodi:namedview
     id="namedview12"
     pagecolor="#ffffff"
     bordercolor="#000000"
     borderopacity="0.25"
     inkscape:showpageshadow="2"
     inkscape:pageopacity="0.0"
     inkscape:pagecheckerboard="0"
     inkscape:deskcolor="#d1d1d1" />
  <path
     fill="#055a30"
     d="m 177.5927,117.5775 c 2.7109,7.33593 -4.6992,18.66406 -13.1524,18.66406 -1.8164,0 -3.5507,-0.34375 -5.1445,-0.96875 -0.7148,8.38281 -8.5039,12.23437 -14.7031,12.23437 -6.1992,0 -10.7109,-4.88672 -13.6719,-8.52343 -0.414,2.0039 0.3985,3.87109 0.3008,6.13671 -0.059,1.44922 -0.2734,2.28125 -0.7813,2.1211 -1.2031,-0.37891 -3.9843,-2.82422 -6.6718,-2.49219 -3.0117,0.37109 -4.3164,-4.69141 -6.1602,-5.40625 1.3828,1.54688 3.1875,3.91797 2.418,6.09766 0.1797,1.23047 1.9726,7.88281 1.3008,8.03906 -0.1328,0.0312 -7.1368,-3.57422 -7.6524,-1.62109 -0.082,0.30859 -0.02,0.8164 -0.3711,0.9375 -1.9492,0.66406 -6.7031,-3.89454 -7.957,-5.13672 -8.957001,-8.90235 -14.445301,2.42578 -20.902301,11.1914 -8.4454,11.46094 -13.8008,30.32032 -30.0899,34.79297 -6.1133,1.67578 -23.7148,-2.85937 -35.6797,-10.85547 C 7.2020994,175.2025 -2.3175006,163.86656 0.49889939,153.77671 3.0496994,144.6439 21.526299,122.9564 27.424699,109.85484 c 3.4805,-7.72266 3.5,-12.320306 2.5352,-15.546876 -0.9649,-3.22265 -4.9922,-3.40234 -8.75,-5.30859 -4.9063,-2.48828 -18.2734996,-8.12891 -17.0585996,-14.77734 0.3906,-2.11719 1.4609,-5.01563 4.8281,-5.75391 13.0116996,-2.85156 31.0819996,3.8125 36.7304996,15.58984 1.4179,-9.7539 3.664,-9.74218 -7.1016,-9.98046 -2.4844,-0.0547 -6.2734,-3.26172 -8.4453,-5.0625 -5.4375,0.67187 -10.2852,-2.67969 -12.668,-7.77735 -5.5781,-1.23437 -6.9297,-10.19531 -4.3828,-14.77344 -1.2031,-3.26562 0.1446,-7.39453 3.3867,-8.875 -1.164,-4.15625 1.7891,-9.44921 6.1875,-9.98046 0.4493,-2.25 1.8282,-4.38282 3.8008,-5.57813 0.5352,-3.44141 3.7461,-5.96875 7.25,-5.39453 0.6719,0.10937 1.8008,-3.97656 6.0977,-4.25 2.1328,-2.8632804 5.8398,-4.0585904 9.207,-2.7304704 1.3867,-3.45703 5.2617,-5.44922 8.7109,-3.64062 2.3477,-3.03907 6.5118,-3.58204 9.4454,-1.45704 0.5,0.0352 0.9804,0.0898 1.4257,0.16407 0.2305,0.0351 0.4571,0.0586 0.6836,0.0703 2.3203,-2.85156 6.3711,-3.67969 9.8672,-2.64063 2.1836,-0.86328 4.6719,-1.86328 7.0821,-2.05859 0.4726,-0.0352 0.9414,-0.0117 1.4023,0.0664 3.207,-0.625 6.6172,0.59375 8.7305,3.52734 0.1211,0.0195 0.2422,0.0312 0.3632,0.0391 0.7071,0.0469 1.4102,-0.0508 2.1172,-0.23437 2.230501,-2.14453 5.285201,-3.1211 8.191401,-2.35156 1.2344,0.21093 2.3985,0.66796 3.5039,1.15625 1.875,-0.46875 3.9375,0.1875 5.1758,1.73437 3.4883,-1.37891 7.1524,-0.21875 9.4492,2.55078 0.8204,-0.008 1.6524,0.0508 2.4883,0.1836 6.211,0.99609 8.2578,3.5000004 9.4102,6.0507804 0.9375,1.29297 1.582,2.76172 1.8008,4.30859 0.2226,0.37109 0.4765,0.71875 0.7851,1.03516 3.3438,-0.64063 6.6719,0.71484 8.6836,3.1289 9.3985,4.24219 10.336,14.08985 10.6719,14.14063 9.8281,1.57812 16.6172,13.07812 14.957,23.46875 -0.7031,4.39844 8.7696,5.9375 9.6719,16.61719 0.543,6.43359 -5.5469,9.05859 -4.0898,15.21093 3.8398,5.31641 13.3515,19.242186 -1.9766,26.851566 z m 0,0"
     fill-opacity="1"
     fill-rule="evenodd"
     id="path1" />
  <path
     fill="#187805"
     d="m 89.280199,119.55406 c 1.0117,-0.69531 2.7539,-1.6836 4.8359,-2.85547 2.5235,-1.41797 5.543,-3.10547 8.453201,-4.61719 2.9101,-1.51562 5.707,-2.86328 7.746,-3.72265 2.0352,-0.85938 3.3125,-1.23047 4.6485,-1.65235 1.332,-0.42187 2.7226,-0.89062 3.9258,-1.13672 1.207,-0.24609 2.2265,-0.26953 2.7851,0.0937 0.059,0.0391 0.1133,0.0859 0.1602,0.13282 1.2578,-2.21875 3.1172,-4.37891 5.7031,-6.339846 -9.9414,-0.375 -33.644501,16.035156 -38.257801,20.097656 z M 121.0927,107.27281 c -0.7422,0.12109 -1.8789,0.125 -3.375,0.39844 -1.9883,0.36328 -4.6055,1.20703 -6.8867,2.01171 -2.2774,0.80079 -4.2188,1.5625 -6.6992,2.72266 -2.4805,1.15625 -5.504001,2.71094 -8.179701,4.23047 -0.6055,0.33984 -1.1875,0.67969 -1.7461,1.00781 1.4297,-0.57812 2.9531,-1.17969 4.3984,-1.7539 3.921901,-1.5625 7.257801,-2.9336 10.449201,-3.56641 3.1914,-0.63281 6.2422,-0.52344 8.336,-0.12891 0.9804,0.1875 1.75,0.4336 2.375,0.80469 0.059,-1.87109 0.4804,-3.80859 1.3281,-5.72656 z m -0.1953,11.82422 c -1.4102,-0.15235 -3.8906,-1.48047 -6.5196,-2.13672 -3.0703,-0.76953 -6.3398,-0.61719 -9.0156,-0.36719 -2.6797,0.25 -4.7656,0.60547 -6.875001,1.1875 -0.8476,0.23047 -1.7031,0.50391 -2.5195,0.78516 25.558601,-4.31641 37.898401,18.23828 31.085901,22.75 -7.8047,5.16797 -10.3633,-8.60938 -14.8554,-10.73047 -2.8086,-1.32813 -11.6289,-2.82813 -19.605501,-1.77344 13.515601,-0.75391 33.566401,14.97266 22.539101,18.59766 -15.175801,4.99218 -8.0665,-30.27735 -44.101601,12.46093 -7.0899,8.40235 -15.7617,24.39063 -23.7695,29.20704 -11.5743,6.95703 -50.8320996,-16.41016 -45.4648996,-35.45313 2.5195,-8.93359 20.5859996,-30.20703 26.3827996,-43.03125 3.4141,-7.5625 3.4532,-12.054686 2.5274,-15.203116 -0.9258,-3.14844 -4.8438,-3.30469 -8.4922,-5.15235 -4.7617,-2.41015 -17.7499996,-7.86719 -16.5390996,-14.37109 0.3867,-2.07031 1.4414,-4.90625 4.7226996,-5.64063 12.6758,-2.83984 30.3789,2.40625 35.25,15.51172 2.6054,-10.11328 4.7031,-13.87109 -6.7031,-12.19531 -2.3946,0.35156 -5.7266,-3.16016 -7.8321,-4.91406 -5.2929,0.67968 -9.7656,-2.52735 -12.0586,-7.5 -5.4258,-1.1836 -7.0429,-7.94141 -4.5429,-12.42578 -1.1602,-3.1875 0.1679,-7.22266 3.332,-8.6836 -1.1172,-4.05859 1.7773,-9.24219 6.0625,-9.77734 0.4453,-2.20313 1.7969,-4.29297 3.7187,-5.46875 0.5352,-3.36328 3.668,-5.85156 7.0782,-5.30469 0.6523,0.10547 1.7695,-3.89062 5.9492,-4.17578 2.0898,-2.80859 5.7031,-3.98828 8.9765,-2.70703 1.3594,-3.3867204 5.1368,-5.3476604 8.4883,-3.5937504 2.6875,-3.48438 7.7813,-3.64453 10.5274,-0.1875 2.6328,-4.62891 9.1758,-5.2461 13.2422,-2.2461 4.1406,-5.35937 11.9257,-4.58593 14.7656,1.60157 2.7265,-4.19141 8.066401,-5.89063 12.218701,-2.79688 1.9805,-0.83203 4.3438,-0.23828 5.6836,1.44922 3.9375,-1.57422 8.086,0.17188 10.1328,3.8398404 5.7813,-1.1171804 12.4766,4.04688 12.418,10.03125 6.1875,-1.74218 12.6211,3.80469 10.5781,10.35938 5.9961,-0.94531 9.9375,5.69531 8.5039,11 3.7188,0.52344 5.5274,4.66016 4.1485,7.97266 4.6328,0.64062 5.0742,6.37109 2.8867,9.67187 5.3164,0.0469 7.2266,7.99609 3.7852,11.48438 4.121,1.92578 5.2695,7.23828 2.3437,10.66015 5.668,4.35156 3.1836,14.99219 -3.9531,15.78516 3.3398,4.816396 0.4297,12.792966 -5.6719,12.941396 2.9766,7.9375 -4.1641,16.8125 -12.625,14.12891 -2.4766,3.87109 -7.8867,4.41016 -11.0195,1.09375 -6.5469,2.75391 -12.7071,-0.86719 -15.1836,-6.68359 z m 0,0"
     fill-opacity="1"
     fill-rule="evenodd"
     id="path2" />
  <path
     fill="#5daa1e"
     d="m 35.787999,46.147814 c 4.4063,0.70703 12.6992,5.33594 11.8359,10.74609 -0.8632,5.40625 -11.2265,9.44141 -14.9648,8.83985 -3.7344,-0.59766 -3.8984,-1.29297 -5.3047,-2.65625 -0.7422,0.21875 -1.5391,0.27734 -2.3476,0.14843 -2.3125,-0.37109 -4.0469,-2.17578 -4.4883,-4.39843 -2.2227,-1 -3.5938,-3.44922 -3.1797,-6.03907 0.1094,-0.6875 0.3359,-1.32812 0.6562,-1.90234 -1.1054,-1.33984 -1.6484,-3.26172 -1.3281,-5.26953 0.3672,-2.28906 1.7656,-4.11719 3.543,-4.9375 -0.4414,-1.60156 -0.2774,-3.51172 0.5859,-5.30469 1.1445,-2.375 3.2149,-3.91016 5.2891,-4.17187 0.1328,-0.66016 0.3554,-1.32813 0.6679,-1.97657 0.6993,-1.45703 1.75,-2.59765 2.9336,-3.32031 l 0.016,-0.0859 c 0.5273,-3.3125 3.5937,-5.57812 6.8476,-5.05468 0.094,0.0156 0.1875,0.0312 0.2774,0.0508 1.0156,-2.33985 3.1328,-3.9375 5.4882,-4.09766 1.6563,-2.23047 4.375,-3.48437 7.1954,-3.03125 0.5234,0.082 1.0234,0.22266 1.5,0.41016 1.1015,-2.75 3.7734,-4.4882804 6.5507,-4.04297 0.5977,0.0977 1.1602,0.28906 1.6758,0.55859 1.4531,-1.8828104 3.7852,-2.9296904 6.2031,-2.5429704 1.6329,0.26172 3.0235,1.13282 4,2.3593804 1.5938,-2.8046904 5.0821,-4.4492204 8.793,-3.8515604 1.5274,0.24609 2.9024,0.83984 4.0352,1.67578 1.9258,-2.48828 4.9375,-3.87891 8.0429,-3.38282 2.8243,0.45313 5.086,2.36329 6.2657,4.9336 1.9257,-2.95703 5.148401,-4.67578 8.464801,-4.14453 1.2539,0.19922 2.3945,0.70312 3.3789,1.43359 0.7774,-0.32422 1.6641,-0.44531 2.5664,-0.30078 1.211,0.19531 2.2422,0.82812 2.9375,1.70703 1.2774,-0.50781 2.668,-0.69141 4.0742,-0.46484 2.4805,0.39843 4.5157,1.9843704 5.7461,4.1875004 2.418,-0.46875 5.2813,0.17578 7.7344,1.96484 2.7813,2.02734 4.3242,5.01563 4.2969,7.75391 1.1094,-0.3125 2.3008,-0.39453 3.5117,-0.19922 4.5234,0.72656 7.5938,5.03125 6.8633,9.61719 -0.066,0.41406 -0.1641,0.8164 -0.2852,1.20703 0.7461,-0.11719 1.5196,-0.1211 2.3008,0.004 4.1797,0.67188 6.9961,4.78125 6.293,9.1836 -0.047,0.30078 -0.1094,0.59765 -0.1875,0.88672 0.035,0.004 0.07,0.0117 0.1054,0.0156 2.8594,0.46094 4.7813,3.30469 4.293,6.35938 -0.074,0.47265 -0.2031,0.92578 -0.3789,1.34765 0.031,0.004 0.066,0.0117 0.098,0.0156 2.8789,0.46093 4.7539,3.70703 4.1875,7.25 -0.1797,1.13672 -0.5899,2.16406 -1.1602,3.02343 0.2422,0 0.4844,0.0195 0.7266,0.0586 2.9062,0.46875 4.8476,3.46875 4.332,6.70312 -0.2187,1.375 -0.8477,2.57032 -1.7187,3.45313 2.6328,1.23047 4.246,4.08203 3.7695,7.07812 -0.1992,1.2461 -0.7344,2.35547 -1.5,3.25 2.2226,1.70703 3.4492,4.83203 2.9219,8.14453 -0.6211,3.89844 -3.4766,6.78907 -6.7539,7.15235 1.1093,1.60156 1.6289,3.734366 1.2734,5.953116 -0.6016,3.76953 -3.5156,6.50782 -6.7695,6.58985 0.6211,1.65625 0.8359,3.51172 0.5312,5.40234 -0.8945,5.625 -5.9961,9.48047 -11.3945,8.61328 -0.4688,-0.0742 -0.9297,-0.18359 -1.3711,-0.32422 -1.4336,2.23828 -4.0742,3.53907 -6.8281,3.09766 -1.5313,-0.24609 -2.8555,-0.98828 -3.8477,-2.03906 -1.418,0.59375 -2.9414,0.8125 -4.4727,0.5664 -5.3398,-0.85547 -8.7929,-7.01172 -7.7187,-13.75 1.0781,-6.73828 6.2773,-11.503896 11.6133,-10.648426 3.1445,0.503896 5.6367,2.851556 6.9336,6.070306 2.1875,-2.51953 5.5039,-3.88281 8.9453,-3.33203 0.3555,0.0586 0.707,0.13281 1.0508,0.23047 -0.1211,-0.83594 -0.1211,-1.71875 0.02,-2.61329 0.5586,-3.492176 3.0977,-6.097646 6.0547,-6.531246 -1.3125,-1.76171 -1.9414,-4.1914 -1.5352,-6.72656 0.3047,-1.90234 1.1367,-3.5625 2.293,-4.80859 -1.957,-1.42969 -3.0586,-3.8711 -2.6523,-6.41406 0.2929,-1.83985 1.3164,-3.37891 2.7265,-4.3711 -1.5898,-1.23437 -2.4765,-3.42578 -2.1055,-5.73437 0.1446,-0.91016 0.4688,-1.7461 0.9297,-2.46094 -0.1757,-0.008 -0.3515,-0.0234 -0.5273,-0.0547 -2.8789,-0.46094 -4.7539,-3.70703 -4.1875,-7.25 0.125,-0.79687 0.3672,-1.54297 0.6953,-2.21484 -0.078,-0.008 -0.1562,-0.0195 -0.2383,-0.0312 -2.5117,-0.40235 -4.3008,-2.64844 -4.3672,-5.25781 -0.8437,0.17187 -1.7265,0.19921 -2.6211,0.0547 -4.1796,-0.66797 -6.9961,-4.78125 -6.2929,-9.18359 0.055,-0.35156 0.1328,-0.69531 0.2304,-1.03125 -0.9414,0.19141 -1.9257,0.21875 -2.9257,0.0586 -4.5235,-0.72656 -7.5938,-5.03125 -6.8633,-9.61718 0.031,-0.19532 0.07,-0.38672 0.1133,-0.57813 -2.2618,0.23828 -4.8243,-0.44141 -7.0508,-2.06641 -0.4063,-0.29687 -0.7852,-0.61328 -1.1406,-0.94921 -1.8555,1.71484 -4.2891,2.59375 -6.7774,2.1914 -2.5781,-0.41406 -4.6719,-2.10937 -5.8828,-4.4414 -1.918,1.92187 -4.5,2.92578 -7.1406,2.5 -2.921901,-0.46875 -5.230501,-2.57422 -6.359401,-5.39844 -1.9141,2.6289 -5.0117,4.11719 -8.2109,3.60156 -2.1407,-0.34375 -3.9571,-1.52344 -5.2266,-3.19141 -1.7344,1.10547 -3.957,1.60157 -6.2695,1.23047 -2.4141,-0.38672 -4.4453,-1.64843 -5.7461,-3.35547 -1.336,2.47266 -4.0235,3.95704 -6.8321,3.50782 -0.8281,-0.13282 -1.5937,-0.42188 -2.2773,-0.83985 -1.3086,1.63282 -3.2852,2.55078 -5.3398,2.28907 -0.8946,4.08593 -4.6641,6.83593 -8.6329,6.19921 -0.3046,-0.0508 -0.5976,-0.11718 -0.8867,-0.19921 -1.3164,1.04296 -2.9804,1.54687 -4.6836,1.27343 -0.3359,-0.0508 -0.664,-0.13672 -0.9765,-0.24218 -0.8008,1.14843 -1.9727,1.98437 -3.3086,2.35937 -0.1289,0.46094 -0.3008,0.92578 -0.5196,1.37891 -1.1445,2.375 -3.2187,3.91406 -5.2929,4.17187 -0.1328,0.66016 -0.3516,1.32813 -0.6641,1.97656 -0.8164,1.69141 -2.1016,2.95704 -3.5234,3.64063 0.4062,1.07422 0.5468,2.30078 0.3476,3.5625 -0.1093,0.68359 -0.3125,1.32812 -0.5898,1.91406 2.1719,-2.39062 4.4765,-3.82812 8.8867,-3.12109 z m 0,0"
     fill-opacity="1"
     fill-rule="evenodd"
     id="path3" />
  <path
     fill="#99d34b"
     d="m 33.045799,61.905624 c -1.8242,-0.28906 -3.3945,-1.17187 -4.5195,-2.39453 -3.3789,0.26172 -7.3281,-2.27734 -6.7344,-6.00781 0.078,-0.48438 0.2344,-0.9375 0.457,-1.35547 -3.2656,-3.25391 -2.4961,-8.51172 1.5743,-10.67578 -1.1758,-4.09375 2.5546,-7.00391 6.3476,-7.25782 -0.3828,-5.58203 4.3399,-10.42578 10.0195,-9.625 0.9493,-5.63281 7.3672,-8.01562 12.2579,-5.8125 1.5664,-2.98046 4.9453,-4.79687 8.164,-3.35937 2.168,-3.07813 6.6016,-3.48438 9.3867,-1.05469 2.2852,-5.0468704 8.7071,-6.5820304 12.9102,-3.03906 3.1719,-4.2890604 9.9648,-3.6757804 12.4414,0.99219 3.7852,-4.0703204 10.671901,-3.5117204 13.921901,0.92578 1.6406,-1.33985 3.8711,-2 6.1797,-1.62891 3.3867,0.54297 5.914,3.12891 6.4297,6.22266 1.5859,-1.01953 3.4921,-1.47656 5.4453,-1.16406 4.1953,0.67187 7.082,4.67578 6.7187,9.11718 0.9766,-0.28125 2.0039,-0.35937 3.0391,-0.1914 4.2734,0.68359 7.125,5.24609 6.5664,10.33593 3.2969,0.61329 5.6172,3.72657 5.7148,7.375 3.3867,1.07813 5.5586,4.58594 4.9649,8.3086 -0.012,0.0703 -0.023,0.14453 -0.039,0.21484 2.8984,0.67578 4.7852,3.78125 4.25,7.1211 -0.09,0.57421 -0.25,1.11718 -0.4609,1.6289 2.5156,1.40235 3.9961,4.53125 3.4648,7.86328 -0.1445,0.89453 -0.4219,1.73438 -0.8047,2.48828 1.9375,1.39454 3.0352,3.84375 2.625,6.41016 -0.2851,1.79297 -1.2578,3.30469 -2.5937,4.29297 1.9023,1.51953 2.9609,3.87109 2.5703,6.30078 -0.293,1.84375 -1.3633,3.38672 -2.8633,4.39063 0.5508,1.19531 0.7656,2.60156 0.5352,4.04687 -0.3125,1.94922 -1.3633,3.57031 -2.7774,4.562496 -0.1094,2.39063 -1.664,4.32422 -3.8164,5.26563 1.6328,4.39453 -1.1523,9.67578 -6,10.14062 -1.5508,4.84766 -7.7656,6.0625 -11.8086,3.57031 -1.8281,0.51953 -3.8476,0.24219 -5.4726,-0.75 -4.8985,-0.6875 -7.6407,-5.61718 -6.8946,-10.29297 0.7344,-4.59375 9.2735,-9.378896 5.4297,-11.089836 -1.3047,-0.58203 -4.3242,-0.75 -8.2929,0.0195 -9.3282,1.8086 -38.769601,22.117186 -34.867201,24.695306 0.6836,0.45313 24.101501,-9.16796 36.410101,4.92579 1.7774,2.03515 6.4883,10.52734 2.5156,12.35156 -5.9296,2.71875 -8.8554,-9.12891 -13.1796,-11.17578 -4.5547,-2.15235 -13.343801,-2.16797 -18.316401,-1.36328 -3.2579,0.52734 -6.75,1.47656 -9.3125,2.54296 -2.5586,1.06641 -4.0235,3.33204 -1.6954,2.42188 6.0274,-2.35938 14.4219,-4.51563 27.445401,4.66406 2.4726,1.74219 4.25,3.73438 5.0625,5.01563 0.8085,1.27734 0.6562,1.84375 -0.4844,2.21875 -14.6172,4.80859 -11.8594,-29.63282 -46.570301,11.53515 -6.8243,8.09375 -15.1797,23.4961 -22.8907,28.13282 -11.1484,6.70312 -45.88279961,-13.79688 -40.7108996,-32.13672 1.2813,-4.55469 5.1563,-9.11719 10.3632996,-16.51953 5.2109,-7.40625 11.7578,-17.64454 15.0469,-24.92969 3.2929,-7.28516 3.3281,-11.613276 2.4375,-14.644526 -0.8907,-3.03125 -2.711,-4.76563 -6.2227,-6.54688 -4.5898,-2.32031 -17.4882996,-6.30859 -17.8866996,-12.25781 -0.1328,-2.02344 1.5038996,-3.66406 4.6600996,-4.37109 6.1797,-1.38672 17.3321,0.12109 22.3907,4.14843 2.9922,2.38672 5.5351,6.14063 7.0898,9.11719 1.5547,2.97266 2.1211,5.16406 3.0078,4.94531 3.668,-0.90625 7.0469,-26.30468 5.7656,-29.91797 -3.3984,-9.5625 -14.1757,1.9336 -18.3945,1.25391 z m 0,0"
     fill-opacity="1"
     fill-rule="evenodd"
     id="path4" />
  <path
     fill="#fdfde1"
     d="m 34.690299,42.229844 c -0.7343,1.3125 -4.4609,1.69922 -6.1484,3.75781 -1.6914,2.0586 -1.3359,5.79297 0.043,8.23047 1.3789,2.4375 3.7851,3.57813 6.1836,2.99609 2.4023,-0.58593 4.8008,-2.89062 7.3008,-3.76953 2.496,-0.8789 5.0937,-0.33203 7.25,1.63672 2.1601,1.97266 3.875,5.36719 4.7109,9.27344 0.832,3.91016 0.7812,8.33203 0.035,13.39844 -0.7421,5.07031 -2.1796,10.78125 -4.7851,17.26953 -2.6094,6.492186 -6.3906,13.765616 -12.1992,22.679686 -5.8125,8.91406 -13.6524,19.47265 -18.8789,26.77734 -5.2266,7.30078 -7.836,11.34766 -8.1211,15.17187 -0.2812996,3.82813 1.7617,7.44141 3.5937,9.90235 1.8321,2.46094 3.4571,3.76953 5.6992,4.91797 2.2383,1.14843 5.0938,2.1289 7.7618,2.23047 2.6679,0.0976 5.1523,-0.6836 9.414,-5.64454 4.2656,-4.96484 10.3086,-14.10546 16.2383,-22.53906 5.9297,-8.4375 11.75,-16.16797 17.4258,-22.60937 5.6797,-6.44532 11.2187,-11.59375 17.418,-16.37891 6.1953,-4.78125 13.058501,-9.19531 19.152301,-11.695306 6.0977,-2.5 11.4297,-3.08985 15.8867,-3.09766 4.4531,-0.008 8.0274,0.56641 8.7149,2.62891 0.6836,2.0625 -1.5196,5.617186 -2.2071,8.394526 -2.7265,10.99609 16.7344,13.98828 18.8555,1.97266 0.3047,-1.72266 -0.375,-3.80079 -0.1172,-5.00782 0.2578,-1.20312 1.3594,-1.55078 2.25,-1.80468 0.8945,-0.25 1.5703,-0.40235 1.293,-1.105466 -0.2813,-0.69922 -2.0742,-2.40235 -1.043,-3.10547 10.3711,-7.07813 0.2266,-13.11719 1.168,-14.91016 0.8476,-1.62109 4.039,-4.16015 4.1523,-6.21094 0.1133,-2.05078 -2.8476,-3.60937 -3.7383,-5.80468 -1.6132,-3.95313 3.9532,-12.00782 -0.8007,-15.50391 -2.168,-1.59766 -6.4649,-1.76172 -8.3477,-2.88281 -1.8828,-1.125 -1.3555,-3.20703 -0.8125,-5.25391 2.2109,-8.39453 -4.1797,-4.30078 -6.5234,-7.95703 -1.1133,-1.73437 0.1836,-5.14062 -0.9336,-8.13672 -5.7383,-15.40234 -19.5703,-3.1914 -19.8555,-3.15625 -0.9531,0.10938 -1.75,-2.08594 -2.707,-4.1914 -0.9571,-2.10938 -2.0742,-4.125 -4.6875,-5.39844 -8.867201,-4.32031 -13.390701,1.85547 -16.703201,1.78515 -1.1328,-0.0273 -6.0859,-7.03125 -10.9648,-2.5 -1.6719,1.55469 -1.6914,4.53907 -3.4375,4.51954 -3.5391,-0.0352 -10.7617,-8.33204 -17.3437,-0.38672 -1.7032,2.05859 -1.6446,4.36328 -3.0586,4.8125 -1.4141,0.44531 -4.2969,-0.96875 -5.8516,-0.46485 -1.5547,0.50782 -1.7773,2.9336 -3.0195,3.42188 -0.4258,0.16797 -13.7383,-6.14063 -14.3243,7.67969 -0.1093,2.57031 2.793,4.75 2.0625,6.05859 z m 0,0"
     fill-opacity="1"
     fill-rule="evenodd"
     id="path5" />
  <path
     fill="#187805"
     d="m 65.717699,44.386094 c -1.1719,1.17578 -2.4297,3.10547 -2.8438,5.48437 -0.4101,2.37891 0.024,5.20704 1.2891,9.07032 1.2656,3.86328 3.3633,8.76172 4.3438,12.05468 0.9804,3.29297 0.8437,4.97657 1.0156,5.95704 0.1679,0.97656 0.6484,1.2539 1.6133,-0.0703 0.9648,-1.32031 2.414,-4.24218 3.3046,-7.05078 0.8907,-2.8125 1.2227,-5.51562 1.379,-7.92187 0.1562,-2.40235 0.1289,-4.50782 0.031,-6.54297 -0.1016,-2.03516 -0.2812,-4 -0.6836,-5.67188 -0.4062,-1.67578 -1.0351,-3.05468 -2.0937,-4.22656 -1.0547,-1.17187 -2.5391,-2.13281 -3.8243,-2.40234 -1.2812,-0.27344 -2.3632,0.14453 -3.5312,1.32031 z m 26.3125,46.32031 c -0.07,-1.09375 2.082,-5.34375 5.9648,-9.57812 3.886801,-4.23828 9.503901,-8.45703 14.980501,-11.28516 5.4805,-2.83203 10.8164,-4.27344 14.1953,-3.26953 3.375,1 4.7891,4.44531 4.2695,7.28125 -0.5156,2.83984 -2.9687,5.07031 -7.6757,6.64844 -4.7032,1.57422 -11.6602,2.49218 -16.5469,3.57812 -4.8906,1.08985 -7.710901,2.34375 -10.265601,4 -2.5586,1.66016 -4.8516,3.71875 -4.9219,2.625 z m 0,0"
     fill-opacity="1"
     fill-rule="evenodd"
     id="path6" />
  <path
     fill="#055a30"
     d="m 65.397399,44.725934 c -1.0742,1.19141 -2.1485,2.98438 -2.5235,5.14453 -0.4101,2.37891 0.024,5.20704 1.2891,9.07032 1.2656,3.86328 3.3633,8.76172 4.3438,12.05468 0.9804,3.29297 0.8437,4.97657 1.0156,5.95704 0.1679,0.97656 0.6484,1.2539 1.6133,-0.0703 0.9648,-1.32031 2.414,-4.24218 3.3046,-7.05078 0.8907,-2.8125 1.2227,-5.51562 1.379,-7.92187 0.1562,-2.40235 0.1289,-4.50782 0.031,-6.54297 -0.1016,-2.03516 -0.2812,-4 -0.6836,-5.67188 -0.4062,-1.67578 -1.0351,-3.05468 -2.0937,-4.22656 -1.0547,-1.17187 -2.5391,-2.13281 -3.8243,-2.40234 -0.6015,-0.12891 -1.1601,-0.10157 -1.707,0.082 0.3164,-0.0703 0.6445,-0.0781 0.9961,-0.0234 1.0938,0.16406 2.3945,0.91016 3.3398,1.86328 0.9493,0.95313 1.5469,2.11328 1.9688,3.53516 0.4219,1.42578 0.6641,3.11328 0.8437,4.86719 0.1836,1.7539 0.3008,3.57031 0.2852,5.66015 -0.016,2.08594 -0.1719,4.44141 -0.7891,6.92188 -0.6211,2.47656 -1.7031,5.08203 -2.457,6.27734 -0.75,1.19531 -1.1719,0.98828 -1.3594,0.14844 -0.1914,-0.83594 -0.1562,-2.30078 -1.1406,-5.08985 -0.9844,-2.79296 -2.9883,-6.91015 -4.2383,-10.17968 -1.2539,-3.26953 -1.7539,-5.6875 -1.5156,-7.76953 0.2148,-1.91797 1.0586,-3.54297 1.9219,-4.63282 z m 26.6328,45.98047 c -0.035,-0.51562 0.4258,-1.73437 1.332,-3.32031 0.211,0.77734 2.2852,-1.06641 4.5899,-2.55859 2.394501,-1.55469 5.035101,-2.72657 9.609301,-3.7461 4.5782,-1.01562 11.0938,-1.875 15.4961,-3.35156 4.4063,-1.47656 6.7032,-3.56641 7.1875,-6.22266 0.1836,-0.99609 0.1094,-2.07422 -0.2187,-3.07812 1.2812,1.51562 1.75,3.59765 1.414,5.42578 -0.5156,2.83984 -2.9687,5.07031 -7.6757,6.64844 -4.7032,1.57422 -11.6602,2.49218 -16.5469,3.57812 -4.8906,1.08985 -7.710901,2.34375 -10.265601,4 -2.5586,1.66016 -4.8516,3.71875 -4.9219,2.625 z m 0,0"
     fill-opacity="1"
     fill-rule="evenodd"
     id="path7" />
  <path
     fill="#fff381"
     d="m 129.6435,102.98765 c -0.836,2.42969 -1.0938,6.05078 -0.035,8.2461 1.0586,2.19921 3.4414,2.97265 5.4688,2.73046 2.0273,-0.23828 3.707,-1.48828 4.2695,-4.49609 0.5625,-3.00391 0.012,-7.76953 -1.5938,-11.230466 -1.6054,-3.46094 -4.2617,-5.62109 -7.6484,-6.85156 -3.3867,-1.23047 -7.5,-1.52734 -12.2539,-0.80078 -4.75,0.72656 -10.1406,2.48047 -16.9336,5.96094 -6.796901,3.484366 -14.996101,8.695306 -22.808601,15.671866 -7.8086,6.97266 -15.2265,15.70703 -21.668,24.86328 -6.4375,9.15625 -11.8945,18.73047 -12.5273,20.39063 -0.6328,1.65625 3.5625,-4.60157 10.1328,-13.26563 6.5703,-8.66015 15.5156,-19.72656 24.5899,-28.16797 9.0742,-8.44531 18.2812,-14.26953 26.218701,-17.539056 7.9336,-3.26953 14.5977,-3.98437 19.125,-3.625 4.5234,0.35938 6.9141,1.79297 7.4063,3.125 0.4961,1.33203 -0.9102,2.562496 -1.7422,4.988276 z M 96.651299,21.151714 c -1.1172,1.15235 -2.1602,2.75782 -2.4844,5.29688 -0.3242,2.54297 0.07,6.01953 -0.055,9.16797 -0.125,3.14844 -0.7734,5.96484 -1.8047,9.26172 -1.0351,3.29687 -2.457,7.07422 -2.4765,8.9414 -0.02,1.86719 1.3633,1.82813 2.6328,1.76953 1.2695,-0.0586 2.4258,-0.13671 3.3164,0.23438 0.8906,0.375 1.5117,1.19531 1.8594,2.10547 0.3437,0.91015 0.414,1.90234 0.957,2.5 0.5469,0.59765 1.562501,0.79297 3.199201,-0.63672 1.6328,-1.42578 3.8906,-4.48047 6.1406,-7.20313 2.2539,-2.72265 4.5039,-5.12109 6.7618,-6.97265 2.2617,-1.85547 4.5351,-3.16406 6.8476,-4.23828 2.3164,-1.07032 4.6758,-1.90625 6.4297,-2.11719 1.7539,-0.21094 2.8984,0.20312 3.3359,-1.10547 0.4375,-1.30859 0.168,-4.33984 -0.5976,-6.41406 -0.7656,-2.07813 -2.0274,-3.19922 -4.1094,-3.87891 -2.0859,-0.67969 -4.9961,-0.91406 -7.3164,-0.008 -2.3242,0.90625 -4.0586,2.96094 -6.043,5.44922 -1.9882,2.48437 -4.2226,5.41015 -4.8242,5.28125 -0.6015,-0.12891 0.4297,-3.3125 1.1094,-5.8125 0.6758,-2.5 1,-4.32031 0.9101,-6.00781 -0.09,-1.69141 -0.5937,-3.25 -2.3789,-4.58594 -1.7851,-1.33594 -4.8476,-2.44922 -6.9765,-2.66016 -2.125001,-0.21094 -3.316401,0.48438 -4.433601,1.63281 z m 40.707001,66.28907 c 1.3125,-0.21485 3.9258,-0.1875 6.1172,0.0312 2.1914,0.22265 3.9609,0.63672 5.0469,1.61328 1.0898,0.98047 1.5,2.52344 1.3476,3.66406 -0.1484,1.14063 -0.8554,1.88281 -1.7422,2.19922 -0.8867,0.31641 -1.9492,0.21094 -3.2578,-0.41016 -1.3086,-0.61718 -2.8632,-1.7539 -4.375,-2.83593 -1.5156,-1.07813 -2.9882,-2.10157 -3.7226,-2.84375 -0.7305,-0.74219 -0.7266,-1.19922 0.5859,-1.41797 z m 8.957,-15.58203 c -2.1875,-0.95704 -5.7109,-0.0117 -8.2187,1.4414 -2.5078,1.44922 -4,3.41016 -5.207,4.92188 -1.2071,1.51562 -2.1328,2.58203 -2.1172,3.40625 0.016,0.82031 0.9726,1.40234 3.1953,1.74218 2.2187,0.33985 5.707,0.4375 7.9726,0.19532 2.2657,-0.24219 3.3086,-0.83203 4.4844,-1.72657 1.1719,-0.89453 2.4766,-2.09765 2.7031,-4.1289 0.2266,-2.03125 -0.625,-4.89063 -2.8125,-5.85156 z M 40.772399,30.495464 c -1.2539,0.16797 -2.4024,0.78907 -3.0078,1.67579 -0.6094,0.88671 -0.6797,2.03906 0.02,3.36718 0.6953,1.32813 2.1602,2.82422 3.7305,3.9961 1.5742,1.17187 3.2578,2.01562 4.5625,2.75781 1.3047,0.74609 2.2343,1.38672 2.8437,1.15625 0.6094,-0.23047 0.9024,-1.33203 0.7695,-2.87109 -0.1289,-1.53907 -0.6835,-3.51563 -1.5742,-5.20313 -0.8945,-1.6875 -2.1289,-3.08203 -3.4258,-3.92187 -1.3007,-0.83985 -2.664,-1.125 -3.9179,-0.95704 z m 14.3476,-0.23437 c -1.3437,0.50781 -2.5586,2.37891 -2.1953,5.85156 0.3633,3.47266 2.3008,8.54297 3.8828,11.16016 1.5782,2.61719 2.7969,2.78125 3.4649,1.67187 0.6679,-1.10547 0.7851,-3.48437 1.2109,-5.22265 0.4258,-1.73438 1.1563,-2.83203 0.8594,-4.76953 -0.2969,-1.9336 -1.6211,-4.70704 -3.0195,-6.52344 -1.3946,-1.81641 -2.8633,-2.67578 -4.2032,-2.16797 z m 8.8594,-5.98047 c -1.4101,1.46484 -1.7891,3.83203 -0.7383,6.69141 1.0469,2.86328 3.5274,6.21484 5.1602,7.57422 1.6289,1.36328 2.418,0.73437 2.7187,-0.64454 0.3047,-1.3789 0.1211,-3.51171 0.4844,-4.65234 0.3594,-1.13672 1.2695,-1.28906 1.8399,-2.19922 0.5703,-0.90625 0.8046,-2.57812 0.2226,-4.26172 -0.582,-1.6875 -1.9805,-3.38672 -3.9023,-3.95703 -1.9258,-0.57422 -4.3711,-0.0117 -5.7852,1.44922 z m 18.0781,1.52344 c -1.8359,0.3125 -3.7187,1.25781 -4.5898,3.12109 -0.8711,1.86328 -0.7266,4.64063 -0.016,7.79297 0.707,3.14844 1.9765,6.66797 3.2109,9.625 1.2305,2.95313 2.418,5.34375 3.0352,6.70703 0.6171,1.36328 0.664,1.69922 1.3398,0.42578 0.6797,-1.26953 1.9883,-4.14453 3.0586,-6.74609 1.0703,-2.60156 1.9023,-4.92969 2.2109,-7.39063 0.3125,-2.46093 0.1055,-5.05468 -0.457,-7.28125 -0.5625,-2.22265 -1.4766,-4.07421 -2.8281,-5.16015 -1.3477,-1.08985 -3.1289,-1.40625 -4.9649,-1.09375 z m 60.570301,31.51562 c -1.8437,0.0469 -4.0742,0.90235 -5.707,2.30078 -1.6289,1.39454 -2.6601,3.33204 -3.3906,4.9375 -0.7305,1.60547 -1.1641,2.88282 -0.4063,3.67579 0.7579,0.79296 2.7032,1.10546 5.0391,1.03906 2.3359,-0.0703 5.0625,-0.51953 6.7773,-1.52344 1.7149,-1.00391 2.4219,-2.56641 2.6602,-4.15234 0.2344,-1.58594 0,-3.19922 -0.8398,-4.38282 -0.8399,-1.1875 -2.293,-1.94531 -4.1329,-1.89453 z m -11.0312,-13.55468 c -2.1133,-0.91407 -5.3516,-0.31641 -8.4609,1.30078 -3.1055,1.61718 -6.0821,4.25781 -8.793,7.1875 -2.7109,2.92968 -5.1563,6.14843 -6.625,8.57422 -1.4649,2.42187 -1.9531,4.05078 -1.4102,4.9414 0.5469,0.89063 2.125,1.04688 5.8672,0.0703 3.7422,-0.97265 9.6446,-3.07812 13.1055,-4.46093 3.4609,-1.37891 4.4844,-2.03907 5.6016,-2.79297 1.121,-0.75781 2.3359,-1.60938 3.1523,-3.13672 0.8164,-1.52734 1.2344,-3.72656 0.9492,-6.03516 -0.2851,-2.3125 -1.2734,-4.73437 -3.3867,-5.64843 z m -99.632801,3.33984 c -2,1.58203 -2.9219,3.86719 -2.8555,5.78906 0.07,1.92188 1.125,3.48438 2.668,4.30469 1.5469,0.82031 3.5781,0.89844 5.75,-0.0273 2.1719,-0.92579 4.4883,-2.85157 6.5508,-3.61719 2.0586,-0.76563 3.8632,-0.3711 5.5273,0.86719 1.6602,1.23828 3.1797,3.32031 4.3516,6.37109 1.1718,3.05078 1.9961,7.07031 2.2461,10.44531 0.2461,3.375 -0.086,6.10547 -1.1016,10.16797 -1.0156,4.06641 -2.7148,9.46484 -6.3281,16.84375 -3.6133,7.374996 -9.1406,16.730466 -13.9063,24.421876 -4.7656,7.6914 -8.7656,13.71875 -7.7461,12.97656 1.0196,-0.74219 7.0625,-8.25391 12.9414,-17.53906 5.8829,-9.28516 11.6016,-20.343746 15.0508,-28.312496 3.4453,-7.96875 4.6172,-12.84766 4.4531,-18.49219 -0.1679,-5.64844 -1.6718,-12.0586 -3.625,-16.3125 -1.9531,-4.25391 -4.3554,-6.34375 -7.0703,-7.85547 -2.7109,-1.51172 -5.7304,-2.44531 -8.7812,-2.46875 -3.0469,-0.0273 -6.125,0.85547 -8.125,2.4375 z m 0,0"
     fill-opacity="1"
     fill-rule="evenodd"
     id="path8" />
  <path
     fill="#5daa1e"
     d="m 82.170799,33.811874 c -1.25,0.21484 -2.539,0.85938 -3.1328,2.13281 -0.5937,1.26953 -0.4961,3.16797 -0.012,5.32032 0.4844,2.15234 1.3515,4.55468 2.1914,6.57031 0.8437,2.01953 1.6562,3.65234 2.0742,4.58203 0.4219,0.92969 0.4531,1.16016 0.918,0.29297 0.4609,-0.86719 1.3554,-2.83203 2.0859,-4.60938 0.7305,-1.77343 1.2969,-3.36328 1.5117,-5.04687 0.211,-1.67969 0.07,-3.44922 -0.3125,-4.96875 -0.3867,-1.51953 -1.0117,-2.78516 -1.9297,-3.52735 -0.9218,-0.74218 -2.1406,-0.95703 -3.3945,-0.74609 z m 40.164101,17.66797 c -1.3477,-0.58203 -3.4102,-0.20313 -5.3906,0.82812 -1.9805,1.03125 -3.875,2.71485 -5.6016,4.58204 -1.7305,1.86718 -3.2891,3.91796 -4.2227,5.46093 -0.9336,1.54297 -1.2461,2.58203 -0.8984,3.15235 0.3477,0.5664 1.3516,0.66406 3.7383,0.043 2.3828,-0.6211 6.1445,-1.96094 8.3476,-2.84375 2.2071,-0.87891 2.8594,-1.29688 3.5703,-1.77735 0.7149,-0.48437 1.4883,-1.02734 2.0118,-2 0.5195,-0.97265 0.7851,-2.375 0.6015,-3.84765 -0.1797,-1.47266 -0.8125,-3.01563 -2.1562,-3.59766 z m 0,0"
     fill-opacity="1"
     fill-rule="evenodd"
     id="path9" />
  <path
     fill="#e2da6b"
     d="m 100.6474,60.593124 c 0.3437,-0.17187 0.7226,-0.42969 1.1484,-0.80078 1.6328,-1.42578 3.8906,-4.48047 6.1406,-7.20313 2.2539,-2.72265 4.5039,-5.12109 6.7618,-6.97265 2.2617,-1.85547 4.5351,-3.16406 6.8476,-4.23828 1.1875,-0.54688 2.3828,-1.03125 3.5,-1.40625 -17.5547,3.91015 -19.0312,13.5664 -24.3984,20.62109 z m -62.566401,-28.8125 c -0.1172,0.125 -0.2227,0.25391 -0.3164,0.39063 -0.6094,0.88671 -0.6797,2.03906 0.02,3.36718 0.6953,1.32813 2.1602,2.82422 3.7305,3.9961 1.5742,1.17187 3.2578,2.01562 4.5625,2.75781 1.3047,0.74609 2.2343,1.38672 2.8437,1.15625 0.5156,-0.19531 0.8008,-1.01172 0.8008,-2.18359 -0.1328,0.35937 -0.3242,0.59765 -0.5703,0.6914 -0.586,0.22266 -1.4805,-0.39453 -2.7383,-1.10937 -1.2539,-0.71485 -2.875,-1.52735 -4.3867,-2.65625 -1.5156,-1.125 -2.9219,-2.57032 -3.5938,-3.84375 -0.5039,-0.96094 -0.5898,-1.83203 -0.3515,-2.56641 z m 17.75,13.65625 c 0.3281,0.6875 0.6601,1.3125 0.9765,1.83594 1.5782,2.61719 2.7969,2.78125 3.4649,1.67187 0.6679,-1.10547 0.7851,-3.48437 1.2109,-5.22265 0.4258,-1.73438 1.1563,-2.83203 0.8594,-4.76953 -0.2969,-1.9336 -1.6211,-4.70704 -3.0195,-6.52344 -0.7891,-1.02344 -1.6016,-1.7461 -2.3985,-2.08594 0.5156,0.36719 1.0352,0.89453 1.5391,1.55469 1.3164,1.71094 2.5664,4.32422 2.8476,6.14844 0.2813,1.82421 -0.4101,2.85937 -0.8125,4.49609 -0.3984,1.64062 -0.5078,3.87891 -1.1406,4.92578 -0.6289,1.04297 -1.7773,0.89063 -3.2656,-1.57812 -0.086,-0.14454 -0.1758,-0.29297 -0.2617,-0.45313 z m 8.4765,-12.17969 c 1.211,2.1836 2.8828,4.28125 4.0938,5.28907 1.6289,1.36328 2.418,0.73437 2.7187,-0.64454 0.3047,-1.3789 0.1211,-3.51171 0.4805,-4.65234 0.3633,-1.13672 1.2734,-1.28906 1.8438,-2.19922 0.5703,-0.90625 0.8046,-2.57812 0.2226,-4.26172 -0.5391,-1.55468 -1.7656,-3.11718 -3.457,-3.80078 1.0898,0.75781 1.8867,1.91016 2.2812,3.05469 0.5508,1.59375 0.3321,3.17187 -0.207,4.03125 -0.5391,0.85937 -1.3984,1 -1.7422,2.07812 -0.3398,1.07813 -0.168,3.08985 -0.4531,4.39063 -0.2852,1.30469 -1.0274,1.89844 -2.5703,0.61328 -0.9375,-0.78125 -2.168,-2.25391 -3.211,-3.89844 z m 73.050801,54.1836 c 0.3555,-0.0547 0.8008,-0.0977 1.3086,-0.1211 -0.1523,0.0156 -0.2969,0.0352 -0.4258,0.0586 -1.2422,0.20312 -1.25,0.63672 -0.5547,1.33593 0.6914,0.70313 2.086,1.67188 3.5196,2.69141 1.4297,1.02344 2.9023,2.09766 4.1406,2.68359 1.2383,0.58594 2.2422,0.6875 3.082,0.38672 0.4922,-0.17968 0.9297,-0.49609 1.2305,-0.94531 -0.3008,0.70313 -0.8672,1.17969 -1.5313,1.41797 -0.8867,0.31641 -1.9492,0.21094 -3.2578,-0.41016 -1.3086,-0.61718 -2.8632,-1.7539 -4.375,-2.83593 -1.5156,-1.07813 -2.9882,-2.10157 -3.7226,-2.84375 -0.7305,-0.74219 -0.7266,-1.19922 0.5859,-1.41797 z m -1.3242,-12.67188 c -1.3438,1.15625 -2.3125,2.41016 -3.1445,3.45313 -1.2071,1.51562 -2.1328,2.58203 -2.1172,3.40625 0.016,0.82031 0.9726,1.40234 3.1953,1.74218 2.2187,0.33985 5.707,0.4375 7.9726,0.19532 2.2657,-0.24219 3.3086,-0.83203 4.4844,-1.72657 1.1719,-0.89453 2.4766,-2.09765 2.7031,-4.1289 0.031,-0.26953 0.043,-0.55078 0.035,-0.84375 l -0.012,0.082 c -0.2149,1.92969 -1.4531,3.07422 -2.5703,3.92187 -1.1172,0.85157 -2.1094,1.41016 -4.2617,1.64063 -2.1524,0.23437 -5.4649,0.13672 -7.5782,-0.18359 -2.1093,-0.32422 -3.0195,-0.875 -3.0351,-1.65625 -0.016,-0.78516 0.8633,-1.79688 2.0117,-3.23438 l 0.031,-0.0391 0.024,-0.0312 v -0.008 l 0.031,-0.0391 0.02,-0.0195 0.012,-0.0195 0.031,-0.0391 0.012,-0.0117 0.019,-0.0273 0.031,-0.0391 v -0.004 l 0.055,-0.0703 v -0.004 l 0.031,-0.0391 0.02,-0.0274 0.012,-0.0117 0.047,-0.0586 0.02,-0.0195 0.031,-0.043 0.01,-0.008 0.023,-0.0312 0.031,-0.0391 v -0.004 l 0.035,-0.0391 0.024,-0.0312 0.01,-0.008 0.035,-0.043 0.016,-0.0234 0.016,-0.0156 0.035,-0.043 0.012,-0.0117 0.019,-0.0273 0.035,-0.043 v -0.004 l 0.031,-0.0391 0.031,-0.0351 v -0.004 l 0.035,-0.043 0.024,-0.0273 0.012,-0.0156 0.035,-0.0391 0.016,-0.0195 0.02,-0.0234 0.035,-0.043 0.01,-0.008 0.027,-0.0352 0.035,-0.043 0.035,-0.0391 0.031,-0.0351 v -0.008 l 0.039,-0.043 0.02,-0.0234 0.016,-0.0195 0.035,-0.043 0.016,-0.0156 0.023,-0.0273 0.043,-0.0469 0.031,-0.0391 0.035,-0.0391 v -0.004 l 0.035,-0.043 0.027,-0.0273 0.012,-0.0156 0.039,-0.043 0.016,-0.0195 0.023,-0.0234 0.039,-0.043 0.01,-0.008 0.031,-0.0352 0.039,-0.043 0.07,-0.0781 0.01,-0.008 0.039,-0.043 0.024,-0.0234 v 0 l 0.055,-0.0625 0.043,-0.043 c 0.062,-0.0664 0.1289,-0.13672 0.1953,-0.20313 l 0.1836,-0.18359 z m -3.3047,-7.69531 c -0.019,0.45703 0.094,0.84766 0.3945,1.16016 0.7579,0.79296 2.7032,1.10546 5.0391,1.03906 2.3359,-0.0703 5.0625,-0.51953 6.7773,-1.52344 1.7149,-1.00391 2.4219,-2.56641 2.6602,-4.15234 0.2344,-1.58594 0,-3.19922 -0.8398,-4.38282 -0.3399,-0.48437 -0.7852,-0.89453 -1.3125,-1.20703 0.1171,0.125 0.2265,0.26172 0.3281,0.39844 0.8047,1.13672 1.0312,2.68359 0.8008,4.20313 -0.2266,1.51953 -0.9024,3.01562 -2.5469,3.98046 -1.6445,0.96094 -4.2539,1.39063 -6.4922,1.45704 -2.2187,0.0664 -4.0703,-0.22657 -4.8086,-0.97266 z M 83.830999,53.339214 c 0.4961,1.11329 0.582,1.3125 1.207,0.13672 0.6797,-1.26953 1.9883,-4.14453 3.0586,-6.74609 1.0703,-2.60156 1.9023,-4.92969 2.2109,-7.39063 0.3125,-2.46093 0.1055,-5.05468 -0.457,-7.28125 -0.5625,-2.22265 -1.4766,-4.07421 -2.8281,-5.16015 -0.7696,-0.625 -1.6836,-0.99219 -2.668,-1.13672 0.5547,0.19531 1.0703,0.48047 1.5352,0.85547 1.3476,1.08594 2.2656,2.9375 2.8281,5.16406 0.5586,2.22266 0.7695,4.81641 0.457,7.27734 -0.3125,2.46094 -1.1406,4.78907 -2.2109,7.39063 -1.0703,2.60156 -2.3828,5.47656 -3.0586,6.75 z m 47.765601,-9.57421 c -0.2148,-0.0937 -0.4375,-0.16797 -0.6719,-0.23047 1.5156,1.1289 2.2656,3.17578 2.5078,5.13672 0.2852,2.30859 -0.1328,4.50781 -0.9492,6.03515 -0.8164,1.52735 -2.0312,2.38281 -3.1523,3.13672 -1.1211,0.75781 -2.1407,1.41406 -5.6016,2.79297 -3.4648,1.38281 -9.3672,3.48828 -13.1055,4.46484 -2.0039,0.51953 -3.3867,0.71875 -4.3242,0.65235 l 0.01,0.0156 c 0.5469,0.89063 2.125,1.04688 5.8672,0.0703 3.7422,-0.97265 9.6446,-3.07812 13.1055,-4.46093 3.4609,-1.37891 4.4844,-2.03907 5.6016,-2.79297 1.121,-0.75781 2.3359,-1.61328 3.1523,-3.13672 0.8164,-1.52734 1.2344,-3.72656 0.9492,-6.03516 -0.2851,-2.3125 -1.2734,-4.73437 -3.3867,-5.64843 z m -2.8125,-4.56641 c 1.3008,-0.0586 2.1602,0.0508 2.5273,-1.04297 0.4375,-1.30859 0.168,-4.33984 -0.5976,-6.41406 -0.7656,-2.07813 -2.0274,-3.19922 -4.1094,-3.87891 -2.0859,-0.67969 -4.9961,-0.91406 -7.3164,-0.008 -0.2148,0.082 -0.4258,0.17578 -0.6328,0.28125 1.8672,-0.32031 3.8711,-0.11328 5.4258,0.34766 2.1054,0.62109 3.3945,1.70703 4.2187,3.76171 0.8203,2.05469 1.1719,5.07422 0.7696,6.39454 -0.07,0.23437 -0.1641,0.41796 -0.2852,0.55859 z m -20.5117,-1.49219 c 0.1484,-1.14453 0.789,-3.20312 1.2578,-4.93359 0.6758,-2.5 1,-4.32031 0.9101,-6.00781 -0.09,-1.69141 -0.5937,-3.25 -2.3789,-4.58594 -1.7851,-1.33594 -4.8476,-2.44922 -6.9765,-2.66016 -1.957101,-0.19531 -3.121101,0.37891 -4.164101,1.36719 0.4258,-0.0664 0.8945,-0.082 1.4258,-0.043 2.132801,0.14844 5.226601,1.17969 7.043001,2.46875 1.8203,1.28516 2.3672,2.82813 2.5039,4.51563 0.1367,1.68359 -0.1367,3.51171 -0.7422,6.03125 -0.6094,2.51953 -1.5547,5.72656 -0.9492,5.83984 0.3281,0.0625 1.1132,-0.79297 2.0703,-1.99219 z m 0,0"
     fill-opacity="1"
     fill-rule="evenodd"
     id="path10" />
  <path
     fill="#e6ffa1"
     d="m 44.205999,113.79625 c -3.8008,5.76953 -9.9492,15.07812 -15.6485,23.03906 -5.6992,7.96094 -10.9453,14.57812 -13.6093,18.64062 -2.668,4.0625 -2.75,5.57032 -2.4688,5.9336 0.2852,0.35937 0.9336,-0.42969 4.1836,-4.3711 3.25,-3.94531 9.0977,-11.03906 14.7109,-19.14843 5.6172,-8.10547 11.0039,-17.21875 14.2227,-23.10938 3.2187,-5.89062 4.2734,-8.55859 4.0703,-8.77344 -0.1992,-0.21875 -1.6562,2.01563 -5.4609,7.78907 z m -22.7891,-38.749996 c -1.9844,-0.27735 -2.5547,0.33984 -2.5625,1.21875 -0.012,0.8789 0.5391,2.01562 2.9883,3.42187 2.4492,1.40234 6.793,3.07031 9.3945,3.98828 2.6055,0.91797 3.4688,1.08203 2.6485,0.56641 -0.8243,-0.51172 -3.3321,-1.69922 -5.4727,-2.71485 -2.1445,-1.01171 -3.9219,-1.85156 -4.5898,-2.50781 -0.668,-0.66015 -0.2266,-1.14062 0.9726,-1.17187 1.1953,-0.0312 3.1445,0.38672 4.7695,0.87109 1.629,0.48438 2.9258,1.03516 3.8243,1.32422 0.8984,0.28906 1.3906,0.3125 0.7929,-0.125 -0.5976,-0.4375 -2.289,-1.33594 -4.832,-2.375 -2.5469,-1.03906 -5.9492,-2.21484 -7.9336,-2.49609 z m 53.5508,59.878896 c -3.2969,4.76563 -8.2852,11.73438 -13.375,18.39844 -5.0899,6.66016 -10.2813,13.01172 -13.5195,17.30859 -3.2422,4.30078 -4.5313,6.54688 0.1796,0.76953 4.7149,-5.77734 15.4297,-19.57421 22.1329,-28.17187 6.7031,-8.59375 9.3906,-11.98438 12.4648,-14.12109 3.0742,-2.14063 6.5273,-3.03125 9.9219,-3.66016 3.3945,-0.63281 6.7304,-1.00391 8.554701,-1.49219 1.8281,-0.48828 2.1445,-1.09375 -1.414101,-0.92969 -3.5625,0.16407 -11.0078,1.09766 -15.5312,2.83985 -4.5196,1.74219 -6.1211,4.29687 -9.4141,9.05859 z M 107.7646,101.15171 c 2.3593,-2.140616 -3.5703,0.21485 -10.570301,5 -6.9961,4.78907 -15.0665,12 -22.7618,21.16407 -7.6992,9.16406 -15.0234,20.27734 -20.625,28.28125 -5.6015,8.0039 -9.4726,12.89843 -12.4375,16.38672 -2.9687,3.48828 -5.0312,5.57421 -8.207,6.27343 -3.1758,0.69922 -7.4648,0.008 -8,0.23828 -0.5352,0.23047 2.6875,1.37891 5.0742,2.02344 2.3828,0.64453 3.9336,0.78906 6.043,-0.44922 2.1094,-1.23828 4.7812,-3.85547 8.6445,-8.69531 3.8633,-4.84375 8.9219,-11.91016 15.6524,-21.41406 6.7265,-9.5 15.1289,-21.44141 24.6562,-30.73047 9.5235,-9.29297 20.171901,-15.93359 22.531301,-18.07813 z M 12.494999,76.222034 c -0.25,1.24218 -0.1093,3.30078 1.5313,4.87109 1.6445,1.56641 4.7851,2.64844 7.9922,3.72266 3.207,1.07422 6.4843,2.13672 8.8593,3.625 2.375,1.49218 3.8477,3.41015 4.6485,6.01953 0.8008,2.60937 0.9297,5.914056 -1.0664,11.371086 -2,5.45703 -6.1211,13.06641 -10.6094,20.26172 -4.4883,7.19922 -9.3437,13.98438 -12.2617,18.47656 -2.9179996,4.4961 -3.8984996,6.70313 -4.2499996,9.21875 -0.3477,2.51953 -0.066,5.34766 0.1875,6.04297 0.2578,0.69922 0.4844,-0.73437 0.8594,-2.75 0.375,-2.01562 0.8945,-4.60937 2.2460996,-7.33203 1.3515,-2.72656 3.5351,-5.57812 6.5898,-9.94531 3.0547,-4.3711 6.9805,-10.25391 10.0859,-15.10938 3.1094,-4.85937 5.3946,-8.69531 7.1524,-12.30078 1.7539,-3.60547 2.9726,-6.98047 3.7578,-9.92578 0.7851,-2.945306 1.1328,-5.464836 0.9336,-7.648436 -0.2031,-2.1875 -0.9531,-4.03906 -2.7891,-5.67187 -1.832,-1.63672 -4.75,-3.05078 -8.2265,-4.33594 -3.4766,-1.28516 -7.5079,-2.44531 -10.0039,-3.67187 -2.4961,-1.22657 -3.4532,-2.52344 -3.879,-3.70313 -0.4296,-1.17578 -0.3242,-2.23828 -0.5937,-2.55469 -0.2734,-0.32031 -0.9141,0.10157 -1.1641,1.33985 z m 12.5782,88.855466 c 1.5859,0.32421 3.3945,0 5.3359,-0.9375 1.9375,-0.94141 4.0078,-2.4961 6.0117,-4.79688 2.0039,-2.30078 3.9453,-5.34766 6.207,-8.78516 2.2657,-3.43359 4.8516,-7.26171 6.4375,-9.59375 1.5821,-2.33203 2.1641,-3.17578 1.129,-1.03906 -1.0352,2.14063 -3.6836,7.26172 -6.1407,11.41016 -2.457,4.14844 -4.7226,7.32422 -7.1133,9.85547 -2.3945,2.52734 -4.914,4.40625 -6.789,5.50781 -1.875,1.10156 -3.1055,1.42578 -4.4961,1.42578 -1.3906,0 -2.9414,-0.32422 -4.0391,-1.00391 -1.1015,-0.67968 -1.7461,-1.71875 -1.8125,-2.49609 -0.066,-0.77734 0.4532,-1.29687 1.3907,-1.07031 0.9375,0.22656 2.2968,1.19922 3.8789,1.52344 z M 100.8232,92.608754 c -6.250001,2.72656 -14.437501,7.24218 -21.425801,12.871086 -6.9883,5.625 -12.7774,12.36328 -17.0039,17.51562 -4.2305,5.15235 -6.8946,8.71485 -4.9336,6.92969 1.9609,-1.78515 8.5508,-8.92187 13.8828,-14.10547 5.332,-5.18359 9.4141,-8.41797 14.6367,-12.10547 5.2266,-3.6875 11.6016,-7.832026 18.820301,-10.714836 7.2188,-2.88672 15.2813,-4.51562 17.2422,-5.13672 1.957,-0.62109 -2.1914,-0.23437 -6.4219,0.42578 -4.2304,0.66016 -8.5468,1.59375 -14.7968,4.32032 z M 22.916899,139.94468 c -1.9375,2.34375 -4.6758,6.05469 -6.9492,9.56641 -2.2734,3.51172 -4.0781,6.82812 -4.0742,7.22266 0.01,0.39062 1.8281,-2.13672 3.8828,-4.84375 2.0547,-2.70704 4.3476,-5.59375 6.2773,-8.33204 1.9297,-2.73828 3.5,-5.32421 3.7149,-6.1289 0.2187,-0.80469 -0.9141,0.17187 -2.8516,2.51562 z m 17.8555,23.2461 c -1.0039,1.54687 -4.1602,5.24218 -6.8047,7.52343 -2.6445,2.27735 -4.7734,3.14454 -6.7422,3.51172 -1.9727,0.36719 -3.7852,0.23438 -5.4766,-0.48437 -1.6914,-0.71875 -3.2656,-2.01953 -3.3632,-2.71875 -0.098,-0.69922 1.2773,-0.79297 2.6406,-0.46875 1.3633,0.32422 2.7109,1.0625 4.293,1.16015 1.582,0.0977 3.3984,-0.45312 5.8007,-2.03515 2.4024,-1.58594 5.3868,-4.20703 7.4532,-5.81641 2.0625,-1.61328 3.207,-2.21484 2.1992,-0.67187 z m 0,0"
     fill-opacity="1"
     fill-rule="evenodd"
     id="path11" />
  <path
     fill="#278513"
     d="m 177.5888,102.72203 c 1.207,0.75 1.5781,2.33593 0.832,3.54687 -0.7461,1.21094 -2.332,1.58203 -3.539,0.83594 -0.1446,-0.0898 -0.2735,-0.19141 -0.3946,-0.30078 -0.039,0.37109 -0.164,0.73828 -0.375,1.08203 -0.7304,1.18359 -2.25,1.57422 -3.3867,0.86719 -1.1406,-0.70703 -1.4687,-2.24219 -0.7344,-3.42969 0.7344,-1.1875 2.25,-1.57422 3.3907,-0.86719 0.1054,0.0625 0.2031,0.13672 0.2929,0.21485 0.035,-0.38282 0.1602,-0.76563 0.375,-1.11719 0.7461,-1.20703 2.3321,-1.58203 3.5391,-0.83203 z m -1.4531,-33.187496 c 0.9257,0 1.7304,0.51172 2.1406,1.26172 0.2539,-0.54297 0.8164,-0.92188 1.4687,-0.92188 0.8907,0 1.6172,0.71094 1.6172,1.58203 0,0.8125 -0.625,1.48047 -1.4297,1.57422 0.8985,0.27734 1.5508,1.10156 1.5508,2.07422 0,1.20312 -0.9961,2.17578 -2.2226,2.17578 -1.2305,0 -2.2227,-0.97266 -2.2227,-2.17578 0,-0.42578 0.1211,-0.82031 0.3359,-1.15234 -0.3632,0.21093 -0.7851,0.33203 -1.2382,0.33203 -1.3399,0 -2.4258,-1.0625 -2.4258,-2.375 0,-0.88282 0.4922,-1.65625 1.2265,-2.0625 -0.9453,-0.0274 -1.707,-0.78516 -1.707,-1.71485 0,-0.94922 0.7852,-1.71875 1.7539,-1.71875 0.9688,0 1.7539,0.76953 1.7539,1.71875 0,0.58203 -0.3008,1.09766 -0.7539,1.41016 0.051,-0.004 0.1016,-0.008 0.1524,-0.008 z m -19.8399,57.523426 c 0.8945,0 1.6172,0.70704 1.6172,1.58204 0,0.875 -0.7227,1.58203 -1.6172,1.58203 -0.8906,0 -1.6172,-0.70703 -1.6172,-1.58203 0,-0.875 0.7266,-1.58204 1.6172,-1.58204 z m 13.1211,-0.85156 c 1.3516,0 2.4492,1.07422 2.4492,2.39844 0,1.32422 -1.0976,2.39844 -2.4492,2.39844 -1.3555,0 -2.4531,-1.07422 -2.4531,-2.39844 0,-1.32422 1.0976,-2.39844 2.4531,-2.39844 z m -15.207,-98.832026 c 0.7617,0 1.375,0.60156 1.375,1.34766 0,0.74218 -0.6133,1.34375 -1.375,1.34375 -0.7578,0 -1.3711,-0.60157 -1.3711,-1.34375 0,-0.7461 0.6133,-1.34766 1.3711,-1.34766 z m -3.1758,-1.12891 c 0.8945,0 1.6172,0.70704 1.6172,1.58204 0,0.875 -0.7227,1.58203 -1.6172,1.58203 -0.8906,0 -1.6172,-0.70703 -1.6172,-1.58203 0,-0.875 0.7266,-1.58204 1.6172,-1.58204 z m -1.2383,114.933596 c 0.8945,0 1.6172,0.71094 1.6172,1.58594 0,0.87109 -0.7227,1.58203 -1.6172,1.58203 -0.8906,0 -1.6172,-0.71094 -1.6172,-1.58203 0,-0.875 0.7266,-1.58594 1.6172,-1.58594 z m -13.6445,-6.80469 c 0.8945,0 1.6172,0.70703 1.6172,1.58203 0,0.875 -0.7227,1.58203 -1.6172,1.58203 -0.8906,0 -1.6133,-0.70703 -1.6133,-1.58203 0,-0.875 0.7227,-1.58203 1.6133,-1.58203 z m 7.7695,0.0273 c 1.4649,0 2.6524,1.16016 2.6524,2.59375 0,1.26954 -0.9258,2.32422 -2.1524,2.55079 0.5,0.51953 0.8086,1.22265 0.8086,1.99609 0,1.60937 -1.332,2.91016 -2.9726,2.91016 -1.6407,0 -2.9727,-1.30079 -2.9727,-2.91016 0,-1.48438 1.1328,-2.70703 2.5977,-2.88672 -0.379,-0.44922 -0.6094,-1.02734 -0.6094,-1.66016 0,-1.43359 1.1875,-2.59375 2.6484,-2.59375 z m 36.9063,-26.79687 c 1.2265,0 2.2226,0.97266 2.2226,2.17578 0,1.19922 -0.9961,2.17578 -2.2226,2.17578 -1.2266,0 -2.2227,-0.97656 -2.2227,-2.17578 0,-1.20312 0.9961,-2.17578 2.2227,-2.17578 z M 171.038,53.471994 c 0.8945,0 1.6172,0.71093 1.6172,1.58593 0,0.8711 -0.7227,1.58204 -1.6172,1.58204 -0.8906,0 -1.6133,-0.71094 -1.6133,-1.58204 0,-0.875 0.7227,-1.58593 1.6133,-1.58593 z m -2.7539,-5.09375 c 0.2461,0.27734 0.3945,0.64062 0.3945,1.03906 0,0.875 -0.7226,1.58203 -1.6172,1.58203 -0.8906,0 -1.6171,-0.70703 -1.6171,-1.58203 0,-0.75391 0.539,-1.38281 1.2578,-1.54297 -0.4336,-0.375 -0.7071,-0.92187 -0.7071,-1.53125 0,-0.44141 0.1446,-0.85156 0.3868,-1.18359 -0.125,0.0273 -0.254,0.043 -0.3868,0.043 -0.9687,0 -1.7539,-0.76954 -1.7539,-1.71875 0,-0.94532 0.7852,-1.71485 1.7539,-1.71485 0.9688,0 1.7539,0.76953 1.7539,1.71485 0,0.32812 -0.094,0.63671 -0.2578,0.89843 0.1875,-0.0547 0.3867,-0.0859 0.5938,-0.0859 1.1523,0 2.0898,0.91796 2.0898,2.04687 0,1.0625 -0.832,1.9375 -1.8906,2.03516 z m 10.2109,24.08203 c -0.066,0.27344 -0.1797,0.52344 -0.332,0.75 0.293,-0.16406 0.6289,-0.26172 0.9844,-0.28125 -0.2539,-0.0977 -0.4805,-0.26172 -0.6524,-0.46875 z m -1.3086,7.87109 c 0.8946,0 1.6172,0.71094 1.6172,1.58594 0,0.87109 -0.7226,1.58203 -1.6172,1.58203 -0.8906,0 -1.6171,-0.71094 -1.6171,-1.58203 0,-0.28516 0.078,-0.54688 0.207,-0.77734 -0.3555,0.23828 -0.7891,0.3789 -1.2539,0.3789 -1.2266,0 -2.2227,-0.97265 -2.2227,-2.17578 0,-1.19922 0.9961,-2.17578 2.2227,-2.17578 1.2265,0 2.2226,0.97656 2.2226,2.17578 0,0.44531 -0.1367,0.85938 -0.3711,1.20313 0.2383,-0.13672 0.5157,-0.21485 0.8125,-0.21485 z m -14.3828,47.292966 c 0.5782,0.36328 0.7696,1.10547 0.4258,1.66797 -0.3476,0.55859 -1.0976,0.71875 -1.6797,0.35937 -0.5781,-0.36328 -0.7695,-1.10546 -0.4258,-1.66796 0.3477,-0.5586 1.0977,-0.71875 1.6797,-0.35938 z m -9.5078,5.52344 c 0.7813,0.48437 1.082,1.41797 0.6719,2.08203 -0.4063,0.65625 -1.3516,0.80469 -2.1289,0.34375 -0.7813,0.9375 -2.0899,1.21875 -3.0781,0.60547 -1.0938,-0.67969 -1.3829,-2.19141 -0.6524,-3.37891 0.7344,-1.1875 2.2149,-1.59765 3.3086,-0.92187 0.3867,0.24218 0.6719,0.58593 0.8477,0.98437 0.3398,-0.0117 0.7031,0.0781 1.0312,0.28516 z m 14.0352,-9.48438 -0.012,0.0195 c -0.4805,0.77344 -1.5704,0.96875 -2.4336,0.4336 -0.8672,-0.53906 -1.1797,-1.60547 -0.6993,-2.37891 0.3868,-0.6289 1.1758,-0.875 1.918,-0.66406 0.059,-0.24219 0.1563,-0.48047 0.2969,-0.70703 0.6758,-1.09375 2.0742,-1.45703 3.1211,-0.80469 1.0508,0.64844 1.3476,2.06641 0.6719,3.16016 -0.6211,1.00781 -1.8555,1.39453 -2.8633,0.9414 z m 5.414,-13.65625 c 1.1172,0.69532 1.5039,2.08985 0.8711,3.11719 -0.6367,1.02734 -2.0547,1.29688 -3.1679,0.60547 -1.1172,-0.69531 -1.5079,-2.08984 -0.8711,-3.11719 0.6328,-1.02734 2.0507,-1.29687 3.1679,-0.60547 z m 0,0"
     fill-opacity="1"
     fill-rule="evenodd"
     id="path12" />
</svg>
