<?xml version="1.0" encoding="UTF-8" standalone="no"?>
<svg
   width="214.55692"
   zoomAndPan="magnify"
   viewBox="0 0 160.91769 183.85217"
   height="245.13623"
   preserveAspectRatio="xMidYMid"
   version="1.0"
   id="svg3"
   sodipodi:docname="4.svg"
   xmlns:inkscape="http://www.inkscape.org/namespaces/inkscape"
   xmlns:sodipodi="http://sodipodi.sourceforge.net/DTD/sodipodi-0.dtd"
   xmlns="http://www.w3.org/2000/svg"
   xmlns:svg="http://www.w3.org/2000/svg">
  <sodipodi:namedview
     id="namedview3"
     pagecolor="#ffffff"
     bordercolor="#000000"
     borderopacity="0.25"
     inkscape:showpageshadow="2"
     inkscape:pageopacity="0.0"
     inkscape:pagecheckerboard="0"
     inkscape:deskcolor="#d1d1d1" />
  <defs
     id="defs1">
    <clipPath
       id="b2e986f8ab">
      <path
         d="M 805,81.128906 H 966.39453 V 265.62891 H 805 Z m 0,0"
         clip-rule="nonzero"
         id="path1" />
    </clipPath>
  </defs>
  <g
     clip-path="url(#b2e986f8ab)"
     id="g2"
     transform="translate(-805.47685,-81.468143)">
    <path
       fill="#6f2751"
       d="m 891.86719,81.472656 c 0.98828,-0.04687 1.64843,0.265625 2.0664,1.207032 0.66016,1.492187 0.64063,4.074218 0.85938,5.746093 0.83984,6.488281 2.26172,11.4375 5.6875,17.085939 0.83984,1.38672 1.76562,2.75 2.83594,3.97266 3.38671,3.86328 7.71875,7.01171 11.8789,9.98437 3.9961,2.85547 8.07031,5.60938 12.0586,8.47656 3.9414,2.88672 7.75,5.94141 11.42187,9.16797 15.5,13.67969 26.32031,31.70703 27.61328,52.66016 0.0234,0.40234 0.0469,0.80468 0.0625,1.20312 0.0195,0.40235 0.0352,0.80469 0.043,1.20703 0.0117,0.40235 0.0195,0.80469 0.0234,1.20703 0,0.40235 0,0.80469 -0.004,1.20704 -0.004,0.40234 -0.0117,0.80078 -0.0234,1.20312 -0.0117,0.40234 -0.0273,0.80469 -0.0469,1.20703 -0.0195,0.40235 -0.043,0.80078 -0.0703,1.20313 -0.0274,0.40234 -0.0586,0.80468 -0.0899,1.20312 -0.0351,0.40235 -0.0742,0.80078 -0.11718,1.20313 -0.0391,0.39843 -0.0859,0.79687 -0.13282,1.19531 -0.0508,0.40234 -0.10547,0.80078 -0.16015,1.19531 -0.0586,0.39844 -0.11719,0.79688 -0.17969,1.19531 -0.0664,0.39454 -0.13281,0.79297 -0.20313,1.1875 -0.0742,0.39844 -0.14843,0.79297 -0.22656,1.1875 -0.0781,0.39454 -0.16015,0.78516 -0.24609,1.17969 -0.0859,0.39063 -0.17578,0.78516 -0.26953,1.17578 -0.0937,0.39063 -0.19141,0.78125 -0.28907,1.17188 -0.10156,0.38672 -0.20703,0.77734 -0.3125,1.16406 -0.10937,0.38672 -0.21875,0.77344 -0.33593,1.16016 -0.11328,0.38281 -0.23438,0.76953 -0.35547,1.15234 -0.1211,0.38281 -0.2461,0.76172 -0.375,1.14453 -0.12891,0.37891 -0.26172,0.76172 -0.39844,1.13672 -0.13672,0.37891 -0.27734,0.75781 -0.42187,1.13281 -0.14063,0.375 -0.28907,0.75 -0.4375,1.1211 -0.15235,0.375 -0.30469,0.74609 -0.46094,1.11718 -0.16016,0.3711 -0.32031,0.73829 -0.48438,1.10547 -0.16406,0.36719 -0.32812,0.73438 -0.5,1.09766 -0.17187,0.36328 -0.34375,0.72656 -0.52343,1.08594 -0.17579,0.35937 -0.35938,0.71875 -0.54297,1.07812 -0.1836,0.35547 -0.3711,0.71094 -0.5625,1.06641 -0.19141,0.35547 -0.38282,0.70703 -0.58203,1.05469 -0.19532,0.35156 -0.39844,0.69921 -0.60157,1.04687 -1.51562,2.57813 -3.16406,5.16406 -5.15625,7.40625 -11.77343,13.28516 -25.89843,18.18359 -43.0625,20.625 -5.11328,0.75 -10.2539,1.28516 -15.41406,1.60156 4.69141,0.94141 9.35547,2.34766 12.87891,5.79688 -5.77344,-2.6875 -11.85938,-4.58594 -18.2461,-4.94922 0.61719,0.71484 1.35157,1.35547 1.99219,2.05859 1.16797,1.26953 1.89063,2.70703 2.63281,4.25 0.1836,0.37891 0.55469,0.94141 0.57032,1.36328 -1.90625,-2.87109 -4.76563,-5.24609 -7.29297,-7.55468 -1.78125,1.53125 -3.625,2.96875 -5.3086,4.61328 -1.05859,1.05859 -2.01172,2.11719 -2.88281,3.33984 1.57422,-3.69922 3.17578,-5.33594 5.91406,-8.10156 -0.41015,0.0156 -0.82031,0.043 -1.22656,0.0703 -0.41016,0.0312 -0.82031,0.0625 -1.22656,0.10547 -0.40625,0.0391 -0.81641,0.0859 -1.22266,0.13672 -0.40625,0.0508 -0.8125,0.10937 -1.21484,0.17187 -0.40625,0.0625 -0.8125,0.13282 -1.21485,0.20313 -0.40234,0.0742 -0.80468,0.15625 -1.20703,0.23828 -0.39843,0.0859 -0.80078,0.17578 -1.19922,0.26953 -0.39843,0.0977 -0.79296,0.19922 -1.1914,0.30469 -0.39453,0.10547 -0.78906,0.21875 -1.17969,0.33594 -0.39453,0.11718 -0.78516,0.23828 -1.17578,0.36718 -0.39063,0.125 -0.77734,0.25782 -1.16406,0.39844 -0.38282,0.13672 -0.76953,0.28125 -1.14844,0.42969 -0.38281,0.14844 -0.76172,0.30078 -1.14063,0.46094 -0.3789,0.16015 -0.7539,0.32422 -1.1289,0.49218 -0.3711,0.16797 -0.74219,0.34375 -1.10938,0.52344 -0.37109,0.17969 -0.73437,0.36328 -1.10156,0.55078 2.73047,-3.08593 8.56641,-5.16797 12.55859,-5.76172 -2.15625,-0.22656 -4.32812,-0.29687 -6.48828,-0.51171 -2.21875,-0.21875 -4.42578,-0.51172 -6.625,-0.8711 -2.19922,-0.35937 -4.38281,-0.78906 -6.55468,-1.28906 -2.76954,-0.64063 -5.56641,-1.30859 -8.26172,-2.21484 -14.42578,-4.84766 -27.60157,-14.1875 -35.70703,-27.23047 -12.76172,-20.53125 -10.82813,-46.79297 1.6914,-66.9375 5.34766,-8.60157 12.29297,-15.89453 20.125,-22.26953 3.37891,-2.74219 7.02735,-5.33204 10.63672,-7.76172 7.02734,-4.73828 19.52344,-12.30469 24.0625,-19.15235 2.9375,-4.4375 4.57031,-10.24609 3.66016,-15.566402 -0.22266,-1.3125 -1.21094,-4.28125 -0.78907,-5.445313 0.13282,-0.363281 0.63672,-0.75 0.97266,-0.894531 1.26172,-0.550782 3.50781,0.910156 4.71875,1.347656 5.73047,2.066406 8.25781,-4.175781 12.62891,-6.246094 z m 0,0"
       fill-opacity="1"
       fill-rule="nonzero"
       id="path2" />
  </g>
  <path
     fill="#b54285"
     d="m 86.413771,2.4810764 c -3.39062,2.34375 -7.05078,6.722656 -11.59375,5.898437 -1.48437,-0.265625 -2.79687,-1.0625 -4.25781,-1.40625 l -0.14062,-0.03516 c 0.34375,1.273438 0.70703,2.535156 0.91797,3.8398436 0.89843,5.570312 -0.17969,11.058596 -2.98047,15.937496 -3.99219,6.94922 -10.95703,11.6875 -17.44532,16.11719 -5.07421,3.46875 -10.29687,6.78125 -15.21484,10.46875 -13.94922,10.46094 -25.14062,23.50391 -30.1406202,40.49609 -3.125,10.609377 -3.66797,22.226567 -0.78907,32.960937 1.26563,4.72656 3.13672,9.40625 5.6093802,13.63281 5.14062,8.78516 13.42187,16.34375 22.19531,21.39454 10.25391,5.90625 22.13281,8.80468 33.83594,9.94531 2.90234,0.28515 5.78515,0.5039 8.70312,0.5 -9.76953,-5.11328 -18.22656,-14.32813 -23.61328,-23.85938 -0.61328,-1.09375 -1.19922,-2.20312 -1.7539,-3.32812 -0.55469,-1.125 -1.07422,-2.26563 -1.56641,-3.42188 -0.49609,-1.15234 -0.95703,-2.32031 -1.38672,-3.49609 -0.42969,-1.17969 -0.82812,-2.36719 -1.19531,-3.57031 -0.16016,-0.50391 -0.31641,-1.00782 -0.46875,-1.51563 -0.14844,-0.50781 -0.29297,-1.01562 -0.4336,-1.52344 -0.14062,-0.51171 -0.27343,-1.02343 -0.40234,-1.53515 -0.12891,-0.51172 -0.25391,-1.02735 -0.37109,-1.54297 -0.1211,-0.51563 -0.23438,-1.03125 -0.33985,-1.55078 -0.10937,-0.51563 -0.21093,-1.03516 -0.30859,-1.55469 -0.0977,-0.52344 -0.1875,-1.04297 -0.27344,-1.5625 -0.0859,-0.52344 -0.16797,-1.04687 -0.24219,-1.57031 -0.0742,-0.52344 -0.14453,-1.04688 -0.21093,-1.57422 -0.0625,-0.52344 -0.1211,-1.05078 -0.17578,-1.57422 -0.0508,-0.52734 -0.0977,-1.05469 -0.14063,-1.58203 -0.043,-0.52734 -0.0781,-1.05469 -0.10937,-1.58203 -0.0312,-0.52735 -0.0586,-1.05469 -0.0781,-1.58594 -0.0195,-0.52734 -0.0352,-1.05469 -0.0469,-1.58594 -0.008,-0.52734 -0.0117,-1.05468 -0.008,-1.58593 0,-0.52735 0.008,-1.05469 0.0195,-1.58594 0.0117,-0.52735 0.0312,-1.0586 0.0547,-1.58594 0.0234,-0.52734 0.0547,-1.05469 0.0899,-1.58203 0.0351,-0.53125 0.0742,-1.05469 0.12109,-1.58203 0.043,-0.52735 0.0977,-1.05469 0.15234,-1.57813 0.0586,-0.52734 0.1211,-1.05468 0.1875,-1.57812 0.0664,-0.52344 0.14063,-1.04688 0.21875,-1.57031 0.0781,-0.523437 0.16407,-1.046877 0.25391,-1.566407 0.0898,-0.52344 0.18359,-1.04297 0.28125,-1.5625 0.10156,-0.51953 0.20703,-1.03906 0.32031,-1.55469 0.10938,-0.51562 0.22656,-1.03125 0.34766,-1.54687 0.12109,-0.51563 0.25,-1.02735 0.38281,-1.53907 0.13281,-0.51171 0.26953,-1.02343 0.41406,-1.53125 0.14063,-0.51171 0.28907,-1.01953 0.44532,-1.52343 0.15234,-0.50782 0.3125,-1.01172 0.47656,-1.51172 0.16406,-0.50391 0.33203,-1.00781 0.50781,-1.50391 0.17578,-0.5 0.35547,-0.99609 0.53906,-1.49219 1.22657,-3.25 2.76953,-6.49218 4.38282,-9.57031 1.2539,-2.35937 2.58984,-4.67187 4.01171,-6.9375 1.41797,-2.26562 2.91407,-4.47656 4.49219,-6.63281 1.32813,-1.83203 2.8125,-3.5625 4.11328,-5.41016 7.08203,-10.08593 12.51563,-23.64062 13.61328,-35.94531 0.1836,-2.078124 0.19532,-4.117186 0.14063,-6.203124 -0.0352,-1.34375 -0.16016,-2.742187 -0.0547,-4.0859366 0.36328,1.2773426 0.57031,2.6406246 0.76172,3.9492186 1.83984,12.558592 -3.07031,25.640622 -9.07031,36.457032 -1.38281,2.44922 -2.88672,4.82812 -4.50781,7.1289 -1.67188,2.32813 -3.48829,4.5586 -5.16407,6.89454 -1.5039,2.09765 -2.88281,4.32421 -4.2539,6.51171 -1.78907,2.85157 -3.46875,6.2461 -4.86719,9.32032 -7.8125,17.17578 -8.88672,34.656247 -3.71875,52.785147 0.14453,0.5 0.29297,1 0.44922,1.5 0.15234,0.4961 0.3125,0.99219 0.48047,1.48828 0.16797,0.49219 0.33984,0.98438 0.51562,1.47657 0.17578,0.48828 0.35938,0.97656 0.54688,1.46484 0.1875,0.48438 0.38281,0.96875 0.58203,1.45313 0.19922,0.48046 0.40625,0.96093 0.61328,1.4375 0.21094,0.47656 0.42578,0.95312 0.64453,1.42578 0.22266,0.47265 0.44922,0.9414 0.67969,1.41015 0.23047,0.46485 0.46484,0.92969 0.70703,1.39063 0.24219,0.46484 0.48828,0.92187 0.74219,1.3789 0.25,0.45704 0.50781,0.91016 0.76953,1.36329 0.26172,0.44921 0.52734,0.89843 0.80078,1.34375 0.27344,0.44531 0.55078,0.88671 0.83203,1.32421 0.28125,0.4375 0.56641,0.875 0.85938,1.3086 0.29296,0.42969 0.58593,0.85937 0.88671,1.28515 0.30469,0.42579 0.60938,0.84766 0.91797,1.26563 0.3125,0.41797 0.62891,0.83594 0.94922,1.24609 0.31641,0.41016 0.64063,0.82032 0.97266,1.22266 0.32812,0.40625 0.66406,0.80859 1,1.20312 0.33984,0.39844 0.67969,0.78907 1.02734,1.17969 0.34766,0.39063 0.69922,0.77344 1.05469,1.15625 0.35547,0.37891 0.71484,0.75781 1.07812,1.13281 0.36329,0.3711 0.73438,0.74219 1.10547,1.10547 0.3711,0.36719 0.7461,0.72657 1.12891,1.08203 0.37891,0.35938 0.76562,0.71094 1.15234,1.0586 0.38672,0.34765 0.78125,0.6914 1.17578,1.03125 0.39454,0.33594 0.79688,0.67187 1.19922,1.0039 0.40235,0.32813 0.8086,0.65625 1.22266,0.97657 0.41016,0.32031 0.82422,0.63672 1.24219,0.94922 0.41797,0.3125 0.83984,0.61718 1.26172,0.92187 0.42578,0.30078 0.85546,0.59766 1.28515,0.89063 0.4336,0.29296 0.86719,0.58203 1.30469,0.86328 2.64844,0.125 5.33203,0.0234 7.98047,-0.0703 2.65625,-0.0937 5.44531,-0.16796 8.07422,-0.57421 4.8125,-0.75 10.050779,-2.92579 14.363279,-5.14454 1.35156,-0.70312 2.73047,-1.38281 4.04687,-2.16015 14.16016,-8.34375 24.54688,-20.71094 29.55469,-36.42188 0.15234,-0.48437 0.30078,-0.96484 0.44141,-1.45312 0.14062,-0.48438 0.27734,-0.97266 0.40625,-1.46094 0.1289,-0.48828 0.25,-0.98047 0.36718,-1.47266 0.11719,-0.49218 0.22657,-0.98437 0.33204,-1.47656 0.10546,-0.49609 0.20312,-0.99219 0.29687,-1.48828 0.0937,-0.49609 0.17969,-0.99609 0.25781,-1.49219 0.082,-0.5 0.15235,-1 0.22266,-1.5 0.0664,-0.5039 0.12891,-1.0039 0.18359,-1.50781 0.0547,-0.50391 0.10157,-1.00781 0.14453,-1.50781 0.043,-0.50391 0.082,-1.00781 0.10938,-1.51563 0.0312,-0.5039 0.0547,-1.00781 0.0742,-1.51172 0.0156,-0.50781 0.0273,-1.01171 0.0312,-1.51562 0.004,-0.50781 0.004,-1.01172 -0.004,-1.51953 -0.008,-0.50391 -0.0195,-1.01172 -0.0391,-1.51563 -0.0234,-0.5039 -0.0469,-1.00781 -0.082,-1.51562 -0.0312,-0.50391 -0.0703,-1.00781 -0.11719,-1.51172 -0.043,-0.5 -0.0937,-1.00391 -0.15234,-1.50781 -0.0586,-0.5 -0.1211,-1.00391 -0.19141,-1.50391 -0.0703,-0.5 -0.14453,-0.999997 -0.22656,-1.499997 -0.0859,-0.49609 -0.17188,-0.99609 -0.26563,-1.49219 -0.0976,-0.49609 -0.19922,-0.99218 -0.30468,-1.48437 -0.10938,-0.4961 -0.22266,-0.98828 -0.33985,-1.48047 -0.12109,-0.48828 -0.24609,-0.97656 -0.375,-1.46484 -0.13281,-0.48829 -0.26953,-0.97657 -0.41406,-1.46094 -0.14453,-0.48438 -0.29297,-0.96875 -0.44922,-1.44922 -0.15625,-0.48047 -0.31641,-0.96094 -0.48437,-1.4375 -0.16797,-0.47656 -0.33985,-0.94922 -0.51954,-1.42188 -0.17968,-0.47265 -0.36328,-0.94531 -0.55468,-1.41406 -0.19141,-0.46875 -0.38672,-0.93359 -0.58985,-1.39453 -0.20312,-0.46484 -0.41015,-0.92578 -0.625,-1.38281 -0.21484,-0.45703 -0.43359,-0.91406 -0.65625,-1.36719 -0.22656,-0.44922 -0.45703,-0.90234 -0.69531,-1.34766 -4.06641,-7.83984 -10.19141,-15.39453 -16.6875,-21.35546 -4.63281,-4.25 -9.64062,-8.09375 -14.37891,-12.22266 -2.95312,-2.57031 -5.867179,-5.24219 -8.355459,-8.27344 -3.96875,-4.83984 -6.97266,-10.85547 -8.94141,-16.77343 -1.09375,-3.28516 -1.82813,-6.402349 -2.29297,-9.832036 -0.12891,-0.96875 -0.30469,-1.949219 -0.33203,-2.9218746 0.67187,2.4374996 1.33203,4.9140616 2.13672,7.3164056 0.4375,1.289063 0.90625,2.566405 1.40625,3.832035 0.5,1.26562 1.02734,2.51953 1.58594,3.76172 0.55859,1.24218 1.14453,2.47265 1.76171,3.6875 0.61329,1.21093 1.25782,2.41015 1.92969,3.59765 1.23828,2.19531 2.57422,4.44141 4.1211,6.4336 2.832029,3.63671 6.374999,6.73046 9.871089,9.69531 4.67187,3.96093 9.55469,7.75 13.90625,12.0625 5.28906,5.23437 10.21484,10.96093 13.98437,17.40625 0.35157,0.58984 0.69532,1.18359 1.03125,1.78515 0.33204,0.60157 0.65625,1.21094 0.96875,1.82422 0.3125,0.60938 0.61329,1.22656 0.90625,1.84766 0.29297,0.625 0.57813,1.25 0.84766,1.88281 0.27344,0.62891 0.53516,1.26563 0.78516,1.90625 0.2539,0.64063 0.49218,1.28516 0.72265,1.92969 0.23047,0.64844 0.44922,1.30078 0.65625,1.95703 0.21094,0.65625 0.40625,1.3125 0.59375,1.97656 0.1875,0.66016 0.36328,1.32422 0.52735,1.99219 0.16406,0.66797 0.32031,1.33594 0.46093,2.01172 0.14454,0.67187 0.27344,1.34765 0.39454,2.02344 0.12109,0.67578 0.23046,1.35546 0.32812,2.035147 0.0977,0.67969 0.18359,1.36328 0.26172,2.04688 0.0742,0.68359 0.13672,1.36718 0.19141,2.05468 0.0547,0.6836 0.0937,1.3711 0.125,2.0586 0.0312,0.68359 0.0469,1.37109 0.0547,2.0625 0.008,0.6875 0.004,1.37109 -0.0117,2.05859 -0.0156,0.6875 -0.0391,1.375 -0.0781,2.0625 -0.0352,0.6875 -0.0859,1.3711 -0.14453,2.0586 -0.0625,0.68359 -0.13281,1.36718 -0.21875,2.05078 -0.082,0.68359 -0.17578,1.36328 -0.28125,2.04297 -0.10547,0.67968 -0.22266,1.35546 -0.35156,2.03125 -0.125,0.67578 -0.26563,1.34765 -0.41407,2.01953 -0.15234,0.67187 -0.3125,1.33984 -0.48437,2.0039 -0.17188,0.66797 -0.35547,1.33203 -0.54688,1.98828 -0.19531,0.66016 -0.40234,1.31641 -0.61718,1.97266 -0.21485,0.65234 -0.44141,1.30078 -0.67969,1.94531 -0.23438,0.64453 -0.48438,1.28516 -0.74219,1.92578 -0.25781,0.63672 -0.52344,1.26563 -0.80469,1.89454 -0.27734,0.6289 -0.57031,1.2539 -0.86718,1.87109 -0.30079,0.62109 -0.60938,1.23437 -0.92969,1.84375 -0.32031,0.60937 -0.65235,1.21094 -0.99219,1.80859 -6.68359,11.78125 -17.82812,21.02735 -29.94922,26.8086 -3.22656,1.53906 -6.597649,2.92187 -10.050779,3.87109 l -2.47266,0.65234 c 4.46485,-0.28906 8.886719,-0.92187 13.289069,-1.67187 1.54687,-0.26172 3.10547,-0.45313 4.63672,-0.77734 12.09765,-2.56641 23.82812,-7.74219 32.12109,-17.19141 10.30078,-11.73438 15.23828,-28.29297 14.20703,-43.75781 -1.02344,-15.374997 -7.5625,-29.820317 -17.5625,-41.441407 -3.26953,-3.80078 -6.91797,-7.27344 -10.69141,-10.57031 -4.05078,-3.53906 -8.4375,-6.82813 -12.83593,-9.92969 -2.89844,-2.01172 -5.77735,-4.05469 -8.63282,-6.13281 -4.80859,-3.47656 -9.882809,-7.16797 -13.527339,-11.91406 -3.07812,-4.01563 -5.17578,-8.81641 -6.50781,-13.675785 -0.77344,-2.828125 -1.10938,-5.6835936 -1.37891,-8.5937496 -0.10156,-1.136719 -0.10156,-2.359375 -0.30469,-3.472656 z m -5.41015,6.746093 c 0.3125,0.261719 0.49219,1.9531256 0.60937,2.4453126 0.82032,3.328125 1.80469,6.539063 2.27735,9.949215 0.33203,2.41407 0.40234,4.84375 0.625,7.26954 0.26953,2.94921 0.83984,6.11718 1.83593,8.91015 0.15625,0.44141 0.32032,0.82031 0.59375,1.20703 1.14454,1.64063 2.60157,3.11328 3.91797,4.61719 2.28516,2.58984 4.52344,5.21875 6.71094,7.89453 2.902339,3.60156 5.679689,7.23828 8.230469,11.10547 9.21875,13.98047 13.31641,29.0625 13.32812,45.746093 0.004,3.9375 -0.26171,7.71094 -0.77343,11.61719 -0.19532,1.49609 -0.375,3.01563 -0.67969,4.49609 -3.63281,17.55079 -13.69922,36.59766 -28.953129,46.62891 l -0.13281,-0.10156 c -0.0312,0.0312 -0.043,0.0508 -0.0742,0.0859 l 0.0234,0.11718 -0.0547,-0.082 c -0.0391,0.0469 -0.10156,0.0937 -0.10156,0.11719 l 0.0859,-0.14063 0.0156,0.0234 c 0.0117,-0.0117 0.0195,-0.0195 0.0312,-0.0352 l -0.008,-0.0352 0.0625,-0.0664 0.0195,0.0156 c 0.0469,-0.0469 0.0859,-0.10156 0.10547,-0.1211 1.125,-1.01562 2.34375,-1.9375 3.47266,-2.96484 2.15625,-1.96875 4.10547,-4.125 5.97656,-6.36328 0.53516,-0.64063 1.05859,-1.28516 1.57422,-1.9375 0.515619,-0.65234 1.023439,-1.3125 1.519529,-1.98047 0.49609,-0.66797 0.98437,-1.34375 1.45703,-2.02734 0.47656,-0.67969 0.94531,-1.3711 1.40234,-2.06641 0.45313,-0.69531 0.89844,-1.39844 1.33594,-2.10937 0.4336,-0.70704 0.85938,-1.42579 1.27344,-2.14454 0.41406,-0.72265 0.81641,-1.44921 1.21094,-2.18359 0.39453,-0.73437 0.77343,-1.47266 1.14453,-2.21875 0.37109,-0.74609 0.73437,-1.49609 1.08203,-2.25 0.34766,-0.75781 0.6875,-1.51562 1.01172,-2.28125 0.32812,-0.76562 0.64453,-1.53516 0.94531,-2.3125 0.30469,-0.77344 0.59766,-1.55469 0.87891,-2.33594 0.28125,-0.78515 0.55078,-1.57031 0.80859,-2.36328 0.25781,-0.79297 0.5,-1.58594 0.73438,-2.38281 0.23437,-0.80078 0.45703,-1.60156 0.66796,-2.40625 0.21094,-0.80859 0.41016,-1.61328 0.59766,-2.42578 0.83984,-3.625 1.30469,-7.38281 1.60938,-11.08985 1.42187,-17.292963 -2.33204,-34.796873 -11.53125,-49.570313 -1.29688,-2.07422 -2.65625,-4.10156 -4.08204,-6.08594 -1.42578,-1.98046 -2.914059,-3.91406 -4.468749,-5.80078 -3.34375,-4.05078 -6.91015,-7.9375 -10.21093,-12.01953 1.42578,6.82422 1.53515,13.6875 0.008,20.50391 -1.07031,4.79297 -2.73438,9.70703 -4.00391,14.48437 -1.5039,5.63672 -2.58984,11.54297 -3.35547,17.32813 -1.74218,13.089843 -1.69531,26.167973 -0.49218,39.300783 0.47265,5.16406 1.07422,10.36719 2.05468,15.45703 0.88282,4.5 1.89844,8.97266 3.04688,13.41016 0.77734,2.96484 1.66016,5.89843 2.41016,8.87109 -0.55079,-0.92969 -0.87891,-2.11328 -1.24219,-3.12891 -1.42969,-4.01562 -2.62891,-8.09765 -3.60547,-12.25 -0.60938,-2.55859 -1.27344,-5.11718 -1.79297,-7.69921 -0.26953,-1.29688 -0.52734,-2.59766 -0.76562,-3.90235 -0.23829,-1.30078 -0.46094,-2.60937 -0.66797,-3.91797 -0.20703,-1.30859 -0.39453,-2.62109 -0.57032,-3.93359 -0.17187,-1.31641 -0.32812,-2.62891 -0.46875,-3.94922 -0.14062,-1.31641 -0.26562,-2.63672 -0.37109,-3.95703 -0.10937,-1.32031 -0.19922,-2.64453 -0.27734,-3.96875 -0.0742,-1.32031 -0.12891,-2.64453 -0.17188,-3.97266 -0.043,-1.32422 -0.0664,-2.64843 -0.0742,-3.97265 -0.008,-1.32422 0,-2.64844 0.0234,-3.97657 0.0234,-1.32421 0.0664,-2.64843 0.125,-3.97265 0.0547,-1.32422 0.13281,-2.64844 0.22266,-3.96875 0.0898,-1.32422 0.19531,-2.64453 0.32031,-3.96485 0.125,-1.320313 0.26562,-2.636713 0.42187,-3.953123 0.15625,-1.31641 0.32813,-2.62891 0.51954,-3.94141 0.1875,-1.3125 0.39453,-2.62109 0.61718,-3.92578 0.22266,-1.30859 0.46094,-2.60937 0.71485,-3.91015 0.74218,-3.89063 1.63672,-7.7461 2.6914,-11.5625 1.77735,-6.33594 4.00782,-12.57813 4.19922,-19.22657 0.13672,-4.67578 -0.42578,-9.16796 -1.46484,-13.72656 -0.63672,-2.80469 -1.42578,-5.5625 -1.96485,-8.39062 -0.7539,-3.99219 -0.59375,-8.10938 -0.98046,-12.14063 -0.33594,-3.464842 -1.22657,-6.890624 -1.21094,-10.3867176 z m -7.13672,1.9414066 c 0.59375,1.304687 0.78516,2.957031 0.87891,4.371093 1.02734,15.675778 -13.4375,24.519528 -23.82813,33.359378 -2.44531,2.08593 -4.81641,4.25781 -7.10547,6.51562 -2.28906,2.25391 -4.49609,4.58985 -6.61719,7.00781 -12.01171,13.78125 -19.8789,32.53907 -18.59375,51.011723 0.043,0.65625 0.0977,1.3086 0.16407,1.96094 0.0625,0.65625 0.13672,1.30469 0.22265,1.95703 0.0859,0.64844 0.17969,1.30078 0.28516,1.94922 0.10547,0.64453 0.21875,1.29297 0.34375,1.9375 0.125,0.64063 0.26172,1.28516 0.40625,1.92578 0.14453,0.63672 0.30078,1.27735 0.46484,1.91016 0.16797,0.63672 0.33985,1.26562 0.52344,1.89844 0.1875,0.6289 0.38281,1.2539 0.58594,1.8789 0.20312,0.625 0.41797,1.24219 0.64062,1.85938 0.22266,0.61718 0.45703,1.23047 0.69922,1.83984 0.24219,0.60938 0.4961,1.21875 0.75781,1.82031 0.26172,0.60157 0.53125,1.19922 0.8125,1.79297 0.27735,0.58985 0.57032,1.17969 0.86719,1.76563 0.29688,0.58203 0.60547,1.16406 0.92188,1.73828 0.3164,0.57422 0.64062,1.14453 0.97656,1.70703 0.33594,0.56641 0.67578,1.125 1.02734,1.67969 0.35547,0.55468 0.71485,1.10156 1.08203,1.64453 0.36719,0.54297 0.7461,1.07812 1.13282,1.60937 0.38281,0.53125 0.77734,1.05469 1.17968,1.57422 0.40235,0.51953 0.8125,1.03125 1.23047,1.53906 0.41797,0.50391 0.84375,1.00391 1.27735,1.4961 0.43359,0.49219 0.875,0.97656 1.32031,1.45703 0.44922,0.47656 0.90625,0.94922 1.36719,1.41406 0.46484,0.46485 0.93359,0.92188 1.41406,1.3711 0.47656,0.45312 0.96094,0.89453 1.45312,1.32812 0.48829,0.4375 0.98829,0.86328 1.49219,1.28125 0.50391,0.42188 1.01563,0.83203 1.53125,1.23438 0.51953,0.40234 1.04297,0.80078 1.57031,1.1875 0.53125,0.38671 1.06641,0.76562 1.60938,1.13671 0.53906,0.36719 1.08594,0.73047 1.64062,1.08204 0.55079,0.35546 1.10938,0.69921 1.67188,1.03515 0.56641,0.33594 1.13281,0.66406 1.70703,0.98047 3.16797,1.78906 6.42188,3.39844 9.76563,4.82422 0.76562,0.31641 3.97656,1.26562 4.41015,1.64062 l -0.30078,-0.0547 c -7.92578,-2.46485 -15.23437,-5.95703 -21.98437,-10.82032 -1.41407,-1.01953 -2.84375,-2.03906 -4.15625,-3.1914 -2.85547,-2.51172 -5.67188,-5.30078 -8.07032,-8.25781 -8.28515,-10.21875 -12.79297,-22.84375 -13.62109,-35.90235 -0.42969,-6.71094 0.45312,-13.382813 2.20312,-19.863283 0.1836,-0.66797 0.375,-1.33594 0.57422,-2 0.19922,-0.66406 0.40625,-1.32422 0.6211,-1.98437 0.21875,-0.65625 0.44531,-1.3125 0.67578,-1.96875 0.23437,-0.65235 0.47656,-1.30079 0.72656,-1.94922 0.25391,-0.64453 0.51172,-1.28907 0.78125,-1.92969 0.26563,-0.64063 0.54297,-1.27344 0.82813,-1.90625 0.28515,-0.63281 0.57812,-1.26172 0.8789,-1.88672 0.30078,-0.625 0.60938,-1.24609 0.92578,-1.86328 0.31641,-0.61719 0.64063,-1.23047 0.97657,-1.83594 0.33203,-0.60937 0.67187,-1.21484 1.02343,-1.8125 0.34766,-0.60156 0.70703,-1.19531 1.07032,-1.78515 0.36718,-0.58985 0.73828,-1.17579 1.11718,-1.75391 0.38282,-0.58203 0.76953,-1.15625 1.16407,-1.72656 0.39453,-0.56641 0.79687,-1.13282 1.20703,-1.69141 0.41015,-0.55859 0.82812,-1.11328 1.2539,-1.66406 0.42188,-0.54688 0.85547,-1.08985 1.29688,-1.62891 1.41797,-1.73437 2.98437,-3.39062 4.51172,-5.02734 2.05468,-2.2461 4.19922,-4.39063 6.4414,-6.44531 3.47657,-3.10547 7.01172,-6.14063 10.60938,-9.10157 3.52734,-2.92187 7.05469,-5.72265 10.08594,-9.17968 5.64453,-6.44141 8.44531,-13.88282 7.87109,-22.492191 z m 0,0"
     fill-opacity="1"
     fill-rule="nonzero"
     id="path3" />
</svg>
